<svg width="692" height="33" viewBox="0 0 692 33" fill="none" xmlns="http://www.w3.org/2000/svg">
<path d="M278 14.3045H208.953L202.629 20.1023C197.783 26.9872 196.083 10.5902 193.66 6.69483C191.237 2.79943 186.633 16.6598 183.726 14.3045C180.818 11.9491 179.122 14.3045 175.003 20.1023C170.884 25.9001 169.43 14.3045 165.311 10.5902C161.192 6.87602 162.403 14.3045 157.073 20.1023C151.742 25.9001 153.196 18.1999 146.654 8.68783C143.358 2.31023 139.465 9.77492 137.931 14.3045H0" stroke="#AFAFAF" stroke-width="1.4005"/>
<path d="M692 14.3045H622.953L616.629 20.1023C611.783 26.9872 610.083 10.5902 607.66 6.69483C605.237 2.79943 600.633 16.6598 597.726 14.3045C594.818 11.9491 593.122 14.3045 589.003 20.1023C584.884 25.9001 583.43 14.3045 579.311 10.5902C575.192 6.87602 576.403 14.3045 571.073 20.1023C565.742 25.9001 567.196 18.1999 560.654 8.68783C557.358 2.31023 553.465 9.77492 551.931 14.3045H414" stroke="#AFAFAF" stroke-width="1.4005"/>
<path d="M356.132 21.1066C356.132 22.5718 355.818 23.6708 355.19 24.4034C354.583 25.1151 353.683 25.471 352.49 25.471C351.297 25.471 350.386 25.1047 349.758 24.372C349.13 23.6394 348.816 22.5509 348.816 21.1066V6.85162C348.816 5.40729 349.13 4.32927 349.758 3.61757C350.386 2.90587 351.297 2.55002 352.49 2.55002C353.683 2.55002 354.583 2.90587 355.19 3.61757C355.818 4.32927 356.132 5.40729 356.132 6.85162V21.1066ZM353.966 6.60043C353.966 5.805 353.851 5.22936 353.62 4.87351C353.39 4.49673 353.013 4.30834 352.49 4.30834C351.967 4.30834 351.579 4.49673 351.328 4.87351C351.098 5.22936 350.983 5.805 350.983 6.60043V21.3892C350.983 22.9382 351.485 23.7127 352.49 23.7127C353.474 23.7127 353.966 22.9382 353.966 21.3892V6.60043ZM361.13 3.021C362.427 3.021 363.422 3.38731 364.112 4.11995C364.824 4.85258 365.18 5.97246 365.18 7.47959V10.902C365.18 12.8488 364.5 14.0733 363.139 14.5757V14.6385C363.809 14.8687 364.311 15.2978 364.646 15.9258C365.002 16.5538 365.18 17.3387 365.18 18.2807V21.8287C365.18 22.4567 365.19 22.98 365.211 23.3987C365.253 23.7964 365.326 24.2883 365.431 24.8744V25H363.265C363.16 24.393 363.087 23.8697 363.045 23.4301C363.024 22.9905 363.013 22.4567 363.013 21.8287V17.7783C363.013 16.9829 362.856 16.4073 362.542 16.0514C362.249 15.6746 361.778 15.4862 361.13 15.4862H360.031V25H357.864V3.021H361.13ZM360.031 13.7279H361.13C361.778 13.7279 362.249 13.55 362.542 13.1941C362.856 12.8174 363.013 12.2208 363.013 11.4044V7.07141C363.013 6.27598 362.856 5.70034 362.542 5.34449C362.249 4.96771 361.778 4.77932 361.13 4.77932H360.031V13.7279Z" fill="#AFAFAF"/>
</svg>
