<svg width="1282" height="316" fill="none" xmlns="http://www.w3.org/2000/svg"><path d="M47.763 13.126c0 1.206.708 1.995 2.077 2.308l1.38.313c.8.186 1.16.604 1.16 1.265 0 .835-.708 1.357-1.821 1.357-1.056 0-1.729-.51-1.752-1.31h-1.16c.07 1.438 1.206 2.331 2.912 2.331 1.786 0 2.958-.963 2.958-2.47 0-1.184-.696-1.927-2.065-2.24l-1.38-.325c-.79-.185-1.172-.591-1.172-1.264 0-.824.684-1.358 1.74-1.358.94 0 1.531.488 1.59 1.323h1.148c-.093-1.45-1.125-2.344-2.726-2.344-1.729 0-2.89.975-2.89 2.414zm8.888 6.264c.917 0 1.694-.406 1.984-1.056l.116.917h.928v-3.562c0-1.531-.951-2.274-2.355-2.274-1.462 0-2.436.778-2.436 1.961h.951c0-.684.522-1.09 1.439-1.09.765 0 1.334.336 1.334 1.287v.163l-1.787.139c-1.334.104-2.111.754-2.111 1.798 0 1.033.72 1.717 1.937 1.717zm.313-.847c-.707 0-1.148-.301-1.148-.905 0-.557.394-.928 1.357-1.02l1.45-.116v.301c0 1.067-.626 1.74-1.659 1.74zm5.968.708v-4.757h1.114v-.916h-1.114v-1.775h-1.09v1.775h-1.114v.916h1.113v4.757h1.09zm6.245-5.673v2.993c0 1.218-.545 1.856-1.543 1.856-.835 0-1.357-.464-1.357-1.682v-3.167h-1.09v3.527c0 1.392.742 2.285 2.065 2.285.835 0 1.589-.406 1.914-.998l.116.859h.974v-5.673h-1.079zm6.142-.046a2.631 2.631 0 0 0-.58-.07c-.777 0-1.346.394-1.578.986l-.07-.859h-1.02v5.662h1.09v-3.005c0-1.09.638-1.717 1.67-1.717h.488v-.998zm3.325 5.858c.905 0 1.67-.394 2.042-1.172l.092 1.033h.975v-8.539h-1.079v3.782c-.383-.696-1.114-1.079-1.984-1.079-1.682 0-2.691 1.277-2.691 3.017 0 1.729.997 2.958 2.645 2.958zm.22-.986c-1.114 0-1.763-.835-1.763-2.007 0-1.16.65-1.995 1.763-1.995 1.114 0 1.798.835 1.798 1.995 0 1.183-.684 2.007-1.798 2.007zm6.353.986c.917 0 1.694-.406 1.984-1.056l.116.917h.928v-3.562c0-1.531-.951-2.274-2.355-2.274-1.462 0-2.436.778-2.436 1.961h.951c0-.684.522-1.09 1.439-1.09.765 0 1.334.336 1.334 1.287v.163l-1.787.139c-1.334.104-2.111.754-2.111 1.798 0 1.033.72 1.717 1.937 1.717zm.313-.847c-.707 0-1.148-.301-1.148-.905 0-.557.394-.928 1.357-1.02l1.45-.116v.301c0 1.067-.626 1.74-1.659 1.74zm3.776 3.249c.29.07.592.116.951.116.87 0 1.44-.406 1.822-1.38l2.68-6.95h-1.126l-1.682 4.57-1.647-4.57h-1.149l2.286 5.975-.197.545c-.267.72-.685.8-1.207.8h-.73v.894z" fill="#430D0B"/><path stroke="#430D0B" stroke-width="1.45" d="M.725.725h140.666v29.052H.725z"/><path d="M60.587 46.553c0-2.552-1.66-4.34-4.038-4.34-2.366 0-4.025 1.8-4.025 4.34 0 2.552 1.647 4.339 4.014 4.339 2.378 0 4.049-1.787 4.049-4.34zm-1.195 0c0 1.937-1.137 3.248-2.843 3.248-1.705 0-2.83-1.3-2.83-3.248 0-1.95 1.125-3.237 2.83-3.237 1.706 0 2.843 1.288 2.843 3.237zm4.284 4.2h1.08l2.366-5.674h-1.137l-1.264 3.168c-.198.498-.383.986-.476 1.357a16.68 16.68 0 0 0-.453-1.357l-1.24-3.168h-1.16l2.284 5.673zm6.733.139c1.404 0 2.355-.685 2.634-1.903h-1.021c-.186.65-.743.998-1.59.998-1.079 0-1.705-.662-1.786-1.857l4.385-.011v-.406c0-1.682-1.056-2.796-2.668-2.796-1.648 0-2.773 1.23-2.773 3.005 0 1.763 1.148 2.97 2.82 2.97zm-.046-5.059c.963 0 1.578.627 1.578 1.567h-3.272c.14-.998.742-1.566 1.694-1.566zm7.367-.8a2.633 2.633 0 0 0-.58-.07c-.778 0-1.346.395-1.578.986l-.07-.858h-1.02v5.661h1.09v-3.004c0-1.09.638-1.717 1.67-1.717h.487v-.998zm2.687 5.859c.916 0 1.694-.406 1.983-1.056l.116.916h.929v-3.561c0-1.532-.952-2.274-2.355-2.274-1.462 0-2.437.777-2.437 1.96h.952c0-.684.522-1.09 1.438-1.09.766 0 1.334.337 1.334 1.288v.162l-1.786.14c-1.334.104-2.112.753-2.112 1.798 0 1.032.72 1.717 1.938 1.717zm.313-.847c-.708 0-1.149-.302-1.149-.905 0-.557.395-.928 1.358-1.021l1.45-.116v.302c0 1.067-.626 1.74-1.66 1.74zm5.57.707v-8.538h-1.09v8.538h1.09zm2.952 0v-8.538h-1.09v8.538h1.09z" fill="#430D0B"/><path stroke="#430D0B" stroke-width="1.45" d="M.725 32.227h140.666v29.052H.725z"/><path d="M53.556 82.254v-3.318h2.146l1.567 3.318h1.264l-1.705-3.538c1.044-.336 1.624-1.172 1.624-2.332 0-1.566-1.067-2.517-2.866-2.517H52.42v8.387h1.137zm0-7.366h2.03c1.044 0 1.67.533 1.67 1.508 0 .963-.602 1.531-1.658 1.531h-2.042v-3.04zm5.721 4.524c0 1.752 1.253 2.982 2.959 2.982 1.693 0 2.946-1.23 2.946-2.982 0-1.752-1.253-2.982-2.947-2.982-1.705 0-2.958 1.23-2.958 2.982zm1.102 0c0-1.183.754-2.007 1.857-2.007 1.09 0 1.856.824 1.856 2.007 0 1.183-.766 2.007-1.856 2.007-1.103 0-1.857-.824-1.857-2.007zm5.871 0c0 1.752 1.253 2.982 2.959 2.982 1.693 0 2.946-1.23 2.946-2.982 0-1.752-1.253-2.982-2.947-2.982-1.705 0-2.958 1.23-2.958 2.982zm1.102 0c0-1.183.754-2.007 1.856-2.007 1.091 0 1.857.824 1.857 2.007 0 1.183-.766 2.007-1.856 2.007-1.103 0-1.857-.824-1.857-2.007zm7.333 2.842V78.89c0-.905.545-1.473 1.369-1.473.766 0 1.253.487 1.253 1.38v3.457h1.079V78.89c0-.905.545-1.485 1.369-1.485.765 0 1.264.51 1.264 1.404v3.445h1.068v-3.712c0-1.311-.79-2.123-2.089-2.123-.881 0-1.566.44-1.833 1.148-.29-.707-.916-1.148-1.798-1.148-.8 0-1.404.371-1.694.905l-.104-.743h-.975v5.673h1.091zm13.93-7.366v7.366h1.09v-8.387h-2.853v1.02h1.763z" fill="#430D0B"/><path stroke="#430D0B" stroke-width="1.45" d="M.725 63.728h140.666V92.78H.725z"/><path d="M52.333 113.756v-3.318h2.146l1.566 3.318h1.264l-1.705-3.539c1.044-.336 1.624-1.171 1.624-2.331 0-1.567-1.067-2.518-2.865-2.518h-3.167v8.388h1.137zm0-7.367h2.03c1.044 0 1.67.534 1.67 1.508 0 .963-.603 1.532-1.659 1.532h-2.041v-3.04zm5.72 4.525c0 1.751 1.254 2.981 2.959 2.981 1.694 0 2.947-1.23 2.947-2.981 0-1.752-1.253-2.982-2.947-2.982-1.706 0-2.958 1.23-2.958 2.982zm1.103 0c0-1.184.754-2.007 1.856-2.007 1.09 0 1.856.823 1.856 2.007 0 1.183-.766 2.007-1.856 2.007-1.102 0-1.856-.824-1.856-2.007zm5.87 0c0 1.751 1.254 2.981 2.959 2.981 1.694 0 2.947-1.23 2.947-2.981 0-1.752-1.253-2.982-2.947-2.982-1.706 0-2.958 1.23-2.958 2.982zm1.103 0c0-1.184.754-2.007 1.856-2.007 1.09 0 1.856.823 1.856 2.007 0 1.183-.765 2.007-1.856 2.007-1.102 0-1.856-.824-1.856-2.007zm7.332 2.842v-3.365c0-.904.546-1.473 1.37-1.473.765 0 1.252.487 1.252 1.381v3.457h1.08v-3.365c0-.904.544-1.484 1.368-1.484.766 0 1.265.51 1.265 1.403v3.446h1.067v-3.713c0-1.311-.789-2.123-2.088-2.123-.882 0-1.566.441-1.833 1.149-.29-.708-.917-1.149-1.798-1.149-.8 0-1.404.372-1.694.905l-.105-.742h-.974v5.673h1.09zm17.956-.012v-1.055h-3.875l1.74-1.509c1.486-1.287 2.077-2.134 2.077-3.329 0-1.613-1.079-2.634-2.76-2.634-1.706 0-2.843 1.172-2.878 2.97h1.137c.023-1.195.696-1.949 1.728-1.949 1.01 0 1.613.627 1.613 1.682 0 .894-.383 1.462-1.74 2.634l-2.703 2.332v.87l5.661-.012z" fill="#430D0B"/><path stroke="#430D0B" stroke-width="1.45" d="M.725 95.23h140.666v29.052H.725z"/><path d="M60.587 141.058c0-2.552-1.66-4.339-4.038-4.339-2.366 0-4.025 1.798-4.025 4.339 0 2.552 1.647 4.339 4.014 4.339 2.378 0 4.049-1.787 4.049-4.339zm-1.195 0c0 1.938-1.137 3.249-2.843 3.249-1.705 0-2.83-1.3-2.83-3.249s1.125-3.237 2.83-3.237c1.706 0 2.843 1.288 2.843 3.237zm4.284 4.2h1.08l2.366-5.673h-1.137l-1.264 3.167c-.198.499-.383.986-.476 1.357a16.73 16.73 0 0 0-.453-1.357l-1.24-3.167h-1.16l2.284 5.673zm6.733.139c1.404 0 2.355-.684 2.634-1.903h-1.021c-.186.65-.743.998-1.59.998-1.079 0-1.705-.661-1.786-1.856l4.385-.012v-.406c0-1.682-1.056-2.796-2.668-2.796-1.648 0-2.773 1.23-2.773 3.005 0 1.763 1.148 2.97 2.82 2.97zm-.046-5.058c.963 0 1.578.626 1.578 1.566h-3.272c.14-.998.742-1.566 1.694-1.566zm7.367-.801a2.655 2.655 0 0 0-.58-.069c-.778 0-1.346.394-1.578.986l-.07-.859h-1.02v5.662h1.09v-3.005c0-1.09.638-1.717 1.67-1.717h.487v-.998zm2.687 5.859c.916 0 1.694-.406 1.983-1.056l.116.917h.929v-3.562c0-1.531-.952-2.274-2.355-2.274-1.462 0-2.437.778-2.437 1.961h.952c0-.685.522-1.091 1.438-1.091.766 0 1.334.337 1.334 1.288v.163l-1.786.139c-1.334.104-2.112.754-2.112 1.798 0 1.033.72 1.717 1.938 1.717zm.313-.847c-.708 0-1.149-.302-1.149-.905 0-.557.395-.928 1.358-1.021l1.45-.116v.302c0 1.067-.626 1.74-1.66 1.74zm5.57.708v-8.539h-1.09v8.539h1.09zm2.952 0v-8.539h-1.09v8.539h1.09z" fill="#430D0B"/><path stroke="#430D0B" stroke-width="1.45" d="M.725 126.732h140.666v29.052H.725z"/><path d="M52.372 176.759v-3.318h2.146l1.567 3.318h1.264l-1.705-3.538c1.044-.337 1.624-1.172 1.624-2.332 0-1.566-1.067-2.517-2.866-2.517h-3.167v8.387h1.137zm0-7.367h2.03c1.044 0 1.671.534 1.671 1.509 0 .963-.603 1.531-1.659 1.531h-2.042v-3.04zm5.721 4.525c0 1.752 1.253 2.981 2.959 2.981 1.693 0 2.946-1.229 2.946-2.981 0-1.752-1.253-2.982-2.946-2.982-1.706 0-2.959 1.23-2.959 2.982zm1.102 0c0-1.183.754-2.007 1.857-2.007 1.09 0 1.856.824 1.856 2.007 0 1.183-.766 2.007-1.856 2.007-1.103 0-1.857-.824-1.857-2.007zm5.871 0c0 1.752 1.253 2.981 2.959 2.981 1.693 0 2.946-1.229 2.946-2.981 0-1.752-1.253-2.982-2.946-2.982-1.706 0-2.959 1.23-2.959 2.982zm1.102 0c0-1.183.754-2.007 1.857-2.007 1.09 0 1.856.824 1.856 2.007 0 1.183-.766 2.007-1.856 2.007-1.103 0-1.857-.824-1.857-2.007zm7.333 2.842v-3.364c0-.905.545-1.473 1.369-1.473.766 0 1.253.487 1.253 1.38v3.457h1.079v-3.364c0-.905.545-1.485 1.369-1.485.766 0 1.264.51 1.264 1.404v3.445h1.068v-3.712c0-1.311-.79-2.123-2.089-2.123-.881 0-1.566.441-1.833 1.148-.29-.707-.916-1.148-1.798-1.148-.8 0-1.404.371-1.694.905l-.104-.743h-.975v5.673h1.091zm14.73-4.339c1.335 0 2.031.673 2.031 1.683 0 1.078-.708 1.775-1.798 1.775-1.056 0-1.729-.638-1.729-1.729H85.61c0 1.74 1.183 2.749 2.83 2.749 1.706 0 2.982-1.078 2.982-2.772 0-1.508-1.079-2.471-2.506-2.645l2.297-2.193v-.916h-5.209v1.009h3.77l-2.378 2.285v.754h.836z" fill="#430D0B"/><path stroke="#430D0B" stroke-width="1.45" d="M.725 158.233h140.666v29.052H.725z"/><path d="M36.579 205.268c1.635 0 2.703-1.137 2.703-2.704 0-1.612-1.056-2.691-2.703-2.691h-3.26v8.388h1.137v-2.993h2.123zm-.198-4.374c1.068 0 1.706.603 1.706 1.659 0 1.032-.627 1.694-1.752 1.694h-1.88v-3.353h1.926zm5.667 7.506c.917 0 1.694-.406 1.984-1.056l.116.917h.928v-3.562c0-1.531-.951-2.274-2.355-2.274-1.462 0-2.436.778-2.436 1.961h.951c0-.685.522-1.091 1.439-1.091.765 0 1.334.337 1.334 1.288v.163l-1.787.139c-1.334.104-2.111.754-2.111 1.798 0 1.032.72 1.717 1.937 1.717zm.313-.847c-.707 0-1.148-.302-1.148-.905 0-.557.394-.928 1.357-1.021l1.45-.116v.302c0 1.067-.626 1.74-1.659 1.74zm7.706-5.012a2.655 2.655 0 0 0-.58-.069c-.778 0-1.346.394-1.578.986l-.07-.859h-1.02v5.662h1.09v-3.005c0-1.091.638-1.717 1.67-1.717h.488v-.998zm2.368 5.72v-1.613l.963-1.009 1.66 2.622h1.252l-2.158-3.411 2.17-2.262h-1.37l-2.517 2.668v-5.534h-1.09v8.539h1.09zm5.544-7.019c.394 0 .719-.325.719-.719a.716.716 0 0 0-.72-.72.716.716 0 0 0-.719.72c0 .394.325.719.72.719zm-.534 7.019h1.09v-5.673h-1.09v5.673zm3.996 0v-3.005c0-1.102.592-1.833 1.613-1.833.835 0 1.369.464 1.369 1.613v3.225h1.09v-3.469c0-1.45-.684-2.367-2.18-2.367-.801 0-1.52.383-1.88 1.033l-.116-.87h-.986v5.673h1.09zm5.455-2.982c0 1.59 1.021 2.831 2.634 2.831.893 0 1.635-.395 2.007-1.056v1.137c0 1.079-.696 1.775-1.764 1.775-.951 0-1.577-.487-1.717-1.322h-1.09c.209 1.438 1.264 2.308 2.807 2.308 1.74 0 2.843-1.137 2.843-2.923v-5.441h-.975l-.081.963c-.36-.708-1.067-1.126-1.984-1.126-1.647 0-2.68 1.253-2.68 2.854zm1.09-.023c0-1.044.65-1.879 1.74-1.879 1.115 0 1.764.788 1.764 1.879 0 1.114-.672 1.903-1.775 1.903-1.067 0-1.728-.836-1.728-1.903zm10.373 3.005.743-2.088h3.527l.754 2.088h1.195l-3.075-8.388H80.24l-3.063 8.388h1.183zm2.367-6.578c.058-.174.116-.371.14-.487.022.127.08.324.138.487l1.288 3.503H79.45l1.276-3.503zm8.261.858a2.653 2.653 0 0 0-.58-.069c-.777 0-1.345.394-1.577.986l-.07-.859h-1.02v5.662h1.09v-3.005c0-1.091.638-1.717 1.67-1.717h.487v-.998zm3.5 5.859c1.403 0 2.354-.685 2.633-1.903h-1.021c-.186.65-.743.998-1.59.998-1.078 0-1.705-.661-1.786-1.856l4.385-.012v-.406c0-1.682-1.056-2.796-2.668-2.796-1.647 0-2.773 1.23-2.773 3.005 0 1.763 1.149 2.97 2.82 2.97zm-.047-5.058c.963 0 1.578.626 1.578 1.566h-3.272c.14-.998.743-1.566 1.694-1.566zm5.72 5.058c.917 0 1.694-.406 1.984-1.056l.116.917h.929v-3.562c0-1.531-.952-2.274-2.355-2.274-1.462 0-2.437.778-2.437 1.961h.951c0-.685.523-1.091 1.44-1.091.765 0 1.333.337 1.333 1.288v.163l-1.786.139c-1.334.104-2.112.754-2.112 1.798 0 1.032.72 1.717 1.938 1.717zm.314-.847c-.708 0-1.149-.302-1.149-.905 0-.557.395-.928 1.358-1.021l1.45-.116v.302c0 1.067-.627 1.74-1.66 1.74zm9.242-6.659v7.367h1.09v-8.388h-2.854v1.021h1.764z" fill="#430D0B"/><path stroke="#430D0B" stroke-width="1.45" d="M.725 189.735h140.666v29.052H.725z"/><path d="M37.496 236.77c1.636 0 2.703-1.137 2.703-2.704 0-1.612-1.055-2.691-2.703-2.691h-3.26v8.388h1.137v-2.993h2.123zm-.197-4.374c1.067 0 1.705.603 1.705 1.659 0 1.032-.626 1.694-1.751 1.694h-1.88v-3.353H37.3zm5.667 7.506c.916 0 1.694-.406 1.984-1.056l.116.917h.928v-3.562c0-1.531-.951-2.274-2.355-2.274-1.462 0-2.437.778-2.437 1.961h.952c0-.685.522-1.091 1.438-1.091.766 0 1.335.337 1.335 1.288v.162l-1.787.14c-1.334.104-2.111.754-2.111 1.798 0 1.032.719 1.717 1.937 1.717zm.313-.847c-.708 0-1.148-.302-1.148-.905 0-.557.394-.928 1.357-1.021l1.45-.116v.302c0 1.067-.626 1.74-1.659 1.74zm7.705-5.012a2.653 2.653 0 0 0-.58-.069c-.777 0-1.345.394-1.577.986l-.07-.859h-1.02v5.662h1.09v-3.005c0-1.091.638-1.717 1.67-1.717h.487v-.998zm2.37 5.72v-1.613l.962-1.009 1.659 2.622h1.253l-2.158-3.411 2.17-2.262h-1.37l-2.517 2.668v-5.534h-1.09v8.539h1.09zm5.542-7.019c.395 0 .72-.325.72-.719a.716.716 0 0 0-.72-.72.716.716 0 0 0-.719.72c0 .394.325.719.72.719zm-.533 7.019h1.09v-5.673h-1.09v5.673zm3.996 0v-3.005c0-1.102.592-1.833 1.613-1.833.835 0 1.369.464 1.369 1.613v3.225h1.09v-3.469c0-1.45-.684-2.367-2.181-2.367-.8 0-1.52.383-1.88 1.033l-.115-.87h-.986v5.673h1.09zm5.455-2.982c0 1.59 1.02 2.831 2.633 2.831.894 0 1.636-.395 2.007-1.056v1.137c0 1.079-.696 1.775-1.763 1.775-.951 0-1.578-.487-1.717-1.322h-1.09c.208 1.438 1.264 2.308 2.807 2.308 1.74 0 2.842-1.137 2.842-2.923v-5.441h-.974l-.081.963c-.36-.708-1.068-1.126-1.984-1.126-1.648 0-2.68 1.253-2.68 2.854zm1.09-.023c0-1.044.65-1.879 1.74-1.879 1.114 0 1.764.788 1.764 1.879 0 1.114-.673 1.903-1.775 1.903-1.067 0-1.729-.836-1.729-1.903zm9.538-3.121c0 1.207.708 1.996 2.076 2.309l1.381.313c.8.186 1.16.603 1.16 1.265 0 .835-.707 1.357-1.821 1.357-1.056 0-1.729-.51-1.752-1.311h-1.16c.07 1.439 1.206 2.332 2.912 2.332 1.786 0 2.958-.963 2.958-2.471 0-1.184-.696-1.926-2.065-2.239l-1.38-.325c-.79-.186-1.172-.592-1.172-1.265 0-.823.684-1.357 1.74-1.357.94 0 1.531.487 1.59 1.323h1.148c-.093-1.451-1.126-2.344-2.727-2.344-1.728 0-2.888.975-2.888 2.413zm8.83 6.126v-4.757h1.114v-.916h-1.114v-1.775h-1.09v1.775h-1.114v.916h1.114v4.757h1.09zm3.916.139c.916 0 1.693-.406 1.983-1.056l.116.917h.928v-3.562c0-1.531-.95-2.274-2.355-2.274-1.461 0-2.436.778-2.436 1.961h.951c0-.685.523-1.091 1.44-1.091.765 0 1.333.337 1.333 1.288v.162l-1.786.14c-1.334.104-2.112.754-2.112 1.798 0 1.032.72 1.717 1.938 1.717zm.313-.847c-.708 0-1.149-.302-1.149-.905 0-.557.395-.928 1.358-1.021l1.45-.116v.302c0 1.067-.627 1.74-1.66 1.74zm4.097-2.274c0 1.59 1.021 2.831 2.634 2.831.893 0 1.636-.395 2.007-1.056v1.137c0 1.079-.696 1.775-1.764 1.775-.951 0-1.578-.487-1.717-1.322h-1.09c.209 1.438 1.264 2.308 2.807 2.308 1.741 0 2.843-1.137 2.843-2.923v-5.441h-.975l-.081.963c-.36-.708-1.067-1.126-1.984-1.126-1.647 0-2.68 1.253-2.68 2.854zm1.09-.023c0-1.044.65-1.879 1.74-1.879 1.115 0 1.764.788 1.764 1.879 0 1.114-.673 1.903-1.775 1.903-1.067 0-1.728-.836-1.728-1.903zm8.883 3.144c1.404 0 2.355-.685 2.634-1.903h-1.021c-.186.65-.743.998-1.589.998-1.079 0-1.706-.661-1.787-1.856l4.385-.012v-.406c0-1.682-1.055-2.796-2.668-2.796-1.647 0-2.773 1.23-2.773 3.005 0 1.763 1.149 2.97 2.819 2.97zm-.046-5.058c.963 0 1.578.626 1.578 1.566h-3.272c.139-.998.743-1.566 1.694-1.566z" fill="#430D0B"/><path stroke="#430D0B" stroke-width="1.45" d="M.725 221.237h140.666v29.052H.725z"/><path d="M42.884 271.264v-3.585c0-1.171-.024-2.03-.082-2.436l2.437 6.021h1.067l2.448-6.044c-.058.592-.07 1.16-.07 2.726v3.318h1.114v-8.388h-1.137l-2.889 7.054-2.888-7.054H41.77v8.388h1.114zm10.572.139c.917 0 1.694-.406 1.984-1.055l.116.916h.928v-3.561c0-1.532-.95-2.274-2.355-2.274-1.461 0-2.436.777-2.436 1.96h.951c0-.684.523-1.09 1.439-1.09.766 0 1.334.336 1.334 1.288v.162l-1.786.139c-1.335.105-2.112.754-2.112 1.798 0 1.033.72 1.717 1.938 1.717zm.314-.847c-.708 0-1.149-.301-1.149-.904 0-.557.395-.929 1.358-1.021l1.45-.116v.301c0 1.068-.627 1.74-1.66 1.74zm4.99-6.311c.395 0 .72-.324.72-.719a.715.715 0 0 0-.72-.719.715.715 0 0 0-.719.719c0 .395.325.719.72.719zm-.533 7.019h1.09v-5.673h-1.09v5.673zm3.996 0v-3.005c0-1.102.592-1.833 1.613-1.833.835 0 1.369.464 1.369 1.613v3.225h1.09v-3.469c0-1.45-.684-2.366-2.18-2.366-.801 0-1.52.383-1.88 1.032l-.116-.87h-.986v5.673h1.09zm8.917-6.125c0 1.206.708 1.995 2.077 2.308l1.38.314c.8.185 1.16.603 1.16 1.264 0 .835-.707 1.357-1.82 1.357-1.057 0-1.73-.51-1.753-1.31h-1.16c.07 1.438 1.207 2.331 2.912 2.331 1.787 0 2.958-.963 2.958-2.471 0-1.183-.696-1.926-2.065-2.239l-1.38-.325c-.789-.185-1.172-.591-1.172-1.264 0-.824.685-1.358 1.74-1.358.94 0 1.532.488 1.59 1.323h1.148c-.093-1.45-1.125-2.343-2.726-2.343-1.729 0-2.889.974-2.889 2.413zm8.83 6.125v-4.756h1.114v-.917h-1.113v-1.775H78.88v1.775h-1.114v.917h1.114v4.756h1.09zm3.916.139c.916 0 1.694-.406 1.984-1.055l.116.916h.928v-3.561c0-1.532-.951-2.274-2.355-2.274-1.462 0-2.436.777-2.436 1.96h.95c0-.684.523-1.09 1.44-1.09.765 0 1.334.336 1.334 1.288v.162l-1.787.139c-1.334.105-2.111.754-2.111 1.798 0 1.033.719 1.717 1.937 1.717zm.313-.847c-.707 0-1.148-.301-1.148-.904 0-.557.394-.929 1.357-1.021l1.45-.116v.301c0 1.068-.626 1.74-1.659 1.74zm4.098-2.273c0 1.589 1.02 2.83 2.633 2.83.893 0 1.636-.394 2.007-1.055v1.137c0 1.078-.696 1.775-1.763 1.775-.952 0-1.578-.488-1.717-1.323h-1.09c.208 1.439 1.264 2.309 2.807 2.309 1.74 0 2.842-1.137 2.842-2.924v-5.441h-.975l-.08.963c-.36-.708-1.068-1.125-1.984-1.125-1.648 0-2.68 1.253-2.68 2.854zm1.09-.024c0-1.044.65-1.879 1.74-1.879 1.114 0 1.764.789 1.764 1.879 0 1.114-.673 1.903-1.775 1.903-1.068 0-1.729-.835-1.729-1.903zm8.883 3.144c1.404 0 2.355-.684 2.633-1.902h-1.02c-.186.649-.743.997-1.59.997-1.079 0-1.705-.661-1.787-1.856l4.386-.011v-.406c0-1.683-1.056-2.796-2.669-2.796-1.647 0-2.772 1.229-2.772 3.004 0 1.764 1.148 2.97 2.819 2.97zm-.047-5.058c.963 0 1.578.627 1.578 1.566H96.53c.14-.997.743-1.566 1.694-1.566z" fill="#430D0B"/><path stroke="#430D0B" stroke-width="1.45" d="M.725 252.738h140.666v29.052H.725z"/><path d="M35.297 300.522c1.636 0 2.703-1.137 2.703-2.703 0-1.613-1.056-2.692-2.703-2.692h-3.26v8.388h1.137v-2.993h2.123zm-.197-4.374c1.067 0 1.705.604 1.705 1.659 0 1.033-.626 1.694-1.752 1.694h-1.88v-3.353H35.1zm5.667 7.506c.916 0 1.693-.406 1.983-1.055l.116.916h.928v-3.561c0-1.532-.95-2.274-2.355-2.274-1.461 0-2.436.777-2.436 1.96h.952c0-.684.522-1.09 1.438-1.09.766 0 1.334.336 1.334 1.288V300l-1.786.139c-1.335.105-2.112.754-2.112 1.798 0 1.033.72 1.717 1.938 1.717zm.313-.847c-.708 0-1.149-.301-1.149-.904 0-.557.395-.929 1.358-1.021l1.45-.116v.301c0 1.068-.627 1.74-1.66 1.74zm7.705-5.011a2.598 2.598 0 0 0-.58-.07c-.777 0-1.346.395-1.578.986l-.07-.858h-1.02v5.661h1.09v-3.005c0-1.09.638-1.717 1.67-1.717h.488v-.997zm2.369 5.719v-1.612l.963-1.01 1.659 2.622h1.253l-2.158-3.411 2.17-2.262h-1.37l-2.517 2.668v-5.533h-1.09v8.538h1.09zm5.543-7.019c.395 0 .72-.325.72-.719a.715.715 0 0 0-.72-.719.715.715 0 0 0-.72.719c0 .394.326.719.72.719zm-.534 7.019h1.09v-5.673h-1.09v5.673zm3.997 0v-3.005c0-1.102.591-1.833 1.612-1.833.836 0 1.37.464 1.37 1.613v3.225h1.09v-3.469c0-1.45-.685-2.366-2.181-2.366-.8 0-1.52.383-1.88 1.032l-.116-.87h-.986v5.673h1.09zm5.455-2.981c0 1.589 1.02 2.83 2.633 2.83.893 0 1.636-.394 2.007-1.055v1.137c0 1.078-.696 1.775-1.763 1.775-.952 0-1.578-.488-1.717-1.323h-1.09c.208 1.439 1.264 2.309 2.807 2.309 1.74 0 2.842-1.137 2.842-2.924v-5.441h-.975l-.08.963c-.36-.708-1.068-1.125-1.985-1.125-1.647 0-2.68 1.253-2.68 2.854zm1.09-.024c0-1.044.65-1.879 1.74-1.879 1.114 0 1.764.789 1.764 1.879 0 1.114-.673 1.903-1.775 1.903-1.068 0-1.729-.835-1.729-1.903zm10.373 3.005.742-2.088h3.527l.754 2.088h1.195l-3.074-8.388h-1.265l-3.063 8.388h1.184zm2.366-6.578c.058-.174.116-.371.14-.487.023.128.08.325.139.487l1.288 3.504h-2.843l1.276-3.504zm8.262.859a2.597 2.597 0 0 0-.58-.07c-.778 0-1.346.395-1.578.986l-.07-.858h-1.02v5.661h1.09v-3.005c0-1.09.638-1.717 1.67-1.717h.488v-.997zm3.499 5.858c1.403 0 2.355-.684 2.633-1.902h-1.02c-.186.649-.743.997-1.59.997-1.08 0-1.706-.661-1.787-1.856l4.385-.011v-.406c0-1.683-1.055-2.796-2.668-2.796-1.647 0-2.773 1.229-2.773 3.004 0 1.764 1.149 2.97 2.82 2.97zm-.047-5.058c.963 0 1.578.627 1.578 1.566h-3.272c.14-.997.743-1.566 1.694-1.566zm5.72 5.058c.917 0 1.695-.406 1.985-1.055l.116.916h.928v-3.561c0-1.532-.951-2.274-2.355-2.274-1.462 0-2.437.777-2.437 1.96h.952c0-.684.522-1.09 1.438-1.09.766 0 1.335.336 1.335 1.288V300l-1.787.139c-1.334.105-2.111.754-2.111 1.798 0 1.033.719 1.717 1.937 1.717zm.314-.847c-.707 0-1.148-.301-1.148-.904 0-.557.394-.929 1.357-1.021l1.45-.116v.301c0 1.068-.626 1.74-1.659 1.74zm13.268.697v-1.056h-3.875l1.74-1.508c1.485-1.288 2.077-2.135 2.077-3.33 0-1.613-1.079-2.633-2.761-2.633-1.706 0-2.843 1.171-2.878 2.969h1.137c.024-1.194.696-1.949 1.729-1.949 1.009 0 1.613.627 1.613 1.683 0 .893-.383 1.461-1.741 2.633l-2.703 2.332v.87l5.662-.011z" fill="#430D0B"/><path stroke="#430D0B" stroke-width="1.45" d="M.725 284.24h140.55v30.55H.725z"/><path fill="#DDA734" d="M141.49.725h81.209v29.052H141.49z"/><path d="M154.951 16.594c.858-1.172 1.16-1.88 1.16-2.865 0-1.706-1.346-3.017-3.086-3.017-1.729 0-3.051 1.265-3.051 3.005 0 1.67 1.171 2.924 2.912 2.924.29 0 .591-.058.881-.174l-2.1 2.784h1.323l1.961-2.657zm0-2.877c0 1.149-.789 1.96-1.926 1.96-1.114 0-1.903-.811-1.903-1.96 0-1.148.789-1.984 1.903-1.984 1.137 0 1.926.836 1.926 1.984zm4.319 5.673c.917 0 1.694-.406 1.984-1.056l.116.917h.928v-3.562c0-1.531-.951-2.274-2.355-2.274-1.462 0-2.436.778-2.436 1.961h.951c0-.684.522-1.09 1.439-1.09.765 0 1.334.336 1.334 1.287v.163l-1.787.139c-1.334.104-2.111.754-2.111 1.798 0 1.033.719 1.717 1.937 1.717zm.313-.847c-.707 0-1.148-.301-1.148-.905 0-.557.394-.928 1.357-1.02l1.45-.116v.301c0 1.067-.626 1.74-1.659 1.74zm5.548.708v-3.364c0-.905.545-1.474 1.369-1.474.766 0 1.253.487 1.253 1.38v3.458h1.079v-3.364c0-.905.545-1.485 1.369-1.485.765 0 1.264.51 1.264 1.403v3.446h1.068v-3.712c0-1.311-.789-2.123-2.089-2.123-.881 0-1.566.44-1.833 1.148-.29-.708-.916-1.149-1.798-1.149-.8 0-1.404.372-1.694.905l-.104-.742h-.975v5.673h1.091zm12.492-2.587h3.538v-.975h-3.538v.975zm10.071-4.78v7.367h1.09v-8.388h-2.854v1.021h1.764zm2.857 3.179c0 2.61 1.287 4.339 3.457 4.339 2.158 0 3.445-1.729 3.445-4.34 0-2.598-1.345-4.361-3.445-4.361-2.112 0-3.457 1.763-3.457 4.362zm1.125 0c0-2.088.858-3.341 2.332-3.341 1.473 0 2.32 1.253 2.32 3.34 0 2.066-.847 3.319-2.32 3.319-1.474 0-2.332-1.253-2.332-3.318zm9.03 4.327c.916 0 1.694-.406 1.984-1.056l.116.917h.928v-3.562c0-1.531-.951-2.274-2.355-2.274-1.462 0-2.436.778-2.436 1.961h.951c0-.684.522-1.09 1.438-1.09.766 0 1.335.336 1.335 1.287v.163l-1.787.139c-1.334.104-2.111.754-2.111 1.798 0 1.033.719 1.717 1.937 1.717zm.313-.847c-.708 0-1.148-.301-1.148-.905 0-.557.394-.928 1.357-1.02l1.45-.116v.301c0 1.067-.626 1.74-1.659 1.74zm5.548.708v-3.364c0-.905.545-1.474 1.369-1.474.765 0 1.253.487 1.253 1.38v3.458h1.079v-3.364c0-.905.545-1.485 1.368-1.485.766 0 1.265.51 1.265 1.403v3.446h1.067v-3.712c0-1.311-.789-2.123-2.088-2.123-.882 0-1.566.44-1.833 1.148-.29-.708-.916-1.149-1.798-1.149-.801 0-1.404.372-1.694.905l-.104-.742h-.975v5.673h1.091z" fill="#430D0B"/><path stroke="#430D0B" stroke-width="1.45" d="M141.49.725h81.209v29.052H141.49z"/><path fill="#DDA734" d="M222.699.725h81.209v29.052h-81.209z"/><path d="M232.132 11.884v7.367h1.091v-8.388h-2.854v1.021h1.763zm2.857 3.179c0 2.61 1.288 4.339 3.457 4.339 2.158 0 3.446-1.729 3.446-4.34 0-2.598-1.346-4.361-3.446-4.361-2.111 0-3.457 1.763-3.457 4.362zm1.125 0c0-2.088.859-3.341 2.332-3.341 1.474 0 2.32 1.253 2.32 3.34 0 2.066-.846 3.319-2.32 3.319-1.473 0-2.332-1.253-2.332-3.318zm9.03 4.327c.917 0 1.694-.406 1.984-1.056l.116.917h.928v-3.562c0-1.531-.951-2.274-2.355-2.274-1.462 0-2.436.778-2.436 1.961h.951c0-.684.522-1.09 1.439-1.09.765 0 1.334.336 1.334 1.287v.163l-1.787.139c-1.334.104-2.111.754-2.111 1.798 0 1.033.719 1.717 1.937 1.717zm.314-.847c-.708 0-1.149-.301-1.149-.905 0-.557.394-.928 1.357-1.02l1.451-.116v.301c0 1.067-.627 1.74-1.659 1.74zm5.547.708v-3.364c0-.905.545-1.474 1.369-1.474.766 0 1.253.487 1.253 1.38v3.458h1.079v-3.364c0-.905.545-1.485 1.369-1.485.766 0 1.264.51 1.264 1.403v3.446h1.068v-3.712c0-1.311-.789-2.123-2.089-2.123-.881 0-1.566.44-1.833 1.148-.29-.708-.916-1.149-1.798-1.149-.8 0-1.404.372-1.694.905l-.104-.742h-.974v5.673h1.09zm12.492-2.587h3.538v-.975h-3.538v.975zm10.071-4.78v7.367h1.09v-8.388h-2.854v1.021h1.764zm4.356 0v7.367h1.09v-8.388h-2.854v1.021h1.764zm4.736 7.506c.917 0 1.694-.406 1.984-1.056l.116.917h.928v-3.562c0-1.531-.951-2.274-2.355-2.274-1.462 0-2.436.778-2.436 1.961h.951c0-.684.522-1.09 1.439-1.09.765 0 1.334.336 1.334 1.287v.163l-1.787.139c-1.334.104-2.111.754-2.111 1.798 0 1.033.719 1.717 1.937 1.717zm.313-.847c-.707 0-1.148-.301-1.148-.905 0-.557.394-.928 1.357-1.02l1.45-.116v.301c0 1.067-.626 1.74-1.659 1.74zm5.548.708v-3.364c0-.905.545-1.474 1.369-1.474.765 0 1.253.487 1.253 1.38v3.458h1.079v-3.364c0-.905.545-1.485 1.369-1.485.765 0 1.264.51 1.264 1.403v3.446h1.067v-3.712c0-1.311-.788-2.123-2.088-2.123-.881 0-1.566.44-1.833 1.148-.29-.708-.916-1.149-1.798-1.149-.8 0-1.404.372-1.694.905l-.104-.742h-.975v5.673h1.091z" fill="#430D0B"/><path stroke="#430D0B" stroke-width="1.45" d="M222.699.725h81.209v29.052h-81.209z"/><path fill="#DDA734" d="M303.909.725h81.209v29.052h-81.209z"/><path d="M313.647 11.884v7.367h1.091v-8.388h-2.854v1.021h1.763zm4.356 0v7.367h1.091v-8.388h-2.854v1.021h1.763zm4.736 7.506c.917 0 1.694-.406 1.984-1.056l.116.917h.928v-3.562c0-1.531-.951-2.274-2.355-2.274-1.461 0-2.436.778-2.436 1.961h.951c0-.684.522-1.09 1.439-1.09.766 0 1.334.336 1.334 1.287v.163l-1.787.139c-1.334.104-2.111.754-2.111 1.798 0 1.033.719 1.717 1.937 1.717zm.314-.847c-.708 0-1.149-.301-1.149-.905 0-.557.395-.928 1.357-1.02l1.451-.116v.301c0 1.067-.627 1.74-1.659 1.74zm5.547.708v-3.364c0-.905.545-1.474 1.369-1.474.766 0 1.253.487 1.253 1.38v3.458h1.079v-3.364c0-.905.545-1.485 1.369-1.485.766 0 1.265.51 1.265 1.403v3.446h1.067v-3.712c0-1.311-.789-2.123-2.088-2.123-.882 0-1.567.44-1.833 1.148-.29-.708-.917-1.149-1.799-1.149-.8 0-1.403.372-1.693.905l-.105-.742h-.974v5.673h1.09zm12.492-2.587h3.538v-.975h-3.538v.975zm10.071-4.78v7.367h1.09v-8.388H349.4v1.021h1.763zm8.484 7.355v-1.055h-3.875l1.74-1.509c1.485-1.287 2.077-2.134 2.077-3.33 0-1.612-1.079-2.633-2.762-2.633-1.705 0-2.842 1.172-2.877 2.97h1.137c.023-1.195.696-1.949 1.729-1.949 1.009 0 1.612.627 1.612 1.682 0 .894-.382 1.462-1.74 2.634l-2.703 2.332v.87l5.662-.012zm1.498 2.553h1.091v-3.47c.371.697 1.125 1.08 2.03 1.08 1.682 0 2.634-1.3 2.634-3.028 0-1.74-1.01-2.958-2.634-2.958-.905 0-1.67.406-2.053 1.183l-.082-1.021h-.986v8.214zm1.102-5.372c0-1.183.673-2.007 1.787-2.007 1.114 0 1.775.835 1.775 2.007 0 1.16-.661 1.996-1.775 1.996-1.114 0-1.787-.836-1.787-1.996zm7.177 2.831v-3.364c0-.905.545-1.474 1.369-1.474.766 0 1.253.487 1.253 1.38v3.458h1.079v-3.364c0-.905.545-1.485 1.369-1.485.766 0 1.265.51 1.265 1.403v3.446h1.067v-3.712c0-1.311-.789-2.123-2.088-2.123-.882 0-1.567.44-1.833 1.148-.29-.708-.917-1.149-1.799-1.149-.8 0-1.403.372-1.693.905l-.105-.742h-.974v5.673h1.09z" fill="#430D0B"/><path stroke="#430D0B" stroke-width="1.45" d="M303.909.725h81.209v29.052h-81.209z"/><path fill="#DDA734" d="M385.118.725h81.209v29.052h-81.209z"/><path d="M396.655 11.884v7.367h1.09v-8.388h-2.853v1.021h1.763zm8.484 7.355v-1.055h-3.875l1.74-1.509c1.485-1.287 2.077-2.134 2.077-3.33 0-1.612-1.079-2.633-2.762-2.633-1.705 0-2.842 1.172-2.877 2.97h1.137c.023-1.195.696-1.949 1.729-1.949 1.009 0 1.612.627 1.612 1.682 0 .894-.382 1.462-1.74 2.634l-2.703 2.332v.87l5.662-.012zm1.498 2.553h1.091v-3.47c.371.697 1.125 1.08 2.03 1.08 1.682 0 2.634-1.3 2.634-3.028 0-1.74-1.01-2.958-2.634-2.958-.905 0-1.67.406-2.053 1.183l-.082-1.021h-.986v8.214zm1.102-5.372c0-1.183.673-2.007 1.787-2.007 1.114 0 1.775.835 1.775 2.007 0 1.16-.661 1.996-1.775 1.996-1.114 0-1.787-.836-1.787-1.996zm7.177 2.831v-3.364c0-.905.545-1.474 1.369-1.474.766 0 1.253.487 1.253 1.38v3.458h1.079v-3.364c0-.905.545-1.485 1.369-1.485.766 0 1.264.51 1.264 1.403v3.446h1.068v-3.712c0-1.311-.789-2.123-2.088-2.123-.882 0-1.567.44-1.833 1.148-.29-.708-.917-1.149-1.799-1.149-.8 0-1.403.372-1.693.905l-.105-.742h-.974v5.673h1.09zm12.492-2.587h3.538v-.975h-3.538v.975zm10.071-4.78v7.367h1.09v-8.388h-2.853v1.021h1.763zm3.077 9.908h1.091v-3.47c.371.697 1.125 1.08 2.03 1.08 1.682 0 2.634-1.3 2.634-3.028 0-1.74-1.01-2.958-2.634-2.958-.905 0-1.671.406-2.053 1.183l-.082-1.021h-.986v8.214zm1.102-5.372c0-1.183.673-2.007 1.787-2.007 1.114 0 1.775.835 1.775 2.007 0 1.16-.661 1.996-1.775 1.996-1.114 0-1.787-.836-1.787-1.996zm7.177 2.831v-3.364c0-.905.545-1.474 1.369-1.474.766 0 1.253.487 1.253 1.38v3.458h1.079v-3.364c0-.905.545-1.485 1.369-1.485.766 0 1.264.51 1.264 1.403v3.446h1.068v-3.712c0-1.311-.789-2.123-2.088-2.123-.882 0-1.567.44-1.833 1.148-.291-.708-.917-1.149-1.799-1.149-.8 0-1.403.372-1.693.905l-.105-.742h-.974v5.673h1.09z" fill="#430D0B"/><path stroke="#430D0B" stroke-width="1.45" d="M385.118.725h81.209v29.052h-81.209z"/><path fill="#DDA734" d="M466.327.725h81.209v29.052h-81.209z"/><path d="M480.093 11.884v7.367h1.091v-8.388h-2.854v1.021h1.763zm3.077 9.908h1.091v-3.47c.371.697 1.125 1.08 2.03 1.08 1.682 0 2.634-1.3 2.634-3.028 0-1.74-1.01-2.958-2.634-2.958-.905 0-1.67.406-2.053 1.183l-.081-1.021h-.987v8.214zm1.103-5.372c0-1.183.672-2.007 1.786-2.007 1.114 0 1.775.835 1.775 2.007 0 1.16-.661 1.996-1.775 1.996-1.114 0-1.786-.836-1.786-1.996zm7.176 2.831v-3.364c0-.905.546-1.474 1.369-1.474.766 0 1.253.487 1.253 1.38v3.458h1.079v-3.364c0-.905.545-1.485 1.369-1.485.766 0 1.265.51 1.265 1.403v3.446h1.067v-3.712c0-1.311-.789-2.123-2.088-2.123-.882 0-1.566.44-1.833 1.148-.29-.708-.917-1.149-1.799-1.149-.8 0-1.403.372-1.693.905l-.105-.742h-.974v5.673h1.09zm12.492-2.587h3.538v-.975h-3.538v.975zm14.097 2.575v-1.055h-3.875l1.74-1.509c1.485-1.287 2.077-2.134 2.077-3.33 0-1.612-1.079-2.633-2.761-2.633-1.706 0-2.843 1.172-2.878 2.97h1.137c.024-1.195.696-1.949 1.729-1.949 1.009 0 1.613.627 1.613 1.682 0 .894-.383 1.462-1.741 2.634l-2.703 2.332v.87l5.662-.012zm1.499 2.553h1.09v-3.47c.371.697 1.125 1.08 2.03 1.08 1.683 0 2.634-1.3 2.634-3.028 0-1.74-1.009-2.958-2.634-2.958-.905 0-1.67.406-2.053 1.183l-.081-1.021h-.986v8.214zm1.102-5.372c0-1.183.673-2.007 1.786-2.007 1.114 0 1.775.835 1.775 2.007 0 1.16-.661 1.996-1.775 1.996-1.113 0-1.786-.836-1.786-1.996zm7.176 2.831v-3.364c0-.905.546-1.474 1.369-1.474.766 0 1.253.487 1.253 1.38v3.458h1.079v-3.364c0-.905.545-1.485 1.369-1.485.766 0 1.265.51 1.265 1.403v3.446h1.067v-3.712c0-1.311-.789-2.123-2.088-2.123-.882 0-1.566.44-1.833 1.148-.29-.708-.917-1.149-1.798-1.149-.801 0-1.404.372-1.694.905l-.105-.742h-.974v5.673h1.09z" fill="#430D0B"/><path stroke="#430D0B" stroke-width="1.45" d="M466.327.725h81.209v29.052h-81.209z"/><path fill="#DDA734" d="M547.536.725h81.209v29.052h-81.209z"/><path d="M564.144 19.24v-1.056h-3.875l1.741-1.509c1.485-1.287 2.076-2.134 2.076-3.33 0-1.612-1.079-2.633-2.761-2.633-1.705 0-2.842 1.172-2.877 2.97h1.137c.023-1.195.696-1.949 1.728-1.949 1.01 0 1.613.627 1.613 1.682 0 .894-.383 1.462-1.74 2.634l-2.703 2.332v.87l5.661-.012zm1.499 2.552h1.091v-3.47c.371.697 1.125 1.08 2.03 1.08 1.682 0 2.633-1.3 2.633-3.028 0-1.74-1.009-2.958-2.633-2.958-.905 0-1.671.406-2.054 1.183l-.081-1.021h-.986v8.214zm1.102-5.372c0-1.183.673-2.007 1.787-2.007 1.114 0 1.775.835 1.775 2.007 0 1.16-.661 1.996-1.775 1.996-1.114 0-1.787-.836-1.787-1.996zm7.177 2.831v-3.364c0-.905.545-1.474 1.369-1.474.766 0 1.253.487 1.253 1.38v3.458h1.079v-3.364c0-.905.545-1.485 1.369-1.485.765 0 1.264.51 1.264 1.403v3.446h1.068v-3.712c0-1.311-.789-2.123-2.089-2.123-.881 0-1.566.44-1.833 1.148-.29-.708-.916-1.149-1.798-1.149-.8 0-1.404.372-1.694.905l-.104-.742h-.975v5.673h1.091zm12.492-2.587h3.538v-.975h-3.538v.975zm10.871-1.752c1.334 0 2.03.673 2.03 1.682 0 1.08-.707 1.775-1.798 1.775-1.056 0-1.728-.638-1.728-1.728h-1.126c0 1.74 1.184 2.75 2.831 2.75 1.705 0 2.982-1.08 2.982-2.773 0-1.509-1.079-2.472-2.506-2.646l2.297-2.192v-.917h-5.209v1.01h3.77l-2.378 2.285v.754h.835zm4.645 6.88h1.09v-3.47c.372.697 1.126 1.08 2.031 1.08 1.682 0 2.633-1.3 2.633-3.028 0-1.74-1.009-2.958-2.633-2.958-.905 0-1.671.406-2.054 1.183l-.081-1.021h-.986v8.214zm1.102-5.372c0-1.183.673-2.007 1.787-2.007 1.113 0 1.775.835 1.775 2.007 0 1.16-.662 1.996-1.775 1.996-1.114 0-1.787-.836-1.787-1.996zm7.177 2.831v-3.364c0-.905.545-1.474 1.369-1.474.765 0 1.253.487 1.253 1.38v3.458h1.078v-3.364c0-.905.546-1.485 1.369-1.485.766 0 1.265.51 1.265 1.403v3.446h1.067v-3.712c0-1.311-.789-2.123-2.088-2.123-.882 0-1.566.44-1.833 1.148-.29-.708-.916-1.149-1.798-1.149-.801 0-1.404.372-1.694.905l-.104-.742h-.975v5.673h1.091z" fill="#430D0B"/><path stroke="#430D0B" stroke-width="1.45" d="M547.536.725h81.209v29.052h-81.209z"/><path fill="#DDA734" d="M628.746.725h81.209v29.052h-81.209z"/><path d="M641.777 14.912c1.334 0 2.03.673 2.03 1.682 0 1.08-.707 1.775-1.798 1.775-1.056 0-1.728-.638-1.728-1.728h-1.126c0 1.74 1.184 2.75 2.831 2.75 1.705 0 2.982-1.08 2.982-2.773 0-1.509-1.079-2.472-2.506-2.646l2.297-2.192v-.917h-5.209v1.01h3.77l-2.378 2.285v.754h.835zm4.645 6.88h1.09v-3.47c.372.697 1.126 1.08 2.031 1.08 1.682 0 2.633-1.3 2.633-3.028 0-1.74-1.009-2.958-2.633-2.958-.905 0-1.671.406-2.054 1.183l-.081-1.021h-.986v8.214zm1.102-5.372c0-1.183.673-2.007 1.787-2.007 1.113 0 1.775.835 1.775 2.007 0 1.16-.662 1.996-1.775 1.996-1.114 0-1.787-.836-1.787-1.996zm7.177 2.831v-3.364c0-.905.545-1.474 1.369-1.474.765 0 1.253.487 1.253 1.38v3.458h1.079v-3.364c0-.905.545-1.485 1.368-1.485.766 0 1.265.51 1.265 1.403v3.446h1.067v-3.712c0-1.311-.789-2.123-2.088-2.123-.882 0-1.566.44-1.833 1.148-.29-.708-.916-1.149-1.798-1.149-.801 0-1.404.372-1.694.905l-.104-.742h-.975v5.673h1.091zm12.491-2.587h3.539v-.975h-3.539v.975zm14.724.893v-1.01h-.998v-5.684h-1.473l-3.957 5.685v1.01h4.339v1.693h1.091v-1.694h.998zm-5.198-1.01 3.109-4.477v4.478h-3.109zm6.772 5.245h1.091v-3.47c.371.697 1.125 1.08 2.03 1.08 1.682 0 2.634-1.3 2.634-3.028 0-1.74-1.01-2.958-2.634-2.958-.905 0-1.67.406-2.053 1.183l-.081-1.021h-.987v8.214zm1.103-5.372c0-1.183.672-2.007 1.786-2.007 1.114 0 1.775.835 1.775 2.007 0 1.16-.661 1.996-1.775 1.996-1.114 0-1.786-.836-1.786-1.996zm7.176 2.831v-3.364c0-.905.545-1.474 1.369-1.474.766 0 1.253.487 1.253 1.38v3.458h1.079v-3.364c0-.905.545-1.485 1.369-1.485.766 0 1.265.51 1.265 1.403v3.446h1.067v-3.712c0-1.311-.789-2.123-2.088-2.123-.882 0-1.567.44-1.833 1.148-.29-.708-.917-1.149-1.799-1.149-.8 0-1.403.372-1.693.905l-.105-.742h-.974v5.673h1.09z" fill="#430D0B"/><path stroke="#430D0B" stroke-width="1.45" d="M628.746.725h81.209v29.052h-81.209z"/><path fill="#DDA734" d="M709.955.725h81.209v29.052h-81.209z"/><path d="M726.708 17.557v-1.01h-.998v-5.684h-1.473l-3.956 5.685v1.01h4.339v1.693h1.09v-1.694h.998zm-5.198-1.01 3.11-4.477v4.478h-3.11zm6.773 5.245h1.09v-3.47c.371.697 1.125 1.08 2.03 1.08 1.683 0 2.634-1.3 2.634-3.028 0-1.74-1.009-2.958-2.634-2.958-.905 0-1.67.406-2.053 1.183l-.081-1.021h-.986v8.214zm1.102-5.372c0-1.183.673-2.007 1.786-2.007 1.114 0 1.775.835 1.775 2.007 0 1.16-.661 1.996-1.775 1.996-1.113 0-1.786-.836-1.786-1.996zm7.176 2.831v-3.364c0-.905.546-1.474 1.369-1.474.766 0 1.253.487 1.253 1.38v3.458h1.079v-3.364c0-.905.545-1.485 1.369-1.485.766 0 1.265.51 1.265 1.403v3.446h1.067v-3.712c0-1.311-.789-2.123-2.088-2.123-.882 0-1.566.44-1.833 1.148-.29-.708-.917-1.149-1.798-1.149-.801 0-1.404.372-1.694.905l-.105-.742h-.974v5.673h1.09zm12.492-2.587h3.538v-.975h-3.538v.975zm11.289 2.726c1.81 0 3.051-1.218 3.051-2.958 0-1.613-1.102-2.808-2.807-2.808-.627 0-1.183.174-1.624.51l.557-2.227h3.376v-1.044h-4.2l-1.021 4.304.963.244a2.266 2.266 0 0 1 1.74-.812c1.172 0 1.856.8 1.856 1.88 0 1.136-.731 1.89-1.868 1.89-1.067 0-1.728-.661-1.728-1.74h-1.125c0 1.67 1.113 2.761 2.83 2.761zm4.488 2.402h1.09v-3.47c.372.697 1.126 1.08 2.031 1.08 1.682 0 2.633-1.3 2.633-3.028 0-1.74-1.009-2.958-2.633-2.958-.905 0-1.671.406-2.054 1.183l-.081-1.021h-.986v8.214zm1.102-5.372c0-1.183.673-2.007 1.787-2.007 1.113 0 1.775.835 1.775 2.007 0 1.16-.662 1.996-1.775 1.996-1.114 0-1.787-.836-1.787-1.996zm7.177 2.831v-3.364c0-.905.545-1.474 1.369-1.474.765 0 1.253.487 1.253 1.38v3.458h1.079v-3.364c0-.905.545-1.485 1.369-1.485.765 0 1.264.51 1.264 1.403v3.446h1.067v-3.712c0-1.311-.789-2.123-2.088-2.123-.882 0-1.566.44-1.833 1.148-.29-.708-.916-1.149-1.798-1.149-.801 0-1.404.372-1.694.905l-.104-.742h-.975v5.673h1.091z" fill="#430D0B"/><path stroke="#430D0B" stroke-width="1.45" d="M709.955.725h81.209v29.052h-81.209z"/><path fill="#DDA734" d="M791.164.725h81.209v29.052h-81.209z"/><path d="M804.625 19.39c1.809 0 3.051-1.218 3.051-2.958 0-1.613-1.102-2.808-2.808-2.808-.626 0-1.183.174-1.624.51l.557-2.227h3.376v-1.044h-4.2l-1.021 4.304.963.244a2.268 2.268 0 0 1 1.74-.812c1.172 0 1.857.8 1.857 1.88 0 1.136-.731 1.89-1.868 1.89-1.067 0-1.729-.661-1.729-1.74h-1.125c0 1.67 1.114 2.761 2.831 2.761zm4.487 2.402h1.091v-3.47c.371.697 1.125 1.08 2.03 1.08 1.682 0 2.634-1.3 2.634-3.028 0-1.74-1.01-2.958-2.634-2.958-.905 0-1.671.406-2.053 1.183l-.082-1.021h-.986v8.214zm1.102-5.372c0-1.183.673-2.007 1.787-2.007 1.114 0 1.775.835 1.775 2.007 0 1.16-.661 1.996-1.775 1.996-1.114 0-1.787-.836-1.787-1.996zm7.177 2.831v-3.364c0-.905.545-1.474 1.369-1.474.766 0 1.253.487 1.253 1.38v3.458h1.079v-3.364c0-.905.545-1.485 1.369-1.485.766 0 1.264.51 1.264 1.403v3.446h1.068v-3.712c0-1.311-.789-2.123-2.089-2.123-.881 0-1.566.44-1.833 1.148-.29-.708-.916-1.149-1.798-1.149-.8 0-1.403.372-1.694.905l-.104-.742h-.974v5.673h1.09zm12.492-2.587h3.538v-.975h-3.538v.975zm9.537-3.144c-.858 1.172-1.16 1.868-1.16 2.865 0 1.694 1.346 3.005 3.086 3.005 1.729 0 3.051-1.253 3.051-3.005 0-1.659-1.172-2.912-2.912-2.912-.29 0-.591.058-.881.175l2.099-2.785h-1.322l-1.961 2.657zm0 2.877c0-1.148.789-1.96 1.926-1.96 1.114 0 1.903.812 1.903 1.96 0 1.149-.789 1.972-1.903 1.972-1.137 0-1.926-.823-1.926-1.972zm6.478 5.395h1.09v-3.47c.371.697 1.125 1.08 2.03 1.08 1.682 0 2.634-1.3 2.634-3.028 0-1.74-1.01-2.958-2.634-2.958-.905 0-1.67.406-2.053 1.183l-.081-1.021h-.986v8.214zM847 16.42c0-1.183.673-2.007 1.786-2.007 1.114 0 1.775.835 1.775 2.007 0 1.16-.661 1.996-1.775 1.996-1.113 0-1.786-.836-1.786-1.996zm7.176 2.831v-3.364c0-.905.546-1.474 1.369-1.474.766 0 1.253.487 1.253 1.38v3.458h1.079v-3.364c0-.905.545-1.485 1.369-1.485.766 0 1.265.51 1.265 1.403v3.446h1.067v-3.712c0-1.311-.789-2.123-2.088-2.123-.882 0-1.566.44-1.833 1.148-.29-.708-.917-1.149-1.798-1.149-.801 0-1.404.372-1.694.905l-.105-.742h-.974v5.673h1.09z" fill="#430D0B"/><path stroke="#430D0B" stroke-width="1.45" d="M791.164.725h81.209v29.052h-81.209z"/><path fill="#DDA734" d="M872.374.725h81.209v29.052h-81.209z"/><path d="M884.496 13.52c-.859 1.172-1.16 1.868-1.16 2.865 0 1.694 1.345 3.005 3.086 3.005 1.728 0 3.051-1.253 3.051-3.005 0-1.659-1.172-2.912-2.912-2.912-.29 0-.592.058-.882.175l2.1-2.785h-1.323l-1.96 2.657zm0 2.877c0-1.148.789-1.96 1.926-1.96 1.113 0 1.902.812 1.902 1.96 0 1.149-.789 1.972-1.902 1.972-1.137 0-1.926-.823-1.926-1.972zm6.477 5.395h1.091v-3.47c.371.697 1.125 1.08 2.03 1.08 1.682 0 2.633-1.3 2.633-3.028 0-1.74-1.009-2.958-2.633-2.958-.905 0-1.671.406-2.054 1.183l-.081-1.021h-.986v8.214zm1.102-5.372c0-1.183.673-2.007 1.787-2.007 1.114 0 1.775.835 1.775 2.007 0 1.16-.661 1.996-1.775 1.996-1.114 0-1.787-.836-1.787-1.996zm7.177 2.831v-3.364c0-.905.545-1.474 1.369-1.474.766 0 1.253.487 1.253 1.38v3.458h1.079v-3.364c0-.905.545-1.485 1.369-1.485.765 0 1.264.51 1.264 1.403v3.446h1.068v-3.712c0-1.311-.789-2.123-2.089-2.123-.881 0-1.566.44-1.833 1.148-.29-.708-.916-1.149-1.798-1.149-.8 0-1.404.372-1.694.905l-.104-.742h-.975v5.673h1.091zm12.492-2.587h3.538v-.975h-3.538v.975zm7.994-5.8v1.043h4.71l-3.213 7.344h1.183l3.179-7.344v-1.044h-5.859zm6.955 10.928h1.091v-3.47c.371.697 1.125 1.08 2.03 1.08 1.682 0 2.634-1.3 2.634-3.028 0-1.74-1.01-2.958-2.634-2.958-.905 0-1.67.406-2.053 1.183l-.082-1.021h-.986v8.214zm1.102-5.372c0-1.183.673-2.007 1.787-2.007 1.114 0 1.775.835 1.775 2.007 0 1.16-.661 1.996-1.775 1.996-1.114 0-1.787-.836-1.787-1.996zm7.177 2.831v-3.364c0-.905.545-1.474 1.369-1.474.766 0 1.253.487 1.253 1.38v3.458h1.079v-3.364c0-.905.545-1.485 1.369-1.485.766 0 1.264.51 1.264 1.403v3.446h1.068v-3.712c0-1.311-.789-2.123-2.088-2.123-.882 0-1.567.44-1.833 1.148-.29-.708-.917-1.149-1.799-1.149-.8 0-1.403.372-1.693.905l-.105-.742h-.974v5.673h1.09z" fill="#430D0B"/><path stroke="#430D0B" stroke-width="1.45" d="M872.374.725h81.209v29.052h-81.209z"/><path fill="#DDA734" d="M953.583.725h81.209v29.052h-81.209z"/><path d="M964.083 10.863v1.044h4.71l-3.214 7.344h1.184l3.179-7.344v-1.044h-5.859zm6.955 10.929h1.091v-3.47c.371.697 1.125 1.08 2.03 1.08 1.682 0 2.634-1.3 2.634-3.028 0-1.74-1.01-2.958-2.634-2.958-.905 0-1.671.406-2.053 1.183l-.082-1.021h-.986v8.214zm1.102-5.372c0-1.183.673-2.007 1.787-2.007 1.114 0 1.775.835 1.775 2.007 0 1.16-.661 1.996-1.775 1.996-1.114 0-1.787-.836-1.787-1.996zm7.177 2.831v-3.364c0-.905.545-1.474 1.369-1.474.766 0 1.253.487 1.253 1.38v3.458h1.079v-3.364c0-.905.545-1.485 1.369-1.485.766 0 1.264.51 1.264 1.403v3.446h1.068v-3.712c0-1.311-.789-2.123-2.089-2.123-.881 0-1.566.44-1.833 1.148-.29-.708-.916-1.149-1.798-1.149-.8 0-1.404.372-1.694.905l-.104-.742h-.974v5.673h1.09zm12.492-2.587h3.538v-.975h-3.538v.975zm8.451.255c0 1.485 1.21 2.471 3.08 2.471 1.86 0 3.09-.986 3.09-2.46 0-1.032-.61-1.867-1.55-2.169.79-.313 1.23-.974 1.23-1.833 0-1.322-1.11-2.216-2.76-2.216-1.67 0-2.79.894-2.79 2.205 0 .847.43 1.508 1.22 1.844-.93.337-1.52 1.149-1.52 2.158zm1.34-3.933c0-.777.69-1.288 1.73-1.288 1.06 0 1.72.511 1.72 1.311 0 .813-.66 1.335-1.72 1.335-1.04 0-1.73-.534-1.73-1.358zm-.23 3.852c0-.928.77-1.52 1.96-1.52 1.21 0 1.97.592 1.97 1.52 0 .94-.78 1.543-1.96 1.543-1.19 0-1.97-.603-1.97-1.543zm6.61 4.954h1.09v-3.47c.37.697 1.13 1.08 2.03 1.08 1.69 0 2.64-1.3 2.64-3.028 0-1.74-1.01-2.958-2.64-2.958-.9 0-1.67.406-2.05 1.183l-.08-1.021h-.99v8.214zm1.1-5.372c0-1.183.68-2.007 1.79-2.007 1.11 0 1.78.835 1.78 2.007 0 1.16-.67 1.996-1.78 1.996-1.11 0-1.79-.836-1.79-1.996zm7.18 2.831v-3.364c0-.905.55-1.474 1.37-1.474.77 0 1.25.487 1.25 1.38v3.458h1.08v-3.364c0-.905.55-1.485 1.37-1.485.77 0 1.27.51 1.27 1.403v3.446h1.06v-3.712c0-1.311-.79-2.123-2.09-2.123-.88 0-1.56.44-1.83 1.148-.29-.708-.92-1.149-1.8-1.149-.8 0-1.4.372-1.69.905l-.11-.742h-.97v5.673h1.09z" fill="#430D0B"/><path stroke="#430D0B" stroke-width="1.45" d="M953.583.725h81.209v29.052h-81.209z"/><path fill="#DDA734" d="M1034.79.725h81.209v29.052h-81.209z"/><path d="M1045.21 16.92c0 1.484 1.22 2.47 3.09 2.47 1.85 0 3.08-.986 3.08-2.46 0-1.032-.6-1.867-1.54-2.169.79-.313 1.23-.974 1.23-1.833 0-1.322-1.11-2.216-2.76-2.216-1.67 0-2.8.894-2.8 2.205 0 .847.43 1.508 1.22 1.844-.93.337-1.52 1.149-1.52 2.158zm1.35-3.934c0-.777.68-1.288 1.73-1.288 1.05 0 1.71.511 1.71 1.311 0 .813-.66 1.335-1.71 1.335-1.05 0-1.73-.534-1.73-1.358zm-.23 3.852c0-.928.76-1.52 1.96-1.52s1.97.592 1.97 1.52c0 .94-.78 1.543-1.96 1.543-1.2 0-1.97-.603-1.97-1.543zm6.61 4.954h1.09v-3.47c.37.697 1.12 1.08 2.03 1.08 1.68 0 2.63-1.3 2.63-3.028 0-1.74-1.01-2.958-2.63-2.958-.91 0-1.67.406-2.05 1.183l-.09-1.021h-.98v8.214zm1.1-5.372c0-1.183.67-2.007 1.79-2.007 1.11 0 1.77.835 1.77 2.007 0 1.16-.66 1.996-1.77 1.996-1.12 0-1.79-.836-1.79-1.996zm7.18 2.831v-3.364c0-.905.54-1.474 1.37-1.474.76 0 1.25.487 1.25 1.38v3.458h1.08v-3.364c0-.905.54-1.485 1.37-1.485.76 0 1.26.51 1.26 1.403v3.446h1.07v-3.712c0-1.311-.79-2.123-2.09-2.123-.88 0-1.57.44-1.83 1.148-.29-.708-.92-1.149-1.8-1.149-.8 0-1.4.372-1.69.905l-.11-.742h-.97v5.673h1.09zm12.49-2.587h3.54v-.975h-3.54v.975zm13.35-.07c.86-1.172 1.16-1.88 1.16-2.865 0-1.706-1.34-3.017-3.08-3.017-1.73 0-3.05 1.265-3.05 3.005 0 1.67 1.17 2.924 2.91 2.924.29 0 .59-.058.88-.174l-2.1 2.784h1.32l1.96-2.657zm0-2.877c0 1.149-.79 1.96-1.92 1.96-1.12 0-1.91-.811-1.91-1.96 0-1.148.79-1.984 1.91-1.984 1.13 0 1.92.836 1.92 1.984zm2.66 8.075h1.09v-3.47c.38.697 1.13 1.08 2.03 1.08 1.69 0 2.64-1.3 2.64-3.028 0-1.74-1.01-2.958-2.64-2.958-.9 0-1.67.406-2.05 1.183l-.08-1.021h-.99v8.214zm1.11-5.372c0-1.183.67-2.007 1.78-2.007 1.12 0 1.78.835 1.78 2.007 0 1.16-.66 1.996-1.78 1.996-1.11 0-1.78-.836-1.78-1.996zm7.17 2.831v-3.364c0-.905.55-1.474 1.37-1.474.77 0 1.25.487 1.25 1.38v3.458h1.08v-3.364c0-.905.55-1.485 1.37-1.485.77 0 1.27.51 1.27 1.403v3.446h1.06v-3.712c0-1.311-.78-2.123-2.08-2.123-.89 0-1.57.44-1.84 1.148-.29-.708-.91-1.149-1.8-1.149-.8 0-1.4.372-1.69.905l-.1-.742h-.98v5.673h1.09z" fill="#430D0B"/><path stroke="#430D0B" stroke-width="1.45" d="M1034.79.725h81.209v29.052h-81.209z"/><path fill="#DDA734" d="M1116 .725h81.209v29.052H1116z"/><path d="M1128.7 16.594c.86-1.172 1.16-1.88 1.16-2.865 0-1.706-1.34-3.017-3.08-3.017-1.73 0-3.05 1.265-3.05 3.005 0 1.67 1.17 2.924 2.91 2.924.29 0 .59-.058.88-.174l-2.1 2.784h1.32l1.96-2.657zm0-2.877c0 1.149-.79 1.96-1.92 1.96-1.12 0-1.91-.811-1.91-1.96 0-1.148.79-1.984 1.91-1.984 1.13 0 1.92.836 1.92 1.984zm2.66 8.075h1.09v-3.47c.38.697 1.13 1.08 2.03 1.08 1.69 0 2.64-1.3 2.64-3.028 0-1.74-1.01-2.958-2.64-2.958-.9 0-1.67.406-2.05 1.183l-.08-1.021h-.99v8.214zm1.11-5.372c0-1.183.67-2.007 1.78-2.007 1.12 0 1.78.835 1.78 2.007 0 1.16-.66 1.996-1.78 1.996-1.11 0-1.78-.836-1.78-1.996zm7.17 2.831v-3.364c0-.905.55-1.474 1.37-1.474.77 0 1.25.487 1.25 1.38v3.458h1.08v-3.364c0-.905.55-1.485 1.37-1.485.77 0 1.27.51 1.27 1.403v3.446h1.06v-3.712c0-1.311-.78-2.123-2.08-2.123-.89 0-1.57.44-1.84 1.148-.29-.708-.91-1.149-1.8-1.149-.8 0-1.4.372-1.69.905l-.1-.742h-.98v5.673h1.09zm12.49-2.587h3.54v-.975h-3.54v.975zm10.08-4.78v7.367h1.09v-8.388h-2.86v1.021h1.77zm2.85 3.179c0 2.61 1.29 4.339 3.46 4.339 2.16 0 3.45-1.729 3.45-4.34 0-2.598-1.35-4.361-3.45-4.361-2.11 0-3.46 1.763-3.46 4.362zm1.13 0c0-2.088.86-3.341 2.33-3.341 1.47 0 2.32 1.253 2.32 3.34 0 2.066-.85 3.319-2.32 3.319-1.47 0-2.33-1.253-2.33-3.318zm7.37 6.729h1.09v-3.47c.37.697 1.12 1.08 2.03 1.08 1.68 0 2.63-1.3 2.63-3.028 0-1.74-1.01-2.958-2.63-2.958-.91 0-1.67.406-2.05 1.183l-.09-1.021h-.98v8.214zm1.1-5.372c0-1.183.67-2.007 1.79-2.007 1.11 0 1.77.835 1.77 2.007 0 1.16-.66 1.996-1.77 1.996-1.12 0-1.79-.836-1.79-1.996zm7.18 2.831v-3.364c0-.905.54-1.474 1.37-1.474.76 0 1.25.487 1.25 1.38v3.458h1.08v-3.364c0-.905.54-1.485 1.37-1.485.76 0 1.26.51 1.26 1.403v3.446h1.07v-3.712c0-1.311-.79-2.123-2.09-2.123-.88 0-1.57.44-1.83 1.148-.29-.708-.92-1.149-1.8-1.149-.8 0-1.4.372-1.69.905l-.11-.742h-.97v5.673h1.09z" fill="#430D0B"/><path stroke="#430D0B" stroke-width="1.45" d="M1116 .725h81.209v29.052H1116z"/><path fill="#DDA734" d="M1197.21.725h81.209v29.052h-81.209z"/><path d="M1205.88 11.884v7.367h1.1v-8.388h-2.86v1.021h1.76zm2.86 3.179c0 2.61 1.29 4.339 3.46 4.339 2.16 0 3.44-1.729 3.44-4.34 0-2.598-1.34-4.361-3.44-4.361-2.11 0-3.46 1.763-3.46 4.362zm1.13 0c0-2.088.86-3.341 2.33-3.341 1.47 0 2.32 1.253 2.32 3.34 0 2.066-.85 3.319-2.32 3.319-1.47 0-2.33-1.253-2.33-3.318zm7.37 6.729h1.09v-3.47c.37.697 1.12 1.08 2.03 1.08 1.68 0 2.63-1.3 2.63-3.028 0-1.74-1.01-2.958-2.63-2.958-.91 0-1.67.406-2.05 1.183l-.09-1.021h-.98v8.214zm1.1-5.372c0-1.183.67-2.007 1.79-2.007 1.11 0 1.77.835 1.77 2.007 0 1.16-.66 1.996-1.77 1.996-1.12 0-1.79-.836-1.79-1.996zm7.18 2.831v-3.364c0-.905.54-1.474 1.37-1.474.76 0 1.25.487 1.25 1.38v3.458h1.08v-3.364c0-.905.54-1.485 1.37-1.485.76 0 1.26.51 1.26 1.403v3.446h1.07v-3.712c0-1.311-.79-2.123-2.09-2.123-.88 0-1.57.44-1.83 1.148-.29-.708-.92-1.149-1.8-1.149-.8 0-1.4.372-1.69.905l-.11-.742h-.97v5.673h1.09zm12.49-2.587h3.54v-.975h-3.54v.975zm10.07-4.78v7.367h1.09v-8.388h-2.85v1.021h1.76zm4.36 0v7.367h1.09v-8.388h-2.86v1.021h1.77zm3.07 9.908h1.09v-3.47c.37.697 1.13 1.08 2.03 1.08 1.69 0 2.64-1.3 2.64-3.028 0-1.74-1.01-2.958-2.64-2.958-.9 0-1.67.406-2.05 1.183l-.08-1.021h-.99v8.214zm1.1-5.372c0-1.183.68-2.007 1.79-2.007 1.12 0 1.78.835 1.78 2.007 0 1.16-.66 1.996-1.78 1.996-1.11 0-1.79-.836-1.79-1.996zm7.18 2.831v-3.364c0-.905.55-1.474 1.37-1.474.77 0 1.25.487 1.25 1.38v3.458h1.08v-3.364c0-.905.55-1.485 1.37-1.485.77 0 1.27.51 1.27 1.403v3.446h1.06v-3.712c0-1.311-.79-2.123-2.08-2.123-.89 0-1.57.44-1.84 1.148-.29-.708-.91-1.149-1.8-1.149-.8 0-1.4.372-1.69.905l-.1-.742h-.98v5.673h1.09z" fill="#430D0B"/><path stroke="#430D0B" stroke-width="1.45" d="M1197.21.725h81.209v29.052h-81.209z"/><path fill="#F7D597" fill-opacity=".26" d="M141.725 28.725h81.55v29.55h-81.55z"/><path stroke="#430D0B" stroke-width="1.45" d="M141.725 28.725h81.55v29.55h-81.55z"/><path fill="#EB920D" fill-opacity=".39" d="M223.275 28.725h488.55v29.55h-488.55z"/><path d="M429.845 40.156h2.529V47.5h1.137v-7.344h2.517v-1.044h-6.183v1.044zm9.93 1.625a2.63 2.63 0 0 0-.58-.07c-.777 0-1.346.394-1.578.986l-.069-.858h-1.021V47.5h1.09v-3.005c0-1.09.638-1.717 1.671-1.717h.487v-.997zm3.499 5.858c1.404 0 2.355-.684 2.633-1.902h-1.02c-.186.65-.743.997-1.59.997-1.079 0-1.705-.661-1.786-1.856l4.385-.011v-.406c0-1.683-1.056-2.797-2.668-2.797-1.648 0-2.773 1.23-2.773 3.005 0 1.764 1.148 2.97 2.819 2.97zm-.046-5.058c.962 0 1.577.627 1.577 1.566h-3.271c.139-.997.742-1.566 1.694-1.566zm5.72 5.058c.917 0 1.694-.406 1.984-1.056l.116.917h.928v-3.562c0-1.531-.951-2.274-2.355-2.274-1.462 0-2.436.778-2.436 1.961h.951c0-.684.522-1.09 1.439-1.09.765 0 1.334.336 1.334 1.287v.163l-1.787.139c-1.334.104-2.111.754-2.111 1.798 0 1.033.719 1.717 1.937 1.717zm.314-.847c-.708 0-1.149-.301-1.149-.905 0-.556.394-.928 1.357-1.02l1.451-.116v.301c0 1.067-.627 1.74-1.659 1.74zm3.992-.94c0 1.08.847 1.787 2.182 1.787 1.345 0 2.273-.684 2.273-1.763 0-.847-.475-1.288-1.438-1.52l-.998-.244c-.557-.139-.835-.394-.835-.777 0-.522.383-.824 1.067-.824.661 0 1.044.36 1.067.928h1.045c-.024-1.078-.836-1.775-2.077-1.775-1.253 0-2.135.662-2.135 1.706 0 .835.476 1.334 1.485 1.578l.998.232c.592.15.777.383.777.765 0 .523-.441.836-1.206.836-.72 0-1.16-.348-1.16-.928h-1.045zm9.818-4.025v2.993c0 1.218-.545 1.856-1.543 1.856-.835 0-1.357-.464-1.357-1.682v-3.167h-1.091v3.527c0 1.392.743 2.285 2.065 2.285.835 0 1.59-.406 1.914-.998l.116.859h.975v-5.673h-1.079zm6.142-.046a2.638 2.638 0 0 0-.581-.07c-.777 0-1.345.394-1.577.986l-.07-.858h-1.021V47.5h1.091v-3.005c0-1.09.638-1.717 1.67-1.717h.488v-.997zm3.498 5.858c1.404 0 2.355-.684 2.634-1.902h-1.021c-.186.65-.743.997-1.589.997-1.079 0-1.706-.661-1.787-1.856l4.385-.011v-.406c0-1.683-1.055-2.797-2.668-2.797-1.647 0-2.773 1.23-2.773 3.005 0 1.764 1.149 2.97 2.819 2.97zm-.046-5.058c.963 0 1.578.627 1.578 1.566h-3.272c.139-.997.743-1.566 1.694-1.566zm8.845 4.919v-3.724h4.153V47.5h1.137v-8.388h-1.137v3.608h-4.153v-3.608h-1.137V47.5h1.137zm11.203-5.673v2.993c0 1.218-.545 1.856-1.543 1.856-.835 0-1.357-.464-1.357-1.682v-3.167h-1.091v3.527c0 1.392.743 2.285 2.065 2.285.836 0 1.59-.406 1.915-.998l.116.859h.974v-5.673h-1.079zm3.984 5.673v-3.005c0-1.102.592-1.833 1.613-1.833.835 0 1.369.464 1.369 1.613V47.5h1.09v-3.469c0-1.45-.684-2.367-2.181-2.367-.8 0-1.52.383-1.879 1.033l-.116-.87h-.987V47.5h1.091zm7.416 0v-4.757h1.113v-.916h-1.113v-1.775h-1.091v1.775h-1.114v.916h1.114V47.5h1.091z" fill="#430D0B"/><path stroke="#430D0B" stroke-width="1.45" d="M223.275 28.725h488.55v29.55h-488.55z"/><path fill="#F7D597" fill-opacity=".26" d="M711.825 28.725h563.55v29.55h-563.55z"/><path stroke="#430D0B" stroke-width="1.45" d="M711.825 28.725h563.55v29.55h-563.55z"/><path fill="#F7D597" fill-opacity=".26" d="M141.725 60.725h162.55v29.55h-162.55z"/><path stroke="#430D0B" stroke-width="1.45" d="M141.725 60.725h162.55v29.55h-162.55z"/><path fill="#D8D87A" fill-opacity=".75" d="M304.275 60.725h321.55v29.55h-321.55z"/><path d="m460.501 80.057.742-.673-.881-.998c.684-.765 1.09-1.833 1.09-3.086 0-2.552-1.659-4.339-4.037-4.339-2.367 0-4.026 1.799-4.026 4.34 0 2.552 1.648 4.338 4.014 4.338.824 0 1.566-.22 2.193-.603l.905 1.02zm-.244-4.757c0 .894-.243 1.66-.673 2.216l-1.113-1.253-.743.673 1.102 1.241a2.71 2.71 0 0 1-1.415.372c-1.706 0-2.831-1.3-2.831-3.249s1.125-3.236 2.831-3.236c1.705 0 2.842 1.287 2.842 3.236zm6.617-1.473v2.993c0 1.218-.545 1.856-1.543 1.856-.835 0-1.357-.464-1.357-1.682v-3.167h-1.091v3.527c0 1.392.743 2.285 2.065 2.285.835 0 1.589-.406 1.914-.998l.116.859h.975v-5.673h-1.079zm3.427-1.346a.723.723 0 0 0 .719-.72.716.716 0 0 0-.719-.718.716.716 0 0 0-.72.719c0 .394.325.72.72.72zm-.534 7.019h1.091v-5.673h-1.091V79.5zm6.978 0v-.916h-3.086l3.086-3.864v-.893h-4.42v.916h3.063l-3.063 3.875v.882h4.42z" fill="#430D0B"/><path stroke="#430D0B" stroke-width="1.45" d="M304.275 60.725h321.55v29.55h-321.55z"/><path fill="#F7D597" fill-opacity=".61" d="M625.825 60.725h161.55v29.55h-161.55z"/><path d="M672.117 76.507c1.636 0 2.703-1.137 2.703-2.703 0-1.613-1.055-2.692-2.703-2.692h-3.26V79.5h1.137v-2.993h2.123zm-.197-4.374c1.067 0 1.705.603 1.705 1.66 0 1.032-.626 1.693-1.751 1.693h-1.88v-3.353h1.926zm3.603 4.525c0 1.751 1.253 2.981 2.958 2.981 1.694 0 2.947-1.23 2.947-2.981 0-1.752-1.253-2.982-2.947-2.982-1.705 0-2.958 1.23-2.958 2.982zm1.102 0c0-1.184.754-2.007 1.856-2.007 1.09 0 1.856.823 1.856 2.007 0 1.183-.766 2.007-1.856 2.007-1.102 0-1.856-.824-1.856-2.007zm5.778 1.195c0 1.079.847 1.786 2.181 1.786 1.346 0 2.274-.684 2.274-1.763 0-.847-.476-1.288-1.439-1.52l-.998-.244c-.556-.139-.835-.394-.835-.777 0-.522.383-.824 1.067-.824.662 0 1.045.36 1.068.928h1.044c-.023-1.078-.835-1.774-2.077-1.774-1.253 0-2.134.66-2.134 1.705 0 .835.475 1.334 1.485 1.578l.997.232c.592.15.778.383.778.765 0 .523-.441.836-1.207.836-.719 0-1.16-.348-1.16-.928h-1.044zM689.9 79.5v-4.757h1.114v-.916H689.9v-1.775h-1.09v1.775h-1.114v.916h1.114V79.5h1.09zm4.716.14c1.404 0 2.355-.685 2.633-1.903h-1.021c-.185.65-.742.997-1.589.997-1.079 0-1.705-.661-1.787-1.856l4.386-.011v-.407c0-1.682-1.056-2.795-2.669-2.795-1.647 0-2.772 1.23-2.772 3.004 0 1.764 1.148 2.97 2.819 2.97zm-.047-5.059c.963 0 1.578.626 1.578 1.566h-3.271c.139-.998.742-1.566 1.693-1.566zm7.367-.8a2.63 2.63 0 0 0-.58-.07c-.777 0-1.346.394-1.578.986l-.069-.858h-1.021V79.5h1.09v-3.005c0-1.09.638-1.717 1.671-1.717h.487v-.998zm5.959 5.719v-3.585c0-1.172-.024-2.03-.082-2.436l2.437 6.021h1.067l2.448-6.044c-.058.591-.07 1.16-.07 2.726V79.5h1.114v-8.388h-1.137l-2.889 7.054-2.888-7.054h-1.114V79.5h1.114zm10.572.14c.917 0 1.694-.407 1.984-1.056l.116.916h.928v-3.562c0-1.531-.951-2.273-2.355-2.273-1.461 0-2.436.777-2.436 1.96h.951c0-.684.522-1.09 1.439-1.09.766 0 1.334.336 1.334 1.287v.163l-1.787.139c-1.334.104-2.111.754-2.111 1.798 0 1.033.719 1.717 1.937 1.717zm.314-.848c-.708 0-1.149-.301-1.149-.905 0-.556.395-.928 1.358-1.02l1.45-.117v.302c0 1.067-.627 1.74-1.659 1.74zm5.57.708v-1.613l.963-1.009 1.659 2.622h1.253l-2.158-3.41 2.17-2.263h-1.369l-2.518 2.668v-5.534h-1.09V79.5h1.09zm5.544-7.019a.723.723 0 0 0 .719-.72.716.716 0 0 0-.719-.718.716.716 0 0 0-.72.719c0 .394.325.72.72.72zm-.534 7.019h1.091v-5.673h-1.091V79.5zm3.996 0v-3.005c0-1.102.592-1.833 1.613-1.833.835 0 1.369.464 1.369 1.613V79.5h1.09v-3.469c0-1.45-.684-2.367-2.181-2.367-.8 0-1.519.383-1.879 1.033l-.116-.87h-.986V79.5h1.09zm5.455-2.981c0 1.589 1.021 2.83 2.634 2.83.893 0 1.635-.394 2.007-1.056v1.137c0 1.08-.696 1.775-1.764 1.775-.951 0-1.577-.487-1.717-1.322h-1.09c.209 1.438 1.264 2.309 2.807 2.309 1.741 0 2.843-1.137 2.843-2.924v-5.441h-.975l-.081.963c-.36-.708-1.067-1.126-1.984-1.126-1.647 0-2.68 1.254-2.68 2.855zm1.091-.024c0-1.044.649-1.88 1.74-1.88 1.114 0 1.763.79 1.763 1.88 0 1.114-.673 1.903-1.775 1.903-1.067 0-1.728-.835-1.728-1.903z" fill="#430D0B"/><path stroke="#430D0B" stroke-width="1.45" d="M625.825 60.725h161.55v29.55h-161.55z"/><path fill="#F7D597" fill-opacity=".26" d="M787.374 60.725h488.55v29.55h-488.55z"/><path stroke="#430D0B" stroke-width="1.45" d="M787.374 60.725h488.55v29.55h-488.55z"/><path fill="#F7D597" fill-opacity=".26" d="M141.725 92.725h162.419v29.003H141.725z"/><path stroke="#430D0B" stroke-width="1.45" d="M141.725 92.725h162.419v29.003H141.725z"/><path fill="#CAC136" d="M304.144 92.725h323.55v29.55h-323.55z"/><path d="M450.262 111.5c2.483 0 4.153-1.694 4.153-4.188 0-2.506-1.694-4.2-4.199-4.2h-2.727v8.388h2.773zm-.128-7.344c1.915 0 3.098 1.207 3.098 3.156 0 1.926-1.183 3.132-3.051 3.132h-1.555v-6.288h1.508zm8.222 7.483c1.404 0 2.355-.684 2.633-1.902h-1.02c-.186.649-.743.997-1.59.997-1.079 0-1.705-.661-1.786-1.856l4.385-.012v-.406c0-1.682-1.056-2.795-2.668-2.795-1.648 0-2.773 1.229-2.773 3.004 0 1.764 1.148 2.97 2.819 2.97zm-.046-5.058c.962 0 1.577.627 1.577 1.566h-3.271c.139-.997.742-1.566 1.694-1.566zm5.104 4.919.081-1.033c.371.778 1.126 1.172 2.019 1.172 1.647 0 2.668-1.23 2.668-2.947 0-1.751-.974-3.027-2.599-3.027-.928 0-1.693.394-2.065 1.136v-3.84h-1.09v8.539h.986zm.116-2.854c0-1.16.673-1.995 1.787-1.995 1.113 0 1.775.835 1.775 1.995 0 1.172-.662 2.007-1.775 2.007-1.114 0-1.787-.824-1.787-2.007zm7.745 2.993c.917 0 1.694-.406 1.984-1.056l.116.917h.928v-3.562c0-1.531-.951-2.273-2.355-2.273-1.462 0-2.436.777-2.436 1.96h.951c0-.684.522-1.09 1.439-1.09.765 0 1.334.336 1.334 1.287v.163l-1.787.139c-1.334.104-2.111.754-2.111 1.798 0 1.033.719 1.717 1.937 1.717zm.313-.847c-.707 0-1.148-.301-1.148-.905 0-.556.394-.928 1.357-1.021l1.45-.116v.302c0 1.067-.626 1.74-1.659 1.74zm5.968.708v-4.757h1.113v-.916h-1.113v-1.775h-1.091v1.775h-1.113v.916h1.113v4.757h1.091zm4.715.139c1.404 0 2.355-.684 2.634-1.902h-1.021c-.186.649-.742.997-1.589.997-1.079 0-1.706-.661-1.787-1.856l4.385-.012v-.406c0-1.682-1.055-2.795-2.668-2.795-1.647 0-2.773 1.229-2.773 3.004 0 1.764 1.149 2.97 2.819 2.97zm-.046-5.058c.963 0 1.578.627 1.578 1.566h-3.272c.139-.997.743-1.566 1.694-1.566z" fill="#430D0B"/><path stroke="#430D0B" stroke-width="1.45" d="M304.144 92.725h323.55v29.55h-323.55z"/><path fill="#F7D597" fill-opacity=".26" d="M627.694 92.725h647.55v29.55h-647.55z"/><path stroke="#430D0B" stroke-width="1.45" d="M627.694 92.725h647.55v29.55h-647.55z"/><path fill="#F7D597" fill-opacity=".26" d="M141.725 124.725h81.209v29.003h-81.209z"/><path stroke="#430D0B" stroke-width="1.45" d="M141.725 124.725h81.209v29.003h-81.209z"/><path fill="#BFBF72" fill-opacity=".73" d="M222.934 124.725h490.55v29.55h-490.55z"/><path d="M453.366 137.874c0 1.207.707 1.996 2.076 2.309l1.381.313c.8.186 1.16.604 1.16 1.265 0 .835-.708 1.357-1.821 1.357-1.056 0-1.729-.51-1.752-1.311h-1.16c.069 1.439 1.206 2.332 2.912 2.332 1.786 0 2.958-.963 2.958-2.471 0-1.183-.696-1.926-2.065-2.239l-1.381-.325c-.789-.185-1.171-.591-1.171-1.264 0-.824.684-1.358 1.74-1.358.939 0 1.531.488 1.589 1.323h1.149c-.093-1.45-1.126-2.344-2.727-2.344-1.728 0-2.888.975-2.888 2.413zm8.888 6.265c.916 0 1.694-.406 1.984-1.056l.116.917h.928v-3.562c0-1.531-.951-2.273-2.355-2.273-1.462 0-2.436.777-2.436 1.96h.951c0-.684.522-1.09 1.438-1.09.766 0 1.335.336 1.335 1.287v.163l-1.787.139c-1.334.104-2.111.754-2.111 1.798 0 1.033.719 1.717 1.937 1.717zm.313-.847c-.707 0-1.148-.301-1.148-.905 0-.556.394-.928 1.357-1.021l1.45-.116v.302c0 1.067-.626 1.74-1.659 1.74zm3.82-4.965v.916h.835V144h1.091v-4.757h1.346v-.916h-1.346v-.905c0-.615.185-.974.893-.974h.487v-.94a4.448 4.448 0 0 0-.673-.047c-1.032 0-1.798.569-1.798 1.961v.905h-.835zm5.995 5.812c.917 0 1.694-.406 1.984-1.056l.116.917h.928v-3.562c0-1.531-.951-2.273-2.355-2.273-1.462 0-2.436.777-2.436 1.96h.951c0-.684.522-1.09 1.438-1.09.766 0 1.335.336 1.335 1.287v.163l-1.787.139c-1.334.104-2.111.754-2.111 1.798 0 1.033.719 1.717 1.937 1.717zm.313-.847c-.707 0-1.148-.301-1.148-.905 0-.556.394-.928 1.357-1.021l1.45-.116v.302c0 1.067-.626 1.74-1.659 1.74zm7.706-5.011a2.603 2.603 0 0 0-.58-.07c-.778 0-1.346.394-1.578.986l-.07-.858h-1.021V144h1.091v-3.005c0-1.09.638-1.717 1.67-1.717h.488v-.997zm1.788-1.3a.722.722 0 0 0 .719-.719.715.715 0 0 0-.719-.719.715.715 0 0 0-.719.719c0 .394.325.719.719.719zm-.534 7.019h1.091v-5.673h-1.091V144z" fill="#430D0B"/><path stroke="#430D0B" stroke-width="1.45" d="M222.934 124.725h490.55v29.55h-490.55z"/><path fill="#F7D597" fill-opacity=".26" d="M713.484 124.725h561.55v29.55h-561.55z"/><path stroke="#430D0B" stroke-width="1.45" d="M713.484 124.725h561.55v29.55h-561.55z"/><path fill="#F7D597" fill-opacity=".26" d="M141.725 156.725h125.55v29.55h-125.55z"/><path stroke="#430D0B" stroke-width="1.45" d="M141.725 156.725h125.55v29.55h-125.55z"/><path fill="#A0FF7F" fill-opacity=".32" d="M267.275 156.725h360.55v29.55h-360.55z"/><path d="M409.017 169.374c0 1.207.708 1.996 2.077 2.309l1.38.313c.801.186 1.16.604 1.16 1.265 0 .835-.707 1.357-1.821 1.357-1.056 0-1.729-.51-1.752-1.311h-1.16c.07 1.439 1.207 2.332 2.912 2.332 1.787 0 2.958-.963 2.958-2.471 0-1.183-.696-1.926-2.065-2.239l-1.38-.325c-.789-.185-1.172-.591-1.172-1.264 0-.824.685-1.358 1.74-1.358.94 0 1.532.488 1.59 1.323h1.148c-.093-1.45-1.125-2.344-2.726-2.344-1.729 0-2.889.975-2.889 2.413zm11.151.453v2.993c0 1.218-.545 1.856-1.543 1.856-.836 0-1.358-.464-1.358-1.682v-3.167h-1.09v3.527c0 1.392.742 2.285 2.065 2.285.835 0 1.589-.406 1.914-.997l.116.858h.975v-5.673h-1.079zm6.141-.046a2.596 2.596 0 0 0-.58-.07c-.777 0-1.346.394-1.578.986l-.069-.858h-1.021v5.661h1.09v-3.005c0-1.09.639-1.717 1.671-1.717h.487v-.997zm1.255 8.26h1.091v-3.469c.371.696 1.125 1.079 2.03 1.079 1.682 0 2.633-1.3 2.633-3.028 0-1.74-1.009-2.958-2.633-2.958-.905 0-1.671.406-2.054 1.183l-.081-1.021h-.986v8.214zm1.102-5.372c0-1.183.673-2.007 1.787-2.007 1.114 0 1.775.836 1.775 2.007 0 1.16-.661 1.996-1.775 1.996-1.114 0-1.787-.836-1.787-1.996zm9.335-2.888a2.603 2.603 0 0 0-.58-.07c-.778 0-1.346.394-1.578.986l-.07-.858h-1.021v5.661h1.091v-3.005c0-1.09.638-1.717 1.671-1.717h.487v-.997zm1.788-1.3c.395 0 .72-.325.72-.719a.716.716 0 0 0-.72-.719.715.715 0 0 0-.719.719c0 .394.325.719.719.719zm-.533 7.019h1.09v-5.673h-1.09v5.673zm2.441-1.647c0 1.079.847 1.786 2.181 1.786 1.346 0 2.274-.684 2.274-1.763 0-.847-.475-1.288-1.438-1.52l-.998-.244c-.557-.139-.835-.394-.835-.777 0-.522.383-.824 1.067-.824.661 0 1.044.36 1.067.929h1.044c-.023-1.079-.835-1.775-2.076-1.775-1.253 0-2.135.661-2.135 1.705 0 .835.476 1.334 1.485 1.578l.998.232c.592.151.777.383.777.765 0 .522-.441.836-1.206.836-.72 0-1.16-.348-1.16-.928h-1.045zm8.345 1.786c1.403 0 2.355-.684 2.633-1.902h-1.021c-.185.649-.742.997-1.589.997-1.079 0-1.706-.661-1.787-1.856l4.385-.012v-.406c0-1.682-1.055-2.795-2.668-2.795-1.647 0-2.773 1.229-2.773 3.004 0 1.764 1.149 2.97 2.82 2.97zm-.047-5.058c.963 0 1.578.627 1.578 1.566h-3.272c.14-.997.743-1.566 1.694-1.566zm12.825 4.919v-1.056h-3.98v-2.656h3.585v-1.01h-3.585v-2.622h3.98v-1.044h-5.117v8.388h5.117zm3.136 0h1.079l2.366-5.673h-1.137L467 172.994c-.198.499-.383.986-.476 1.357a16.896 16.896 0 0 0-.452-1.357l-1.242-3.167h-1.16l2.286 5.673zm6.732.139c1.404 0 2.355-.684 2.634-1.902h-1.021c-.186.649-.743.997-1.59.997-1.079 0-1.705-.661-1.786-1.856l4.385-.012v-.406c0-1.682-1.056-2.795-2.668-2.795-1.648 0-2.773 1.229-2.773 3.004 0 1.764 1.149 2.97 2.819 2.97zm-.046-5.058c.963 0 1.578.627 1.578 1.566h-3.272c.139-.997.742-1.566 1.694-1.566zm5.209 4.919v-3.005c0-1.102.591-1.833 1.612-1.833.836 0 1.369.464 1.369 1.613v3.225h1.091v-3.469c0-1.45-.685-2.366-2.181-2.366-.801 0-1.52.382-1.88 1.032l-.116-.87h-.986v5.673h1.091zm7.415 0v-4.757h1.114v-.916h-1.114v-1.775h-1.09v1.775h-1.114v.916h1.114v4.757h1.09z" fill="#430D0B"/><path stroke="#430D0B" stroke-width="1.45" d="M267.275 156.725h360.55v29.55h-360.55z"/><path fill="#F7D597" fill-opacity=".26" d="M627.825 156.725h646.55v29.55h-646.55z"/><path stroke="#430D0B" stroke-width="1.45" d="M627.825 156.725h646.55v29.55h-646.55z"/><path fill="#F7D597" fill-opacity=".26" d="M141.725 188.725h80.55v29.55h-80.55z"/><path stroke="#430D0B" stroke-width="1.45" d="M141.725 188.725h80.55v29.55h-80.55z"/><path fill="#BFBF72" fill-opacity=".73" d="M222.275 188.725h168.55v29.55h-168.55z"/><path d="M277.75 207.5v-1.056h-3.979v-2.656h3.585v-1.01h-3.585v-2.622h3.979v-1.044h-5.116v8.388h5.116zm2.784 0v-3.005c0-1.102.592-1.833 1.613-1.833.835 0 1.369.464 1.369 1.613v3.225h1.09v-3.469c0-1.45-.684-2.366-2.181-2.366-.8 0-1.519.382-1.879 1.032l-.116-.87h-.986v5.673h1.09zm7.416 0v-4.757h1.114v-.916h-1.114v-1.775h-1.091v1.775h-1.113v.916h1.113v4.757h1.091zm5.573-5.719a2.603 2.603 0 0 0-.58-.07c-.778 0-1.346.394-1.578.986l-.07-.858h-1.021v5.661h1.091v-3.005c0-1.09.638-1.717 1.67-1.717h.488v-.997zm.879 8.26c.29.069.592.116.952.116.87 0 1.438-.406 1.821-1.381l2.68-6.949h-1.125l-1.683 4.571-1.647-4.571h-1.149l2.286 5.975-.197.545c-.267.719-.685.8-1.207.8h-.731v.894zm13.405-5.534c1.636 0 2.703-1.137 2.703-2.703 0-1.613-1.055-2.692-2.703-2.692h-3.26v8.388h1.137v-2.993h2.123zm-.197-4.374c1.067 0 1.706.603 1.706 1.659 0 1.033-.627 1.694-1.752 1.694h-1.88v-3.353h1.926zm5.667 7.506c.917 0 1.694-.406 1.984-1.056l.116.917h.928v-3.562c0-1.531-.951-2.273-2.355-2.273-1.462 0-2.436.777-2.436 1.96h.951c0-.684.522-1.09 1.439-1.09.765 0 1.334.336 1.334 1.287v.163l-1.787.139c-1.334.104-2.111.754-2.111 1.798 0 1.033.719 1.717 1.937 1.717zm.313-.847c-.707 0-1.148-.301-1.148-.905 0-.556.394-.928 1.357-1.021l1.45-.116v.302c0 1.067-.626 1.74-1.659 1.74zm7.706-5.011a2.603 2.603 0 0 0-.58-.07c-.778 0-1.346.394-1.578.986l-.07-.858h-1.021v5.661h1.091v-3.005c0-1.09.638-1.717 1.67-1.717h.488v-.997zm2.687 5.858c.916 0 1.694-.406 1.984-1.056l.116.917h.928v-3.562c0-1.531-.951-2.273-2.355-2.273-1.462 0-2.437.777-2.437 1.96h.952c0-.684.522-1.09 1.438-1.09.766 0 1.335.336 1.335 1.287v.163l-1.787.139c-1.334.104-2.112.754-2.112 1.798 0 1.033.72 1.717 1.938 1.717zm.313-.847c-.708 0-1.148-.301-1.148-.905 0-.556.394-.928 1.357-1.021l1.45-.116v.302c0 1.067-.626 1.74-1.659 1.74zm6.731.847c.905 0 1.671-.394 2.042-1.172l.093 1.033h.974v-8.539h-1.079v3.782c-.383-.696-1.114-1.078-1.984-1.078-1.682 0-2.691 1.276-2.691 3.016 0 1.728.998 2.958 2.645 2.958zm.22-.986c-1.113 0-1.763-.835-1.763-2.007 0-1.16.65-1.995 1.763-1.995 1.114 0 1.799.835 1.799 1.995 0 1.183-.685 2.007-1.799 2.007zm7.142.986c1.404 0 2.355-.684 2.634-1.902h-1.021c-.186.649-.743.997-1.59.997-1.078 0-1.705-.661-1.786-1.856l4.385-.012v-.406c0-1.682-1.056-2.795-2.668-2.795-1.648 0-2.773 1.229-2.773 3.004 0 1.764 1.149 2.97 2.819 2.97zm-.046-5.058c.963 0 1.578.627 1.578 1.566h-3.272c.139-.997.743-1.566 1.694-1.566z" fill="#430D0B"/><path stroke="#430D0B" stroke-width="1.45" d="M222.275 188.725h168.55v29.55h-168.55z"/><path fill="#F7D597" fill-opacity=".26" d="M390.825 188.725h886.55v29.55h-886.55z"/><path stroke="#430D0B" stroke-width="1.45" d="M390.825 188.725h886.55v29.55h-886.55z"/><path fill="#F7D597" fill-opacity=".26" d="M141.725 220.725h487.55v29.55h-487.55z"/><path stroke="#430D0B" stroke-width="1.45" d="M141.725 220.725h487.55v29.55h-487.55z"/><path fill="#CAC136" d="M629.275 220.725h167.55v29.55h-167.55z"/><path d="M682.065 239.5h-2.773v-8.388h2.727c2.506 0 4.199 1.694 4.199 4.2 0 2.494-1.67 4.188-4.153 4.188zm-.128-7.344h-1.508v6.288h1.555c1.868 0 3.051-1.206 3.051-3.132 0-1.949-1.183-3.156-3.098-3.156zm7.433 7.483c-1.218 0-1.937-.684-1.937-1.717 0-1.044.777-1.694 2.111-1.798l1.787-.139v-.163c0-.951-.569-1.287-1.334-1.287-.917 0-1.439.406-1.439 1.09h-.951c0-1.183.974-1.96 2.436-1.96 1.404 0 2.355.742 2.355 2.273v3.562h-.928l-.116-.917c-.29.65-1.067 1.056-1.984 1.056zm.313-.847c1.033 0 1.659-.673 1.659-1.74v-.302l-1.45.116c-.963.093-1.357.465-1.357 1.021 0 .604.441.905 1.148.905zm5.548.708h-1.091v-5.673h.987l.116.87c.359-.65 1.079-1.032 1.879-1.032 1.497 0 2.181.916 2.181 2.366v3.469h-1.09v-3.225c0-1.149-.534-1.613-1.369-1.613-1.021 0-1.613.731-1.613 1.833v3.005zm5.443-2.831c0-1.775 1.126-3.004 2.785-3.004 1.427 0 2.424.812 2.621 2.076h-1.09c-.186-.719-.766-1.102-1.497-1.102-1.032 0-1.74.789-1.74 2.019 0 1.218.661 2.007 1.694 2.007.777 0 1.357-.406 1.555-1.079h1.09c-.22 1.23-1.276 2.053-2.645 2.053-1.671 0-2.773-1.183-2.773-2.97zm9.249 2.97c-1.671 0-2.82-1.206-2.82-2.97 0-1.775 1.126-3.004 2.773-3.004 1.613 0 2.669 1.113 2.669 2.795v.406l-4.386.012c.081 1.195.708 1.856 1.787 1.856.847 0 1.404-.348 1.589-.997h1.021c-.278 1.218-1.23 1.902-2.633 1.902zm-.047-5.058c-.951 0-1.554.569-1.694 1.566h3.272c0-.939-.615-1.566-1.578-1.566zm7.708 4.919v-8.388h3.202c1.636 0 2.634.836 2.634 2.216 0 .963-.418 1.613-1.253 1.961.928.301 1.404.974 1.404 1.972 0 1.392-1.01 2.239-2.669 2.239h-3.318zm3.133-7.378h-1.996v2.691h2.065c.94 0 1.474-.51 1.474-1.38 0-.836-.557-1.311-1.543-1.311zm.162 3.677h-2.158v2.692h2.158c.975 0 1.52-.499 1.52-1.369 0-.836-.557-1.323-1.52-1.323zm5.82 3.84c-1.218 0-1.937-.684-1.937-1.717 0-1.044.777-1.694 2.111-1.798l1.787-.139v-.163c0-.951-.569-1.287-1.334-1.287-.917 0-1.439.406-1.439 1.09h-.951c0-1.183.974-1.96 2.436-1.96 1.404 0 2.355.742 2.355 2.273v3.562h-.928l-.116-.917c-.29.65-1.067 1.056-1.984 1.056zm.314-.847c1.032 0 1.659-.673 1.659-1.74v-.302l-1.451.116c-.963.093-1.357.465-1.357 1.021 0 .604.441.905 1.149.905zm5.967.708h-1.091v-4.757h-1.113v-.916h1.113v-1.775h1.091v1.775h1.114v.916h-1.114v4.757zm4.027 0h-1.09v-4.757h-1.114v-.916h1.114v-1.775h1.09v1.775h1.114v.916h-1.114v4.757zm3.438 0h-1.09v-8.539h1.09v8.539zm4.286.139c-1.671 0-2.819-1.206-2.819-2.97 0-1.775 1.125-3.004 2.772-3.004 1.613 0 2.669 1.113 2.669 2.795v.406l-4.386.012c.081 1.195.708 1.856 1.787 1.856.847 0 1.404-.348 1.589-.997h1.021c-.278 1.218-1.23 1.902-2.633 1.902zm-.047-5.058c-.951 0-1.554.569-1.694 1.566h3.272c0-.939-.615-1.566-1.578-1.566z" fill="#430D0B"/><path stroke="#430D0B" stroke-width="1.45" d="M629.275 220.725h167.55v29.55h-167.55z"/><path fill="#F7D597" fill-opacity=".26" d="M1276.375 220.725h-479.55v29.55h479.55z"/><path stroke="#430D0B" stroke-width="1.45" d="M1276.375 220.725h-479.55v29.55h479.55z"/><path fill="#F7D597" fill-opacity=".26" d="M141.725 252.725h81.209v29.003h-81.209z"/><path stroke="#430D0B" stroke-width="1.45" d="M141.725 252.725h81.209v29.003h-81.209z"/><path fill="#FB9A08" fill-opacity=".65" d="M222.934 252.725h246.55v29.55h-246.55z"/><path d="M285.243 271.5v-3.585c0-1.172-.023-2.03-.081-2.436l2.436 6.021h1.067l2.448-6.044c-.058.591-.069 1.16-.069 2.726v3.318h1.113v-8.388h-1.137l-2.888 7.054-2.889-7.054h-1.114v8.388h1.114zm12.162-5.719a2.596 2.596 0 0 0-.58-.07c-.777 0-1.346.394-1.578.986l-.069-.858h-1.021v5.661h1.09v-3.005c0-1.09.639-1.717 1.671-1.717h.487v-.997zm6.318 5.858c.917 0 1.694-.406 1.984-1.056l.116.917h.928v-3.562c0-1.531-.951-2.273-2.355-2.273-1.462 0-2.436.777-2.436 1.96h.951c0-.684.522-1.09 1.439-1.09.766 0 1.334.336 1.334 1.287v.163l-1.787.139c-1.334.104-2.111.754-2.111 1.798 0 1.033.719 1.717 1.937 1.717zm.314-.847c-.708 0-1.149-.301-1.149-.905 0-.556.395-.928 1.357-1.021l1.451-.116v.302c0 1.067-.627 1.74-1.659 1.74zm5.547.708v-3.005c0-1.102.592-1.833 1.613-1.833.835 0 1.369.464 1.369 1.613v3.225h1.09v-3.469c0-1.45-.684-2.366-2.181-2.366-.8 0-1.52.382-1.879 1.032l-.116-.87h-.986v5.673h1.09zm8.089.139c.904 0 1.67-.394 2.041-1.172l.093 1.033h.975v-8.539h-1.079v3.782c-.383-.696-1.114-1.078-1.984-1.078-1.682 0-2.692 1.276-2.692 3.016 0 1.728.998 2.958 2.646 2.958zm.22-.986c-1.114 0-1.763-.835-1.763-2.007 0-1.16.649-1.995 1.763-1.995 1.114 0 1.798.835 1.798 1.995 0 1.183-.684 2.007-1.798 2.007zm9.398.847v-3.585c0-1.172-.024-2.03-.082-2.436l2.437 6.021h1.067l2.448-6.044c-.058.591-.07 1.16-.07 2.726v3.318h1.114v-8.388h-1.137l-2.889 7.054-2.888-7.054h-1.114v8.388h1.114zm8.449-1.647c0 1.079.847 1.786 2.181 1.786 1.346 0 2.274-.684 2.274-1.763 0-.847-.475-1.288-1.438-1.52l-.998-.244c-.557-.139-.835-.394-.835-.777 0-.522.383-.824 1.067-.824.661 0 1.044.36 1.067.929h1.045c-.024-1.079-.836-1.775-2.077-1.775-1.253 0-2.135.661-2.135 1.705 0 .835.476 1.334 1.485 1.578l.998.232c.592.151.777.383.777.765 0 .522-.441.836-1.206.836-.72 0-1.16-.348-1.16-.928h-1.045zm10.624 1.647v-3.724h4.153v3.724h1.137v-8.388h-1.137v3.608h-4.153v-3.608h-1.137v8.388h1.137zm8.94.139c.917 0 1.694-.406 1.984-1.056l.116.917h.928v-3.562c0-1.531-.951-2.273-2.355-2.273-1.461 0-2.436.777-2.436 1.96h.951c0-.684.522-1.09 1.439-1.09.766 0 1.334.336 1.334 1.287v.163l-1.787.139c-1.334.104-2.111.754-2.111 1.798 0 1.033.719 1.717 1.937 1.717zm.314-.847c-.708 0-1.149-.301-1.149-.905 0-.556.395-.928 1.357-1.021l1.451-.116v.302c0 1.067-.627 1.74-1.659 1.74zm4.457 3.249h1.09v-3.469c.371.696 1.126 1.079 2.03 1.079 1.683 0 2.634-1.3 2.634-3.028 0-1.74-1.009-2.958-2.634-2.958-.904 0-1.67.406-2.053 1.183l-.081-1.021h-.986v8.214zm1.102-5.372c0-1.183.673-2.007 1.786-2.007 1.114 0 1.775.836 1.775 2.007 0 1.16-.661 1.996-1.775 1.996-1.113 0-1.786-.836-1.786-1.996zm6.086 5.372h1.09v-3.469c.372.696 1.126 1.079 2.031 1.079 1.682 0 2.633-1.3 2.633-3.028 0-1.74-1.009-2.958-2.633-2.958-.905 0-1.671.406-2.054 1.183l-.081-1.021h-.986v8.214zm1.102-5.372c0-1.183.673-2.007 1.787-2.007 1.113 0 1.775.836 1.775 2.007 0 1.16-.662 1.996-1.775 1.996-1.114 0-1.787-.836-1.787-1.996zm8.534 2.97c1.404 0 2.355-.684 2.634-1.902h-1.021c-.186.649-.743.997-1.59.997-1.079 0-1.705-.661-1.786-1.856l4.385-.012v-.406c0-1.682-1.056-2.795-2.668-2.795-1.648 0-2.773 1.229-2.773 3.004 0 1.764 1.149 2.97 2.819 2.97zm-.046-5.058c.963 0 1.577.627 1.577 1.566h-3.271c.139-.997.742-1.566 1.694-1.566zm5.209 4.919v-3.005c0-1.102.591-1.833 1.612-1.833.836 0 1.369.464 1.369 1.613v3.225h1.091v-3.469c0-1.45-.685-2.366-2.181-2.366-.801 0-1.52.382-1.88 1.032l-.116-.87h-.986v5.673h1.091zm6.348-7.019a.723.723 0 0 0 .719-.719.715.715 0 0 0-.719-.719.715.715 0 0 0-.719.719c0 .394.324.719.719.719zm-.534 7.019h1.091v-5.673h-1.091v5.673zm3.996 0v-3.005c0-1.102.592-1.833 1.613-1.833.835 0 1.369.464 1.369 1.613v3.225h1.091v-3.469c0-1.45-.685-2.366-2.182-2.366-.8 0-1.519.382-1.879 1.032l-.116-.87h-.986v5.673h1.09zm5.455-2.982c0 1.59 1.021 2.831 2.634 2.831.893 0 1.636-.394 2.007-1.056v1.137c0 1.079-.696 1.775-1.764 1.775-.951 0-1.577-.487-1.717-1.322h-1.09c.209 1.438 1.264 2.309 2.807 2.309 1.741 0 2.843-1.137 2.843-2.924v-5.441h-.975l-.081.963c-.36-.708-1.067-1.125-1.984-1.125-1.647 0-2.68 1.252-2.68 2.853zm1.091-.023c0-1.044.65-1.879 1.74-1.879 1.114 0 1.763.789 1.763 1.879 0 1.114-.672 1.903-1.775 1.903-1.067 0-1.728-.835-1.728-1.903zm5.971 1.358c0 1.079.846 1.786 2.181 1.786 1.345 0 2.273-.684 2.273-1.763 0-.847-.475-1.288-1.438-1.52l-.998-.244c-.557-.139-.835-.394-.835-.777 0-.522.383-.824 1.067-.824.661 0 1.044.36 1.068.929h1.044c-.024-1.079-.836-1.775-2.077-1.775-1.253 0-2.135.661-2.135 1.705 0 .835.476 1.334 1.485 1.578l.998.232c.592.151.777.383.777.765 0 .522-.44.836-1.206.836-.719 0-1.16-.348-1.16-.928h-1.044z" fill="#430D0B"/><path stroke="#430D0B" stroke-width="1.45" d="M222.934 252.725h246.55v29.55h-246.55z"/><path fill="#F7D597" d="M469.484 252.725h196.55v29.55h-196.55z"/><path d="M536.633 271.5c2.483 0 4.153-1.694 4.153-4.188 0-2.506-1.694-4.2-4.2-4.2h-2.726v8.388h2.773zm-.128-7.344c1.914 0 3.098 1.207 3.098 3.156 0 1.926-1.184 3.132-3.051 3.132h-1.555v-6.288h1.508zm9.695 1.671v2.993c0 1.218-.545 1.856-1.543 1.856-.835 0-1.357-.464-1.357-1.682v-3.167h-1.091v3.527c0 1.392.743 2.285 2.065 2.285.836 0 1.59-.406 1.915-.997l.116.858h.974v-5.673H546.2zm5.228 5.812c1.404 0 2.355-.684 2.633-1.902h-1.02c-.186.649-.743.997-1.59.997-1.079 0-1.705-.661-1.786-1.856l4.385-.012v-.406c0-1.682-1.056-2.795-2.668-2.795-1.648 0-2.773 1.229-2.773 3.004 0 1.764 1.148 2.97 2.819 2.97zm-.046-5.058c.962 0 1.577.627 1.577 1.566h-3.271c.139-.997.742-1.566 1.694-1.566zm5.662 4.919v-4.757h1.114v-.916h-1.114v-1.775h-1.09v1.775h-1.114v.916h1.114v4.757h1.09zm5.427-6.126c0 1.207.708 1.996 2.077 2.309l1.381.313c.8.186 1.16.604 1.16 1.265 0 .835-.708 1.357-1.822 1.357-1.055 0-1.728-.51-1.752-1.311h-1.16c.07 1.439 1.207 2.332 2.912 2.332 1.787 0 2.959-.963 2.959-2.471 0-1.183-.696-1.926-2.065-2.239l-1.381-.325c-.789-.185-1.172-.591-1.172-1.264 0-.824.685-1.358 1.74-1.358.94 0 1.532.488 1.59 1.323h1.148c-.092-1.45-1.125-2.344-2.726-2.344-1.729 0-2.889.975-2.889 2.413zm7.763-.893c.395 0 .72-.325.72-.719a.716.716 0 0 0-.72-.719.715.715 0 0 0-.719.719c0 .394.325.719.719.719zm-.533 7.019h1.09v-5.673h-1.09v5.673zm3.996 0v-3.005c0-1.102.592-1.833 1.613-1.833.835 0 1.369.464 1.369 1.613v3.225h1.09v-3.469c0-1.45-.684-2.366-2.181-2.366-.8 0-1.52.382-1.879 1.032l-.116-.87h-.987v5.673h1.091zm5.455-2.982c0 1.59 1.021 2.831 2.633 2.831.894 0 1.636-.394 2.007-1.056v1.137c0 1.079-.696 1.775-1.763 1.775-.951 0-1.578-.487-1.717-1.322h-1.091c.209 1.438 1.265 2.309 2.808 2.309 1.74 0 2.842-1.137 2.842-2.924v-5.441h-.974l-.081.963c-.36-.708-1.068-1.125-1.984-1.125-1.648 0-2.68 1.252-2.68 2.853zm1.09-.023c0-1.044.65-1.879 1.741-1.879 1.113 0 1.763.789 1.763 1.879 0 1.114-.673 1.903-1.775 1.903-1.067 0-1.729-.835-1.729-1.903zm6.969-4.014a.723.723 0 0 0 .719-.719.715.715 0 0 0-.719-.719.715.715 0 0 0-.719.719c0 .394.324.719.719.719zm-.534 7.019h1.091v-5.673h-1.091v5.673zm3.996 0v-3.005c0-1.102.592-1.833 1.613-1.833.835 0 1.369.464 1.369 1.613v3.225h1.091v-3.469c0-1.45-.685-2.366-2.182-2.366-.8 0-1.519.382-1.879 1.032l-.116-.87h-.986v5.673h1.09zm5.455-2.982c0 1.59 1.021 2.831 2.634 2.831.893 0 1.636-.394 2.007-1.056v1.137c0 1.079-.696 1.775-1.764 1.775-.951 0-1.577-.487-1.717-1.322h-1.09c.209 1.438 1.264 2.309 2.807 2.309 1.741 0 2.843-1.137 2.843-2.924v-5.441h-.975l-.081.963c-.36-.708-1.067-1.125-1.984-1.125-1.647 0-2.68 1.252-2.68 2.853zm1.091-.023c0-1.044.65-1.879 1.74-1.879 1.114 0 1.763.789 1.763 1.879 0 1.114-.672 1.903-1.775 1.903-1.067 0-1.728-.835-1.728-1.903z" fill="#430D0B"/><path stroke="#430D0B" stroke-width="1.45" d="M469.484 252.725h196.55v29.55h-196.55z"/><path fill="#9C9C5B" fill-opacity=".53" d="M666.034 252.725h206.55v29.55h-206.55z"/><path d="M737.411 268.438v-1.032h-3.294v-2.75h3.921v-1.044h-5.058V272h1.137v-3.562h3.294zm3.245 3.701c.916 0 1.694-.406 1.984-1.056l.116.917h.928v-3.562c0-1.531-.952-2.273-2.355-2.273-1.462 0-2.437.777-2.437 1.96h.952c0-.684.522-1.09 1.438-1.09.766 0 1.334.336 1.334 1.287v.163l-1.786.139c-1.334.104-2.112.754-2.112 1.798 0 1.033.72 1.717 1.938 1.717zm.313-.847c-.708 0-1.149-.301-1.149-.905 0-.556.395-.928 1.358-1.021l1.45-.116v.302c0 1.067-.626 1.74-1.659 1.74zm3.993-.939c0 1.079.847 1.786 2.181 1.786 1.346 0 2.274-.684 2.274-1.763 0-.847-.476-1.288-1.439-1.52l-.997-.244c-.557-.139-.836-.394-.836-.777 0-.522.383-.824 1.068-.824.661 0 1.044.36 1.067.929h1.044c-.023-1.079-.835-1.775-2.077-1.775-1.253 0-2.134.661-2.134 1.705 0 .835.475 1.334 1.485 1.578l.997.232c.592.151.778.383.778.765 0 .522-.441.836-1.207.836-.719 0-1.16-.348-1.16-.928h-1.044zm6.987 1.635v-3.086c0-.974.568-1.74 1.624-1.74.812 0 1.357.464 1.357 1.613V272h1.091v-3.469c0-1.45-.696-2.366-2.146-2.366-.882 0-1.567.417-1.926 1.032v-3.736h-1.091v8.527h1.091zm6.348-7.007a.723.723 0 0 0 .719-.719.715.715 0 0 0-.719-.719.715.715 0 0 0-.719.719c0 .394.324.719.719.719zm-.534 7.019h1.091v-5.673h-1.091V272zm2.535-2.842c0 1.751 1.253 2.981 2.958 2.981 1.694 0 2.947-1.23 2.947-2.981 0-1.752-1.253-2.982-2.947-2.982-1.705 0-2.958 1.23-2.958 2.982zm1.102 0c0-1.184.754-2.007 1.856-2.007 1.091 0 1.856.823 1.856 2.007 0 1.183-.765 2.007-1.856 2.007-1.102 0-1.856-.824-1.856-2.007zm7.333 2.842v-3.005c0-1.102.591-1.833 1.612-1.833.835 0 1.369.464 1.369 1.613V272h1.091v-3.469c0-1.45-.685-2.366-2.181-2.366-.801 0-1.52.382-1.88 1.032l-.116-.87h-.986V272h1.091zm8.917-6.126c0 1.207.707 1.996 2.076 2.309l1.381.313c.8.186 1.16.604 1.16 1.265 0 .835-.708 1.357-1.821 1.357-1.056 0-1.729-.51-1.752-1.311h-1.16c.069 1.439 1.206 2.332 2.912 2.332 1.786 0 2.958-.963 2.958-2.471 0-1.183-.696-1.926-2.065-2.239l-1.381-.325c-.788-.185-1.171-.591-1.171-1.264 0-.824.684-1.358 1.74-1.358.94 0 1.531.488 1.589 1.323h1.149c-.093-1.45-1.126-2.344-2.726-2.344-1.729 0-2.889.975-2.889 2.413zm8.32 6.114v-3.086c0-.974.568-1.74 1.624-1.74.812 0 1.357.464 1.357 1.613V272h1.091v-3.469c0-1.45-.696-2.366-2.147-2.366-.881 0-1.566.417-1.925 1.032v-3.736h-1.091v8.527h1.091zm5.443-2.83c0 1.751 1.253 2.981 2.958 2.981 1.694 0 2.947-1.23 2.947-2.981 0-1.752-1.253-2.982-2.947-2.982-1.705 0-2.958 1.23-2.958 2.982zm1.102 0c0-1.184.754-2.007 1.856-2.007 1.091 0 1.856.823 1.856 2.007 0 1.183-.765 2.007-1.856 2.007-1.102 0-1.856-.824-1.856-2.007zm7.2 2.842h1.079l.986-3.028c.209-.684.313-1.056.371-1.334.058.313.174.754.36 1.322l.986 3.04h1.032l1.938-5.673h-1.137l-.951 2.947c-.163.499-.267.893-.36 1.345a19.54 19.54 0 0 0-.371-1.345l-.94-2.947h-1.114l-.951 2.947a9.454 9.454 0 0 0-.371 1.345 15.454 15.454 0 0 0-.348-1.345l-.94-2.947h-1.125l1.856 5.673z" fill="#430D0B"/><path stroke="#430D0B" stroke-width="1.45" d="M666.034 252.725h206.55v29.55h-206.55z"/><path fill="#F5F797" d="M872.584 252.725h129.55v29.55h-129.55z"/><path d="M933.733 270c2.483 0 4.154-1.694 4.154-4.188 0-2.506-1.694-4.2-4.2-4.2h-2.726V270h2.772zm-.127-7.344c1.914 0 3.097 1.207 3.097 3.156 0 1.926-1.183 3.132-3.051 3.132h-1.554v-6.288h1.508zm5.217 5.012c0 1.45.881 2.471 2.482 2.471 1.497 0 2.506-.951 2.506-2.459v-6.068h-1.137v6.021c0 .87-.417 1.45-1.369 1.45-.928 0-1.38-.591-1.38-1.415v-.418h-1.102v.418z" fill="#000"/><path stroke="#430D0B" stroke-width="1.45" d="M872.584 252.725h129.55v29.55h-129.55z"/><path fill="#F7A397" d="M1002.13 252.725h155.55v29.55h-155.55z"/><path d="m1066.93 270 .74-2.088h3.53l.75 2.088h1.2l-3.07-8.388h-1.27l-3.06 8.388h1.18zm2.37-6.578c.06-.174.11-.371.14-.487.02.127.08.325.14.487l1.28 3.504h-2.84l1.28-3.504zm8.26.859c-.22-.047-.38-.07-.58-.07-.78 0-1.35.394-1.58.986l-.07-.858h-1.02V270h1.09v-3.005c0-1.09.64-1.717 1.67-1.717h.49v-.997zm3.08 5.719v-4.757h1.12v-.916h-1.12v-1.775h-1.09v1.775h-1.11v.916h1.11V270h1.09zm2.86-7.019c.39 0 .72-.325.72-.719a.719.719 0 0 0-.72-.719c-.39 0-.72.313-.72.719 0 .394.33.719.72.719zm-.53 7.019h1.09v-5.673h-1.09V270zm2.44-1.647c0 1.079.84 1.786 2.18 1.786 1.34 0 2.27-.684 2.27-1.763 0-.847-.47-1.288-1.44-1.52l-.99-.244c-.56-.139-.84-.394-.84-.777 0-.522.38-.824 1.07-.824.66 0 1.04.36 1.07.929h1.04c-.02-1.079-.84-1.775-2.08-1.775-1.25 0-2.13.661-2.13 1.705 0 .835.47 1.334 1.48 1.578l1 .232c.59.151.78.383.78.765 0 .522-.44.836-1.21.836-.72 0-1.16-.348-1.16-.928h-1.04zm7.5 1.647v-4.757h1.11v-.916h-1.11v-1.775h-1.1v1.775h-1.11v.916h1.11V270h1.1z" fill="#000"/><path stroke="#430D0B" stroke-width="1.45" d="M1002.13 252.725h155.55v29.55h-155.55z"/><path fill="#F7D597" d="M1157.68 252.725h123.55v29.55h-123.55z"/><path d="M1177.27 267.007c1.64 0 2.7-1.137 2.7-2.703 0-1.613-1.05-2.692-2.7-2.692h-3.26V270h1.14v-2.993h2.12zm-.2-4.374c1.07 0 1.71.603 1.71 1.659 0 1.033-.63 1.694-1.75 1.694h-1.88v-3.353h1.92zm7.49 1.648c-.23-.047-.39-.07-.58-.07-.78 0-1.35.394-1.58.986l-.07-.858h-1.02V270h1.09v-3.005c0-1.09.64-1.717 1.67-1.717h.49v-.997zm1.78-1.3a.72.72 0 1 0-.72-.719c0 .394.33.719.72.719zm-.53 7.019h1.09v-5.673h-1.09V270zm6.98 0v-.917h-3.09l3.09-3.863v-.893h-4.42v.916h3.06l-3.06 3.875V270h4.42zm3.78.139c1.41 0 2.36-.684 2.64-1.902h-1.02c-.19.649-.75.997-1.59.997-1.08 0-1.71-.661-1.79-1.856l4.39-.012v-.406c0-1.682-1.06-2.795-2.67-2.795-1.65 0-2.78 1.229-2.78 3.004 0 1.764 1.15 2.97 2.82 2.97zm-.04-5.058c.96 0 1.57.627 1.57 1.566h-3.27c.14-.997.75-1.566 1.7-1.566zm10.48 4.919c2.48 0 4.15-1.694 4.15-4.188 0-2.506-1.69-4.2-4.2-4.2h-2.72V270h2.77zm-.13-7.344c1.91 0 3.1 1.207 3.1 3.156 0 1.926-1.19 3.132-3.05 3.132h-1.56v-6.288h1.51zm6.31.325c.39 0 .72-.325.72-.719a.719.719 0 0 0-.72-.719.72.72 0 1 0 0 1.438zm-.54 7.019h1.09v-5.673h-1.09V270zm2.45-1.647c0 1.079.84 1.786 2.18 1.786 1.34 0 2.27-.684 2.27-1.763 0-.847-.47-1.288-1.44-1.52l-1-.244c-.55-.139-.83-.394-.83-.777 0-.522.38-.824 1.07-.824.66 0 1.04.36 1.06.929h1.05c-.03-1.079-.84-1.775-2.08-1.775-1.25 0-2.13.661-2.13 1.705 0 .835.47 1.334 1.48 1.578l1 .232c.59.151.78.383.78.765 0 .522-.44.836-1.21.836-.72 0-1.16-.348-1.16-.928h-1.04zm7.49 1.647v-4.757h1.12v-.916h-1.12v-1.775h-1.09v1.775h-1.11v.916h1.11V270h1.09zm5.58-5.719c-.22-.047-.39-.07-.58-.07-.78 0-1.35.394-1.58.986l-.07-.858h-1.02V270h1.09v-3.005c0-1.09.64-1.717 1.67-1.717h.49v-.997zm1.78-1.3a.72.72 0 1 0 0-1.438.71.71 0 0 0-.71.719c0 .394.32.719.71.719zm-.53 7.019h1.09v-5.673h-1.09V270zm3.89 0 .08-1.033c.38.778 1.13 1.172 2.02 1.172 1.65 0 2.67-1.23 2.67-2.947 0-1.751-.97-3.027-2.6-3.027-.93 0-1.69.394-2.06 1.136v-3.84h-1.09V270h.98zm.12-2.854c0-1.16.67-1.995 1.79-1.995 1.11 0 1.77.835 1.77 1.995 0 1.172-.66 2.007-1.77 2.007-1.12 0-1.79-.824-1.79-2.007zm9.87-2.819v2.993c0 1.218-.55 1.856-1.54 1.856-.84 0-1.36-.464-1.36-1.682v-3.167h-1.09v3.527c0 1.392.74 2.285 2.06 2.285.84 0 1.59-.406 1.92-.997l.11.858h.98v-5.673h-1.08zm4.49 5.673v-4.757h1.12v-.916h-1.12v-1.775h-1.09v1.775h-1.11v.916h1.11V270h1.09zm2.86-7.019a.72.72 0 1 0-.72-.719c0 .394.33.719.72.719zm-.53 7.019h1.09v-5.673h-1.09V270zm2.53-2.842c0 1.751 1.26 2.981 2.96 2.981s2.95-1.23 2.95-2.981c0-1.752-1.25-2.982-2.95-2.982-1.7 0-2.96 1.23-2.96 2.982zm1.11 0c0-1.184.75-2.007 1.85-2.007 1.09 0 1.86.823 1.86 2.007 0 1.183-.77 2.007-1.86 2.007-1.1 0-1.85-.824-1.85-2.007zm7.33 2.842v-3.005c0-1.102.59-1.833 1.61-1.833.84 0 1.37.464 1.37 1.613V270h1.09v-3.469c0-1.45-.68-2.366-2.18-2.366-.8 0-1.52.382-1.88 1.032l-.12-.87h-.98V270h1.09z" fill="#000"/><path stroke="#430D0B" stroke-width="1.45" d="M1157.68 252.725h123.55v29.55h-123.55z"/><path fill="#F7D597" fill-opacity=".26" d="M141.725 284.725h168.55v29.55h-168.55z"/><path stroke="#430D0B" stroke-width="1.45" d="M141.725 284.725h168.55v29.55h-168.55z"/><path fill="#CAC136" d="M310.275 284.725h327.55v29.55h-327.55z"/><path d="M445.552 297.874c0 1.207.708 1.996 2.077 2.309l1.38.313c.801.186 1.16.604 1.16 1.265 0 .835-.707 1.357-1.821 1.357-1.056 0-1.729-.51-1.752-1.311h-1.16c.069 1.439 1.206 2.332 2.912 2.332 1.786 0 2.958-.963 2.958-2.471 0-1.183-.696-1.926-2.065-2.239l-1.38-.325c-.789-.185-1.172-.591-1.172-1.264 0-.824.684-1.358 1.74-1.358.94 0 1.531.488 1.589 1.323h1.149c-.093-1.45-1.125-2.344-2.726-2.344-1.729 0-2.889.975-2.889 2.413zm8.83 6.126v-4.757h1.114v-.916h-1.114v-1.775h-1.09v1.775h-1.114v.916h1.114V304h1.09zm5.573-5.719a2.596 2.596 0 0 0-.58-.07c-.777 0-1.346.394-1.578.986l-.069-.858h-1.021V304h1.09v-3.005c0-1.09.638-1.717 1.671-1.717h.487v-.997zm3.499 5.858c1.404 0 2.355-.684 2.633-1.902h-1.021c-.185.649-.742.997-1.589.997-1.079 0-1.705-.661-1.787-1.856l4.386-.012v-.406c0-1.682-1.056-2.795-2.669-2.795-1.647 0-2.772 1.229-2.772 3.004 0 1.764 1.148 2.97 2.819 2.97zm-.047-5.058c.963 0 1.578.627 1.578 1.566h-3.271c.139-.997.742-1.566 1.693-1.566zm6.567 5.058c1.403 0 2.355-.684 2.633-1.902h-1.021c-.185.649-.742.997-1.589.997-1.079 0-1.706-.661-1.787-1.856l4.386-.012v-.406c0-1.682-1.056-2.795-2.669-2.795-1.647 0-2.772 1.229-2.772 3.004 0 1.764 1.148 2.97 2.819 2.97zm-.047-5.058c.963 0 1.578.627 1.578 1.566h-3.272c.14-.997.743-1.566 1.694-1.566zM475.59 304v-4.757h1.114v-.916h-1.114v-1.775h-1.091v1.775h-1.113v.916h1.113V304h1.091zm9.174-2.993c1.636 0 2.703-1.137 2.703-2.703 0-1.613-1.055-2.692-2.703-2.692h-3.26V304h1.137v-2.993h2.123zm-.197-4.374c1.067 0 1.705.603 1.705 1.659 0 1.033-.626 1.694-1.751 1.694h-1.88v-3.353h1.926zm5.348 7.367v-8.539h-1.09V304h1.09zm3.497.139c.916 0 1.693-.406 1.983-1.056l.116.917h.929v-3.562c0-1.531-.952-2.273-2.356-2.273-1.461 0-2.436.777-2.436 1.96h.952c0-.684.522-1.09 1.438-1.09.766 0 1.334.336 1.334 1.287v.163l-1.786.139c-1.335.104-2.112.754-2.112 1.798 0 1.033.719 1.717 1.938 1.717zm.313-.847c-.708 0-1.149-.301-1.149-.905 0-.556.395-.928 1.358-1.021l1.45-.116v.302c0 1.067-.627 1.74-1.659 1.74zm3.776 3.249c.29.069.591.116.951.116.87 0 1.438-.406 1.821-1.381l2.68-6.949h-1.125l-1.682 4.571-1.648-4.571h-1.148l2.285 5.975-.197.545c-.267.719-.684.8-1.206.8h-.731v.894z" fill="#430D0B"/><path stroke="#430D0B" stroke-width="1.45" d="M310.275 284.725h327.55v29.55h-327.55z"/><path fill="#F7D597" fill-opacity=".26" d="M637.825 284.725h641.55v29.55h-641.55z"/><path stroke="#430D0B" stroke-width="1.45" d="M637.825 284.725h641.55v29.55h-641.55z"/></svg>