<svg width="1198" height="316" fill="none" xmlns="http://www.w3.org/2000/svg"><path d="M59.972 15.69v-1.033h-3.295v-2.75H60.6v-1.044H55.54v8.388h1.137v-3.562h3.295zm4.947-2.159a2.633 2.633 0 0 0-.58-.07c-.777 0-1.346.395-1.578.987l-.07-.859h-1.02v5.662h1.09v-3.005c0-1.09.638-1.717 1.67-1.717h.488v-.998zm1.789-1.299c.394 0 .719-.325.719-.72a.715.715 0 0 0-.72-.718.715.715 0 0 0-.719.719c0 .394.325.72.72.72zm-.534 7.019h1.09v-5.673h-1.09v5.673zm5.18.14c.904 0 1.67-.395 2.041-1.172l.093 1.032h.975v-8.539h-1.08v3.782c-.382-.696-1.113-1.079-1.983-1.079-1.682 0-2.692 1.277-2.692 3.017 0 1.729.998 2.958 2.645 2.958zm.22-.987c-1.114 0-1.763-.835-1.763-2.007 0-1.16.65-1.995 1.763-1.995 1.114 0 1.798.835 1.798 1.995 0 1.183-.684 2.007-1.798 2.007zm6.353.986c.916 0 1.694-.406 1.984-1.056l.116.917h.928v-3.562c0-1.531-.951-2.274-2.355-2.274-1.462 0-2.436.778-2.436 1.961h.95c0-.684.523-1.09 1.44-1.09.765 0 1.334.336 1.334 1.287v.163l-1.787.139c-1.334.104-2.111.754-2.111 1.798 0 1.033.719 1.717 1.937 1.717zm.313-.847c-.707 0-1.148-.301-1.148-.905 0-.557.394-.928 1.357-1.02l1.45-.116v.301c0 1.067-.626 1.74-1.659 1.74zm3.776 3.249c.29.07.592.116.951.116.87 0 1.439-.406 1.822-1.38l2.68-6.95h-1.126l-1.682 4.57-1.647-4.57h-1.149l2.286 5.975-.198.545c-.266.72-.684.8-1.206.8h-.731v.894z" fill="#430D0B"/><path stroke="#430D0B" stroke-width="1.45" d="M.725.725h140.666v29.052H.725z"/><path d="M60.58 43.409h2.529v7.343h1.137V43.41h2.517v-1.044H60.58v1.044zm10.603 1.67v2.993c0 1.219-.546 1.857-1.543 1.857-.835 0-1.358-.464-1.358-1.682v-3.168h-1.09v3.527c0 1.392.742 2.286 2.065 2.286.835 0 1.59-.406 1.914-.998l.116.858h.975V45.08h-1.08zm6.141-.046a2.631 2.631 0 0 0-.58-.07c-.777 0-1.346.395-1.578.986l-.07-.858h-1.02v5.661h1.09v-3.004c0-1.09.639-1.717 1.671-1.717h.487v-.998zm.879.046v.917h.835v4.756h1.09v-4.756h1.346v-.917h-1.346v-.904c0-.615.186-.975.894-.975h.487v-.94a4.477 4.477 0 0 0-.673-.046c-1.032 0-1.798.568-1.798 1.96v.905h-.835z" fill="#430D0B"/><path stroke="#430D0B" stroke-width="1.45" d="M.725 32.227h140.666v29.052H.725z"/><path d="M37.572 82.382c1.891 0 3.388-1.114 3.747-2.784h-1.206c-.313 1.032-1.288 1.694-2.518 1.694-1.694 0-2.807-1.277-2.807-3.237 0-1.96 1.114-3.237 2.807-3.237 1.218 0 2.158.661 2.471 1.752h1.219c-.314-1.717-1.764-2.843-3.655-2.843-2.401 0-4.037 1.752-4.037 4.34 0 2.598 1.59 4.315 3.98 4.315zm8.436-5.847a2.631 2.631 0 0 0-.58-.07c-.777 0-1.346.395-1.578.986l-.07-.858h-1.02v5.661h1.09V79.25c0-1.09.638-1.717 1.671-1.717h.487v-.998zm1.789-1.3c.394 0 .719-.324.719-.719a.715.715 0 0 0-.72-.719.716.716 0 0 0-.719.72c0 .394.325.719.72.719zm-.534 7.02h1.09V76.58h-1.09v5.673zm2.535-2.831c0 1.786 1.102 2.97 2.772 2.97 1.37 0 2.425-.824 2.645-2.054h-1.09c-.197.673-.777 1.08-1.555 1.08-1.032 0-1.694-.79-1.694-2.008 0-1.23.708-2.019 1.74-2.019.732 0 1.312.383 1.497 1.103h1.09c-.196-1.265-1.194-2.077-2.621-2.077-1.66 0-2.784 1.23-2.784 3.005zm7.914 2.83v-1.612l.963-1.01 1.659 2.622h1.253l-2.158-3.41 2.17-2.263h-1.37l-2.517 2.669v-5.534h-1.09v8.538h1.09zm7.242.14c1.404 0 2.355-.685 2.634-1.903h-1.021c-.186.65-.743.998-1.59.998-1.079 0-1.705-.662-1.786-1.857l4.385-.011v-.406c0-1.682-1.056-2.796-2.668-2.796-1.648 0-2.773 1.23-2.773 3.005 0 1.763 1.148 2.97 2.819 2.97zm-.046-5.059c.963 0 1.577.627 1.577 1.567h-3.271c.139-.998.742-1.567 1.694-1.567zm5.662 4.92v-4.757h1.114v-.917H70.57v-1.775h-1.09v1.775h-1.114v.917h1.114v4.756h1.09zm8.247 0H80l3.155-8.388h-1.183l-2.03 5.348c-.14.371-.337.928-.534 1.59a15.751 15.751 0 0 0-.522-1.579l-2.042-5.36h-1.218l3.19 8.388zm7.005.139c1.404 0 2.355-.685 2.633-1.903h-1.02c-.186.65-.743.998-1.59.998-1.079 0-1.705-.662-1.787-1.857l4.386-.011v-.406c0-1.682-1.056-2.796-2.669-2.796-1.647 0-2.772 1.23-2.772 3.005 0 1.763 1.148 2.97 2.819 2.97zm-.047-5.059c.963 0 1.578.627 1.578 1.567h-3.271c.139-.998.742-1.567 1.694-1.567zm5.21 4.92V79.25c0-1.103.591-1.833 1.612-1.833.835 0 1.369.464 1.369 1.612v3.225h1.09v-3.468c0-1.45-.684-2.367-2.18-2.367-.801 0-1.52.383-1.88 1.032l-.116-.87h-.986v5.673h1.09zm9.735-5.674v2.993c0 1.219-.545 1.857-1.543 1.857-.835 0-1.357-.464-1.357-1.682V76.58h-1.09v3.527c0 1.392.742 2.286 2.064 2.286.836 0 1.59-.406 1.915-.998l.116.858h.974v-5.673h-1.079zm5.228 5.813c1.404 0 2.355-.685 2.633-1.903h-1.02c-.186.65-.743.998-1.59.998-1.079 0-1.705-.662-1.786-1.857l4.385-.011v-.406c0-1.682-1.056-2.796-2.668-2.796-1.648 0-2.773 1.23-2.773 3.005 0 1.763 1.148 2.97 2.819 2.97zm-.046-5.059c.962 0 1.577.627 1.577 1.567h-3.271c.139-.998.742-1.567 1.694-1.567z" fill="#430D0B"/><path stroke="#430D0B" stroke-width="1.45" d="M.725 63.728h140.666V92.78H.725z"/><path d="M53.556 113.756v-3.318h2.146l1.567 3.318h1.264l-1.705-3.539c1.044-.336 1.624-1.171 1.624-2.331 0-1.567-1.067-2.518-2.866-2.518H52.42v8.388h1.137zm0-7.367h2.03c1.044 0 1.67.534 1.67 1.508 0 .963-.602 1.532-1.658 1.532h-2.042v-3.04zm5.721 4.525c0 1.751 1.253 2.981 2.959 2.981 1.693 0 2.946-1.23 2.946-2.981 0-1.752-1.253-2.982-2.947-2.982-1.705 0-2.958 1.23-2.958 2.982zm1.102 0c0-1.184.754-2.007 1.857-2.007 1.09 0 1.856.823 1.856 2.007 0 1.183-.766 2.007-1.856 2.007-1.103 0-1.857-.824-1.857-2.007zm5.871 0c0 1.751 1.253 2.981 2.959 2.981 1.693 0 2.946-1.23 2.946-2.981 0-1.752-1.253-2.982-2.947-2.982-1.705 0-2.958 1.23-2.958 2.982zm1.102 0c0-1.184.754-2.007 1.856-2.007 1.091 0 1.857.823 1.857 2.007 0 1.183-.766 2.007-1.856 2.007-1.103 0-1.857-.824-1.857-2.007zm7.333 2.842v-3.365c0-.904.545-1.473 1.369-1.473.766 0 1.253.487 1.253 1.381v3.457h1.079v-3.365c0-.904.545-1.484 1.369-1.484.765 0 1.264.51 1.264 1.403v3.446h1.068v-3.713c0-1.311-.79-2.123-2.089-2.123-.881 0-1.566.441-1.833 1.149-.29-.708-.916-1.149-1.798-1.149-.8 0-1.404.372-1.694.905l-.104-.742h-.975v5.673h1.091zm13.93-7.367v7.367h1.09v-8.388h-2.853v1.021h1.763z" fill="#430D0B"/><path stroke="#430D0B" stroke-width="1.45" d="M.725 95.23h140.666v29.052H.725z"/><path d="M52.333 145.258v-3.318h2.146l1.566 3.318h1.264l-1.705-3.539c1.044-.336 1.624-1.171 1.624-2.331 0-1.567-1.067-2.518-2.865-2.518h-3.167v8.388h1.137zm0-7.367h2.03c1.044 0 1.67.534 1.67 1.508 0 .963-.603 1.532-1.659 1.532h-2.041v-3.04zm5.72 4.524c0 1.752 1.254 2.982 2.959 2.982 1.694 0 2.947-1.23 2.947-2.982 0-1.751-1.253-2.981-2.947-2.981-1.706 0-2.958 1.23-2.958 2.981zm1.103 0c0-1.183.754-2.007 1.856-2.007 1.09 0 1.856.824 1.856 2.007 0 1.184-.766 2.008-1.856 2.008-1.102 0-1.856-.824-1.856-2.008zm5.87 0c0 1.752 1.254 2.982 2.959 2.982 1.694 0 2.947-1.23 2.947-2.982 0-1.751-1.253-2.981-2.947-2.981-1.706 0-2.958 1.23-2.958 2.981zm1.103 0c0-1.183.754-2.007 1.856-2.007 1.09 0 1.856.824 1.856 2.007 0 1.184-.765 2.008-1.856 2.008-1.102 0-1.856-.824-1.856-2.008zm7.332 2.843v-3.365c0-.904.546-1.473 1.37-1.473.765 0 1.252.487 1.252 1.381v3.457h1.08v-3.365c0-.904.544-1.485 1.368-1.485.766 0 1.265.511 1.265 1.404v3.446h1.067v-3.713c0-1.311-.789-2.123-2.088-2.123-.882 0-1.566.441-1.833 1.149-.29-.708-.917-1.149-1.798-1.149-.8 0-1.404.372-1.694.905l-.105-.742h-.974v5.673h1.09zm17.956-.012v-1.056h-3.875l1.74-1.508c1.486-1.287 2.077-2.134 2.077-3.329 0-1.613-1.079-2.634-2.76-2.634-1.706 0-2.843 1.172-2.878 2.97h1.137c.023-1.195.696-1.949 1.728-1.949 1.01 0 1.613.627 1.613 1.682 0 .894-.383 1.462-1.74 2.634l-2.703 2.332v.87l5.661-.012z" fill="#430D0B"/><path stroke="#430D0B" stroke-width="1.45" d="M.725 126.732h140.666v29.052H.725z"/><path d="M52.372 176.759v-3.318h2.146l1.567 3.318h1.264l-1.705-3.538c1.044-.337 1.624-1.172 1.624-2.332 0-1.566-1.067-2.517-2.866-2.517h-3.167v8.387h1.137zm0-7.367h2.03c1.044 0 1.671.534 1.671 1.509 0 .963-.603 1.531-1.659 1.531h-2.042v-3.04zm5.721 4.525c0 1.752 1.253 2.981 2.959 2.981 1.693 0 2.946-1.229 2.946-2.981 0-1.752-1.253-2.982-2.946-2.982-1.706 0-2.959 1.23-2.959 2.982zm1.102 0c0-1.183.754-2.007 1.857-2.007 1.09 0 1.856.824 1.856 2.007 0 1.183-.766 2.007-1.856 2.007-1.103 0-1.857-.824-1.857-2.007zm5.871 0c0 1.752 1.253 2.981 2.959 2.981 1.693 0 2.946-1.229 2.946-2.981 0-1.752-1.253-2.982-2.946-2.982-1.706 0-2.959 1.23-2.959 2.982zm1.102 0c0-1.183.754-2.007 1.857-2.007 1.09 0 1.856.824 1.856 2.007 0 1.183-.766 2.007-1.856 2.007-1.103 0-1.857-.824-1.857-2.007zm7.333 2.842v-3.364c0-.905.545-1.473 1.369-1.473.766 0 1.253.487 1.253 1.38v3.457h1.079v-3.364c0-.905.545-1.485 1.369-1.485.766 0 1.264.51 1.264 1.404v3.445h1.068v-3.712c0-1.311-.79-2.123-2.089-2.123-.881 0-1.566.441-1.833 1.148-.29-.707-.916-1.148-1.798-1.148-.8 0-1.404.371-1.694.905l-.104-.743h-.975v5.673h1.091zm14.73-4.339c1.335 0 2.031.673 2.031 1.683 0 1.078-.708 1.775-1.798 1.775-1.056 0-1.729-.638-1.729-1.729H85.61c0 1.74 1.183 2.749 2.83 2.749 1.706 0 2.982-1.078 2.982-2.772 0-1.508-1.079-2.471-2.506-2.645l2.297-2.193v-.916h-5.209v1.009h3.77l-2.378 2.285v.754h.836z" fill="#430D0B"/><path stroke="#430D0B" stroke-width="1.45" d="M.725 158.233h140.666v29.052H.725z"/><path d="M36.579 205.268c1.635 0 2.703-1.137 2.703-2.704 0-1.612-1.056-2.691-2.703-2.691h-3.26v8.388h1.137v-2.993h2.123zm-.198-4.374c1.068 0 1.706.603 1.706 1.659 0 1.032-.627 1.694-1.752 1.694h-1.88v-3.353h1.926zm5.667 7.506c.917 0 1.694-.406 1.984-1.056l.116.917h.928v-3.562c0-1.531-.951-2.274-2.355-2.274-1.462 0-2.436.778-2.436 1.961h.951c0-.685.522-1.091 1.439-1.091.765 0 1.334.337 1.334 1.288v.163l-1.787.139c-1.334.104-2.111.754-2.111 1.798 0 1.032.72 1.717 1.937 1.717zm.313-.847c-.707 0-1.148-.302-1.148-.905 0-.557.394-.928 1.357-1.021l1.45-.116v.302c0 1.067-.626 1.74-1.659 1.74zm7.706-5.012a2.655 2.655 0 0 0-.58-.069c-.778 0-1.346.394-1.578.986l-.07-.859h-1.02v5.662h1.09v-3.005c0-1.091.638-1.717 1.67-1.717h.488v-.998zm2.368 5.72v-1.613l.963-1.009 1.66 2.622h1.252l-2.158-3.411 2.17-2.262h-1.37l-2.517 2.668v-5.534h-1.09v8.539h1.09zm5.544-7.019c.394 0 .719-.325.719-.719a.716.716 0 0 0-.72-.72.716.716 0 0 0-.719.72c0 .394.325.719.72.719zm-.534 7.019h1.09v-5.673h-1.09v5.673zm3.996 0v-3.005c0-1.102.592-1.833 1.613-1.833.835 0 1.369.464 1.369 1.613v3.225h1.09v-3.469c0-1.45-.684-2.367-2.18-2.367-.801 0-1.52.383-1.88 1.033l-.116-.87h-.986v5.673h1.09zm5.455-2.982c0 1.59 1.021 2.831 2.634 2.831.893 0 1.635-.395 2.007-1.056v1.137c0 1.079-.696 1.775-1.764 1.775-.951 0-1.577-.487-1.717-1.322h-1.09c.209 1.438 1.264 2.308 2.807 2.308 1.74 0 2.843-1.137 2.843-2.923v-5.441h-.975l-.081.963c-.36-.708-1.067-1.126-1.984-1.126-1.647 0-2.68 1.253-2.68 2.854zm1.09-.023c0-1.044.65-1.879 1.74-1.879 1.115 0 1.764.788 1.764 1.879 0 1.114-.672 1.903-1.775 1.903-1.067 0-1.728-.836-1.728-1.903zm10.373 3.005.743-2.088h3.527l.754 2.088h1.195l-3.075-8.388H80.24l-3.063 8.388h1.183zm2.367-6.578c.058-.174.116-.371.14-.487.022.127.08.324.138.487l1.288 3.503H79.45l1.276-3.503zm8.261.858a2.653 2.653 0 0 0-.58-.069c-.777 0-1.345.394-1.577.986l-.07-.859h-1.02v5.662h1.09v-3.005c0-1.091.638-1.717 1.67-1.717h.487v-.998zm3.5 5.859c1.403 0 2.354-.685 2.633-1.903h-1.021c-.186.65-.743.998-1.59.998-1.078 0-1.705-.661-1.786-1.856l4.385-.012v-.406c0-1.682-1.056-2.796-2.668-2.796-1.647 0-2.773 1.23-2.773 3.005 0 1.763 1.149 2.97 2.82 2.97zm-.047-5.058c.963 0 1.578.626 1.578 1.566h-3.272c.14-.998.743-1.566 1.694-1.566zm5.72 5.058c.917 0 1.694-.406 1.984-1.056l.116.917h.929v-3.562c0-1.531-.952-2.274-2.355-2.274-1.462 0-2.437.778-2.437 1.961h.951c0-.685.523-1.091 1.44-1.091.765 0 1.333.337 1.333 1.288v.163l-1.786.139c-1.334.104-2.112.754-2.112 1.798 0 1.032.72 1.717 1.938 1.717zm.314-.847c-.708 0-1.149-.302-1.149-.905 0-.557.395-.928 1.358-1.021l1.45-.116v.302c0 1.067-.627 1.74-1.66 1.74zm9.242-6.659v7.367h1.09v-8.388h-2.854v1.021h1.764z" fill="#430D0B"/><path stroke="#430D0B" stroke-width="1.45" d="M.725 189.735h140.666v29.052H.725z"/><path d="M37.496 236.77c1.636 0 2.703-1.137 2.703-2.704 0-1.612-1.055-2.691-2.703-2.691h-3.26v8.388h1.137v-2.993h2.123zm-.197-4.374c1.067 0 1.705.603 1.705 1.659 0 1.032-.626 1.694-1.751 1.694h-1.88v-3.353H37.3zm5.667 7.506c.916 0 1.694-.406 1.984-1.056l.116.917h.928v-3.562c0-1.531-.951-2.274-2.355-2.274-1.462 0-2.437.778-2.437 1.961h.952c0-.685.522-1.091 1.438-1.091.766 0 1.335.337 1.335 1.288v.162l-1.787.14c-1.334.104-2.111.754-2.111 1.798 0 1.032.719 1.717 1.937 1.717zm.313-.847c-.708 0-1.148-.302-1.148-.905 0-.557.394-.928 1.357-1.021l1.45-.116v.302c0 1.067-.626 1.74-1.659 1.74zm7.705-5.012a2.653 2.653 0 0 0-.58-.069c-.777 0-1.345.394-1.577.986l-.07-.859h-1.02v5.662h1.09v-3.005c0-1.091.638-1.717 1.67-1.717h.487v-.998zm2.37 5.72v-1.613l.962-1.009 1.659 2.622h1.253l-2.158-3.411 2.17-2.262h-1.37l-2.517 2.668v-5.534h-1.09v8.539h1.09zm5.542-7.019c.395 0 .72-.325.72-.719a.716.716 0 0 0-.72-.72.716.716 0 0 0-.719.72c0 .394.325.719.72.719zm-.533 7.019h1.09v-5.673h-1.09v5.673zm3.996 0v-3.005c0-1.102.592-1.833 1.613-1.833.835 0 1.369.464 1.369 1.613v3.225h1.09v-3.469c0-1.45-.684-2.367-2.181-2.367-.8 0-1.52.383-1.88 1.033l-.115-.87h-.986v5.673h1.09zm5.455-2.982c0 1.59 1.02 2.831 2.633 2.831.894 0 1.636-.395 2.007-1.056v1.137c0 1.079-.696 1.775-1.763 1.775-.951 0-1.578-.487-1.717-1.322h-1.09c.208 1.438 1.264 2.308 2.807 2.308 1.74 0 2.842-1.137 2.842-2.923v-5.441h-.974l-.081.963c-.36-.708-1.068-1.126-1.984-1.126-1.648 0-2.68 1.253-2.68 2.854zm1.09-.023c0-1.044.65-1.879 1.74-1.879 1.114 0 1.764.788 1.764 1.879 0 1.114-.673 1.903-1.775 1.903-1.067 0-1.729-.836-1.729-1.903zm9.538-3.121c0 1.207.708 1.996 2.076 2.309l1.381.313c.8.186 1.16.603 1.16 1.265 0 .835-.707 1.357-1.821 1.357-1.056 0-1.729-.51-1.752-1.311h-1.16c.07 1.439 1.206 2.332 2.912 2.332 1.786 0 2.958-.963 2.958-2.471 0-1.184-.696-1.926-2.065-2.239l-1.38-.325c-.79-.186-1.172-.592-1.172-1.265 0-.823.684-1.357 1.74-1.357.94 0 1.531.487 1.59 1.323h1.148c-.093-1.451-1.126-2.344-2.727-2.344-1.728 0-2.888.975-2.888 2.413zm8.83 6.126v-4.757h1.114v-.916h-1.114v-1.775h-1.09v1.775h-1.114v.916h1.114v4.757h1.09zm3.916.139c.916 0 1.693-.406 1.983-1.056l.116.917h.928v-3.562c0-1.531-.95-2.274-2.355-2.274-1.461 0-2.436.778-2.436 1.961h.951c0-.685.523-1.091 1.44-1.091.765 0 1.333.337 1.333 1.288v.162l-1.786.14c-1.334.104-2.112.754-2.112 1.798 0 1.032.72 1.717 1.938 1.717zm.313-.847c-.708 0-1.149-.302-1.149-.905 0-.557.395-.928 1.358-1.021l1.45-.116v.302c0 1.067-.627 1.74-1.66 1.74zm4.097-2.274c0 1.59 1.021 2.831 2.634 2.831.893 0 1.636-.395 2.007-1.056v1.137c0 1.079-.696 1.775-1.764 1.775-.951 0-1.578-.487-1.717-1.322h-1.09c.209 1.438 1.264 2.308 2.807 2.308 1.741 0 2.843-1.137 2.843-2.923v-5.441h-.975l-.081.963c-.36-.708-1.067-1.126-1.984-1.126-1.647 0-2.68 1.253-2.68 2.854zm1.09-.023c0-1.044.65-1.879 1.74-1.879 1.115 0 1.764.788 1.764 1.879 0 1.114-.673 1.903-1.775 1.903-1.067 0-1.728-.836-1.728-1.903zm8.883 3.144c1.404 0 2.355-.685 2.634-1.903h-1.021c-.186.65-.743.998-1.589.998-1.079 0-1.706-.661-1.787-1.856l4.385-.012v-.406c0-1.682-1.055-2.796-2.668-2.796-1.647 0-2.773 1.23-2.773 3.005 0 1.763 1.149 2.97 2.819 2.97zm-.046-5.058c.963 0 1.578.626 1.578 1.566h-3.272c.139-.998.743-1.566 1.694-1.566z" fill="#430D0B"/><path stroke="#430D0B" stroke-width="1.45" d="M.725 221.237h140.666v29.052H.725z"/><path d="M42.884 271.264v-3.585c0-1.171-.024-2.03-.082-2.436l2.437 6.021h1.067l2.448-6.044c-.058.592-.07 1.16-.07 2.726v3.318h1.114v-8.388h-1.137l-2.889 7.054-2.888-7.054H41.77v8.388h1.114zm10.572.139c.917 0 1.694-.406 1.984-1.055l.116.916h.928v-3.561c0-1.532-.95-2.274-2.355-2.274-1.461 0-2.436.777-2.436 1.96h.951c0-.684.523-1.09 1.439-1.09.766 0 1.334.336 1.334 1.288v.162l-1.786.139c-1.335.105-2.112.754-2.112 1.798 0 1.033.72 1.717 1.938 1.717zm.314-.847c-.708 0-1.149-.301-1.149-.904 0-.557.395-.929 1.358-1.021l1.45-.116v.301c0 1.068-.627 1.74-1.66 1.74zm4.99-6.311c.395 0 .72-.324.72-.719a.715.715 0 0 0-.72-.719.715.715 0 0 0-.719.719c0 .395.325.719.72.719zm-.533 7.019h1.09v-5.673h-1.09v5.673zm3.996 0v-3.005c0-1.102.592-1.833 1.613-1.833.835 0 1.369.464 1.369 1.613v3.225h1.09v-3.469c0-1.45-.684-2.366-2.18-2.366-.801 0-1.52.383-1.88 1.032l-.116-.87h-.986v5.673h1.09zm8.917-6.125c0 1.206.708 1.995 2.077 2.308l1.38.314c.8.185 1.16.603 1.16 1.264 0 .835-.707 1.357-1.82 1.357-1.057 0-1.73-.51-1.753-1.31h-1.16c.07 1.438 1.207 2.331 2.912 2.331 1.787 0 2.958-.963 2.958-2.471 0-1.183-.696-1.926-2.065-2.239l-1.38-.325c-.789-.185-1.172-.591-1.172-1.264 0-.824.685-1.358 1.74-1.358.94 0 1.532.488 1.59 1.323h1.148c-.093-1.45-1.125-2.343-2.726-2.343-1.729 0-2.889.974-2.889 2.413zm8.83 6.125v-4.756h1.114v-.917h-1.113v-1.775H78.88v1.775h-1.114v.917h1.114v4.756h1.09zm3.916.139c.916 0 1.694-.406 1.984-1.055l.116.916h.928v-3.561c0-1.532-.951-2.274-2.355-2.274-1.462 0-2.436.777-2.436 1.96h.95c0-.684.523-1.09 1.44-1.09.765 0 1.334.336 1.334 1.288v.162l-1.787.139c-1.334.105-2.111.754-2.111 1.798 0 1.033.719 1.717 1.937 1.717zm.313-.847c-.707 0-1.148-.301-1.148-.904 0-.557.394-.929 1.357-1.021l1.45-.116v.301c0 1.068-.626 1.74-1.659 1.74zm4.098-2.273c0 1.589 1.02 2.83 2.633 2.83.893 0 1.636-.394 2.007-1.055v1.137c0 1.078-.696 1.775-1.763 1.775-.952 0-1.578-.488-1.717-1.323h-1.09c.208 1.439 1.264 2.309 2.807 2.309 1.74 0 2.842-1.137 2.842-2.924v-5.441h-.975l-.08.963c-.36-.708-1.068-1.125-1.984-1.125-1.648 0-2.68 1.253-2.68 2.854zm1.09-.024c0-1.044.65-1.879 1.74-1.879 1.114 0 1.764.789 1.764 1.879 0 1.114-.673 1.903-1.775 1.903-1.068 0-1.729-.835-1.729-1.903zm8.883 3.144c1.404 0 2.355-.684 2.633-1.902h-1.02c-.186.649-.743.997-1.59.997-1.079 0-1.705-.661-1.787-1.856l4.386-.011v-.406c0-1.683-1.056-2.796-2.669-2.796-1.647 0-2.772 1.229-2.772 3.004 0 1.764 1.148 2.97 2.819 2.97zm-.047-5.058c.963 0 1.578.627 1.578 1.566H96.53c.14-.997.743-1.566 1.694-1.566z" fill="#430D0B"/><path stroke="#430D0B" stroke-width="1.45" d="M.725 252.738h140.666v29.052H.725z"/><path d="M35.297 300.522c1.636 0 2.703-1.137 2.703-2.703 0-1.613-1.056-2.692-2.703-2.692h-3.26v8.388h1.137v-2.993h2.123zm-.197-4.374c1.067 0 1.705.604 1.705 1.659 0 1.033-.626 1.694-1.752 1.694h-1.88v-3.353H35.1zm5.667 7.506c.916 0 1.693-.406 1.983-1.055l.116.916h.928v-3.561c0-1.532-.95-2.274-2.355-2.274-1.461 0-2.436.777-2.436 1.96h.952c0-.684.522-1.09 1.438-1.09.766 0 1.334.336 1.334 1.288V300l-1.786.139c-1.335.105-2.112.754-2.112 1.798 0 1.033.72 1.717 1.938 1.717zm.313-.847c-.708 0-1.149-.301-1.149-.904 0-.557.395-.929 1.358-1.021l1.45-.116v.301c0 1.068-.627 1.74-1.66 1.74zm7.705-5.011a2.598 2.598 0 0 0-.58-.07c-.777 0-1.346.395-1.578.986l-.07-.858h-1.02v5.661h1.09v-3.005c0-1.09.638-1.717 1.67-1.717h.488v-.997zm2.369 5.719v-1.612l.963-1.01 1.659 2.622h1.253l-2.158-3.411 2.17-2.262h-1.37l-2.517 2.668v-5.533h-1.09v8.538h1.09zm5.543-7.019c.395 0 .72-.325.72-.719a.715.715 0 0 0-.72-.719.715.715 0 0 0-.72.719c0 .394.326.719.72.719zm-.534 7.019h1.09v-5.673h-1.09v5.673zm3.997 0v-3.005c0-1.102.591-1.833 1.612-1.833.836 0 1.37.464 1.37 1.613v3.225h1.09v-3.469c0-1.45-.685-2.366-2.181-2.366-.8 0-1.52.383-1.88 1.032l-.116-.87h-.986v5.673h1.09zm5.455-2.981c0 1.589 1.02 2.83 2.633 2.83.893 0 1.636-.394 2.007-1.055v1.137c0 1.078-.696 1.775-1.763 1.775-.952 0-1.578-.488-1.717-1.323h-1.09c.208 1.439 1.264 2.309 2.807 2.309 1.74 0 2.842-1.137 2.842-2.924v-5.441h-.975l-.08.963c-.36-.708-1.068-1.125-1.985-1.125-1.647 0-2.68 1.253-2.68 2.854zm1.09-.024c0-1.044.65-1.879 1.74-1.879 1.114 0 1.764.789 1.764 1.879 0 1.114-.673 1.903-1.775 1.903-1.068 0-1.729-.835-1.729-1.903zm10.373 3.005.742-2.088h3.527l.754 2.088h1.195l-3.074-8.388h-1.265l-3.063 8.388h1.184zm2.366-6.578c.058-.174.116-.371.14-.487.023.128.08.325.139.487l1.288 3.504h-2.843l1.276-3.504zm8.262.859a2.597 2.597 0 0 0-.58-.07c-.778 0-1.346.395-1.578.986l-.07-.858h-1.02v5.661h1.09v-3.005c0-1.09.638-1.717 1.67-1.717h.488v-.997zm3.499 5.858c1.403 0 2.355-.684 2.633-1.902h-1.02c-.186.649-.743.997-1.59.997-1.08 0-1.706-.661-1.787-1.856l4.385-.011v-.406c0-1.683-1.055-2.796-2.668-2.796-1.647 0-2.773 1.229-2.773 3.004 0 1.764 1.149 2.97 2.82 2.97zm-.047-5.058c.963 0 1.578.627 1.578 1.566h-3.272c.14-.997.743-1.566 1.694-1.566zm5.72 5.058c.917 0 1.695-.406 1.985-1.055l.116.916h.928v-3.561c0-1.532-.951-2.274-2.355-2.274-1.462 0-2.437.777-2.437 1.96h.952c0-.684.522-1.09 1.438-1.09.766 0 1.335.336 1.335 1.288V300l-1.787.139c-1.334.105-2.111.754-2.111 1.798 0 1.033.719 1.717 1.937 1.717zm.314-.847c-.707 0-1.148-.301-1.148-.904 0-.557.394-.929 1.357-1.021l1.45-.116v.301c0 1.068-.626 1.74-1.659 1.74zm13.268.697v-1.056h-3.875l1.74-1.508c1.485-1.288 2.077-2.135 2.077-3.33 0-1.613-1.079-2.633-2.761-2.633-1.706 0-2.843 1.171-2.878 2.969h1.137c.024-1.194.696-1.949 1.729-1.949 1.009 0 1.613.627 1.613 1.683 0 .893-.383 1.461-1.741 2.633l-2.703 2.332v.87l5.662-.011z" fill="#430D0B"/><path stroke="#430D0B" stroke-width="1.45" d="M.725 284.24h140.55v30.55H.725z"/><path fill="#DDA734" d="M141.49.725h81.209v29.052H141.49z"/><path d="M154.951 16.594c.858-1.172 1.16-1.88 1.16-2.865 0-1.706-1.346-3.017-3.086-3.017-1.729 0-3.051 1.265-3.051 3.005 0 1.67 1.171 2.924 2.912 2.924.29 0 .591-.058.881-.174l-2.1 2.784h1.323l1.961-2.657zm0-2.877c0 1.149-.789 1.96-1.926 1.96-1.114 0-1.903-.811-1.903-1.96 0-1.148.789-1.984 1.903-1.984 1.137 0 1.926.836 1.926 1.984zm4.319 5.673c.917 0 1.694-.406 1.984-1.056l.116.917h.928v-3.562c0-1.531-.951-2.274-2.355-2.274-1.462 0-2.436.778-2.436 1.961h.951c0-.684.522-1.09 1.439-1.09.765 0 1.334.336 1.334 1.287v.163l-1.787.139c-1.334.104-2.111.754-2.111 1.798 0 1.033.719 1.717 1.937 1.717zm.313-.847c-.707 0-1.148-.301-1.148-.905 0-.557.394-.928 1.357-1.02l1.45-.116v.301c0 1.067-.626 1.74-1.659 1.74zm5.548.708v-3.364c0-.905.545-1.474 1.369-1.474.766 0 1.253.487 1.253 1.38v3.458h1.079v-3.364c0-.905.545-1.485 1.369-1.485.765 0 1.264.51 1.264 1.403v3.446h1.068v-3.712c0-1.311-.789-2.123-2.089-2.123-.881 0-1.566.44-1.833 1.148-.29-.708-.916-1.149-1.798-1.149-.8 0-1.404.372-1.694.905l-.104-.742h-.975v5.673h1.091zm12.492-2.587h3.538v-.975h-3.538v.975zm10.071-4.78v7.367h1.09v-8.388h-2.854v1.021h1.764zm2.857 3.179c0 2.61 1.287 4.339 3.457 4.339 2.158 0 3.445-1.729 3.445-4.34 0-2.598-1.345-4.361-3.445-4.361-2.112 0-3.457 1.763-3.457 4.362zm1.125 0c0-2.088.858-3.341 2.332-3.341 1.473 0 2.32 1.253 2.32 3.34 0 2.066-.847 3.319-2.32 3.319-1.474 0-2.332-1.253-2.332-3.318zm9.03 4.327c.916 0 1.694-.406 1.984-1.056l.116.917h.928v-3.562c0-1.531-.951-2.274-2.355-2.274-1.462 0-2.436.778-2.436 1.961h.951c0-.684.522-1.09 1.438-1.09.766 0 1.335.336 1.335 1.287v.163l-1.787.139c-1.334.104-2.111.754-2.111 1.798 0 1.033.719 1.717 1.937 1.717zm.313-.847c-.708 0-1.148-.301-1.148-.905 0-.557.394-.928 1.357-1.02l1.45-.116v.301c0 1.067-.626 1.74-1.659 1.74zm5.548.708v-3.364c0-.905.545-1.474 1.369-1.474.765 0 1.253.487 1.253 1.38v3.458h1.079v-3.364c0-.905.545-1.485 1.368-1.485.766 0 1.265.51 1.265 1.403v3.446h1.067v-3.712c0-1.311-.789-2.123-2.088-2.123-.882 0-1.566.44-1.833 1.148-.29-.708-.916-1.149-1.798-1.149-.801 0-1.404.372-1.694.905l-.104-.742h-.975v5.673h1.091z" fill="#430D0B"/><path stroke="#430D0B" stroke-width="1.45" d="M141.49.725h81.209v29.052H141.49z"/><path fill="#DDA734" d="M222.699.725h81.209v29.052h-81.209z"/><path d="M232.132 11.884v7.367h1.091v-8.388h-2.854v1.021h1.763zm2.857 3.179c0 2.61 1.288 4.339 3.457 4.339 2.158 0 3.446-1.729 3.446-4.34 0-2.598-1.346-4.361-3.446-4.361-2.111 0-3.457 1.763-3.457 4.362zm1.125 0c0-2.088.859-3.341 2.332-3.341 1.474 0 2.32 1.253 2.32 3.34 0 2.066-.846 3.319-2.32 3.319-1.473 0-2.332-1.253-2.332-3.318zm9.03 4.327c.917 0 1.694-.406 1.984-1.056l.116.917h.928v-3.562c0-1.531-.951-2.274-2.355-2.274-1.462 0-2.436.778-2.436 1.961h.951c0-.684.522-1.09 1.439-1.09.765 0 1.334.336 1.334 1.287v.163l-1.787.139c-1.334.104-2.111.754-2.111 1.798 0 1.033.719 1.717 1.937 1.717zm.314-.847c-.708 0-1.149-.301-1.149-.905 0-.557.394-.928 1.357-1.02l1.451-.116v.301c0 1.067-.627 1.74-1.659 1.74zm5.547.708v-3.364c0-.905.545-1.474 1.369-1.474.766 0 1.253.487 1.253 1.38v3.458h1.079v-3.364c0-.905.545-1.485 1.369-1.485.766 0 1.264.51 1.264 1.403v3.446h1.068v-3.712c0-1.311-.789-2.123-2.089-2.123-.881 0-1.566.44-1.833 1.148-.29-.708-.916-1.149-1.798-1.149-.8 0-1.404.372-1.694.905l-.104-.742h-.974v5.673h1.09zm12.492-2.587h3.538v-.975h-3.538v.975zm10.071-4.78v7.367h1.09v-8.388h-2.854v1.021h1.764zm4.356 0v7.367h1.09v-8.388h-2.854v1.021h1.764zm4.736 7.506c.917 0 1.694-.406 1.984-1.056l.116.917h.928v-3.562c0-1.531-.951-2.274-2.355-2.274-1.462 0-2.436.778-2.436 1.961h.951c0-.684.522-1.09 1.439-1.09.765 0 1.334.336 1.334 1.287v.163l-1.787.139c-1.334.104-2.111.754-2.111 1.798 0 1.033.719 1.717 1.937 1.717zm.313-.847c-.707 0-1.148-.301-1.148-.905 0-.557.394-.928 1.357-1.02l1.45-.116v.301c0 1.067-.626 1.74-1.659 1.74zm5.548.708v-3.364c0-.905.545-1.474 1.369-1.474.765 0 1.253.487 1.253 1.38v3.458h1.079v-3.364c0-.905.545-1.485 1.369-1.485.765 0 1.264.51 1.264 1.403v3.446h1.067v-3.712c0-1.311-.788-2.123-2.088-2.123-.881 0-1.566.44-1.833 1.148-.29-.708-.916-1.149-1.798-1.149-.8 0-1.404.372-1.694.905l-.104-.742h-.975v5.673h1.091z" fill="#430D0B"/><path stroke="#430D0B" stroke-width="1.45" d="M222.699.725h81.209v29.052h-81.209z"/><path fill="#DDA734" d="M303.909.725h81.209v29.052h-81.209z"/><path d="M313.647 11.884v7.367h1.091v-8.388h-2.854v1.021h1.763zm4.356 0v7.367h1.091v-8.388h-2.854v1.021h1.763zm4.736 7.506c.917 0 1.694-.406 1.984-1.056l.116.917h.928v-3.562c0-1.531-.951-2.274-2.355-2.274-1.461 0-2.436.778-2.436 1.961h.951c0-.684.522-1.09 1.439-1.09.766 0 1.334.336 1.334 1.287v.163l-1.787.139c-1.334.104-2.111.754-2.111 1.798 0 1.033.719 1.717 1.937 1.717zm.314-.847c-.708 0-1.149-.301-1.149-.905 0-.557.395-.928 1.357-1.02l1.451-.116v.301c0 1.067-.627 1.74-1.659 1.74zm5.547.708v-3.364c0-.905.545-1.474 1.369-1.474.766 0 1.253.487 1.253 1.38v3.458h1.079v-3.364c0-.905.545-1.485 1.369-1.485.766 0 1.265.51 1.265 1.403v3.446h1.067v-3.712c0-1.311-.789-2.123-2.088-2.123-.882 0-1.567.44-1.833 1.148-.29-.708-.917-1.149-1.799-1.149-.8 0-1.403.372-1.693.905l-.105-.742h-.974v5.673h1.09zm12.492-2.587h3.538v-.975h-3.538v.975zm10.071-4.78v7.367h1.09v-8.388H349.4v1.021h1.763zm8.484 7.355v-1.055h-3.875l1.74-1.509c1.485-1.287 2.077-2.134 2.077-3.33 0-1.612-1.079-2.633-2.762-2.633-1.705 0-2.842 1.172-2.877 2.97h1.137c.023-1.195.696-1.949 1.729-1.949 1.009 0 1.612.627 1.612 1.682 0 .894-.382 1.462-1.74 2.634l-2.703 2.332v.87l5.662-.012zm1.498 2.553h1.091v-3.47c.371.697 1.125 1.08 2.03 1.08 1.682 0 2.634-1.3 2.634-3.028 0-1.74-1.01-2.958-2.634-2.958-.905 0-1.67.406-2.053 1.183l-.082-1.021h-.986v8.214zm1.102-5.372c0-1.183.673-2.007 1.787-2.007 1.114 0 1.775.835 1.775 2.007 0 1.16-.661 1.996-1.775 1.996-1.114 0-1.787-.836-1.787-1.996zm7.177 2.831v-3.364c0-.905.545-1.474 1.369-1.474.766 0 1.253.487 1.253 1.38v3.458h1.079v-3.364c0-.905.545-1.485 1.369-1.485.766 0 1.265.51 1.265 1.403v3.446h1.067v-3.712c0-1.311-.789-2.123-2.088-2.123-.882 0-1.567.44-1.833 1.148-.29-.708-.917-1.149-1.799-1.149-.8 0-1.403.372-1.693.905l-.105-.742h-.974v5.673h1.09z" fill="#430D0B"/><path stroke="#430D0B" stroke-width="1.45" d="M303.909.725h81.209v29.052h-81.209z"/><path fill="#DDA734" d="M385.118.725h81.209v29.052h-81.209z"/><path d="M396.655 11.884v7.367h1.09v-8.388h-2.853v1.021h1.763zm8.484 7.355v-1.055h-3.875l1.74-1.509c1.485-1.287 2.077-2.134 2.077-3.33 0-1.612-1.079-2.633-2.762-2.633-1.705 0-2.842 1.172-2.877 2.97h1.137c.023-1.195.696-1.949 1.729-1.949 1.009 0 1.612.627 1.612 1.682 0 .894-.382 1.462-1.74 2.634l-2.703 2.332v.87l5.662-.012zm1.498 2.553h1.091v-3.47c.371.697 1.125 1.08 2.03 1.08 1.682 0 2.634-1.3 2.634-3.028 0-1.74-1.01-2.958-2.634-2.958-.905 0-1.67.406-2.053 1.183l-.082-1.021h-.986v8.214zm1.102-5.372c0-1.183.673-2.007 1.787-2.007 1.114 0 1.775.835 1.775 2.007 0 1.16-.661 1.996-1.775 1.996-1.114 0-1.787-.836-1.787-1.996zm7.177 2.831v-3.364c0-.905.545-1.474 1.369-1.474.766 0 1.253.487 1.253 1.38v3.458h1.079v-3.364c0-.905.545-1.485 1.369-1.485.766 0 1.264.51 1.264 1.403v3.446h1.068v-3.712c0-1.311-.789-2.123-2.088-2.123-.882 0-1.567.44-1.833 1.148-.29-.708-.917-1.149-1.799-1.149-.8 0-1.403.372-1.693.905l-.105-.742h-.974v5.673h1.09zm12.492-2.587h3.538v-.975h-3.538v.975zm10.071-4.78v7.367h1.09v-8.388h-2.853v1.021h1.763zm3.077 9.908h1.091v-3.47c.371.697 1.125 1.08 2.03 1.08 1.682 0 2.634-1.3 2.634-3.028 0-1.74-1.01-2.958-2.634-2.958-.905 0-1.671.406-2.053 1.183l-.082-1.021h-.986v8.214zm1.102-5.372c0-1.183.673-2.007 1.787-2.007 1.114 0 1.775.835 1.775 2.007 0 1.16-.661 1.996-1.775 1.996-1.114 0-1.787-.836-1.787-1.996zm7.177 2.831v-3.364c0-.905.545-1.474 1.369-1.474.766 0 1.253.487 1.253 1.38v3.458h1.079v-3.364c0-.905.545-1.485 1.369-1.485.766 0 1.264.51 1.264 1.403v3.446h1.068v-3.712c0-1.311-.789-2.123-2.088-2.123-.882 0-1.567.44-1.833 1.148-.291-.708-.917-1.149-1.799-1.149-.8 0-1.403.372-1.693.905l-.105-.742h-.974v5.673h1.09z" fill="#430D0B"/><path stroke="#430D0B" stroke-width="1.45" d="M385.118.725h81.209v29.052h-81.209z"/><path fill="#DDA734" d="M466.327.725h81.209v29.052h-81.209z"/><path d="M480.093 11.884v7.367h1.091v-8.388h-2.854v1.021h1.763zm3.077 9.908h1.091v-3.47c.371.697 1.125 1.08 2.03 1.08 1.682 0 2.634-1.3 2.634-3.028 0-1.74-1.01-2.958-2.634-2.958-.905 0-1.67.406-2.053 1.183l-.081-1.021h-.987v8.214zm1.103-5.372c0-1.183.672-2.007 1.786-2.007 1.114 0 1.775.835 1.775 2.007 0 1.16-.661 1.996-1.775 1.996-1.114 0-1.786-.836-1.786-1.996zm7.176 2.831v-3.364c0-.905.546-1.474 1.369-1.474.766 0 1.253.487 1.253 1.38v3.458h1.079v-3.364c0-.905.545-1.485 1.369-1.485.766 0 1.265.51 1.265 1.403v3.446h1.067v-3.712c0-1.311-.789-2.123-2.088-2.123-.882 0-1.566.44-1.833 1.148-.29-.708-.917-1.149-1.799-1.149-.8 0-1.403.372-1.693.905l-.105-.742h-.974v5.673h1.09zm12.492-2.587h3.538v-.975h-3.538v.975zm14.097 2.575v-1.055h-3.875l1.74-1.509c1.485-1.287 2.077-2.134 2.077-3.33 0-1.612-1.079-2.633-2.761-2.633-1.706 0-2.843 1.172-2.878 2.97h1.137c.024-1.195.696-1.949 1.729-1.949 1.009 0 1.613.627 1.613 1.682 0 .894-.383 1.462-1.741 2.634l-2.703 2.332v.87l5.662-.012zm1.499 2.553h1.09v-3.47c.371.697 1.125 1.08 2.03 1.08 1.683 0 2.634-1.3 2.634-3.028 0-1.74-1.009-2.958-2.634-2.958-.905 0-1.67.406-2.053 1.183l-.081-1.021h-.986v8.214zm1.102-5.372c0-1.183.673-2.007 1.786-2.007 1.114 0 1.775.835 1.775 2.007 0 1.16-.661 1.996-1.775 1.996-1.113 0-1.786-.836-1.786-1.996zm7.176 2.831v-3.364c0-.905.546-1.474 1.369-1.474.766 0 1.253.487 1.253 1.38v3.458h1.079v-3.364c0-.905.545-1.485 1.369-1.485.766 0 1.265.51 1.265 1.403v3.446h1.067v-3.712c0-1.311-.789-2.123-2.088-2.123-.882 0-1.566.44-1.833 1.148-.29-.708-.917-1.149-1.798-1.149-.801 0-1.404.372-1.694.905l-.105-.742h-.974v5.673h1.09z" fill="#430D0B"/><path stroke="#430D0B" stroke-width="1.45" d="M466.327.725h81.209v29.052h-81.209z"/><path fill="#DDA734" d="M547.536.725h81.209v29.052h-81.209z"/><path d="M564.144 19.24v-1.056h-3.875l1.741-1.509c1.485-1.287 2.076-2.134 2.076-3.33 0-1.612-1.079-2.633-2.761-2.633-1.705 0-2.842 1.172-2.877 2.97h1.137c.023-1.195.696-1.949 1.728-1.949 1.01 0 1.613.627 1.613 1.682 0 .894-.383 1.462-1.74 2.634l-2.703 2.332v.87l5.661-.012zm1.499 2.552h1.091v-3.47c.371.697 1.125 1.08 2.03 1.08 1.682 0 2.633-1.3 2.633-3.028 0-1.74-1.009-2.958-2.633-2.958-.905 0-1.671.406-2.054 1.183l-.081-1.021h-.986v8.214zm1.102-5.372c0-1.183.673-2.007 1.787-2.007 1.114 0 1.775.835 1.775 2.007 0 1.16-.661 1.996-1.775 1.996-1.114 0-1.787-.836-1.787-1.996zm7.177 2.831v-3.364c0-.905.545-1.474 1.369-1.474.766 0 1.253.487 1.253 1.38v3.458h1.079v-3.364c0-.905.545-1.485 1.369-1.485.765 0 1.264.51 1.264 1.403v3.446h1.068v-3.712c0-1.311-.789-2.123-2.089-2.123-.881 0-1.566.44-1.833 1.148-.29-.708-.916-1.149-1.798-1.149-.8 0-1.404.372-1.694.905l-.104-.742h-.975v5.673h1.091zm12.492-2.587h3.538v-.975h-3.538v.975zm10.871-1.752c1.334 0 2.03.673 2.03 1.682 0 1.08-.707 1.775-1.798 1.775-1.056 0-1.728-.638-1.728-1.728h-1.126c0 1.74 1.184 2.75 2.831 2.75 1.705 0 2.982-1.08 2.982-2.773 0-1.509-1.079-2.472-2.506-2.646l2.297-2.192v-.917h-5.209v1.01h3.77l-2.378 2.285v.754h.835zm4.645 6.88h1.09v-3.47c.372.697 1.126 1.08 2.031 1.08 1.682 0 2.633-1.3 2.633-3.028 0-1.74-1.009-2.958-2.633-2.958-.905 0-1.671.406-2.054 1.183l-.081-1.021h-.986v8.214zm1.102-5.372c0-1.183.673-2.007 1.787-2.007 1.113 0 1.775.835 1.775 2.007 0 1.16-.662 1.996-1.775 1.996-1.114 0-1.787-.836-1.787-1.996zm7.177 2.831v-3.364c0-.905.545-1.474 1.369-1.474.765 0 1.253.487 1.253 1.38v3.458h1.078v-3.364c0-.905.546-1.485 1.369-1.485.766 0 1.265.51 1.265 1.403v3.446h1.067v-3.712c0-1.311-.789-2.123-2.088-2.123-.882 0-1.566.44-1.833 1.148-.29-.708-.916-1.149-1.798-1.149-.801 0-1.404.372-1.694.905l-.104-.742h-.975v5.673h1.091z" fill="#430D0B"/><path stroke="#430D0B" stroke-width="1.45" d="M547.536.725h81.209v29.052h-81.209z"/><path fill="#DDA734" d="M628.746.725h81.209v29.052h-81.209z"/><path d="M641.777 14.912c1.334 0 2.03.673 2.03 1.682 0 1.08-.707 1.775-1.798 1.775-1.056 0-1.728-.638-1.728-1.728h-1.126c0 1.74 1.184 2.75 2.831 2.75 1.705 0 2.982-1.08 2.982-2.773 0-1.509-1.079-2.472-2.506-2.646l2.297-2.192v-.917h-5.209v1.01h3.77l-2.378 2.285v.754h.835zm4.645 6.88h1.09v-3.47c.372.697 1.126 1.08 2.031 1.08 1.682 0 2.633-1.3 2.633-3.028 0-1.74-1.009-2.958-2.633-2.958-.905 0-1.671.406-2.054 1.183l-.081-1.021h-.986v8.214zm1.102-5.372c0-1.183.673-2.007 1.787-2.007 1.113 0 1.775.835 1.775 2.007 0 1.16-.662 1.996-1.775 1.996-1.114 0-1.787-.836-1.787-1.996zm7.177 2.831v-3.364c0-.905.545-1.474 1.369-1.474.765 0 1.253.487 1.253 1.38v3.458h1.079v-3.364c0-.905.545-1.485 1.368-1.485.766 0 1.265.51 1.265 1.403v3.446h1.067v-3.712c0-1.311-.789-2.123-2.088-2.123-.882 0-1.566.44-1.833 1.148-.29-.708-.916-1.149-1.798-1.149-.801 0-1.404.372-1.694.905l-.104-.742h-.975v5.673h1.091zm12.491-2.587h3.539v-.975h-3.539v.975zm14.724.893v-1.01h-.998v-5.684h-1.473l-3.957 5.685v1.01h4.339v1.693h1.091v-1.694h.998zm-5.198-1.01 3.109-4.477v4.478h-3.109zm6.772 5.245h1.091v-3.47c.371.697 1.125 1.08 2.03 1.08 1.682 0 2.634-1.3 2.634-3.028 0-1.74-1.01-2.958-2.634-2.958-.905 0-1.67.406-2.053 1.183l-.081-1.021h-.987v8.214zm1.103-5.372c0-1.183.672-2.007 1.786-2.007 1.114 0 1.775.835 1.775 2.007 0 1.16-.661 1.996-1.775 1.996-1.114 0-1.786-.836-1.786-1.996zm7.176 2.831v-3.364c0-.905.545-1.474 1.369-1.474.766 0 1.253.487 1.253 1.38v3.458h1.079v-3.364c0-.905.545-1.485 1.369-1.485.766 0 1.265.51 1.265 1.403v3.446h1.067v-3.712c0-1.311-.789-2.123-2.088-2.123-.882 0-1.567.44-1.833 1.148-.29-.708-.917-1.149-1.799-1.149-.8 0-1.403.372-1.693.905l-.105-.742h-.974v5.673h1.09z" fill="#430D0B"/><path stroke="#430D0B" stroke-width="1.45" d="M628.746.725h81.209v29.052h-81.209z"/><path fill="#DDA734" d="M709.955.725h81.209v29.052h-81.209z"/><path d="M726.708 17.557v-1.01h-.998v-5.684h-1.473l-3.956 5.685v1.01h4.339v1.693h1.09v-1.694h.998zm-5.198-1.01 3.11-4.477v4.478h-3.11zm6.773 5.245h1.09v-3.47c.371.697 1.125 1.08 2.03 1.08 1.683 0 2.634-1.3 2.634-3.028 0-1.74-1.009-2.958-2.634-2.958-.905 0-1.67.406-2.053 1.183l-.081-1.021h-.986v8.214zm1.102-5.372c0-1.183.673-2.007 1.786-2.007 1.114 0 1.775.835 1.775 2.007 0 1.16-.661 1.996-1.775 1.996-1.113 0-1.786-.836-1.786-1.996zm7.176 2.831v-3.364c0-.905.546-1.474 1.369-1.474.766 0 1.253.487 1.253 1.38v3.458h1.079v-3.364c0-.905.545-1.485 1.369-1.485.766 0 1.265.51 1.265 1.403v3.446h1.067v-3.712c0-1.311-.789-2.123-2.088-2.123-.882 0-1.566.44-1.833 1.148-.29-.708-.917-1.149-1.798-1.149-.801 0-1.404.372-1.694.905l-.105-.742h-.974v5.673h1.09zm12.492-2.587h3.538v-.975h-3.538v.975zm11.289 2.726c1.81 0 3.051-1.218 3.051-2.958 0-1.613-1.102-2.808-2.807-2.808-.627 0-1.183.174-1.624.51l.557-2.227h3.376v-1.044h-4.2l-1.021 4.304.963.244a2.266 2.266 0 0 1 1.74-.812c1.172 0 1.856.8 1.856 1.88 0 1.136-.731 1.89-1.868 1.89-1.067 0-1.728-.661-1.728-1.74h-1.125c0 1.67 1.113 2.761 2.83 2.761zm4.488 2.402h1.09v-3.47c.372.697 1.126 1.08 2.031 1.08 1.682 0 2.633-1.3 2.633-3.028 0-1.74-1.009-2.958-2.633-2.958-.905 0-1.671.406-2.054 1.183l-.081-1.021h-.986v8.214zm1.102-5.372c0-1.183.673-2.007 1.787-2.007 1.113 0 1.775.835 1.775 2.007 0 1.16-.662 1.996-1.775 1.996-1.114 0-1.787-.836-1.787-1.996zm7.177 2.831v-3.364c0-.905.545-1.474 1.369-1.474.765 0 1.253.487 1.253 1.38v3.458h1.079v-3.364c0-.905.545-1.485 1.369-1.485.765 0 1.264.51 1.264 1.403v3.446h1.067v-3.712c0-1.311-.789-2.123-2.088-2.123-.882 0-1.566.44-1.833 1.148-.29-.708-.916-1.149-1.798-1.149-.801 0-1.404.372-1.694.905l-.104-.742h-.975v5.673h1.091z" fill="#430D0B"/><path stroke="#430D0B" stroke-width="1.45" d="M709.955.725h81.209v29.052h-81.209z"/><path fill="#DDA734" d="M791.164.725h81.209v29.052h-81.209z"/><path d="M804.625 19.39c1.809 0 3.051-1.218 3.051-2.958 0-1.613-1.102-2.808-2.808-2.808-.626 0-1.183.174-1.624.51l.557-2.227h3.376v-1.044h-4.2l-1.021 4.304.963.244a2.268 2.268 0 0 1 1.74-.812c1.172 0 1.857.8 1.857 1.88 0 1.136-.731 1.89-1.868 1.89-1.067 0-1.729-.661-1.729-1.74h-1.125c0 1.67 1.114 2.761 2.831 2.761zm4.487 2.402h1.091v-3.47c.371.697 1.125 1.08 2.03 1.08 1.682 0 2.634-1.3 2.634-3.028 0-1.74-1.01-2.958-2.634-2.958-.905 0-1.671.406-2.053 1.183l-.082-1.021h-.986v8.214zm1.102-5.372c0-1.183.673-2.007 1.787-2.007 1.114 0 1.775.835 1.775 2.007 0 1.16-.661 1.996-1.775 1.996-1.114 0-1.787-.836-1.787-1.996zm7.177 2.831v-3.364c0-.905.545-1.474 1.369-1.474.766 0 1.253.487 1.253 1.38v3.458h1.079v-3.364c0-.905.545-1.485 1.369-1.485.766 0 1.264.51 1.264 1.403v3.446h1.068v-3.712c0-1.311-.789-2.123-2.089-2.123-.881 0-1.566.44-1.833 1.148-.29-.708-.916-1.149-1.798-1.149-.8 0-1.403.372-1.694.905l-.104-.742h-.974v5.673h1.09zm12.492-2.587h3.538v-.975h-3.538v.975zm9.537-3.144c-.858 1.172-1.16 1.868-1.16 2.865 0 1.694 1.346 3.005 3.086 3.005 1.729 0 3.051-1.253 3.051-3.005 0-1.659-1.172-2.912-2.912-2.912-.29 0-.591.058-.881.175l2.099-2.785h-1.322l-1.961 2.657zm0 2.877c0-1.148.789-1.96 1.926-1.96 1.114 0 1.903.812 1.903 1.96 0 1.149-.789 1.972-1.903 1.972-1.137 0-1.926-.823-1.926-1.972zm6.478 5.395h1.09v-3.47c.371.697 1.125 1.08 2.03 1.08 1.682 0 2.634-1.3 2.634-3.028 0-1.74-1.01-2.958-2.634-2.958-.905 0-1.67.406-2.053 1.183l-.081-1.021h-.986v8.214zM847 16.42c0-1.183.673-2.007 1.786-2.007 1.114 0 1.775.835 1.775 2.007 0 1.16-.661 1.996-1.775 1.996-1.113 0-1.786-.836-1.786-1.996zm7.176 2.831v-3.364c0-.905.546-1.474 1.369-1.474.766 0 1.253.487 1.253 1.38v3.458h1.079v-3.364c0-.905.545-1.485 1.369-1.485.766 0 1.265.51 1.265 1.403v3.446h1.067v-3.712c0-1.311-.789-2.123-2.088-2.123-.882 0-1.566.44-1.833 1.148-.29-.708-.917-1.149-1.798-1.149-.801 0-1.404.372-1.694.905l-.105-.742h-.974v5.673h1.09z" fill="#430D0B"/><path stroke="#430D0B" stroke-width="1.45" d="M791.164.725h81.209v29.052h-81.209z"/><path fill="#DDA734" d="M872.374.725h81.209v29.052h-81.209z"/><path d="M884.496 13.52c-.859 1.172-1.16 1.868-1.16 2.865 0 1.694 1.345 3.005 3.086 3.005 1.728 0 3.051-1.253 3.051-3.005 0-1.659-1.172-2.912-2.912-2.912-.29 0-.592.058-.882.175l2.1-2.785h-1.323l-1.96 2.657zm0 2.877c0-1.148.789-1.96 1.926-1.96 1.113 0 1.902.812 1.902 1.96 0 1.149-.789 1.972-1.902 1.972-1.137 0-1.926-.823-1.926-1.972zm6.477 5.395h1.091v-3.47c.371.697 1.125 1.08 2.03 1.08 1.682 0 2.633-1.3 2.633-3.028 0-1.74-1.009-2.958-2.633-2.958-.905 0-1.671.406-2.054 1.183l-.081-1.021h-.986v8.214zm1.102-5.372c0-1.183.673-2.007 1.787-2.007 1.114 0 1.775.835 1.775 2.007 0 1.16-.661 1.996-1.775 1.996-1.114 0-1.787-.836-1.787-1.996zm7.177 2.831v-3.364c0-.905.545-1.474 1.369-1.474.766 0 1.253.487 1.253 1.38v3.458h1.079v-3.364c0-.905.545-1.485 1.369-1.485.765 0 1.264.51 1.264 1.403v3.446h1.068v-3.712c0-1.311-.789-2.123-2.089-2.123-.881 0-1.566.44-1.833 1.148-.29-.708-.916-1.149-1.798-1.149-.8 0-1.404.372-1.694.905l-.104-.742h-.975v5.673h1.091zm12.492-2.587h3.538v-.975h-3.538v.975zm7.994-5.8v1.043h4.71l-3.213 7.344h1.183l3.179-7.344v-1.044h-5.859zm6.955 10.928h1.091v-3.47c.371.697 1.125 1.08 2.03 1.08 1.682 0 2.634-1.3 2.634-3.028 0-1.74-1.01-2.958-2.634-2.958-.905 0-1.67.406-2.053 1.183l-.082-1.021h-.986v8.214zm1.102-5.372c0-1.183.673-2.007 1.787-2.007 1.114 0 1.775.835 1.775 2.007 0 1.16-.661 1.996-1.775 1.996-1.114 0-1.787-.836-1.787-1.996zm7.177 2.831v-3.364c0-.905.545-1.474 1.369-1.474.766 0 1.253.487 1.253 1.38v3.458h1.079v-3.364c0-.905.545-1.485 1.369-1.485.766 0 1.264.51 1.264 1.403v3.446h1.068v-3.712c0-1.311-.789-2.123-2.088-2.123-.882 0-1.567.44-1.833 1.148-.29-.708-.917-1.149-1.799-1.149-.8 0-1.403.372-1.693.905l-.105-.742h-.974v5.673h1.09z" fill="#430D0B"/><path stroke="#430D0B" stroke-width="1.45" d="M872.374.725h81.209v29.052h-81.209z"/><path fill="#DDA734" d="M953.583.725h81.209v29.052h-81.209z"/><path d="M964.083 10.863v1.044h4.71l-3.214 7.344h1.184l3.179-7.344v-1.044h-5.859zm6.955 10.929h1.091v-3.47c.371.697 1.125 1.08 2.03 1.08 1.682 0 2.634-1.3 2.634-3.028 0-1.74-1.01-2.958-2.634-2.958-.905 0-1.671.406-2.053 1.183l-.082-1.021h-.986v8.214zm1.102-5.372c0-1.183.673-2.007 1.787-2.007 1.114 0 1.775.835 1.775 2.007 0 1.16-.661 1.996-1.775 1.996-1.114 0-1.787-.836-1.787-1.996zm7.177 2.831v-3.364c0-.905.545-1.474 1.369-1.474.766 0 1.253.487 1.253 1.38v3.458h1.079v-3.364c0-.905.545-1.485 1.369-1.485.766 0 1.264.51 1.264 1.403v3.446h1.068v-3.712c0-1.311-.789-2.123-2.089-2.123-.881 0-1.566.44-1.833 1.148-.29-.708-.916-1.149-1.798-1.149-.8 0-1.404.372-1.694.905l-.104-.742h-.974v5.673h1.09zm12.492-2.587h3.538v-.975h-3.538v.975zm8.451.255c0 1.485 1.21 2.471 3.08 2.471 1.86 0 3.09-.986 3.09-2.46 0-1.032-.61-1.867-1.55-2.169.79-.313 1.23-.974 1.23-1.833 0-1.322-1.11-2.216-2.76-2.216-1.67 0-2.79.894-2.79 2.205 0 .847.43 1.508 1.22 1.844-.93.337-1.52 1.149-1.52 2.158zm1.34-3.933c0-.777.69-1.288 1.73-1.288 1.06 0 1.72.511 1.72 1.311 0 .813-.66 1.335-1.72 1.335-1.04 0-1.73-.534-1.73-1.358zm-.23 3.852c0-.928.77-1.52 1.96-1.52 1.21 0 1.97.592 1.97 1.52 0 .94-.78 1.543-1.96 1.543-1.19 0-1.97-.603-1.97-1.543zm6.61 4.954h1.09v-3.47c.37.697 1.13 1.08 2.03 1.08 1.69 0 2.64-1.3 2.64-3.028 0-1.74-1.01-2.958-2.64-2.958-.9 0-1.67.406-2.05 1.183l-.08-1.021h-.99v8.214zm1.1-5.372c0-1.183.68-2.007 1.79-2.007 1.11 0 1.78.835 1.78 2.007 0 1.16-.67 1.996-1.78 1.996-1.11 0-1.79-.836-1.79-1.996zm7.18 2.831v-3.364c0-.905.55-1.474 1.37-1.474.77 0 1.25.487 1.25 1.38v3.458h1.08v-3.364c0-.905.55-1.485 1.37-1.485.77 0 1.27.51 1.27 1.403v3.446h1.06v-3.712c0-1.311-.79-2.123-2.09-2.123-.88 0-1.56.44-1.83 1.148-.29-.708-.92-1.149-1.8-1.149-.8 0-1.4.372-1.69.905l-.11-.742h-.97v5.673h1.09z" fill="#430D0B"/><path stroke="#430D0B" stroke-width="1.45" d="M953.583.725h81.209v29.052h-81.209z"/><path fill="#DDA734" d="M1034.79.725h81.209v29.052h-81.209z"/><path d="M1045.21 16.92c0 1.484 1.22 2.47 3.09 2.47 1.85 0 3.08-.986 3.08-2.46 0-1.032-.6-1.867-1.54-2.169.79-.313 1.23-.974 1.23-1.833 0-1.322-1.11-2.216-2.76-2.216-1.67 0-2.8.894-2.8 2.205 0 .847.43 1.508 1.22 1.844-.93.337-1.52 1.149-1.52 2.158zm1.35-3.934c0-.777.68-1.288 1.73-1.288 1.05 0 1.71.511 1.71 1.311 0 .813-.66 1.335-1.71 1.335-1.05 0-1.73-.534-1.73-1.358zm-.23 3.852c0-.928.76-1.52 1.96-1.52s1.97.592 1.97 1.52c0 .94-.78 1.543-1.96 1.543-1.2 0-1.97-.603-1.97-1.543zm6.61 4.954h1.09v-3.47c.37.697 1.12 1.08 2.03 1.08 1.68 0 2.63-1.3 2.63-3.028 0-1.74-1.01-2.958-2.63-2.958-.91 0-1.67.406-2.05 1.183l-.09-1.021h-.98v8.214zm1.1-5.372c0-1.183.67-2.007 1.79-2.007 1.11 0 1.77.835 1.77 2.007 0 1.16-.66 1.996-1.77 1.996-1.12 0-1.79-.836-1.79-1.996zm7.18 2.831v-3.364c0-.905.54-1.474 1.37-1.474.76 0 1.25.487 1.25 1.38v3.458h1.08v-3.364c0-.905.54-1.485 1.37-1.485.76 0 1.26.51 1.26 1.403v3.446h1.07v-3.712c0-1.311-.79-2.123-2.09-2.123-.88 0-1.57.44-1.83 1.148-.29-.708-.92-1.149-1.8-1.149-.8 0-1.4.372-1.69.905l-.11-.742h-.97v5.673h1.09zm12.49-2.587h3.54v-.975h-3.54v.975zm13.35-.07c.86-1.172 1.16-1.88 1.16-2.865 0-1.706-1.34-3.017-3.08-3.017-1.73 0-3.05 1.265-3.05 3.005 0 1.67 1.17 2.924 2.91 2.924.29 0 .59-.058.88-.174l-2.1 2.784h1.32l1.96-2.657zm0-2.877c0 1.149-.79 1.96-1.92 1.96-1.12 0-1.91-.811-1.91-1.96 0-1.148.79-1.984 1.91-1.984 1.13 0 1.92.836 1.92 1.984zm2.66 8.075h1.09v-3.47c.38.697 1.13 1.08 2.03 1.08 1.69 0 2.64-1.3 2.64-3.028 0-1.74-1.01-2.958-2.64-2.958-.9 0-1.67.406-2.05 1.183l-.08-1.021h-.99v8.214zm1.11-5.372c0-1.183.67-2.007 1.78-2.007 1.12 0 1.78.835 1.78 2.007 0 1.16-.66 1.996-1.78 1.996-1.11 0-1.78-.836-1.78-1.996zm7.17 2.831v-3.364c0-.905.55-1.474 1.37-1.474.77 0 1.25.487 1.25 1.38v3.458h1.08v-3.364c0-.905.55-1.485 1.37-1.485.77 0 1.27.51 1.27 1.403v3.446h1.06v-3.712c0-1.311-.78-2.123-2.08-2.123-.89 0-1.57.44-1.84 1.148-.29-.708-.91-1.149-1.8-1.149-.8 0-1.4.372-1.69.905l-.1-.742h-.98v5.673h1.09z" fill="#430D0B"/><path stroke="#430D0B" stroke-width="1.45" d="M1034.79.725h81.209v29.052h-81.209z"/><path fill="#DDA734" d="M1116 .725h81.209v29.052H1116z"/><path d="M1128.7 16.594c.86-1.172 1.16-1.88 1.16-2.865 0-1.706-1.34-3.017-3.08-3.017-1.73 0-3.05 1.265-3.05 3.005 0 1.67 1.17 2.924 2.91 2.924.29 0 .59-.058.88-.174l-2.1 2.784h1.32l1.96-2.657zm0-2.877c0 1.149-.79 1.96-1.92 1.96-1.12 0-1.91-.811-1.91-1.96 0-1.148.79-1.984 1.91-1.984 1.13 0 1.92.836 1.92 1.984zm2.66 8.075h1.09v-3.47c.38.697 1.13 1.08 2.03 1.08 1.69 0 2.64-1.3 2.64-3.028 0-1.74-1.01-2.958-2.64-2.958-.9 0-1.67.406-2.05 1.183l-.08-1.021h-.99v8.214zm1.11-5.372c0-1.183.67-2.007 1.78-2.007 1.12 0 1.78.835 1.78 2.007 0 1.16-.66 1.996-1.78 1.996-1.11 0-1.78-.836-1.78-1.996zm7.17 2.831v-3.364c0-.905.55-1.474 1.37-1.474.77 0 1.25.487 1.25 1.38v3.458h1.08v-3.364c0-.905.55-1.485 1.37-1.485.77 0 1.27.51 1.27 1.403v3.446h1.06v-3.712c0-1.311-.78-2.123-2.08-2.123-.89 0-1.57.44-1.84 1.148-.29-.708-.91-1.149-1.8-1.149-.8 0-1.4.372-1.69.905l-.1-.742h-.98v5.673h1.09zm12.49-2.587h3.54v-.975h-3.54v.975zm10.08-4.78v7.367h1.09v-8.388h-2.86v1.021h1.77zm2.85 3.179c0 2.61 1.29 4.339 3.46 4.339 2.16 0 3.45-1.729 3.45-4.34 0-2.598-1.35-4.361-3.45-4.361-2.11 0-3.46 1.763-3.46 4.362zm1.13 0c0-2.088.86-3.341 2.33-3.341 1.47 0 2.32 1.253 2.32 3.34 0 2.066-.85 3.319-2.32 3.319-1.47 0-2.33-1.253-2.33-3.318zm7.37 6.729h1.09v-3.47c.37.697 1.12 1.08 2.03 1.08 1.68 0 2.63-1.3 2.63-3.028 0-1.74-1.01-2.958-2.63-2.958-.91 0-1.67.406-2.05 1.183l-.09-1.021h-.98v8.214zm1.1-5.372c0-1.183.67-2.007 1.79-2.007 1.11 0 1.77.835 1.77 2.007 0 1.16-.66 1.996-1.77 1.996-1.12 0-1.79-.836-1.79-1.996zm7.18 2.831v-3.364c0-.905.54-1.474 1.37-1.474.76 0 1.25.487 1.25 1.38v3.458h1.08v-3.364c0-.905.54-1.485 1.37-1.485.76 0 1.26.51 1.26 1.403v3.446h1.07v-3.712c0-1.311-.79-2.123-2.09-2.123-.88 0-1.57.44-1.83 1.148-.29-.708-.92-1.149-1.8-1.149-.8 0-1.4.372-1.69.905l-.11-.742h-.97v5.673h1.09z" fill="#430D0B"/><path stroke="#430D0B" stroke-width="1.45" d="M1116 .725h81.209v29.052H1116z"/><path fill="#F7D597" fill-opacity=".26" d="M141.49 29.059h81.209v29.003H141.49z"/><path stroke="#430D0B" stroke-width="1.45" d="M141.49 29.059h81.209v29.003H141.49z"/><path fill="#EE4A4A" fill-opacity=".5" d="M222.699 29.059h731.55v28.55h-731.55z"/><path d="M578.062 43.772v-1.033h-3.294v-2.75h3.921v-1.043h-5.058v8.388h1.137v-3.562h3.294zm5.62-2.112v2.994c0 1.218-.545 1.856-1.543 1.856-.835 0-1.357-.464-1.357-1.682V41.66h-1.091v3.527c0 1.392.743 2.286 2.065 2.286.836 0 1.59-.406 1.915-.998l.116.858h.974V41.66h-1.079zm4.494 5.674v-4.757h1.114v-.917h-1.114v-1.775h-1.09v1.775h-1.114v.917h1.114v4.757h1.09zm1.861-1.648c0 1.079.847 1.787 2.181 1.787 1.346 0 2.274-.685 2.274-1.764 0-.847-.476-1.287-1.439-1.52l-.998-.243c-.557-.14-.835-.395-.835-.777 0-.522.383-.824 1.067-.824.662 0 1.044.36 1.068.928h1.044c-.023-1.079-.835-1.775-2.077-1.775-1.253 0-2.134.661-2.134 1.705 0 .836.475 1.335 1.484 1.578l.998.232c.592.151.777.383.777.766 0 .522-.44.835-1.206.835-.719 0-1.16-.348-1.16-.928h-1.044zm7.555 1.787c.916 0 1.694-.406 1.984-1.056l.116.916h.928v-3.561c0-1.532-.951-2.274-2.355-2.274-1.462 0-2.436.777-2.436 1.96h.951c0-.684.522-1.09 1.438-1.09.766 0 1.335.337 1.335 1.288v.162l-1.787.14c-1.334.104-2.111.754-2.111 1.798 0 1.032.719 1.717 1.937 1.717zm.313-.847c-.707 0-1.148-.302-1.148-.905 0-.557.394-.928 1.357-1.021l1.45-.116v.302c0 1.067-.626 1.74-1.659 1.74zm5.571.708v-8.54h-1.091v8.54h1.091z" fill="#430D0B"/><path stroke="#430D0B" stroke-width="1.45" d="M222.699 29.059h731.55v28.55h-731.55z"/><path fill="#F7D597" fill-opacity=".26" d="M954.249 29.059h242.55v28.55h-242.55z"/><path stroke="#430D0B" stroke-width="1.45" d="M954.249 29.059h242.55v28.55h-242.55z"/><path fill="#F7D597" fill-opacity=".26" d="M141.49 60.512h81.55v29.55h-81.55z"/><path stroke="#430D0B" stroke-width="1.45" d="M141.49 60.512h81.55v29.55h-81.55z"/><path fill="#EB920D" fill-opacity=".39" d="M223.04 60.512h730.55v29.55H223.04z"/><path d="M551.249 79.415c1.891 0 3.387-1.114 3.747-2.785h-1.206c-.314 1.033-1.288 1.694-2.518 1.694-1.694 0-2.807-1.276-2.807-3.237 0-1.96 1.113-3.236 2.807-3.236 1.218 0 2.158.66 2.471 1.752h1.218c-.313-1.718-1.763-2.843-3.654-2.843-2.402 0-4.037 1.752-4.037 4.339 0 2.599 1.589 4.316 3.979 4.316zm4.816-2.97c0 1.752 1.253 2.981 2.959 2.981 1.693 0 2.946-1.23 2.946-2.981 0-1.752-1.253-2.982-2.946-2.982-1.706 0-2.959 1.23-2.959 2.982zm1.102 0c0-1.184.755-2.007 1.857-2.007 1.09 0 1.856.823 1.856 2.007 0 1.183-.766 2.007-1.856 2.007-1.102 0-1.857-.824-1.857-2.007zm7.333 2.842v-3.005c0-1.102.592-1.833 1.613-1.833.835 0 1.369.464 1.369 1.613v3.225h1.09v-3.469c0-1.45-.684-2.366-2.181-2.366-.8 0-1.52.383-1.879 1.032l-.116-.87h-.986v5.673h1.09zm7.416 0v-4.756h1.113v-.917h-1.113V71.84h-1.091v1.775h-1.114v.917h1.114v4.756h1.091zm5.572-5.72a2.617 2.617 0 0 0-.58-.069c-.777 0-1.345.394-1.577.986l-.07-.858h-1.021v5.661h1.091v-3.005c0-1.09.638-1.717 1.67-1.717h.487v-.997zm.68 2.878c0 1.752 1.253 2.981 2.958 2.981 1.694 0 2.947-1.23 2.947-2.981 0-1.752-1.253-2.982-2.947-2.982-1.705 0-2.958 1.23-2.958 2.982zm1.102 0c0-1.184.754-2.007 1.856-2.007 1.091 0 1.857.823 1.857 2.007 0 1.183-.766 2.007-1.857 2.007-1.102 0-1.856-.824-1.856-2.007zm7.356 2.842V70.75h-1.09v8.538h1.09zm8.908.128c1.891 0 3.387-1.114 3.747-2.785h-1.207c-.313 1.033-1.287 1.694-2.517 1.694-1.694 0-2.808-1.276-2.808-3.237 0-1.96 1.114-3.236 2.808-3.236 1.218 0 2.158.66 2.471 1.752h1.218c-.313-1.718-1.763-2.843-3.654-2.843-2.402 0-4.037 1.752-4.037 4.339 0 2.599 1.589 4.316 3.979 4.316zm8.436-5.847a2.631 2.631 0 0 0-.58-.07c-.778 0-1.346.394-1.578.986l-.07-.858h-1.021v5.661h1.091v-3.005c0-1.09.638-1.717 1.671-1.717h.487v-.997zm1.788-1.3c.395 0 .72-.325.72-.719a.716.716 0 0 0-.72-.72.716.716 0 0 0-.719.72c0 .394.325.72.719.72zm-.533 7.02h1.09v-5.674h-1.09v5.673zm2.534-2.832c0 1.787 1.102 2.97 2.773 2.97 1.369 0 2.425-.823 2.645-2.053h-1.09c-.198.673-.778 1.079-1.555 1.079-1.033 0-1.694-.79-1.694-2.007 0-1.23.708-2.019 1.74-2.019.731 0 1.311.383 1.497 1.102h1.09c-.197-1.264-1.195-2.076-2.621-2.076-1.659 0-2.785 1.23-2.785 3.004zm7.914 2.831v-1.613l.963-1.009 1.659 2.622h1.253l-2.158-3.41 2.17-2.263h-1.369l-2.518 2.668V70.75h-1.09v8.538h1.09zm7.243.14c1.403 0 2.355-.685 2.633-1.903h-1.021c-.185.65-.742.997-1.589.997-1.079 0-1.706-.66-1.787-1.856l4.386-.011v-.406c0-1.683-1.056-2.796-2.669-2.796-1.647 0-2.773 1.23-2.773 3.004 0 1.764 1.149 2.97 2.82 2.97zm-.047-5.059c.963 0 1.578.627 1.578 1.566h-3.272c.14-.997.743-1.566 1.694-1.566zm5.663 4.92V74.53h1.114v-.917h-1.114V71.84h-1.091v1.775h-1.113v.917h1.113v4.756h1.091z" fill="#430D0B"/><path stroke="#430D0B" stroke-width="1.45" d="M223.04 60.512h730.55v29.55H223.04z"/><path fill="#F7D597" fill-opacity=".26" d="M953.59 60.512h242.55v29.55H953.59z"/><path stroke="#430D0B" stroke-width="1.45" d="M953.59 60.512h242.55v29.55H953.59z"/><path fill="#F7D597" fill-opacity=".26" d="M141.49 92.512h162.55v29.55H141.49z"/><path stroke="#430D0B" stroke-width="1.45" d="M141.49 92.512h162.55v29.55H141.49z"/><path fill="#D8D87A" fill-opacity=".75" d="M304.04 92.512h323.55v29.55H304.04z"/><path d="M453.842 111.415c1.891 0 3.388-1.114 3.748-2.785h-1.207c-.313 1.033-1.288 1.694-2.517 1.694-1.694 0-2.808-1.276-2.808-3.237 0-1.96 1.114-3.236 2.808-3.236 1.218 0 2.157.661 2.471 1.751h1.218c-.313-1.717-1.764-2.842-3.655-2.842-2.401 0-4.037 1.752-4.037 4.339 0 2.599 1.59 4.316 3.979 4.316zm6.222-.139v-3.086c0-.975.568-1.741 1.624-1.741.812 0 1.358.464 1.358 1.613v3.225h1.09v-3.469c0-1.45-.696-2.366-2.146-2.366-.882 0-1.566.417-1.926 1.032v-3.735h-1.091v8.527h1.091zm8.262.15c1.404 0 2.355-.684 2.634-1.902h-1.021c-.186.649-.743.997-1.589.997-1.079 0-1.706-.661-1.787-1.856l4.385-.011v-.406c0-1.683-1.055-2.796-2.668-2.796-1.647 0-2.773 1.229-2.773 3.004 0 1.764 1.149 2.97 2.819 2.97zm-.046-5.058c.963 0 1.578.627 1.578 1.566h-3.272c.139-.997.743-1.566 1.694-1.566zm3.654 3.272c0 1.079.847 1.786 2.181 1.786 1.346 0 2.274-.684 2.274-1.763 0-.847-.475-1.288-1.438-1.52l-.998-.243c-.557-.14-.835-.395-.835-.778 0-.522.382-.823 1.067-.823.661 0 1.044.359 1.067.928h1.044c-.023-1.079-.835-1.775-2.076-1.775-1.253 0-2.135.661-2.135 1.705 0 .835.476 1.334 1.485 1.578l.998.232c.591.151.777.383.777.766 0 .522-.441.835-1.206.835-.72 0-1.161-.348-1.161-.928h-1.044zm5.433 0c0 1.079.846 1.786 2.181 1.786 1.345 0 2.273-.684 2.273-1.763 0-.847-.475-1.288-1.438-1.52l-.998-.243c-.557-.14-.835-.395-.835-.778 0-.522.383-.823 1.067-.823.661 0 1.044.359 1.068.928h1.044c-.024-1.079-.836-1.775-2.077-1.775-1.253 0-2.135.661-2.135 1.705 0 .835.476 1.334 1.485 1.578l.998.232c.592.151.777.383.777.766 0 .522-.441.835-1.206.835-.719 0-1.16-.348-1.16-.928h-1.044z" fill="#430D0B"/><path stroke="#430D0B" stroke-width="1.45" d="M304.04 92.512h323.55v29.55H304.04z"/><path fill="#F7D597" fill-opacity=".61" d="M627.59 92.512h245.55v29.55H627.59z"/><path d="M743.861 107.726v-1.033h-3.295v-2.75h3.921v-1.044h-5.058v8.388h1.137v-3.561h3.295zm3.372-4.827h-1.137v8.388h1.137v-8.388zm6.62 4.827v-1.033h-3.295v-2.75h3.922v-1.044h-5.059v8.388h1.137v-3.561h3.295zm2.062 3.561.743-2.088h3.527l.754 2.088h1.195l-3.075-8.388h-1.264l-3.063 8.388h1.183zm2.367-6.578c.058-.174.116-.371.139-.487.024.128.082.325.14.487l1.287 3.504h-2.842l1.276-3.504z" fill="#430D0B"/><path stroke="#430D0B" stroke-width="1.45" d="M627.59 92.512h245.55v29.55H627.59z"/><path fill="#F7D597" fill-opacity=".26" d="M873.139 92.512h322.55v29.55h-322.55z"/><path stroke="#430D0B" stroke-width="1.45" d="M873.139 92.512h322.55v29.55h-322.55z"/><path fill="#F7D597" fill-opacity=".26" d="M141.49 124.512h162.419v29.003H141.49z"/><path stroke="#430D0B" stroke-width="1.45" d="M141.49 124.512h162.419v29.003H141.49z"/><path fill="#CAC136" d="M303.909 124.512h323.55v29.55h-323.55z"/><path d="M449.664 143.415c1.891 0 3.387-1.114 3.747-2.785h-1.206c-.314 1.033-1.288 1.694-2.518 1.694-1.694 0-2.807-1.276-2.807-3.237 0-1.96 1.113-3.236 2.807-3.236 1.218 0 2.158.661 2.471 1.751h1.218c-.313-1.717-1.763-2.842-3.654-2.842-2.402 0-4.037 1.752-4.037 4.339 0 2.599 1.589 4.316 3.979 4.316zm6.733.011c.917 0 1.694-.406 1.984-1.055l.116.916h.928v-3.561c0-1.532-.951-2.274-2.355-2.274-1.462 0-2.436.777-2.436 1.96h.951c0-.684.522-1.09 1.439-1.09.765 0 1.334.336 1.334 1.287v.163l-1.787.139c-1.334.105-2.111.754-2.111 1.798 0 1.033.719 1.717 1.937 1.717zm.313-.847c-.707 0-1.148-.301-1.148-.904 0-.557.394-.929 1.357-1.021l1.45-.116v.301c0 1.068-.626 1.74-1.659 1.74zm7.706-5.011a2.603 2.603 0 0 0-.58-.07c-.778 0-1.346.394-1.578.986l-.07-.858h-1.021v5.661h1.091v-3.005c0-1.09.638-1.717 1.671-1.717h.487v-.997zm4.503 0a2.596 2.596 0 0 0-.58-.07c-.777 0-1.346.394-1.578.986l-.069-.858h-1.021v5.661h1.09v-3.005c0-1.09.638-1.717 1.671-1.717h.487v-.997zm.68 2.877c0 1.752 1.253 2.981 2.958 2.981 1.694 0 2.947-1.229 2.947-2.981 0-1.752-1.253-2.982-2.947-2.982-1.705 0-2.958 1.23-2.958 2.982zm1.102 0c0-1.184.754-2.007 1.856-2.007 1.091 0 1.856.823 1.856 2.007 0 1.183-.765 2.007-1.856 2.007-1.102 0-1.856-.824-1.856-2.007zm7.333 2.842v-3.364c0-.905.545-1.474 1.368-1.474.766 0 1.253.488 1.253 1.381v3.457h1.079v-3.364c0-.905.546-1.485 1.369-1.485.766 0 1.265.51 1.265 1.404v3.445h1.067v-3.712c0-1.311-.789-2.123-2.088-2.123-.882 0-1.566.44-1.833 1.148-.29-.708-.917-1.148-1.798-1.148-.801 0-1.404.371-1.694.905l-.104-.743h-.975v5.673h1.091z" fill="#430D0B"/><path stroke="#430D0B" stroke-width="1.45" d="M303.909 124.512h323.55v29.55h-323.55z"/><path fill="#F7D597" d="M627.458 124.512h246.55v29.55h-246.55z"/><path d="M722.105 143.415c1.891 0 3.387-1.114 3.747-2.785h-1.206c-.314 1.033-1.288 1.694-2.518 1.694-1.694 0-2.808-1.276-2.808-3.237 0-1.96 1.114-3.236 2.808-3.236 1.218 0 2.158.661 2.471 1.751h1.218c-.313-1.717-1.763-2.842-3.654-2.842-2.402 0-4.037 1.752-4.037 4.339 0 2.599 1.589 4.316 3.979 4.316zm6.733.011c.917 0 1.694-.406 1.984-1.055l.116.916h.928v-3.561c0-1.532-.951-2.274-2.355-2.274-1.462 0-2.436.777-2.436 1.96h.951c0-.684.522-1.09 1.439-1.09.765 0 1.334.336 1.334 1.287v.163l-1.787.139c-1.334.105-2.111.754-2.111 1.798 0 1.033.719 1.717 1.937 1.717zm.313-.847c-.707 0-1.148-.301-1.148-.904 0-.557.394-.929 1.357-1.021l1.45-.116v.301c0 1.068-.626 1.74-1.659 1.74zm5.571.708v-8.538h-1.09v8.538h1.09zm2.951 0v-8.538h-1.09v8.538h1.09zm12.992-4.2c0-2.552-1.659-4.338-4.038-4.338-2.366 0-4.025 1.798-4.025 4.338 0 2.553 1.647 4.339 4.014 4.339 2.378 0 4.049-1.786 4.049-4.339zm-1.195 0c0 1.938-1.137 3.249-2.843 3.249-1.705 0-2.83-1.3-2.83-3.249s1.125-3.236 2.83-3.236c1.706 0 2.843 1.287 2.843 3.236zm2.092-1.473v.917h.835v4.756h1.091v-4.756h1.345v-.917h-1.345v-.905c0-.615.185-.974.893-.974h.487v-.94a4.445 4.445 0 0 0-.673-.046c-1.032 0-1.798.568-1.798 1.96v.905h-.835zm10.88 5.673c2.482 0 4.153-1.694 4.153-4.188 0-2.506-1.694-4.2-4.2-4.2h-2.726v8.388h2.773zm-.128-7.344c1.914 0 3.098 1.207 3.098 3.156 0 1.926-1.184 3.132-3.051 3.132h-1.555v-6.288h1.508zm9.695 1.671v2.993c0 1.218-.545 1.856-1.543 1.856-.835 0-1.357-.464-1.357-1.682v-3.167h-1.091v3.527c0 1.392.743 2.285 2.065 2.285.836 0 1.59-.406 1.915-.997l.116.858h.974v-5.673h-1.079zm4.494 5.673v-4.756h1.114v-.917h-1.114v-1.775h-1.09v1.775h-1.114v.917h1.114v4.756h1.09zm1.78 2.541c.29.069.591.116.951.116.87 0 1.438-.406 1.821-1.381l2.68-6.949h-1.125l-1.682 4.571-1.648-4.571h-1.148l2.285 5.975-.197.545c-.267.719-.685.8-1.207.8h-.73v.894z" fill="#430D0B"/><path stroke="#430D0B" stroke-width="1.45" d="M627.458 124.512h246.55v29.55h-246.55z"/><path fill="#F7D597" fill-opacity=".26" d="M874.008 124.512h322.55v29.55h-322.55z"/><path stroke="#430D0B" stroke-width="1.45" d="M874.008 124.512h322.55v29.55h-322.55z"/><path fill="#F7D597" fill-opacity=".26" d="M141.49 156.512h80.55v29.55h-80.55z"/><path stroke="#430D0B" stroke-width="1.45" d="M141.49 156.512h80.55v29.55h-80.55z"/><path fill="#A0FF7F" fill-opacity=".32" d="M222.04 156.512h495.55v29.55H222.04z"/><path d="M390.028 175.287h3.318c1.659 0 2.668-.847 2.668-2.239 0-.998-.475-1.671-1.404-1.972.836-.348 1.253-.998 1.253-1.961 0-1.38-.997-2.216-2.633-2.216h-3.202v8.388zm3.132-7.378c.986 0 1.543.475 1.543 1.311 0 .87-.533 1.38-1.473 1.38h-2.065v-2.691h1.995zm.163 3.677c.963 0 1.519.488 1.519 1.323 0 .87-.545 1.369-1.519 1.369h-2.158v-2.692h2.158zm3.789.859c0 1.752 1.253 2.981 2.959 2.981 1.694 0 2.947-1.229 2.947-2.981 0-1.752-1.253-2.982-2.947-2.982-1.706 0-2.959 1.23-2.959 2.982zm1.103 0c0-1.184.754-2.007 1.856-2.007 1.09 0 1.856.823 1.856 2.007 0 1.183-.766 2.007-1.856 2.007-1.102 0-1.856-.824-1.856-2.007zm7.786 2.842v-4.756h1.114v-.917h-1.114v-1.775h-1.09v1.775h-1.114v.917h1.114v4.756h1.09zm4.027 0v-4.756h1.114v-.917h-1.114v-1.775h-1.09v1.775h-1.114v.917h1.114v4.756h1.09zm3.439 0v-8.538h-1.091v8.538h1.091zm4.285.139c1.404 0 2.355-.684 2.633-1.902h-1.021c-.185.649-.742.997-1.589.997-1.079 0-1.705-.661-1.787-1.856l4.386-.011v-.406c0-1.683-1.056-2.796-2.669-2.796-1.647 0-2.772 1.229-2.772 3.004 0 1.764 1.148 2.97 2.819 2.97zm-.047-5.058c.963 0 1.578.627 1.578 1.566h-3.271c.139-.997.742-1.566 1.693-1.566zm10.969 1.926c1.635 0 2.703-1.137 2.703-2.703 0-1.613-1.056-2.692-2.703-2.692h-3.26v8.388h1.137v-2.993h2.123zm-.198-4.374c1.068 0 1.706.604 1.706 1.659 0 1.033-.627 1.694-1.752 1.694h-1.879v-3.353h1.925zm5.667 7.506c.917 0 1.694-.406 1.984-1.055l.116.916h.928v-3.561c0-1.532-.951-2.274-2.355-2.274-1.462 0-2.436.777-2.436 1.96h.951c0-.684.522-1.09 1.439-1.09.766 0 1.334.336 1.334 1.287v.163l-1.787.139c-1.334.105-2.111.754-2.111 1.798 0 1.033.719 1.717 1.937 1.717zm.314-.847c-.708 0-1.149-.301-1.149-.904 0-.557.395-.929 1.357-1.021l1.451-.116v.301c0 1.068-.627 1.74-1.659 1.74zm4.99-6.311c.395 0 .72-.325.72-.719a.716.716 0 0 0-.72-.719.715.715 0 0 0-.719.719c0 .394.325.719.719.719zm-.533 7.019h1.09v-5.673h-1.09v5.673zm3.996 0v-3.005c0-1.102.592-1.833 1.612-1.833.836 0 1.369.464 1.369 1.613v3.225h1.091v-3.469c0-1.45-.685-2.366-2.181-2.366-.801 0-1.52.382-1.88 1.032l-.116-.87h-.986v5.673h1.091zm7.415 0v-4.756h1.114v-.917h-1.114v-1.775h-1.09v1.775h-1.114v.917h1.114v4.756h1.09zm2.859-7.019a.723.723 0 0 0 .719-.719.715.715 0 0 0-.719-.719.716.716 0 0 0-.72.719c0 .394.325.719.72.719zm-.534 7.019h1.09v-5.673h-1.09v5.673zm3.996 0v-3.005c0-1.102.592-1.833 1.613-1.833.835 0 1.369.464 1.369 1.613v3.225h1.09v-3.469c0-1.45-.684-2.366-2.181-2.366-.8 0-1.52.382-1.879 1.032l-.116-.87h-.986v5.673h1.09zm5.455-2.981c0 1.589 1.021 2.83 2.634 2.83.893 0 1.635-.394 2.007-1.055v1.137c0 1.078-.697 1.775-1.764 1.775-.951 0-1.578-.488-1.717-1.323h-1.09c.208 1.439 1.264 2.309 2.807 2.309 1.74 0 2.842-1.137 2.842-2.924v-5.441h-.974l-.081.963c-.36-.708-1.068-1.125-1.984-1.125-1.647 0-2.68 1.253-2.68 2.854zm1.091-.024c0-1.044.649-1.879 1.74-1.879 1.113 0 1.763.789 1.763 1.879 0 1.114-.673 1.903-1.775 1.903-1.067 0-1.728-.835-1.728-1.903zm8.07 2.553c0-.638-.394-1.044-.882-1.044-.464 0-.777.336-.777.8a.69.69 0 0 0 .708.708.59.59 0 0 0 .313-.07c0 .36-.336.673-.812.754v.487c.824-.104 1.45-.8 1.45-1.635zm4.905-5.673c0 1.206.708 1.995 2.077 2.308l1.38.314c.801.185 1.161.603 1.161 1.264 0 .835-.708 1.357-1.822 1.357-1.056 0-1.728-.51-1.752-1.311h-1.16c.07 1.439 1.207 2.332 2.912 2.332 1.787 0 2.958-.963 2.958-2.471 0-1.183-.696-1.926-2.065-2.239l-1.38-.325c-.789-.185-1.172-.591-1.172-1.264 0-.824.685-1.358 1.74-1.358.94 0 1.532.488 1.59 1.323h1.148c-.093-1.45-1.125-2.343-2.726-2.343-1.729 0-2.889.974-2.889 2.413zm8.32 6.114v-3.086c0-.975.569-1.741 1.624-1.741.812 0 1.358.464 1.358 1.613v3.225h1.09v-3.469c0-1.45-.696-2.366-2.146-2.366-.882 0-1.566.417-1.926 1.032v-3.735h-1.09v8.527h1.09zm5.443-2.831c0 1.752 1.253 2.981 2.959 2.981 1.693 0 2.946-1.229 2.946-2.981 0-1.752-1.253-2.982-2.946-2.982-1.706 0-2.959 1.23-2.959 2.982zm1.102 0c0-1.184.755-2.007 1.857-2.007 1.09 0 1.856.823 1.856 2.007 0 1.183-.766 2.007-1.856 2.007-1.102 0-1.857-.824-1.857-2.007zm8.691 2.981c1.403 0 2.355-.684 2.633-1.902h-1.021c-.186.649-.742.997-1.589.997-1.079 0-1.706-.661-1.787-1.856l4.385-.011v-.406c0-1.683-1.055-2.796-2.668-2.796-1.647 0-2.773 1.229-2.773 3.004 0 1.764 1.149 2.97 2.82 2.97zm-.047-5.058c.963 0 1.578.627 1.578 1.566h-3.272c.14-.997.743-1.566 1.694-1.566zm10.968 1.926c1.636 0 2.703-1.137 2.703-2.703 0-1.613-1.055-2.692-2.703-2.692h-3.26v8.388h1.137v-2.993h2.123zm-.197-4.374c1.067 0 1.706.604 1.706 1.659 0 1.033-.627 1.694-1.752 1.694h-1.88v-3.353h1.926zm5.667 7.506c.917 0 1.694-.406 1.984-1.055l.116.916h.928v-3.561c0-1.532-.951-2.274-2.355-2.274-1.462 0-2.436.777-2.436 1.96h.951c0-.684.522-1.09 1.438-1.09.766 0 1.335.336 1.335 1.287v.163l-1.787.139c-1.334.105-2.111.754-2.111 1.798 0 1.033.719 1.717 1.937 1.717zm.313-.847c-.707 0-1.148-.301-1.148-.904 0-.557.394-.929 1.357-1.021l1.45-.116v.301c0 1.068-.626 1.74-1.659 1.74zm4.991-6.311a.723.723 0 0 0 .719-.719.715.715 0 0 0-.719-.719.715.715 0 0 0-.719.719c0 .394.324.719.719.719zm-.534 7.019h1.091v-5.673h-1.091v5.673zm3.997 0v-3.005c0-1.102.591-1.833 1.612-1.833.835 0 1.369.464 1.369 1.613v3.225h1.091v-3.469c0-1.45-.685-2.366-2.181-2.366-.801 0-1.52.382-1.88 1.032l-.116-.87h-.986v5.673h1.091zm7.415 0v-4.756h1.114v-.917h-1.114v-1.775h-1.09v1.775h-1.114v.917h1.114v4.756h1.09zm2.858-7.019a.722.722 0 0 0 .719-.719.715.715 0 0 0-.719-.719.715.715 0 0 0-.719.719c0 .394.325.719.719.719zm-.534 7.019h1.091v-5.673h-1.091v5.673zm3.997 0v-3.005c0-1.102.591-1.833 1.612-1.833.836 0 1.369.464 1.369 1.613v3.225h1.091v-3.469c0-1.45-.685-2.366-2.181-2.366-.801 0-1.52.382-1.88 1.032l-.116-.87h-.986v5.673h1.091zm5.455-2.981c0 1.589 1.021 2.83 2.633 2.83.893 0 1.636-.394 2.007-1.055v1.137c0 1.078-.696 1.775-1.763 1.775-.952 0-1.578-.488-1.717-1.323h-1.091c.209 1.439 1.265 2.309 2.808 2.309 1.74 0 2.842-1.137 2.842-2.924v-5.441h-.974l-.082.963c-.359-.708-1.067-1.125-1.983-1.125-1.648 0-2.68 1.253-2.68 2.854zm1.09-.024c0-1.044.65-1.879 1.74-1.879 1.114 0 1.764.789 1.764 1.879 0 1.114-.673 1.903-1.775 1.903-1.068 0-1.729-.835-1.729-1.903z" fill="#430D0B"/><path stroke="#430D0B" stroke-width="1.45" d="M222.04 156.512h495.55v29.55H222.04z"/><path fill="#F7D597" fill-opacity=".26" d="M717.59 156.512h479.55v29.55H717.59z"/><path stroke="#430D0B" stroke-width="1.45" d="M717.59 156.512h479.55v29.55H717.59z"/><path fill="#F7D597" fill-opacity=".26" d="M141.49 188.512h166.55v29.55H141.49z"/><path stroke="#430D0B" stroke-width="1.45" d="M141.49 188.512h166.55v29.55H141.49z"/><path fill="#BFBF72" fill-opacity=".73" d="M308.04 188.512h208.55v29.55H308.04z"/><path d="M381.58 199.943h2.529v7.344h1.137v-7.344h2.517v-1.044h-6.183v1.044zm10.603 1.671v2.993c0 1.218-.545 1.856-1.543 1.856-.835 0-1.357-.464-1.357-1.682v-3.167h-1.091v3.527c0 1.392.743 2.285 2.065 2.285.836 0 1.59-.406 1.914-.997l.116.858h.975v-5.673h-1.079zm2.534 2.692c0 1.589 1.02 2.83 2.633 2.83.893 0 1.636-.394 2.007-1.055v1.137c0 1.078-.696 1.775-1.763 1.775-.952 0-1.578-.488-1.717-1.323h-1.091c.209 1.439 1.265 2.309 2.808 2.309 1.74 0 2.842-1.137 2.842-2.924v-5.441h-.974l-.082.963c-.359-.708-1.067-1.125-1.984-1.125-1.647 0-2.679 1.253-2.679 2.854zm1.09-.024c0-1.044.65-1.879 1.74-1.879 1.114 0 1.764.789 1.764 1.879 0 1.114-.673 1.903-1.775 1.903-1.068 0-1.729-.835-1.729-1.903zm17.589-1.195c0-2.552-1.659-4.338-4.037-4.338-2.367 0-4.026 1.798-4.026 4.338 0 2.553 1.647 4.339 4.014 4.339 2.378 0 4.049-1.786 4.049-4.339zm-1.195 0c0 1.938-1.137 3.249-2.842 3.249-1.706 0-2.831-1.3-2.831-3.249s1.125-3.236 2.831-3.236c1.705 0 2.842 1.287 2.842 3.236zm2.092-1.473v.917h.835v4.756h1.091v-4.756h1.346v-.917h-1.346v-.905c0-.615.186-.974.893-.974h.487v-.94a4.44 4.44 0 0 0-.672-.046c-1.033 0-1.799.568-1.799 1.96v.905h-.835zm9.801 5.673h1.114l2.053-6.636 2.031 6.636h1.09l2.529-8.388h-1.16l-1.543 5.14c-.116.371-.232.8-.371 1.508a15.314 15.314 0 0 0-.383-1.52l-1.578-5.128h-1.23l-1.589 5.128c-.128.441-.255.847-.394 1.52-.116-.638-.232-1.079-.348-1.52l-1.532-5.128H421.6l2.494 8.388zm10.865.139c.917 0 1.694-.406 1.984-1.055l.116.916h.928v-3.561c0-1.532-.951-2.274-2.355-2.274-1.462 0-2.436.777-2.436 1.96h.951c0-.684.522-1.09 1.439-1.09.765 0 1.334.336 1.334 1.287v.163l-1.787.139c-1.334.105-2.111.754-2.111 1.798 0 1.033.719 1.717 1.937 1.717zm.314-.847c-.708 0-1.149-.301-1.149-.904 0-.557.394-.929 1.357-1.021l1.451-.116v.301c0 1.068-.627 1.74-1.659 1.74zm7.705-5.011a2.603 2.603 0 0 0-.58-.07c-.777 0-1.346.394-1.578.986l-.07-.858h-1.02v5.661h1.09v-3.005c0-1.09.638-1.717 1.671-1.717h.487v-.997z" fill="#430D0B"/><path stroke="#430D0B" stroke-width="1.45" d="M308.04 188.512h208.55v29.55H308.04z"/><path fill="#F7D597" d="M516.59 188.512h274.45v29.003H516.59z"/><path d="M592.848 207.014v-3.585c0-1.172-.023-2.03-.081-2.436l2.436 6.021h1.068l2.448-6.045c-.058.592-.07 1.161-.07 2.727v3.318h1.114v-8.388h-1.137l-2.889 7.054-2.889-7.054h-1.113v8.388h1.113zm12.163-5.72a2.659 2.659 0 0 0-.58-.069c-.778 0-1.346.394-1.578.986l-.07-.859h-1.021v5.662h1.091v-3.005c0-1.091.638-1.717 1.67-1.717h.488v-.998zm6.318 5.859c.916 0 1.694-.406 1.984-1.056l.116.917h.928v-3.562c0-1.531-.952-2.274-2.355-2.274-1.462 0-2.437.777-2.437 1.961h.952c0-.685.522-1.091 1.438-1.091.766 0 1.334.337 1.334 1.288v.162l-1.786.14c-1.334.104-2.112.754-2.112 1.798 0 1.032.72 1.717 1.938 1.717zm.313-.847c-.708 0-1.149-.302-1.149-.905 0-.557.395-.928 1.358-1.021l1.45-.116v.302c0 1.067-.627 1.74-1.659 1.74zm5.547.708v-3.005c0-1.102.592-1.833 1.613-1.833.835 0 1.369.464 1.369 1.613v3.225h1.091v-3.469c0-1.45-.685-2.367-2.181-2.367-.801 0-1.52.383-1.88 1.033l-.116-.87h-.986v5.673h1.09zm8.089.139c.905 0 1.67-.395 2.042-1.172l.093 1.033h.974v-8.539h-1.079v3.782c-.383-.696-1.114-1.079-1.984-1.079-1.682 0-2.691 1.276-2.691 3.017 0 1.728.997 2.958 2.645 2.958zm.22-.986c-1.113 0-1.763-.836-1.763-2.007 0-1.16.65-1.996 1.763-1.996 1.114 0 1.799.836 1.799 1.996 0 1.183-.685 2.007-1.799 2.007zm9.398.847v-3.585c0-1.172-.023-2.03-.081-2.436l2.436 6.021h1.067l2.448-6.045c-.058.592-.069 1.161-.069 2.727v3.318h1.113v-8.388h-1.137l-2.888 7.054-2.889-7.054h-1.114v8.388h1.114zm8.45-1.648c0 1.079.847 1.787 2.181 1.787 1.346 0 2.274-.685 2.274-1.764 0-.846-.476-1.287-1.439-1.519l-.998-.244c-.556-.139-.835-.394-.835-.777 0-.522.383-.824 1.067-.824.662 0 1.045.36 1.068.928h1.044c-.023-1.079-.835-1.775-2.077-1.775-1.253 0-2.134.661-2.134 1.706 0 .835.475 1.334 1.485 1.577l.997.232c.592.151.778.383.778.766 0 .522-.441.835-1.207.835-.719 0-1.16-.348-1.16-.928h-1.044zm10.623 1.648v-3.724h4.153v3.724h1.137v-8.388h-1.137v3.608h-4.153v-3.608h-1.137v8.388h1.137zm8.941.139c.916 0 1.694-.406 1.984-1.056l.116.917h.928v-3.562c0-1.531-.952-2.274-2.355-2.274-1.462 0-2.437.777-2.437 1.961h.952c0-.685.522-1.091 1.438-1.091.766 0 1.334.337 1.334 1.288v.162l-1.786.14c-1.334.104-2.112.754-2.112 1.798 0 1.032.72 1.717 1.938 1.717zm.313-.847c-.708 0-1.149-.302-1.149-.905 0-.557.395-.928 1.358-1.021l1.45-.116v.302c0 1.067-.626 1.74-1.659 1.74zm4.457 3.248h1.091v-3.468c.371.696 1.125 1.078 2.03 1.078 1.682 0 2.633-1.299 2.633-3.027 0-1.741-1.009-2.959-2.633-2.959-.905 0-1.671.406-2.054 1.184l-.081-1.021h-.986v8.213zm1.102-5.371c0-1.183.673-2.007 1.787-2.007 1.113 0 1.775.835 1.775 2.007 0 1.16-.662 1.995-1.775 1.995-1.114 0-1.787-.835-1.787-1.995zm6.086 5.371h1.091v-3.468c.371.696 1.125 1.078 2.03 1.078 1.682 0 2.634-1.299 2.634-3.027 0-1.741-1.01-2.959-2.634-2.959-.905 0-1.671.406-2.053 1.184l-.082-1.021h-.986v8.213zm1.102-5.371c0-1.183.673-2.007 1.787-2.007 1.114 0 1.775.835 1.775 2.007 0 1.16-.661 1.995-1.775 1.995-1.114 0-1.787-.835-1.787-1.995zm8.534 2.97c1.404 0 2.356-.685 2.634-1.903h-1.021c-.186.65-.742.998-1.589.998-1.079 0-1.706-.661-1.787-1.856l4.385-.012v-.406c0-1.682-1.055-2.796-2.668-2.796-1.647 0-2.773 1.23-2.773 3.005 0 1.763 1.149 2.97 2.819 2.97zm-.046-5.058c.963 0 1.578.626 1.578 1.566h-3.272c.139-.998.743-1.566 1.694-1.566zm5.209 4.919v-3.005c0-1.102.592-1.833 1.613-1.833.835 0 1.369.464 1.369 1.613v3.225h1.09v-3.469c0-1.45-.684-2.367-2.181-2.367-.801 0-1.52.383-1.879 1.033l-.116-.87h-.987v5.673h1.091zm6.348-7.019a.722.722 0 0 0 .719-.719.716.716 0 0 0-.719-.72.716.716 0 0 0-.719.72c0 .394.325.719.719.719zm-.533 7.019h1.09v-5.673h-1.09v5.673zm3.996 0v-3.005c0-1.102.591-1.833 1.612-1.833.836 0 1.369.464 1.369 1.613v3.225h1.091v-3.469c0-1.45-.685-2.367-2.181-2.367-.801 0-1.52.383-1.88 1.033l-.116-.87h-.986v5.673h1.091zm5.455-2.982c0 1.59 1.021 2.831 2.633 2.831.893 0 1.636-.395 2.007-1.056v1.137c0 1.079-.696 1.775-1.763 1.775-.951 0-1.578-.487-1.717-1.322h-1.091c.209 1.438 1.265 2.308 2.808 2.308 1.74 0 2.842-1.137 2.842-2.923v-5.441h-.974l-.082.963c-.359-.708-1.067-1.126-1.983-1.126-1.648 0-2.68 1.253-2.68 2.854zm1.09-.023c0-1.044.65-1.879 1.74-1.879 1.114 0 1.764.788 1.764 1.879 0 1.114-.673 1.903-1.775 1.903-1.068 0-1.729-.836-1.729-1.903zm5.971 1.357c0 1.079.847 1.787 2.181 1.787 1.346 0 2.274-.685 2.274-1.764 0-.846-.476-1.287-1.439-1.519l-.997-.244c-.557-.139-.836-.394-.836-.777 0-.522.383-.824 1.068-.824.661 0 1.044.36 1.067.928h1.044c-.023-1.079-.835-1.775-2.077-1.775-1.253 0-2.134.661-2.134 1.706 0 .835.475 1.334 1.485 1.577l.997.232c.592.151.778.383.778.766 0 .522-.441.835-1.207.835-.719 0-1.16-.348-1.16-.928h-1.044z" fill="#430D0B"/><path stroke="#430D0B" stroke-width="1.45" d="M516.59 188.512h274.45v29.003H516.59z"/><path fill="#F7D597" fill-opacity=".26" d="M141.49 220.512h327.55v29.55H141.49z"/><path stroke="#430D0B" stroke-width="1.45" d="M141.49 220.512h327.55v29.55H141.49z"/><path fill="#CAC136" d="M469.04 220.512h168.55v29.55H469.04z"/><path d="M527.531 239.287v-3.318h2.147l1.566 3.318h1.264l-1.705-3.538c1.044-.337 1.624-1.172 1.624-2.332 0-1.566-1.067-2.518-2.865-2.518h-3.168v8.388h1.137zm0-7.367h2.031c1.044 0 1.67.534 1.67 1.508 0 .963-.603 1.532-1.659 1.532h-2.042v-3.04zm7.933 7.506c.916 0 1.694-.406 1.984-1.055l.116.916h.928v-3.561c0-1.532-.951-2.274-2.355-2.274-1.462 0-2.437.777-2.437 1.96h.952c0-.684.522-1.09 1.438-1.09.766 0 1.335.336 1.335 1.287v.163l-1.787.139c-1.334.105-2.112.754-2.112 1.798 0 1.033.72 1.717 1.938 1.717zm.313-.847c-.708 0-1.148-.301-1.148-.904 0-.557.394-.929 1.357-1.021l1.45-.116v.301c0 1.068-.626 1.74-1.659 1.74zm4.457 3.249h1.091v-3.469c.371.696 1.125 1.079 2.03 1.079 1.682 0 2.633-1.299 2.633-3.028 0-1.74-1.009-2.958-2.633-2.958-.905 0-1.671.406-2.054 1.183l-.081-1.021h-.986v8.214zm1.102-5.372c0-1.183.673-2.007 1.787-2.007 1.114 0 1.775.836 1.775 2.007 0 1.161-.661 1.996-1.775 1.996-1.114 0-1.787-.835-1.787-1.996zm9.676 2.831h3.318c1.659 0 2.669-.847 2.669-2.239 0-.998-.476-1.671-1.404-1.972.835-.348 1.253-.998 1.253-1.961 0-1.38-.998-2.216-2.634-2.216h-3.202v8.388zm3.133-7.378c.986 0 1.543.475 1.543 1.311 0 .87-.534 1.38-1.474 1.38h-2.065v-2.691h1.996zm.162 3.677c.963 0 1.52.488 1.52 1.323 0 .87-.545 1.369-1.52 1.369h-2.158v-2.692h2.158zm5.82 3.84c.917 0 1.694-.406 1.984-1.055l.116.916h.928v-3.561c0-1.532-.951-2.274-2.355-2.274-1.462 0-2.436.777-2.436 1.96h.951c0-.684.522-1.09 1.439-1.09.765 0 1.334.336 1.334 1.287v.163l-1.787.139c-1.334.105-2.111.754-2.111 1.798 0 1.033.719 1.717 1.937 1.717zm.313-.847c-.707 0-1.148-.301-1.148-.904 0-.557.394-.929 1.357-1.021l1.45-.116v.301c0 1.068-.626 1.74-1.659 1.74zm5.968.708v-4.756h1.113v-.917h-1.113v-1.775h-1.091v1.775h-1.114v.917h1.114v4.756h1.091zm4.027 0v-4.756h1.114v-.917h-1.114v-1.775h-1.09v1.775h-1.114v.917h1.114v4.756h1.09zm3.438 0v-8.538h-1.09v8.538h1.09zm4.285.139c1.404 0 2.356-.684 2.634-1.902h-1.021c-.186.649-.742.997-1.589.997-1.079 0-1.706-.661-1.787-1.856l4.385-.011v-.406c0-1.683-1.055-2.796-2.668-2.796-1.647 0-2.773 1.229-2.773 3.004 0 1.764 1.149 2.97 2.819 2.97zm-.046-5.058c.963 0 1.578.627 1.578 1.566h-3.272c.14-.997.743-1.566 1.694-1.566z" fill="#430D0B"/><path stroke="#430D0B" stroke-width="1.45" d="M469.04 220.512h168.55v29.55H469.04z"/><path fill="#F7D597" fill-opacity=".26" d="M1196.135 220.512h-558.55v29.55h558.55z"/><path stroke="#430D0B" stroke-width="1.45" d="M1196.135 220.512h-558.55v29.55h558.55z"/><path fill="#FB9A08" fill-opacity=".61" d="M141.49 252.512h81.209v29.003H141.49z"/><path d="M149.933 262.626h-1.137v8.388h1.137v-8.388zm3.093 8.388v-3.005c0-1.102.592-1.833 1.612-1.833.836 0 1.369.464 1.369 1.613v3.225h1.091v-3.469c0-1.45-.685-2.367-2.181-2.367-.801 0-1.52.383-1.88 1.033l-.116-.87h-.986v5.673h1.091zm7.473.139c.917 0 1.694-.406 1.984-1.056l.116.917h.928v-3.562c0-1.531-.951-2.274-2.355-2.274-1.461 0-2.436.777-2.436 1.961h.951c0-.685.522-1.091 1.439-1.091.766 0 1.334.337 1.334 1.288v.162l-1.787.14c-1.334.104-2.111.754-2.111 1.798 0 1.032.719 1.717 1.937 1.717zm.314-.847c-.708 0-1.149-.302-1.149-.905 0-.557.395-.928 1.357-1.021l1.451-.116v.302c0 1.067-.627 1.74-1.659 1.74zm8.378-4.965v2.993c0 1.218-.545 1.856-1.543 1.856-.835 0-1.357-.464-1.357-1.682v-3.167H165.2v3.526c0 1.393.743 2.286 2.065 2.286.835 0 1.589-.406 1.914-.998l.116.859h.975v-5.673h-1.079zm2.533 2.691c0 1.59 1.021 2.831 2.634 2.831.893 0 1.636-.395 2.007-1.056v1.137c0 1.079-.696 1.775-1.763 1.775-.952 0-1.578-.487-1.717-1.322h-1.091c.209 1.438 1.265 2.308 2.808 2.308 1.74 0 2.842-1.137 2.842-2.923v-5.441h-.975l-.081.963c-.359-.708-1.067-1.126-1.984-1.126-1.647 0-2.68 1.253-2.68 2.854zm1.091-.023c0-1.044.65-1.879 1.74-1.879 1.114 0 1.764.788 1.764 1.879 0 1.114-.673 1.903-1.775 1.903-1.068 0-1.729-.836-1.729-1.903zm10.356-2.668v2.993c0 1.218-.545 1.856-1.543 1.856-.835 0-1.357-.464-1.357-1.682v-3.167h-1.091v3.526c0 1.393.743 2.286 2.065 2.286.835 0 1.59-.406 1.914-.998l.116.859h.975v-5.673h-1.079zm6.141-.047a2.645 2.645 0 0 0-.58-.069c-.777 0-1.345.394-1.577.986l-.07-.859h-1.021v5.662h1.091v-3.005c0-1.091.638-1.717 1.67-1.717h.487v-.998zm2.688 5.859c.916 0 1.694-.406 1.984-1.056l.116.917h.928v-3.562c0-1.531-.952-2.274-2.355-2.274-1.462 0-2.437.777-2.437 1.961h.952c0-.685.522-1.091 1.438-1.091.766 0 1.334.337 1.334 1.288v.162l-1.786.14c-1.334.104-2.112.754-2.112 1.798 0 1.032.72 1.717 1.938 1.717zm.313-.847c-.708 0-1.149-.302-1.149-.905 0-.557.395-.928 1.358-1.021l1.45-.116v.302c0 1.067-.627 1.74-1.659 1.74zm5.967.708v-4.757h1.114v-.916h-1.114v-1.775h-1.09v1.775h-1.114v.916h1.114v4.757h1.09zm2.858-7.019c.395 0 .72-.325.72-.719a.716.716 0 0 0-.72-.72.716.716 0 0 0-.719.72c0 .394.325.719.719.719zm-.533 7.019h1.09v-5.673h-1.09v5.673zm2.534-2.843c0 1.752 1.253 2.982 2.959 2.982 1.693 0 2.946-1.23 2.946-2.982 0-1.751-1.253-2.981-2.946-2.981-1.706 0-2.959 1.23-2.959 2.981zm1.102 0c0-1.183.754-2.007 1.857-2.007 1.09 0 1.856.824 1.856 2.007 0 1.184-.766 2.007-1.856 2.007-1.103 0-1.857-.823-1.857-2.007zm7.333 2.843v-3.005c0-1.102.592-1.833 1.613-1.833.835 0 1.369.464 1.369 1.613v3.225h1.09v-3.469c0-1.45-.684-2.367-2.181-2.367-.8 0-1.52.383-1.879 1.033l-.116-.87h-.986v5.673h1.09z" fill="#430D0B"/><path stroke="#430D0B" stroke-width="1.45" d="M141.49 252.512h81.209v29.003H141.49z"/><path fill="#F7D597" fill-opacity=".26" d="M222.699 252.512h85.55v29.55h-85.55z"/><path stroke="#430D0B" stroke-width="1.45" d="M222.699 252.512h85.55v29.55h-85.55z"/><path fill="#F7D597" d="M308.249 252.512h294.55v29.55h-294.55z"/><path d="M423.944 263.827c1.114 0 2.042.534 2.355 1.601h1.207c-.279-1.612-1.706-2.668-3.539-2.668-2.471 0-4.118 1.81-4.118 4.362 0 2.587 1.635 4.304 4.014 4.304 1.229 0 2.25-.533 2.703-1.264l.081 1.137h.951v-4.629h-3.875v1.009h2.808v.244c0 1.694-1.149 2.424-2.575 2.424-1.729 0-2.912-1.171-2.912-3.202 0-1.983 1.09-3.318 2.9-3.318zm8.569 1.741a2.596 2.596 0 0 0-.58-.07c-.777 0-1.346.394-1.578.986l-.069-.858h-1.021v5.661h1.09v-3.005c0-1.09.638-1.717 1.671-1.717h.487v-.997zm.68 2.877c0 1.752 1.253 2.981 2.958 2.981 1.694 0 2.947-1.229 2.947-2.981 0-1.752-1.253-2.982-2.947-2.982-1.705 0-2.958 1.23-2.958 2.982zm1.102 0c0-1.184.754-2.007 1.856-2.007 1.091 0 1.856.823 1.856 2.007 0 1.183-.765 2.007-1.856 2.007-1.102 0-1.856-.824-1.856-2.007zm10.027-2.831v2.993c0 1.218-.545 1.856-1.543 1.856-.835 0-1.357-.464-1.357-1.682v-3.167h-1.09v3.527c0 1.392.742 2.285 2.065 2.285.835 0 1.589-.406 1.914-.997l.116.858h.974v-5.673h-1.079zm2.894 8.214h1.09v-3.469c.371.696 1.125 1.079 2.03 1.079 1.683 0 2.634-1.299 2.634-3.028 0-1.74-1.009-2.958-2.634-2.958-.905 0-1.67.406-2.053 1.183l-.081-1.021h-.986v8.214zm1.102-5.372c0-1.183.673-2.007 1.786-2.007 1.114 0 1.775.836 1.775 2.007 0 1.161-.661 1.996-1.775 1.996-1.113 0-1.786-.835-1.786-1.996zm12.449 2.831c2.482 0 4.153-1.694 4.153-4.188 0-2.506-1.694-4.2-4.2-4.2h-2.726v8.388h2.773zm-.128-7.344c1.914 0 3.097 1.207 3.097 3.156 0 1.926-1.183 3.132-3.051 3.132h-1.554v-6.288h1.508zm7.433 7.483c.916 0 1.693-.406 1.983-1.055l.116.916h.929v-3.561c0-1.532-.952-2.274-2.355-2.274-1.462 0-2.437.777-2.437 1.96h.952c0-.684.522-1.09 1.438-1.09.766 0 1.334.336 1.334 1.287v.163l-1.786.139c-1.334.105-2.112.754-2.112 1.798 0 1.033.72 1.717 1.938 1.717zm.313-.847c-.708 0-1.149-.301-1.149-.904 0-.557.395-.929 1.358-1.021l1.45-.116v.301c0 1.068-.627 1.74-1.659 1.74zm5.547.708v-3.005c0-1.102.592-1.833 1.613-1.833.835 0 1.369.464 1.369 1.613v3.225h1.09v-3.469c0-1.45-.684-2.366-2.181-2.366-.8 0-1.519.382-1.879 1.032l-.116-.87h-.986v5.673h1.09zm5.444-2.831c0 1.787 1.102 2.97 2.772 2.97 1.369 0 2.425-.823 2.646-2.053h-1.091c-.197.673-.777 1.079-1.555 1.079-1.032 0-1.693-.789-1.693-2.007 0-1.23.707-2.019 1.74-2.019.731 0 1.311.383 1.496 1.102h1.091c-.197-1.264-1.195-2.076-2.622-2.076-1.659 0-2.784 1.229-2.784 3.004zm9.248 2.97c1.404 0 2.355-.684 2.634-1.902h-1.021c-.186.649-.743.997-1.59.997-1.079 0-1.705-.661-1.786-1.856l4.385-.011v-.406c0-1.683-1.056-2.796-2.668-2.796-1.648 0-2.773 1.229-2.773 3.004 0 1.764 1.148 2.97 2.819 2.97zm-.046-5.058c.963 0 1.577.627 1.577 1.566h-3.271c.139-.997.742-1.566 1.694-1.566z" fill="#430D0B"/><path stroke="#430D0B" stroke-width="1.45" d="M308.249 252.512h294.55v29.55h-294.55z"/><path fill="#9C9C5B" fill-opacity=".53" d="M602.799 252.512h276.55v29.55h-276.55z"/><path d="M699.678 271.787h3.318c1.659 0 2.668-.847 2.668-2.239 0-.998-.475-1.671-1.404-1.972.836-.348 1.253-.998 1.253-1.961 0-1.38-.997-2.216-2.633-2.216h-3.202v8.388zm3.132-7.378c.986 0 1.543.475 1.543 1.311 0 .87-.533 1.38-1.473 1.38h-2.065v-2.691h1.995zm.163 3.677c.963 0 1.519.488 1.519 1.323 0 .87-.545 1.369-1.519 1.369h-2.158v-2.692h2.158zm5.82 3.84c.916 0 1.694-.406 1.984-1.055l.116.916h.928v-3.561c0-1.532-.952-2.274-2.355-2.274-1.462 0-2.437.777-2.437 1.96h.952c0-.684.522-1.09 1.438-1.09.766 0 1.334.336 1.334 1.287v.163l-1.786.139c-1.334.105-2.112.754-2.112 1.798 0 1.033.72 1.717 1.938 1.717zm.313-.847c-.708 0-1.149-.301-1.149-.904 0-.557.395-.929 1.358-1.021l1.45-.116v.301c0 1.068-.626 1.74-1.659 1.74zm5.967.708v-4.756h1.114v-.917h-1.114v-1.775h-1.09v1.775h-1.114v.917h1.114v4.756h1.09zm4.028 0v-4.756h1.113v-.917h-1.113v-1.775h-1.091v1.775h-1.114v.917h1.114v4.756h1.091zm3.438 0v-8.538h-1.091v8.538h1.091zm4.285.139c1.404 0 2.355-.684 2.634-1.902h-1.021c-.186.649-.743.997-1.59.997-1.079 0-1.705-.661-1.786-1.856l4.385-.011v-.406c0-1.683-1.056-2.796-2.668-2.796-1.648 0-2.773 1.229-2.773 3.004 0 1.764 1.149 2.97 2.819 2.97zm-.046-5.058c.963 0 1.577.627 1.577 1.566h-3.271c.139-.997.742-1.566 1.694-1.566zm15.272.719c0-2.552-1.659-4.338-4.037-4.338-2.367 0-4.026 1.798-4.026 4.338 0 2.553 1.648 4.339 4.014 4.339 2.378 0 4.049-1.786 4.049-4.339zm-1.195 0c0 1.938-1.137 3.249-2.842 3.249-1.706 0-2.831-1.3-2.831-3.249s1.125-3.236 2.831-3.236c1.705 0 2.842 1.287 2.842 3.236zm2.092-1.473v.917h.836v4.756h1.09v-4.756h1.346v-.917h-1.346v-.905c0-.615.186-.974.893-.974h.488v-.94a4.453 4.453 0 0 0-.673-.046c-1.033 0-1.798.568-1.798 1.96v.905h-.836zm8.108 5.673h3.318c1.659 0 2.668-.847 2.668-2.239 0-.998-.476-1.671-1.404-1.972.835-.348 1.253-.998 1.253-1.961 0-1.38-.998-2.216-2.633-2.216h-3.202v8.388zm3.132-7.378c.986 0 1.543.475 1.543 1.311 0 .87-.534 1.38-1.473 1.38h-2.065v-2.691h1.995zm.162 3.677c.963 0 1.52.488 1.52 1.323 0 .87-.545 1.369-1.52 1.369h-2.157v-2.692h2.157zm5.82 3.84c.917 0 1.694-.406 1.984-1.055l.116.916h.928v-3.561c0-1.532-.951-2.274-2.355-2.274-1.461 0-2.436.777-2.436 1.96h.951c0-.684.522-1.09 1.439-1.09.766 0 1.334.336 1.334 1.287v.163l-1.787.139c-1.334.105-2.111.754-2.111 1.798 0 1.033.719 1.717 1.937 1.717zm.314-.847c-.708 0-1.149-.301-1.149-.904 0-.557.395-.929 1.357-1.021l1.451-.116v.301c0 1.068-.627 1.74-1.659 1.74zm5.547.708v-3.005c0-1.102.592-1.833 1.613-1.833.835 0 1.369.464 1.369 1.613v3.225h1.09v-3.469c0-1.45-.684-2.366-2.181-2.366-.8 0-1.52.382-1.879 1.032l-.116-.87h-.986v5.673h1.09zm8.089.139c.904 0 1.67-.394 2.041-1.171l.093 1.032h.975v-8.538h-1.079v3.782c-.383-.697-1.114-1.079-1.984-1.079-1.682 0-2.692 1.276-2.692 3.016 0 1.729.998 2.958 2.646 2.958zm.22-.986c-1.114 0-1.763-.835-1.763-2.007 0-1.16.649-1.995 1.763-1.995 1.114 0 1.798.835 1.798 1.995 0 1.184-.684 2.007-1.798 2.007zm4.23-.8c0 1.079.847 1.786 2.181 1.786 1.346 0 2.274-.684 2.274-1.763 0-.847-.476-1.288-1.439-1.52l-.997-.243c-.557-.14-.836-.395-.836-.778 0-.522.383-.823 1.068-.823.661 0 1.044.359 1.067.928h1.044c-.023-1.079-.835-1.775-2.077-1.775-1.253 0-2.134.661-2.134 1.705 0 .835.475 1.334 1.485 1.578l.997.232c.592.151.778.383.778.766 0 .522-.441.835-1.207.835-.719 0-1.16-.348-1.16-.928h-1.044z" fill="#430D0B"/><path stroke="#430D0B" stroke-width="1.45" d="M602.799 252.512h276.55v29.55h-276.55z"/><path fill="#F7D597" d="M879.349 252.512h315.55v29.55h-315.55z"/><path d="M1033.5 269.787c2.48 0 4.15-1.694 4.15-4.188 0-2.506-1.69-4.2-4.2-4.2h-2.72v8.388h2.77zm-.13-7.344c1.91 0 3.1 1.207 3.1 3.156 0 1.926-1.19 3.132-3.05 3.132h-1.56v-6.288h1.51zm5.22 5.012c0 1.45.88 2.471 2.48 2.471 1.5 0 2.51-.951 2.51-2.459v-6.068h-1.14v6.021c0 .871-.42 1.451-1.37 1.451-.93 0-1.38-.592-1.38-1.416v-.417h-1.1v.417z" fill="#000"/><path stroke="#430D0B" stroke-width="1.45" d="M879.349 252.512h315.55v29.55h-315.55z"/><path fill="#F7D597" fill-opacity=".26" d="M141.49 284.512h168.55v29.55H141.49z"/><path stroke="#430D0B" stroke-width="1.45" d="M141.49 284.512h168.55v29.55H141.49z"/><path fill="#CAC136" d="M310.04 284.512h327.55v29.55H310.04z"/><path d="M408.33 297.662c0 1.206.708 1.995 2.077 2.308l1.38.314c.801.185 1.16.603 1.16 1.264 0 .835-.707 1.357-1.821 1.357-1.056 0-1.729-.51-1.752-1.311h-1.16c.07 1.439 1.207 2.332 2.912 2.332 1.787 0 2.958-.963 2.958-2.471 0-1.183-.696-1.926-2.065-2.239l-1.38-.325c-.789-.185-1.172-.591-1.172-1.264 0-.824.684-1.358 1.74-1.358.94 0 1.532.488 1.59 1.323h1.148c-.093-1.45-1.125-2.343-2.726-2.343-1.729 0-2.889.974-2.889 2.413zm8.83 6.125v-4.756h1.114v-.917h-1.114v-1.775h-1.09v1.775h-1.114v.917h1.114v4.756h1.09zm5.573-5.719a2.596 2.596 0 0 0-.58-.07c-.777 0-1.346.394-1.578.986l-.069-.858h-1.021v5.661h1.09v-3.005c0-1.09.638-1.717 1.671-1.717h.487v-.997zm.68 2.877c0 1.752 1.253 2.981 2.958 2.981 1.694 0 2.947-1.229 2.947-2.981 0-1.752-1.253-2.982-2.947-2.982-1.705 0-2.958 1.23-2.958 2.982zm1.102 0c0-1.184.754-2.007 1.856-2.007 1.091 0 1.856.823 1.856 2.007 0 1.183-.765 2.007-1.856 2.007-1.102 0-1.856-.824-1.856-2.007zm7.333 2.842v-3.005c0-1.102.591-1.833 1.612-1.833.836 0 1.369.464 1.369 1.613v3.225h1.091v-3.469c0-1.45-.685-2.366-2.181-2.366-.801 0-1.52.382-1.88 1.032l-.116-.87h-.986v5.673h1.091zm5.455-2.981c0 1.589 1.02 2.83 2.633 2.83.893 0 1.636-.394 2.007-1.055v1.137c0 1.078-.696 1.775-1.763 1.775-.952 0-1.578-.488-1.717-1.323h-1.091c.209 1.439 1.265 2.309 2.808 2.309 1.74 0 2.842-1.137 2.842-2.924v-5.441h-.975l-.081.963c-.359-.708-1.067-1.125-1.984-1.125-1.647 0-2.679 1.253-2.679 2.854zm1.09-.024c0-1.044.65-1.879 1.74-1.879 1.114 0 1.764.789 1.764 1.879 0 1.114-.673 1.903-1.775 1.903-1.068 0-1.729-.835-1.729-1.903zm11.138 3.005v-3.585c0-1.171-.023-2.03-.081-2.436l2.437 6.021h1.067l2.448-6.044c-.058.591-.07 1.16-.07 2.726v3.318h1.114v-8.388h-1.137l-2.889 7.054-2.889-7.054h-1.113v8.388h1.113zm10.573.139c.917 0 1.694-.406 1.984-1.055l.116.916h.928v-3.561c0-1.532-.951-2.274-2.355-2.274-1.462 0-2.436.777-2.436 1.96h.951c0-.684.522-1.09 1.439-1.09.765 0 1.334.336 1.334 1.287v.163l-1.787.139c-1.334.105-2.111.754-2.111 1.798 0 1.033.719 1.717 1.937 1.717zm.314-.847c-.708 0-1.149-.301-1.149-.904 0-.557.394-.929 1.357-1.021l1.451-.116v.301c0 1.068-.627 1.74-1.659 1.74zm5.547.708v-3.005c0-1.102.592-1.833 1.613-1.833.835 0 1.369.464 1.369 1.613v3.225h1.09v-3.469c0-1.45-.684-2.366-2.181-2.366-.8 0-1.52.382-1.879 1.032l-.116-.87h-.986v5.673h1.09zm10.878.139c.916 0 1.694-.406 1.984-1.055l.116.916h.928v-3.561c0-1.532-.951-2.274-2.355-2.274-1.462 0-2.437.777-2.437 1.96h.952c0-.684.522-1.09 1.438-1.09.766 0 1.334.336 1.334 1.287v.163l-1.786.139c-1.334.105-2.112.754-2.112 1.798 0 1.033.72 1.717 1.938 1.717zm.313-.847c-.708 0-1.148-.301-1.148-.904 0-.557.394-.929 1.357-1.021l1.45-.116v.301c0 1.068-.626 1.74-1.659 1.74zm5.548.708v-3.005c0-1.102.591-1.833 1.612-1.833.836 0 1.369.464 1.369 1.613v3.225h1.091v-3.469c0-1.45-.685-2.366-2.181-2.366-.801 0-1.52.382-1.88 1.032l-.116-.87h-.986v5.673h1.091zm8.088.139c.905 0 1.671-.394 2.042-1.171l.093 1.032h.974v-8.538h-1.079v3.782c-.383-.697-1.113-1.079-1.984-1.079-1.682 0-2.691 1.276-2.691 3.016 0 1.729.998 2.958 2.645 2.958zm.22-.986c-1.113 0-1.763-.835-1.763-2.007 0-1.16.65-1.995 1.763-1.995 1.114 0 1.799.835 1.799 1.995 0 1.184-.685 2.007-1.799 2.007zm9.978.847h1.114l2.053-6.636 2.031 6.636h1.09l2.529-8.388h-1.16l-1.543 5.14c-.116.371-.232.8-.371 1.508a15.314 15.314 0 0 0-.383-1.52l-1.578-5.128h-1.23l-1.589 5.128c-.128.441-.255.847-.394 1.52-.116-.638-.232-1.079-.348-1.52l-1.532-5.128h-1.183l2.494 8.388zm8.903-2.842c0 1.752 1.253 2.981 2.958 2.981 1.694 0 2.947-1.229 2.947-2.981 0-1.752-1.253-2.982-2.947-2.982-1.705 0-2.958 1.23-2.958 2.982zm1.102 0c0-1.184.754-2.007 1.856-2.007 1.091 0 1.857.823 1.857 2.007 0 1.183-.766 2.007-1.857 2.007-1.102 0-1.856-.824-1.856-2.007zm7.333 2.842v-3.364c0-.905.545-1.474 1.369-1.474.766 0 1.253.488 1.253 1.381v3.457h1.079v-3.364c0-.905.545-1.485 1.369-1.485.765 0 1.264.51 1.264 1.404v3.445h1.068v-3.712c0-1.311-.789-2.123-2.089-2.123-.881 0-1.566.44-1.833 1.148-.29-.708-.916-1.148-1.798-1.148-.8 0-1.404.371-1.694.905l-.104-.743h-.975v5.673h1.091zm10.804.139c.917 0 1.694-.406 1.984-1.055l.116.916h.928v-3.561c0-1.532-.951-2.274-2.355-2.274-1.462 0-2.436.777-2.436 1.96h.951c0-.684.522-1.09 1.439-1.09.765 0 1.334.336 1.334 1.287v.163l-1.787.139c-1.334.105-2.111.754-2.111 1.798 0 1.033.719 1.717 1.937 1.717zm.313-.847c-.707 0-1.148-.301-1.148-.904 0-.557.394-.929 1.357-1.021l1.45-.116v.301c0 1.068-.626 1.74-1.659 1.74zm5.548.708v-3.005c0-1.102.592-1.833 1.613-1.833.835 0 1.369.464 1.369 1.613v3.225h1.09v-3.469c0-1.45-.684-2.366-2.181-2.366-.8 0-1.52.382-1.879 1.032l-.116-.87h-.987v5.673h1.091z" fill="#430D0B"/><path stroke="#430D0B" stroke-width="1.45" d="M310.04 284.512h327.55v29.55H310.04z"/><path fill="#F7D597" fill-opacity=".26" d="M637.59 284.512h558.55v29.55H637.59z"/><path stroke="#430D0B" stroke-width="1.45" d="M637.59 284.512h558.55v29.55H637.59z"/><path fill="#F7D597" fill-opacity=".26" d="M792.081 219.725h404.194v29.55H792.081z"/><path stroke="#430D0B" stroke-width="1.45" d="M792.081 219.725h404.194v29.55H792.081z"/></svg>