<svg width="241" height="153" viewBox="0 0 241 153" fill="none" xmlns="http://www.w3.org/2000/svg">
<g style="mix-blend-mode:color-dodge" opacity="0.54">
<path d="M37.9108 145.753C35.3015 145.774 32.7057 145.374 30.2237 144.569C18.6929 140.71 9.88345 136.467 9.72971 120.385C9.72971 117.218 7.71567 114.235 5.64014 110.976C2.38079 105.918 -1.32443 100.214 1.02785 92.127C2.56528 87.1457 7.17757 81.9338 11.7899 76.8911C14.6531 73.9463 17.2273 70.7337 19.477 67.2975C22.9055 61.3169 28.7477 57.3042 33.975 57.3042C35.5268 57.3085 37.0553 57.6827 38.4336 58.3957C40.8955 59.2957 43.4996 59.7436 46.1207 59.7179C48.4567 59.6689 50.7853 59.4375 53.0853 59.0261C54.8492 58.7321 56.6323 58.5677 58.4202 58.5341C60.1818 58.4766 61.9261 58.8963 63.4688 59.7488C65.0114 60.6013 66.2949 61.8549 67.1835 63.377C71.6049 69.7015 75.2685 76.5232 78.0993 83.7019C79.3122 87.0628 79.3609 90.7337 78.2377 94.1257C75.8516 100.606 74.0859 107.298 72.9643 114.112C72.3801 117.817 72.2724 118.479 67.7985 123.614C64.9351 126.568 62.6741 130.05 61.1414 133.868C58.8814 140.356 48.2424 145.83 37.9108 145.83V145.753Z" fill="#EBE7D7"/>
<path d="M78.4068 83.5174C75.5811 76.3218 71.9172 69.4843 67.491 63.1464C60.2344 52.6611 51.2865 62.7159 38.6334 58.1344C31.7919 54.5675 23.3514 59.9178 19.1695 67.1437C14.9877 74.3696 3.28787 83.5942 0.781859 92.0347C-3.18472 105.41 9.22236 112.421 9.40685 120.4C9.57597 136.666 18.447 140.956 30.1007 144.861C41.7544 148.766 58.4202 142.509 61.4951 133.868C63.0277 130.104 65.2843 126.678 68.1368 123.783C76.4235 114.281 69.9202 119.847 78.6374 94.1103C79.7473 90.6529 79.6661 86.9232 78.4068 83.5174ZM69.8741 84.1938C69.8741 84.7035 69.6716 85.1923 69.3112 85.5527C68.9508 85.9131 68.462 86.1156 67.9523 86.1156C67.4426 86.1156 66.9538 85.9131 66.5934 85.5527C66.233 85.1923 66.0305 84.7035 66.0305 84.1938C66.0305 83.6801 66.2346 83.1873 66.5979 82.824C66.9612 82.4608 67.4539 82.2567 67.9676 82.2567C68.4814 82.2567 68.9741 82.4608 69.3374 82.824C69.7007 83.1873 69.9048 83.6801 69.9048 84.1938H69.8741ZM7.85405 109.992C6.59335 107.993 5.19429 106.071 3.8106 104.119C2.30396 102.092 1.55836 99.5991 1.70432 97.0775C1.95031 92.0347 4.68694 87.5762 7.93092 84.0093C9.6023 82.2518 11.4177 80.637 13.3581 79.1818C15.1741 77.7479 16.7741 76.0599 18.1087 74.1698C19.4305 72.2195 20.5876 70.1624 21.5679 68.02C22.5429 65.7634 23.8092 63.6443 25.3346 61.7166C25.8033 61.2502 26.3185 60.8329 26.8721 60.4713C27.4345 60.1175 28.0457 59.8482 28.6863 59.6718L29.6395 59.4412C29.9623 59.4412 30.2852 59.4412 30.608 59.4412H31.5613L32.4991 59.5642C34.9743 59.9332 37.2036 60.5942 39.5405 61.1016C41.8774 61.609 44.1528 62.3315 46.4743 62.7159C48.7942 63.0307 51.1513 62.937 53.4389 62.4392C55.7797 61.8252 58.2031 61.5865 60.6187 61.7319C61.8255 61.951 62.9422 62.5174 63.832 63.3616C64.6929 64.1891 65.4564 65.1125 66.1074 66.1136C64.6622 64.2841 62.8787 62.393 60.5111 62.1317C58.1511 62.1079 55.8017 62.4502 53.5465 63.1464C51.1762 63.7411 48.7187 63.9077 46.2898 63.6384C43.8761 63.3155 41.5546 62.7313 39.233 62.2239L35.7431 61.4706C34.6019 61.1996 33.4472 60.9892 32.2838 60.8402C31.2181 60.6183 30.1133 60.6727 29.0746 60.9984C28.0358 61.324 27.0977 61.9099 26.3494 62.7005C24.9422 64.5414 23.7794 66.5569 22.8901 68.6965C21.8989 70.9121 20.7157 73.0368 19.354 75.0461C17.9224 77.0558 16.1965 78.8387 14.2344 80.3349C12.3502 81.7274 10.5815 83.2698 8.94562 84.9472C5.62503 88.2169 3.49287 92.5029 2.88814 97.1236C2.22705 101.89 6.28587 105.38 8.49977 109.592C11.0627 113.696 12.4555 118.422 12.5278 123.26C12.1669 118.503 10.5545 113.925 7.85405 109.992ZM60.6802 71.6638C58.2664 70.1263 58.7584 66.9592 60.7725 66.6671C62.7865 66.375 64.6468 74.0929 60.6802 71.6638ZM57.6822 91.7426C57.647 92.936 57.1831 94.0767 56.3754 94.9559C55.3642 96.88 53.7864 98.4472 51.8554 99.4452C49.413 101.327 46.6071 102.683 43.6147 103.427C44.9677 102.597 46.1361 101.475 47.5813 100.752C49.5022 99.562 51.2159 98.0664 52.6548 96.3242C53.4544 95.5727 54.0203 94.6064 54.2845 93.5414C54.3649 93.4452 54.4369 93.3424 54.4997 93.2339C55.0544 92.305 55.3417 91.2409 55.33 90.1591C55.0904 89.1946 54.7663 88.2531 54.3614 87.3456C54.1461 86.377 54.592 85.3623 54.3614 84.2707C54.2633 83.7265 54.0652 83.2052 53.7771 82.7333C53.493 81.4819 52.9134 80.3168 52.087 79.3352C51.2605 78.3536 50.2111 77.5841 49.0265 77.0909C47.6525 76.4959 46.227 76.0276 44.7678 75.6918C44.4641 75.6232 44.1558 75.577 43.8453 75.5535C45.3143 75.5249 46.7811 75.6798 48.2116 76.0147C49.6565 76.2716 51.0655 76.7 52.4088 77.2908C53.4389 77.9057 54.1461 78.8282 55.0993 79.5662C55.2377 79.9044 55.3761 80.2426 55.4991 80.5194C57.7745 81.7186 59.3273 83.3944 58.5739 85.6698C57.5027 87.5026 57.1831 89.6792 57.6822 91.7426ZM30.7464 85.1009C30.9392 84.1791 31.431 83.3468 32.1455 82.7333C33.0994 81.3909 34.4403 80.3718 35.9891 79.8121C37.6459 78.821 39.4872 78.1776 41.4008 77.9211C41.9543 77.9211 42.477 78.0134 42.9382 78.0287L44.2143 78.1363C44.3883 78.4246 44.6122 78.6797 44.8754 78.8897C43.5686 79.3663 42.4616 80.012 41.078 80.4271C38.987 81.9646 37.6341 83.8402 35.7431 85.393C35.523 85.7563 35.3328 86.1367 35.1742 86.5307C32.9603 87.6377 36.3119 88.9906 35.7584 90.3436C36.0049 90.6058 36.1421 90.9522 36.1421 91.3121C36.1421 91.6721 36.0049 92.0184 35.7584 92.2807C35.6794 92.4128 35.6125 92.5517 35.5586 92.6958C35.9429 92.6958 34.9436 94.1564 35.5586 94.4178C36.235 95.6016 38.1568 97.8923 39.6174 97.4926C41.3547 97.3235 42.2157 98.4766 43.8761 99.03C44.0021 99.4952 44.2396 99.9226 44.5679 100.275C42.2618 99.3375 40.2016 101.813 37.9877 100.721C35.2203 100.029 33.2063 98.2613 32.0532 97.8923C31.6042 97.5071 31.1877 97.0854 30.8079 96.6317C30.8079 95.9244 30.5927 94.9559 30.4543 94.264C29.0552 93.0033 28.2096 91.4813 29.0552 89.7901C30.1492 88.4724 30.7475 86.8135 30.7464 85.1009ZM32.8988 69.2961C32.8988 68.992 32.989 68.6948 33.1579 68.442C33.3269 68.1891 33.567 67.9921 33.8479 67.8757C34.1288 67.7593 34.438 67.7289 34.7362 67.7882C35.0344 67.8475 35.3084 67.994 35.5234 68.209C35.7384 68.424 35.8848 68.6979 35.9441 68.9962C36.0035 69.2944 35.973 69.6035 35.8566 69.8845C35.7403 70.1654 35.5432 70.4055 35.2904 70.5744C35.0376 70.7434 34.7403 70.8335 34.4362 70.8335C34.0285 70.8335 33.6374 70.6716 33.3491 70.3832C33.0608 70.0949 32.8988 69.7039 32.8988 69.2961ZM42.3233 115.035C44.3373 114.743 46.1976 122.461 42.231 120.031C39.8173 118.494 40.3092 115.281 42.3233 115.004V115.035ZM9.22236 95.2018C11.2364 94.9097 13.0967 102.628 9.13012 100.198C6.76247 98.7226 7.25445 95.4325 9.22236 95.2018ZM14.465 84.2861C12.4884 85.6789 10.6733 87.2878 9.05324 89.0829C7.47882 90.8918 6.32847 93.0297 5.68627 95.3402C5.29643 96.4884 5.16187 97.7078 5.29199 98.9134C5.42211 100.119 5.81376 101.282 6.43961 102.32C5.65868 101.323 5.11451 100.161 4.84818 98.9226C4.58185 97.6841 4.60031 96.4014 4.90218 95.1711C5.43265 92.6823 6.51496 90.3443 8.06929 88.3295C9.68407 86.3729 11.5384 84.6271 13.5887 83.133C15.5105 81.5956 17.463 80.0581 19.1695 78.4131C20.8815 76.7597 22.2823 74.812 23.3052 72.6631C23.7998 71.5664 24.2309 70.4422 24.5967 69.2961C24.941 68.0609 25.4587 66.8807 26.1341 65.7908C26.9039 64.65 27.9658 63.7367 29.209 63.1464C30.3876 62.5839 31.6864 62.3199 32.9911 62.3777C35.4872 62.5414 37.9267 63.1944 40.1709 64.2995C37.8476 63.4977 35.4023 63.1075 32.9449 63.1464C31.7737 63.1795 30.6262 63.4848 29.5933 64.0381C28.6014 64.6151 27.7835 65.449 27.2257 66.4519C26.6534 67.4784 26.2143 68.5737 25.9189 69.7112C25.5476 70.9248 25.1061 72.1157 24.5967 73.2781C23.5419 75.612 22.0612 77.7289 20.2304 79.52C18.4076 81.2064 16.4986 82.7972 14.5111 84.2861H14.465ZM21.0452 89.1444C21.0452 89.4484 20.955 89.7457 20.7861 89.9985C20.6172 90.2513 20.3771 90.4484 20.0961 90.5648C19.8152 90.6811 19.5061 90.7116 19.2078 90.6522C18.9096 90.5929 18.6357 90.4465 18.4207 90.2315C18.2056 90.0165 18.0592 89.7425 17.9999 89.4443C17.9406 89.1461 17.971 88.8369 18.0874 88.556C18.2037 88.2751 18.4008 88.035 18.6536 87.866C18.9065 87.6971 19.2037 87.6069 19.5078 87.6069C19.7135 87.6008 19.9184 87.636 20.1103 87.7104C20.3022 87.7849 20.4772 87.8972 20.6249 88.0406C20.7725 88.184 20.8899 88.3556 20.9701 88.5452C21.0502 88.7348 21.0914 88.9385 21.0913 89.1444H21.0452ZM19.9844 134.883C19.579 134.828 19.2073 134.628 18.9382 134.32C18.669 134.012 18.5207 133.616 18.5207 133.207C18.5207 132.798 18.669 132.403 18.9382 132.095C19.2073 131.787 19.579 131.586 19.9844 131.531C20.3898 131.586 20.7615 131.787 21.0306 132.095C21.2997 132.403 21.448 132.798 21.448 133.207C21.448 133.616 21.2997 134.012 21.0306 134.32C20.7615 134.628 20.3898 134.828 19.9844 134.883ZM18.2932 105.58C16.4944 105.58 16.1869 104.334 16.1869 102.797C16.1869 101.259 16.4944 100.045 18.2932 100.045C19.0818 100.001 19.857 100.262 20.4581 100.775C21.0592 101.287 21.4401 102.011 21.5218 102.797C21.4475 103.588 21.0698 104.32 20.4679 104.838C19.866 105.357 19.0866 105.623 18.2932 105.58ZM24.5967 137.297C24.6373 136.866 24.8371 136.466 25.157 136.175C25.4768 135.884 25.8938 135.723 26.3263 135.723C26.7588 135.723 27.1757 135.884 27.4956 136.175C27.8155 136.466 28.0153 136.866 28.0559 137.297C28.0153 137.727 27.8155 138.127 27.4956 138.418C27.1757 138.709 26.7588 138.871 26.3263 138.871C25.8938 138.871 25.4768 138.709 25.157 138.418C24.8371 138.127 24.6373 137.727 24.5967 137.297ZM27.9329 123.46C26.4999 123.476 25.1182 122.927 24.0877 121.931C23.0573 120.935 22.4612 119.573 22.4289 118.14C22.1214 114.927 24.2892 114.158 27.0412 113.897C29.7932 113.636 32.0379 113.897 32.3453 117.187C32.5792 118.594 32.2533 120.036 31.4373 121.206C30.6213 122.375 29.38 123.179 27.979 123.444L27.9329 123.46ZM77.1307 93.6644C68.3674 119.586 74.8707 113.728 66.9376 122.876C63.9467 125.892 61.5754 129.464 59.9576 133.392C57.8206 139.541 47.5198 144.646 37.5726 144.523L37.0345 144.292C38.1491 144.157 39.2091 143.733 40.1094 143.062C40.7858 142.432 37.0345 142.278 34.4824 142.847C34.1293 142.596 33.8747 142.23 33.7625 141.812C33.6502 141.394 33.6873 140.95 33.8674 140.556C34.8821 139.265 41.0933 141.294 40.4015 134.806C39.7865 128.872 48.3961 134.991 50.0566 129.025C51.3634 124.29 55.4222 126.673 54.3921 120.062C54.2352 119.252 54.1733 118.427 54.2076 117.602C54.7719 117.799 55.274 118.141 55.6629 118.595C56.0518 119.049 56.3136 119.597 56.4215 120.185C57.1134 122.553 57.959 120.769 59.358 119.094C60.7571 117.418 61.6027 114.035 60.4496 114.035C59.2965 114.035 58.5893 112.882 61.3413 111.222C64.0933 109.561 64.0318 105.779 62.6942 106.733C61.3567 107.686 59.235 105.011 58.8507 107.44C58.5739 109.146 57.5285 110.361 56.1448 110.346C56.3139 102.658 62.8787 103.181 60.2959 98.5842C57.0673 92.8034 70.489 92.9111 72.7491 87.7299C75.0091 82.5488 68.7671 77.6905 70.0124 69.8957C72.773 74.3813 75.1049 79.117 76.977 84.0401C78.113 87.1344 78.1618 90.5233 77.1154 93.649L77.1307 93.6644ZM46.3513 133.868C47.8888 135.79 46.6435 138.004 44.0452 138.281C41.9389 139.342 41.3547 136.943 41.8467 134.545C42.3386 132.146 44.8139 132.008 46.3513 133.868ZM59.0352 129.548C58.0205 131.393 56.2832 133.253 56.6675 131.331C57.3747 129.256 60.0652 127.719 59.0352 129.61V129.548ZM66.7223 102.643C68.9362 99.8449 68.3674 98.123 67.983 96.9699C70.2892 96.647 71.2424 101.352 66.7223 102.705V102.643ZM71.8266 106.194C70.4737 110.33 70.0893 112.052 69.5205 109.946C68.9516 107.84 69.3206 106.487 68.6441 105.995C67.9676 105.503 67.7985 105.041 68.3674 103.888C69.6281 101.382 73.1642 102.12 71.8266 106.194ZM62.7865 117.341C64.1856 116.526 67.0606 114.604 63.8473 111.991C68.9055 111.714 69.8587 117.802 62.7865 117.402V117.341ZM62.3099 98.8917C60.8647 97.1083 62.233 95.3402 63.5552 95.9091C65.2464 96.6931 64.3393 101.459 62.3099 98.9532V98.8917Z" fill="#0E1D27"/>
</g>
<g style="mix-blend-mode:color-dodge" opacity="0.54">
<path d="M109.12 145.821C107.116 145.838 105.122 145.531 103.215 144.912C94.3584 141.948 87.5917 138.688 87.4736 126.336C87.4736 123.903 85.9265 121.612 84.3323 119.109C81.8287 115.223 78.9826 110.842 80.7895 104.63C81.9704 100.804 85.5132 96.8007 89.056 92.9272C91.2553 90.6653 93.2326 88.1976 94.9607 85.5582C97.5942 80.9643 102.082 77.8821 106.097 77.8821C107.289 77.8854 108.463 78.1728 109.522 78.7205C111.413 79.4118 113.413 79.7559 115.426 79.7361C117.221 79.6984 119.009 79.5208 120.776 79.2047C122.131 78.9789 123.5 78.8526 124.874 78.8268C126.227 78.7827 127.567 79.105 128.752 79.7599C129.937 80.4147 130.923 81.3776 131.605 82.5468C135.001 87.4048 137.815 92.6446 139.99 98.1588C140.921 100.74 140.959 103.56 140.096 106.166C138.263 111.143 136.907 116.284 136.045 121.518C135.597 124.364 135.514 124.872 132.078 128.816C129.878 131.085 128.141 133.76 126.964 136.693C125.228 141.676 117.056 145.88 109.12 145.88V145.821Z" fill="#EBE7D7"/>
<path d="M140.226 98.017C138.056 92.49 135.241 87.2379 131.841 82.3696C126.267 74.3156 119.394 82.039 109.675 78.5198C104.42 75.78 97.9367 79.8896 94.7246 85.44C91.5124 90.9904 82.5255 98.0761 80.6006 104.559C77.5537 114.834 87.0839 120.219 87.2256 126.348C87.3555 138.842 94.1695 142.137 103.121 145.136C112.073 148.136 124.874 143.33 127.236 136.693C128.413 133.801 130.146 131.169 132.337 128.946C138.703 121.648 133.707 125.923 140.403 106.154C141.256 103.498 141.193 100.633 140.226 98.017ZM133.672 98.5366C133.672 98.9281 133.516 99.3036 133.239 99.5804C132.963 99.8573 132.587 100.013 132.196 100.013C131.804 100.013 131.429 99.8573 131.152 99.5804C130.875 99.3036 130.719 98.9281 130.719 98.5366C130.719 98.142 130.876 97.7635 131.155 97.4845C131.434 97.2054 131.813 97.0487 132.207 97.0487C132.602 97.0487 132.981 97.2054 133.26 97.4845C133.539 97.7635 133.695 98.142 133.695 98.5366H133.672ZM86.0329 118.353C85.0645 116.818 83.9899 115.341 82.927 113.842C81.7697 112.284 81.197 110.37 81.3091 108.433C81.4981 104.559 83.6001 101.135 86.0919 98.3949C87.3757 97.0449 88.7702 95.8045 90.2606 94.6868C91.6556 93.5854 92.8845 92.2888 93.9097 90.8369C94.925 89.3388 95.8138 87.7588 96.5668 86.1132C97.3157 84.3798 98.2884 82.752 99.4601 81.2713C99.8201 80.9131 100.216 80.5926 100.641 80.3148C101.073 80.0431 101.543 79.8362 102.035 79.7007L102.767 79.5236C103.015 79.5236 103.263 79.5236 103.511 79.5236H104.243L104.963 79.618C106.865 79.9015 108.577 80.4093 110.372 80.799C112.167 81.1887 113.915 81.7437 115.698 82.039C117.48 82.2808 119.29 82.2088 121.048 81.8264C122.846 81.3548 124.707 81.1714 126.563 81.2832C127.49 81.4514 128.347 81.8864 129.031 82.5349C129.692 83.1706 130.279 83.8798 130.779 84.6488C129.668 83.2435 128.299 81.791 126.48 81.5902C124.667 81.5719 122.863 81.8349 121.13 82.3696C119.31 82.8264 117.422 82.9544 115.556 82.7475C113.702 82.4995 111.919 82.0508 110.136 81.6611L107.455 81.0824C106.579 80.8743 105.692 80.7126 104.798 80.5982C103.979 80.4277 103.131 80.4695 102.333 80.7197C101.535 80.9698 100.814 81.4199 100.24 82.0271C99.1587 83.4412 98.2655 84.9893 97.5824 86.6328C96.8211 88.3347 95.9122 89.9667 94.8663 91.5101C93.7666 93.0538 92.4409 94.4232 90.9338 95.5725C89.4864 96.6421 88.1279 97.8269 86.8713 99.1153C84.3207 101.627 82.6829 104.919 82.2184 108.468C81.7106 112.129 84.8283 114.81 86.5289 118.046C88.4975 121.198 89.5674 124.828 89.6229 128.544C89.3457 124.89 88.1071 121.374 86.0329 118.353ZM126.61 88.912C124.756 87.7311 125.134 85.2983 126.681 85.074C128.228 84.8496 129.657 90.7779 126.61 88.912ZM124.307 104.335C124.28 105.252 123.924 106.128 123.303 106.803C122.527 108.281 121.315 109.485 119.831 110.252C117.955 111.697 115.8 112.739 113.501 113.31C114.541 112.672 115.438 111.81 116.548 111.255C118.024 110.341 119.34 109.192 120.445 107.854C121.06 107.277 121.494 106.535 121.697 105.717C121.759 105.643 121.814 105.564 121.862 105.481C122.289 104.767 122.509 103.95 122.5 103.119C122.316 102.378 122.067 101.655 121.756 100.958C121.591 100.214 121.933 99.4341 121.756 98.5957C121.681 98.1777 121.529 97.7773 121.307 97.4147C121.089 96.4536 120.644 95.5586 120.009 94.8046C119.374 94.0506 118.568 93.4595 117.658 93.0807C116.603 92.6237 115.508 92.264 114.387 92.0061C114.154 91.9533 113.917 91.9178 113.679 91.8998C114.807 91.8778 115.934 91.9968 117.032 92.254C118.142 92.4514 119.225 92.7804 120.256 93.2342C121.048 93.7066 121.591 94.4152 122.323 94.982C122.429 95.2418 122.536 95.5016 122.63 95.7142C124.378 96.6353 125.571 97.9225 124.992 99.6703C124.169 101.078 123.924 102.75 124.307 104.335ZM103.617 99.2334C103.765 98.5253 104.143 97.886 104.692 97.4147C105.424 96.3837 106.454 95.6008 107.644 95.171C108.917 94.4096 110.331 93.9154 111.801 93.7184C112.226 93.7184 112.628 93.7893 112.982 93.8011L113.962 93.8837C114.096 94.1052 114.268 94.3011 114.47 94.4624C113.466 94.8285 112.616 95.3245 111.553 95.6433C109.947 96.8243 108.908 98.265 107.455 99.4578C107.286 99.7368 107.14 100.029 107.018 100.332C105.318 101.182 107.892 102.221 107.467 103.26C107.656 103.462 107.762 103.728 107.762 104.004C107.762 104.281 107.656 104.547 107.467 104.748C107.406 104.85 107.355 104.957 107.313 105.067C107.609 105.067 106.841 106.189 107.313 106.39C107.833 107.299 109.309 109.059 110.431 108.752C111.765 108.622 112.427 109.508 113.702 109.933C113.799 110.29 113.981 110.618 114.234 110.889C112.462 110.169 110.88 112.07 109.179 111.232C107.054 110.7 105.507 109.342 104.621 109.059C104.276 108.763 103.956 108.439 103.664 108.09C103.664 107.547 103.499 106.803 103.393 106.272C102.318 105.303 101.668 104.134 102.318 102.835C103.158 101.823 103.618 100.549 103.617 99.2334ZM105.27 87.0934C105.27 86.8598 105.34 86.6315 105.469 86.4373C105.599 86.2431 105.784 86.0917 105.999 86.0023C106.215 85.9129 106.453 85.8895 106.682 85.9351C106.911 85.9807 107.121 86.0932 107.286 86.2583C107.451 86.4235 107.564 86.6339 107.61 86.863C107.655 87.092 107.632 87.3295 107.542 87.5453C107.453 87.7611 107.302 87.9455 107.107 88.0753C106.913 88.205 106.685 88.2743 106.451 88.2743C106.138 88.2743 105.838 88.1499 105.616 87.9284C105.395 87.7069 105.27 87.4066 105.27 87.0934ZM112.509 122.226C114.056 122.002 115.485 127.93 112.439 126.064C110.585 124.883 110.962 122.415 112.509 122.203V122.226ZM87.0839 106.992C88.6309 106.768 90.0599 112.696 87.013 110.83C85.1944 109.696 85.5723 107.169 87.0839 106.992ZM91.1109 98.6075C89.5926 99.6774 88.1984 100.913 86.954 102.292C85.7446 103.681 84.861 105.324 84.3678 107.098C84.0683 107.98 83.965 108.917 84.0649 109.843C84.1648 110.769 84.4657 111.662 84.9464 112.46C84.3466 111.694 83.9286 110.801 83.724 109.85C83.5194 108.899 83.5336 107.914 83.7655 106.969C84.1729 105.057 85.0043 103.261 86.1982 101.713C87.4386 100.21 88.8629 98.8694 90.4378 97.7218C91.9139 96.5408 93.4137 95.3599 94.7246 94.0963C96.0395 92.8263 97.1155 91.3303 97.9013 89.6796C98.2811 88.8372 98.6123 87.9737 98.8933 87.0934C99.1578 86.1446 99.5554 85.2381 100.074 84.4008C100.665 83.5245 101.481 82.8231 102.436 82.3696C103.341 81.9376 104.339 81.7348 105.341 81.7791C107.258 81.9049 109.132 82.4065 110.856 83.2553C109.072 82.6395 107.193 82.3397 105.306 82.3696C104.406 82.395 103.525 82.6295 102.731 83.0546C101.969 83.4978 101.341 84.1383 100.913 84.9086C100.473 85.6971 100.136 86.5384 99.9089 87.4122C99.6237 88.3444 99.2846 89.2592 98.8933 90.152C98.0831 91.9448 96.9457 93.5708 95.5394 94.9466C94.1393 96.2419 92.6729 97.4639 91.1463 98.6075H91.1109ZM96.1653 102.339C96.1653 102.573 96.096 102.801 95.9663 102.995C95.8365 103.19 95.6521 103.341 95.4363 103.43C95.2205 103.52 94.9831 103.543 94.754 103.497C94.5249 103.452 94.3145 103.339 94.1493 103.174C93.9842 103.009 93.8717 102.799 93.8261 102.57C93.7806 102.341 93.8039 102.103 93.8933 101.887C93.9827 101.672 94.1341 101.487 94.3283 101.357C94.5225 101.228 94.7508 101.158 94.9844 101.158C95.1424 101.154 95.2998 101.181 95.4472 101.238C95.5946 101.295 95.729 101.381 95.8424 101.491C95.9559 101.602 96.046 101.733 96.1076 101.879C96.1691 102.025 96.2008 102.181 96.2007 102.339H96.1653ZM95.3505 137.472C95.0391 137.43 94.7535 137.276 94.5468 137.039C94.3401 136.803 94.2262 136.499 94.2262 136.185C94.2262 135.871 94.3401 135.567 94.5468 135.33C94.7535 135.094 95.0391 134.94 95.3505 134.898C95.6619 134.94 95.9474 135.094 96.1541 135.33C96.3608 135.567 96.4747 135.871 96.4747 136.185C96.4747 136.499 96.3608 136.803 96.1541 137.039C95.9474 137.276 95.6619 137.43 95.3505 137.472ZM94.0514 114.963C92.6697 114.963 92.4335 114.007 92.4335 112.826C92.4335 111.645 92.6697 110.712 94.0514 110.712C94.6572 110.678 95.2526 110.879 95.7143 111.273C96.1761 111.666 96.4686 112.223 96.5314 112.826C96.4743 113.434 96.1842 113.996 95.7219 114.394C95.2595 114.793 94.6609 114.997 94.0514 114.963ZM98.8933 139.326C98.9245 138.995 99.0779 138.688 99.3236 138.465C99.5693 138.241 99.8896 138.117 100.222 138.117C100.554 138.117 100.874 138.241 101.12 138.465C101.366 138.688 101.519 138.995 101.55 139.326C101.519 139.657 101.366 139.964 101.12 140.188C100.874 140.411 100.554 140.535 100.222 140.535C99.8896 140.535 99.5693 140.411 99.3236 140.188C99.0779 139.964 98.9245 139.657 98.8933 139.326ZM101.456 128.698C100.355 128.71 99.2939 128.289 98.5023 127.524C97.7108 126.759 97.2529 125.712 97.2281 124.612C96.992 122.144 98.6571 121.553 100.771 121.352C102.885 121.152 104.609 121.352 104.845 123.88C105.025 124.96 104.774 126.068 104.148 126.966C103.521 127.864 102.567 128.482 101.491 128.686L101.456 128.698ZM139.246 105.811C132.515 125.722 137.51 121.222 131.416 128.249C129.119 130.566 127.297 133.31 126.055 136.327C124.413 141.05 116.501 144.971 108.86 144.877L108.447 144.699C109.303 144.596 110.117 144.27 110.809 143.755C111.329 143.27 108.447 143.152 106.487 143.589C106.215 143.397 106.02 143.116 105.934 142.795C105.847 142.473 105.876 142.132 106.014 141.83C106.794 140.838 111.565 142.397 111.033 137.413C110.561 132.855 117.174 137.555 118.45 132.973C119.453 129.335 122.571 131.166 121.78 126.088C121.659 125.466 121.612 124.832 121.638 124.198C122.072 124.349 122.457 124.613 122.756 124.961C123.055 125.31 123.256 125.731 123.339 126.182C123.87 128.001 124.52 126.631 125.594 125.344C126.669 124.057 127.318 121.459 126.433 121.459C125.547 121.459 125.004 120.573 127.118 119.297C129.232 118.022 129.184 115.117 128.157 115.849C127.129 116.581 125.5 114.527 125.205 116.392C124.992 117.703 124.189 118.636 123.126 118.624C123.256 112.72 128.299 113.121 126.315 109.59C123.835 105.15 134.144 105.233 135.88 101.253C137.616 97.273 132.822 93.5413 133.778 87.5539C135.899 90.9994 137.69 94.637 139.128 98.4185C140 100.795 140.038 103.398 139.234 105.799L139.246 105.811ZM115.604 136.693C116.784 138.169 115.828 139.869 113.832 140.082C112.214 140.897 111.765 139.055 112.143 137.212C112.521 135.37 114.423 135.264 115.604 136.693ZM125.346 133.374C124.567 134.791 123.232 136.22 123.528 134.744C124.071 133.15 126.137 131.969 125.346 133.421V133.374ZM131.251 112.708C132.951 110.559 132.515 109.236 132.219 108.35C133.991 108.102 134.723 111.716 131.251 112.755V112.708ZM135.172 115.436C134.132 118.613 133.837 119.935 133.4 118.317C132.963 116.699 133.247 115.66 132.727 115.282C132.207 114.904 132.078 114.55 132.515 113.664C133.483 111.739 136.199 112.306 135.172 115.436ZM128.228 123.998C129.302 123.372 131.511 121.896 129.043 119.888C132.928 119.675 133.66 124.352 128.228 124.045V123.998ZM127.862 109.826C126.752 108.456 127.803 107.098 128.818 107.535C130.117 108.138 129.42 111.799 127.862 109.874V109.826Z" fill="#0E1D27"/>
</g>
<g style="mix-blend-mode:color-dodge" opacity="0.54">
<path d="M25.4931 54.5152C27.0958 54.5283 28.6902 54.2828 30.2148 53.7881C37.2974 51.4177 42.7085 48.8113 42.803 38.9335C42.803 36.9881 44.0401 35.1561 45.3149 33.154C47.317 30.0471 49.5928 26.5436 48.148 21.5763C47.2036 18.5166 44.3706 15.3153 41.5376 12.2178C39.7789 10.4091 38.1977 8.43578 36.8158 6.3251C34.7099 2.65158 31.1214 0.186829 27.9106 0.186829C26.9574 0.189491 26.0186 0.41934 25.172 0.857316C23.6598 1.41008 22.0602 1.68521 20.4502 1.66946C19.0154 1.63931 17.5851 1.49722 16.1723 1.2445C15.0889 1.06393 13.9937 0.962931 12.8955 0.942308C11.8134 0.906982 10.742 1.16478 9.79443 1.68842C8.84689 2.21206 8.0585 2.98207 7.51267 3.91701C4.79694 7.80176 2.54658 11.9919 0.807794 16.4013C0.0627999 18.4657 0.0328685 20.7205 0.722802 22.804C2.18841 26.7845 3.27297 30.8951 3.96192 35.0805C4.32077 37.3564 4.38688 37.7625 7.13493 40.9166C8.89373 42.731 10.2826 44.8704 11.224 47.2154C12.6122 51.2005 19.147 54.5624 25.4931 54.5624V54.5152Z" fill="#EBE7D7"/>
<path d="M0.618885 16.288C2.35455 11.8682 4.60503 7.66835 7.32376 3.77534C11.7811 -2.66512 17.2772 3.51092 25.0492 0.696764C29.2515 -1.49413 34.436 1.79221 37.0046 6.23065C39.5733 10.6691 46.7598 16.3352 48.299 21.5197C50.7355 29.7355 43.1146 34.0417 43.0013 38.9429C42.8974 48.9341 37.4485 51.5688 30.2903 53.9675C23.1322 56.3661 12.8954 52.5226 11.0067 47.2154C10.0653 44.9034 8.67924 42.7986 6.92713 41.0205C1.8371 35.1844 5.83169 38.6029 0.477232 22.7945C-0.204509 20.6709 -0.154633 18.3799 0.618885 16.288V16.288ZM5.86002 16.7035C5.86002 17.0165 5.98439 17.3168 6.20576 17.5382C6.42714 17.7595 6.72738 17.8839 7.04046 17.8839C7.35353 17.8839 7.65378 17.7595 7.87515 17.5382C8.09653 17.3168 8.22089 17.0165 8.22089 16.7035C8.22089 16.3879 8.09553 16.0852 7.87238 15.8621C7.64924 15.639 7.34659 15.5136 7.03101 15.5136C6.71544 15.5136 6.41279 15.639 6.18964 15.8621C5.96649 16.0852 5.84113 16.3879 5.84113 16.7035H5.86002ZM43.955 32.5496C44.7294 31.322 45.5888 30.1416 46.4387 28.9422C47.3641 27.697 47.8221 26.166 47.7324 24.6171C47.5813 21.5197 45.9004 18.781 43.9078 16.5902C42.8812 15.5106 41.7661 14.5187 40.5743 13.6249C39.4588 12.7442 38.476 11.7073 37.6562 10.5463C36.8443 9.34836 36.1336 8.08486 35.5315 6.76893C34.9326 5.38283 34.1548 4.08115 33.2178 2.8971C32.9299 2.6106 32.6135 2.3543 32.2735 2.13217C31.928 1.91489 31.5526 1.74945 31.1591 1.64111L30.5736 1.49946C30.3753 1.49946 30.177 1.49946 29.9787 1.49946H29.3932L28.8171 1.57501C27.2967 1.80165 25.9274 2.20772 24.492 2.51936C23.0566 2.83099 21.659 3.27484 20.233 3.51092C18.808 3.70428 17.3602 3.64675 15.9551 3.34094C14.5173 2.96379 13.0288 2.81717 11.545 2.90654C10.8037 3.04108 10.1178 3.38896 9.57131 3.90755C9.04247 4.41585 8.57354 4.983 8.17367 5.59793C9.06136 4.47416 10.1568 3.31261 11.6111 3.15207C13.0607 3.13746 14.5038 3.34772 15.889 3.77534C17.3449 4.14062 18.8544 4.24296 20.3463 4.07753C21.829 3.87922 23.2549 3.52037 24.6809 3.20873L26.8246 2.746C27.5255 2.57956 28.2348 2.45032 28.9493 2.35882C29.604 2.2225 30.2826 2.25593 30.9206 2.45594C31.5586 2.65595 32.1349 3.01587 32.5945 3.50148C33.4589 4.63222 34.1731 5.87018 34.7193 7.18444C35.3282 8.54536 36.0549 9.8504 36.8913 11.0846C37.7707 12.319 38.8308 13.4142 40.036 14.3332C41.1934 15.1885 42.2798 16.1359 43.2846 17.1662C45.3242 19.1746 46.6338 21.8072 47.0053 24.6454C47.4114 27.5729 44.9183 29.7166 43.5584 32.3041C41.9842 34.8248 41.1286 37.7278 41.0842 40.6994C41.3059 37.7772 42.2964 34.9656 43.955 32.5496V32.5496ZM11.5072 9.00703C12.9899 8.06268 12.6877 6.11733 11.4506 5.9379C10.2135 5.75847 9.0708 10.4991 11.5072 9.00703ZM13.3487 21.3402C13.3703 22.0732 13.6553 22.7739 14.1514 23.3139C14.7725 24.4958 15.7417 25.4584 16.9278 26.0714C18.428 27.2275 20.1514 28.0603 21.9895 28.5173C21.1585 28.0073 20.4408 27.318 19.5531 26.8741C18.3732 26.1432 17.3205 25.2246 16.4367 24.1544C15.9456 23.6928 15.598 23.0993 15.4357 22.4451C15.3863 22.386 15.3421 22.3229 15.3035 22.2562C14.9628 21.6857 14.7863 21.0321 14.7936 20.3675C14.9407 19.7751 15.1398 19.1968 15.3885 18.6394C15.5207 18.0444 15.2468 17.4212 15.3885 16.7507C15.4487 16.4164 15.5704 16.0962 15.7474 15.8063C15.9219 15.0377 16.2779 14.3221 16.7855 13.7191C17.2932 13.1162 17.9377 12.6435 18.6654 12.3406C19.5094 11.9751 20.3849 11.6875 21.2812 11.4812C21.4678 11.4391 21.6571 11.4107 21.8478 11.3962C20.9456 11.3787 20.0446 11.4738 19.1659 11.6795C18.2784 11.8373 17.4129 12.1005 16.5878 12.4633C15.9551 12.8411 15.5207 13.4077 14.9352 13.861C14.8502 14.0687 14.7652 14.2765 14.6897 14.4465C13.292 15.1831 12.3383 16.2124 12.801 17.61C13.459 18.7359 13.6553 20.0728 13.3487 21.3402V21.3402ZM29.8937 17.2606C29.7753 16.6944 29.4732 16.1832 29.0343 15.8063C28.4484 14.9818 27.6248 14.3558 26.6735 14.0121C25.6558 13.4033 24.5248 13.0081 23.3494 12.8505C23.0094 12.8505 22.6883 12.9072 22.405 12.9166L21.6212 12.9827C21.5143 13.1598 21.3768 13.3165 21.2151 13.4455C22.0178 13.7382 22.6978 14.1348 23.5477 14.3898C24.832 15.3342 25.663 16.4863 26.8246 17.4401C26.9597 17.6632 27.0766 17.8969 27.174 18.1389C28.5338 18.8188 26.4752 19.6498 26.8151 20.4809C26.6637 20.642 26.5795 20.8547 26.5795 21.0758C26.5795 21.2969 26.6637 21.5096 26.8151 21.6707C26.8636 21.7519 26.9047 21.8372 26.9379 21.9257C26.7018 21.9257 27.3156 22.8229 26.9379 22.9834C26.5224 23.7105 25.3419 25.1176 24.4448 24.8721C23.3777 24.7682 22.8489 25.4765 21.829 25.8164C21.7515 26.1021 21.6057 26.3647 21.404 26.5814C22.8205 26.0053 24.086 27.5257 25.4458 26.8552C27.1456 26.4303 28.3827 25.3443 29.091 25.1176C29.3668 24.881 29.6227 24.622 29.8559 24.3433C29.8559 23.9089 29.9881 23.3139 30.0731 22.889C30.9325 22.1146 31.4519 21.1797 30.9325 20.1409C30.2605 19.3316 29.893 18.3126 29.8937 17.2606V17.2606ZM28.5716 7.55274C28.5716 7.36596 28.5162 7.18338 28.4125 7.02808C28.3087 6.87279 28.1612 6.75175 27.9886 6.68027C27.8161 6.6088 27.6262 6.59009 27.443 6.62653C27.2598 6.66297 27.0916 6.75291 26.9595 6.88498C26.8274 7.01705 26.7375 7.18532 26.7011 7.3685C26.6646 7.55169 26.6833 7.74157 26.7548 7.91412C26.8263 8.08668 26.9473 8.23417 27.1026 8.33793C27.2579 8.4417 27.4405 8.49708 27.6273 8.49708C27.8777 8.49708 28.1179 8.39759 28.295 8.22049C28.4721 8.04339 28.5716 7.80319 28.5716 7.55274V7.55274ZM22.7827 35.6471C21.5457 35.4677 20.403 40.2083 22.8394 38.7162C24.322 37.7719 24.0198 35.7982 22.7827 35.6282V35.6471ZM43.1146 23.465C41.8775 23.2856 40.7348 28.0262 43.1712 26.5341C44.6255 25.6276 44.3233 23.6067 43.1146 23.465ZM39.8943 16.7601C41.1084 17.6157 42.2234 18.6039 43.2185 19.7065C44.1855 20.8176 44.8921 22.1308 45.2866 23.55C45.526 24.2553 45.6087 25.0043 45.5288 25.7448C45.4488 26.4853 45.2083 27.1994 44.8238 27.8373C45.3035 27.2247 45.6378 26.5111 45.8014 25.7504C45.965 24.9897 45.9536 24.2018 45.7682 23.4461C45.4424 21.9174 44.7776 20.4813 43.8228 19.2438C42.831 18.042 41.692 16.9696 40.4326 16.0519C39.2522 15.1075 38.0529 14.1632 37.0046 13.1527C35.9531 12.1371 35.0927 10.9408 34.4643 9.62086C34.1606 8.94722 33.8957 8.25671 33.6711 7.55274C33.4596 6.79403 33.1416 6.06912 32.7267 5.39962C32.2539 4.69889 31.6017 4.13794 30.838 3.77534C30.1141 3.42986 29.3163 3.2677 28.5149 3.30317C26.9817 3.40374 25.4833 3.80483 24.1048 4.4836C25.5319 3.99112 27.0339 3.75144 28.5433 3.77534C29.2627 3.79566 29.9675 3.98319 30.602 4.32306C31.2112 4.6775 31.7136 5.18969 32.0563 5.80569C32.4078 6.43623 32.6775 7.10899 32.8589 7.80771C33.087 8.55311 33.3582 9.28464 33.6711 9.9986C34.319 11.4322 35.2285 12.7325 36.353 13.8327C37.4727 14.8685 38.6452 15.8456 39.866 16.7601H39.8943ZM35.8525 19.7443C35.8525 19.9311 35.9079 20.1136 36.0117 20.2689C36.1155 20.4242 36.2629 20.5453 36.4355 20.6167C36.6081 20.6882 36.7979 20.7069 36.9811 20.6705C37.1643 20.634 37.3326 20.5441 37.4646 20.412C37.5967 20.28 37.6866 20.1117 37.7231 19.9285C37.7595 19.7453 37.7408 19.5554 37.6693 19.3829C37.5979 19.2103 37.4768 19.0628 37.3215 18.9591C37.1662 18.8553 36.9837 18.7999 36.7969 18.7999C36.6705 18.7961 36.5447 18.8178 36.4268 18.8635C36.3089 18.9093 36.2015 18.9782 36.1107 19.0663C36.02 19.1544 35.9479 19.2598 35.8987 19.3762C35.8495 19.4927 35.8241 19.6178 35.8242 19.7443H35.8525ZM36.5041 47.8387C36.7531 47.8048 36.9815 47.6819 37.1468 47.4926C37.3121 47.3034 37.4032 47.0606 37.4032 46.8093C37.4032 46.558 37.3121 46.3152 37.1468 46.126C36.9815 45.9367 36.7531 45.8138 36.5041 45.78C36.2551 45.8138 36.0268 45.9367 35.8615 46.126C35.6962 46.3152 35.6051 46.558 35.6051 46.8093C35.6051 47.0606 35.6962 47.3034 35.8615 47.4926C36.0268 47.6819 36.2551 47.8048 36.5041 47.8387V47.8387ZM37.5429 29.8394C38.6478 29.8394 38.8367 29.0744 38.8367 28.1301C38.8367 27.1857 38.6478 26.4397 37.5429 26.4397C37.0585 26.4128 36.5824 26.5734 36.2132 26.8881C35.8439 27.2028 35.61 27.6476 35.5598 28.1301C35.6054 28.616 35.8374 29.0654 36.2071 29.3841C36.5768 29.7027 37.0556 29.8659 37.5429 29.8394V29.8394ZM33.6711 49.3213C33.6461 49.0568 33.5234 48.8111 33.3269 48.6323C33.1305 48.4535 32.8744 48.3544 32.6087 48.3544C32.343 48.3544 32.0869 48.4535 31.8905 48.6323C31.694 48.8111 31.5713 49.0568 31.5463 49.3213C31.5713 49.5858 31.694 49.8314 31.8905 50.0102C32.0869 50.189 32.343 50.2881 32.6087 50.2881C32.8744 50.2881 33.1305 50.189 33.3269 50.0102C33.5234 49.8314 33.6461 49.5858 33.6711 49.3213ZM31.6219 40.8221C32.5021 40.8323 33.3507 40.4949 33.9837 39.8832C34.6167 39.2714 34.9828 38.4347 35.0026 37.5547C35.1915 35.581 33.86 35.1088 32.1696 34.9483C30.4792 34.7878 29.1004 34.9483 28.9116 36.9692C28.7679 37.8332 28.9681 38.7192 29.4693 39.4375C29.9706 40.1558 30.733 40.6494 31.5935 40.8127L31.6219 40.8221ZM1.4027 22.5207C6.78548 38.4424 2.79089 34.8444 7.66373 40.4633C9.50082 42.3159 10.9573 44.5103 11.9511 46.9226C13.2637 50.7 19.5909 53.8353 25.7008 53.7597L26.0313 53.6181C25.3467 53.5351 24.6956 53.2747 24.1426 52.8626C23.7271 52.4754 26.0313 52.381 27.5989 52.7304C27.8158 52.5764 27.9722 52.3517 28.0411 52.0948C28.1101 51.838 28.0873 51.5651 27.9767 51.3233C27.3534 50.53 23.5382 51.7766 23.9632 47.7914C24.3409 44.1462 19.0526 47.9048 18.0327 44.2407C17.23 41.3321 14.7369 42.7958 15.3696 38.7351C15.466 38.2376 15.504 37.7305 15.4829 37.2242C15.1363 37.3449 14.8279 37.5553 14.589 37.834C14.3502 38.1127 14.1894 38.4497 14.1231 38.8107C13.6981 40.265 13.1787 39.1695 12.3194 38.1402C11.46 37.1108 10.9406 35.0333 11.6489 35.0333C12.3571 35.0333 12.7915 34.325 11.1012 33.3051C9.41077 32.2852 9.44855 29.9621 10.2701 30.5476C11.0917 31.1331 12.3949 29.49 12.631 30.982C12.801 32.0303 13.4431 32.7763 14.2931 32.7668C14.1892 28.0451 10.1568 28.3662 11.7433 25.5426C13.7264 21.9918 5.48228 22.0579 4.09409 18.8755C2.7059 15.693 6.53995 12.7089 5.77503 7.92103C4.07936 10.6763 2.64707 13.5851 1.49713 16.609C0.799373 18.5097 0.769398 20.5913 1.41214 22.5112L1.4027 22.5207ZM20.3086 47.2154C19.3642 48.3958 20.1291 49.7557 21.7251 49.9257C23.0188 50.5773 23.3777 49.1041 23.0755 47.6309C22.7733 46.1577 21.2529 46.0727 20.3086 47.2154ZM12.5177 44.5618C13.1409 45.695 14.2081 46.8376 13.972 45.6572C13.5376 44.3823 11.885 43.438 12.5177 44.5995V44.5618ZM7.79593 28.0357C6.43607 26.3169 6.78548 25.2593 7.02157 24.551C5.60505 24.3527 5.01955 27.2424 7.79593 28.0734V28.0357ZM4.6607 30.2171C5.49172 32.7574 5.72781 33.8151 6.07722 32.5213C6.42663 31.2276 6.19998 30.3965 6.6155 30.0943C7.03101 29.7921 7.13489 29.5088 6.78548 28.8006C6.01112 27.2613 3.83911 27.7146 4.6607 30.2171ZM10.2135 37.0636C9.35411 36.5631 7.58818 35.3827 9.56187 33.7773C6.45496 33.6073 5.86946 37.3469 10.2135 37.1014V37.0636ZM10.5062 25.7314C11.3939 24.636 10.5534 23.55 9.74129 23.8994C8.70251 24.381 9.25968 27.3085 10.5062 25.7692V25.7314Z" fill="#0E1D27"/>
<path d="M192.654 140.07C191.232 139.33 189.939 138.366 188.824 137.214C183.679 131.8 180.122 126.961 184.669 118.192C185.581 116.473 185.347 114.275 185.16 111.909C184.848 108.226 184.48 104.065 188.085 100.354C190.353 98.0945 194.357 96.5949 198.311 95.187C200.712 94.4138 203.034 93.412 205.244 92.1955C208.827 89.9379 213.152 89.4431 215.988 90.9483C216.829 91.3976 217.55 92.0407 218.093 92.8245C219.169 94.0216 220.453 95.0145 221.883 95.7554C223.164 96.4014 224.494 96.9464 225.861 97.3855C226.902 97.7339 227.917 98.1582 228.897 98.6548C229.869 99.1309 230.695 99.8609 231.286 100.768C231.878 101.674 232.213 102.724 232.257 103.806C232.834 108.51 232.858 113.266 232.327 117.976C232.017 120.149 230.986 122.155 229.4 123.672C226.239 126.501 223.354 129.623 220.784 132.997C219.4 134.839 219.151 135.167 215.245 136.665C212.841 137.443 210.611 138.682 208.68 140.312C205.586 143.181 198.237 143.087 192.632 140.112L192.654 140.07Z" fill="#EBE7D7"/>
<path d="M232.547 117.965C233.085 113.247 233.066 108.482 232.49 103.769C231.572 95.9907 223.822 98.8695 218.276 92.7402C215.591 88.8349 209.471 89.3072 205.122 92.0235C200.772 94.7398 191.768 96.3757 187.978 100.234C181.974 106.348 186.687 113.725 184.489 118.107C179.897 126.981 183.475 131.863 188.673 137.337C193.872 142.812 204.716 144.216 208.872 140.413C210.787 138.812 212.999 137.603 215.38 136.854C222.612 134.085 217.481 135.232 229.621 123.779C231.219 122.222 232.249 120.175 232.547 117.965V117.965ZM227.722 115.875C227.575 116.151 227.325 116.358 227.026 116.45C226.726 116.542 226.403 116.511 226.126 116.364C225.85 116.217 225.643 115.967 225.551 115.667C225.459 115.368 225.49 115.045 225.637 114.768C225.785 114.489 226.037 114.281 226.339 114.188C226.641 114.096 226.967 114.127 227.246 114.275C227.524 114.423 227.733 114.675 227.825 114.977C227.918 115.279 227.887 115.605 227.739 115.884L227.722 115.875ZM186.644 112.013C186.536 110.565 186.33 109.12 186.141 107.662C185.908 106.128 186.221 104.561 187.026 103.235C188.612 100.57 191.38 98.939 194.168 97.9379C195.581 97.4656 197.03 97.1122 198.502 96.8814C199.9 96.6264 201.255 96.1713 202.523 95.5301C203.802 94.8526 205.022 94.0697 206.171 93.1896C207.349 92.246 208.647 91.4609 210.029 90.8543C210.418 90.7362 210.818 90.6581 211.222 90.6213C211.629 90.5914 212.038 90.6212 212.437 90.71L213.02 90.8593C213.195 90.9523 213.371 91.0453 213.546 91.1383L214.063 91.4127L214.536 91.7495C215.773 92.6625 216.792 93.6631 217.914 94.6113C219.036 95.5595 220.062 96.6067 221.211 97.4838C222.379 98.3226 223.685 98.9505 225.07 99.3391C226.516 99.68 227.9 100.248 229.169 101.023C229.76 101.489 230.203 102.118 230.443 102.832C230.672 103.529 230.82 104.25 230.885 104.981C230.628 103.572 230.205 102.032 228.995 101.209C227.722 100.516 226.348 100.025 224.924 99.7538C223.467 99.3939 222.086 98.7767 220.845 97.9311C219.629 97.0609 218.538 96.0754 217.424 95.1317L215.747 93.718C215.206 93.2424 214.64 92.7957 214.052 92.3799C213.538 91.9526 212.923 91.664 212.265 91.5415C211.608 91.4191 210.93 91.4669 210.297 91.6803C209.003 92.2739 207.792 93.0326 206.693 93.9374C205.517 94.8541 204.264 95.6661 202.946 96.3642C201.591 97.0423 200.141 97.5127 198.646 97.7594C197.222 97.9724 195.819 98.2999 194.448 98.7389C191.705 99.5567 189.314 101.268 187.655 103.601C185.924 105.997 187.121 109.059 187.109 111.982C187.318 114.946 186.713 117.912 185.359 120.557C186.533 117.872 186.977 114.924 186.644 112.013V112.013ZM226.342 106.429C225.475 104.9 226.654 103.323 227.831 103.745C229.008 104.166 227.795 108.889 226.342 106.429ZM218.934 116.46C218.571 117.097 217.991 117.582 217.299 117.827C216.197 118.58 214.889 118.976 213.554 118.961C211.687 119.279 209.774 119.207 207.937 118.749C208.91 118.688 209.867 118.415 210.859 118.439C212.244 118.347 213.604 118.029 214.887 117.498C215.537 117.32 216.122 116.959 216.572 116.457C216.644 116.428 216.712 116.393 216.778 116.353C217.346 116.008 217.808 115.514 218.113 114.923C218.261 114.331 218.356 113.727 218.398 113.118C218.56 112.53 219.094 112.108 219.284 111.45C219.387 111.126 219.43 110.786 219.409 110.447C219.615 109.686 219.636 108.887 219.471 108.117C219.305 107.346 218.957 106.627 218.457 106.018C217.882 105.299 217.244 104.635 216.549 104.033C216.404 103.908 216.25 103.794 216.088 103.692C216.893 104.099 217.645 104.606 218.324 105.199C219.034 105.755 219.675 106.393 220.234 107.1C220.616 107.731 220.734 108.435 221.039 109.11C221.016 109.333 220.994 109.556 220.981 109.742C221.87 111.048 222.23 112.404 221.166 113.422C220.057 114.108 219.257 115.197 218.934 116.46V116.46ZM206.232 105.1C206.602 104.655 207.109 104.345 207.673 104.218C208.577 103.765 209.598 103.598 210.599 103.74C211.784 103.68 212.968 103.861 214.08 104.273C214.38 104.432 214.637 104.632 214.883 104.774L215.545 105.199C215.556 105.406 215.604 105.609 215.686 105.799C214.84 105.681 214.054 105.712 213.183 105.539C211.606 105.771 210.332 106.399 208.859 106.697C208.635 106.831 208.422 106.983 208.223 107.151C206.703 107.114 208.132 108.813 207.442 109.388C207.5 109.601 207.475 109.828 207.371 110.024C207.267 110.219 207.093 110.367 206.884 110.439C206.803 110.488 206.727 110.544 206.656 110.606C206.864 110.717 205.902 111.222 206.16 111.541C206.186 112.378 206.569 114.174 207.477 114.378C208.468 114.786 208.603 115.66 209.345 116.438C209.279 116.727 209.285 117.027 209.361 117.313C208.38 116.14 206.55 116.89 205.663 115.66C204.361 114.488 203.777 112.949 203.258 112.416C203.125 112.078 203.02 111.729 202.945 111.374C203.149 110.99 203.311 110.403 203.435 109.987C203.039 108.901 203.018 107.831 203.964 107.157C204.937 106.757 205.739 106.029 206.232 105.1V105.1ZM211.951 97.1448C212.038 96.9798 212.173 96.8445 212.337 96.756C212.502 96.6674 212.689 96.6297 212.875 96.6474C213.061 96.6652 213.237 96.7377 213.382 96.8557C213.527 96.9738 213.633 97.1321 213.688 97.3107C213.743 97.4893 213.743 97.6801 213.69 97.859C213.636 98.0378 213.53 98.1968 213.386 98.3157C213.242 98.4346 213.066 98.5082 212.88 98.527C212.695 98.5459 212.507 98.5092 212.342 98.4216C212.121 98.3042 211.956 98.1037 211.882 97.8643C211.809 97.6248 211.833 97.366 211.951 97.1448V97.1448ZM203.893 124.674C205.07 125.096 203.857 129.819 202.405 127.359C201.538 125.83 202.73 124.228 203.902 124.658L203.893 124.674ZM191.645 104.382C192.822 104.804 191.609 109.527 190.156 107.067C189.297 105.584 190.511 103.941 191.645 104.382ZM197.633 99.9696C196.16 100.156 194.711 100.506 193.316 101.014C191.94 101.542 190.701 102.371 189.687 103.439C189.145 103.95 188.721 104.573 188.444 105.264C188.168 105.956 188.045 106.699 188.086 107.443C187.949 106.677 187.989 105.89 188.201 105.141C188.413 104.393 188.792 103.702 189.31 103.122C190.315 101.924 191.575 100.967 192.999 100.322C194.438 99.7251 195.947 99.3118 197.49 99.0916C198.975 98.8109 200.477 98.539 201.877 98.1378C203.282 97.7337 204.602 97.0804 205.776 96.209C206.36 95.7564 206.918 95.2706 207.447 94.7541C207.989 94.1831 208.61 93.6919 209.29 93.295C210.036 92.8977 210.875 92.708 211.72 92.7457C212.521 92.7799 213.302 93.0107 213.993 93.4177C215.3 94.2253 216.436 95.282 217.335 96.5278C216.306 95.4238 215.091 94.508 213.747 93.8215C213.102 93.5021 212.391 93.3374 211.672 93.3402C210.967 93.3676 210.283 93.5845 209.692 93.968C209.086 94.3602 208.532 94.828 208.044 95.3601C207.493 95.9116 206.911 96.4306 206.3 96.9146C205.056 97.8772 203.643 98.5993 202.133 99.0439C200.659 99.434 199.165 99.7474 197.658 99.9828L197.633 99.9696ZM199.804 104.5C199.717 104.665 199.582 104.801 199.418 104.889C199.253 104.978 199.066 105.015 198.88 104.998C198.694 104.98 198.518 104.907 198.373 104.789C198.228 104.671 198.122 104.513 198.067 104.334C198.012 104.156 198.012 103.965 198.066 103.786C198.119 103.607 198.225 103.448 198.369 103.329C198.513 103.21 198.689 103.137 198.875 103.118C199.061 103.099 199.248 103.136 199.413 103.223C199.526 103.279 199.627 103.357 199.71 103.453C199.793 103.549 199.855 103.66 199.894 103.78C199.933 103.901 199.947 104.028 199.936 104.154C199.925 104.279 199.889 104.402 199.829 104.514L199.804 104.5ZM186.058 129.011C185.854 128.864 185.71 128.648 185.652 128.404C185.595 128.159 185.629 127.902 185.746 127.68C185.864 127.458 186.058 127.286 186.293 127.197C186.528 127.107 186.787 127.105 187.023 127.192C187.227 127.339 187.371 127.554 187.428 127.799C187.486 128.044 187.452 128.301 187.335 128.523C187.217 128.745 187.023 128.917 186.788 129.006C186.553 129.096 186.294 129.098 186.058 129.011V129.011ZM193.578 112.625C192.603 112.107 192.794 111.343 193.237 110.509C193.68 109.674 194.196 109.104 195.172 109.622C195.613 109.825 195.958 110.19 196.137 110.641C196.315 111.092 196.313 111.595 196.131 112.045C195.863 112.453 195.448 112.741 194.972 112.849C194.496 112.957 193.997 112.877 193.578 112.625V112.625ZM187.865 131.648C188.011 131.426 188.235 131.267 188.492 131.201C188.75 131.135 189.022 131.168 189.257 131.292C189.492 131.417 189.671 131.625 189.761 131.875C189.851 132.125 189.844 132.399 189.742 132.645C189.596 132.866 189.373 133.026 189.115 133.092C188.858 133.158 188.585 133.125 188.35 133C188.116 132.876 187.936 132.668 187.846 132.418C187.757 132.168 187.763 131.894 187.865 131.648ZM193.66 125.102C192.878 124.698 192.286 124.002 192.014 123.165C191.741 122.328 191.81 121.417 192.205 120.631C192.964 118.799 194.361 119.006 195.93 119.657C197.498 120.307 198.641 121.095 197.86 122.969C197.582 123.8 196.99 124.488 196.21 124.888C195.431 125.287 194.526 125.366 193.689 125.107L193.66 125.102ZM228.932 123.103C216.713 134.643 221.929 133.338 214.99 136.016C212.499 136.792 210.184 138.047 208.175 139.712C205.245 142.433 198.186 142.236 192.825 139.305L192.599 139.025C193.243 139.273 193.94 139.348 194.622 139.243C195.17 139.096 193.179 137.933 191.631 137.506C191.511 137.269 191.479 136.997 191.538 136.738C191.598 136.478 191.746 136.248 191.957 136.086C192.879 135.678 195.665 138.567 197.158 134.848C198.533 131.451 201.442 137.25 204.061 134.492C206.133 132.299 207.649 134.761 208.994 130.877C209.142 130.393 209.346 129.927 209.602 129.49C209.852 129.759 210.025 130.089 210.106 130.447C210.186 130.806 210.17 131.179 210.06 131.529C209.753 133.012 210.725 132.288 211.967 131.782C213.209 131.276 214.641 129.684 214.016 129.352C213.39 129.02 213.339 128.191 215.31 128.082C217.281 127.974 218.337 125.904 217.337 126.036C216.336 126.168 215.956 124.106 215.048 125.313C214.406 126.159 213.489 126.517 212.743 126.11C215.048 121.988 218.459 124.162 218.382 120.924C218.295 116.858 225.546 120.782 228.264 118.621C230.982 116.461 228.994 112.028 231.915 108.157C232.121 111.386 232.022 114.627 231.62 117.837C231.346 119.843 230.396 121.695 228.928 123.09L228.932 123.103ZM200.656 136.053C200.936 137.538 199.623 138.381 198.134 137.783C196.686 137.752 197.059 136.282 198.017 135.123C198.974 133.963 200.357 134.601 200.656 136.053ZM208.781 137.361C207.7 138.07 206.221 138.579 206.983 137.647C207.965 136.724 209.867 136.665 208.764 137.394L208.781 137.361ZM220.7 124.977C222.707 124.096 222.894 122.998 223.017 122.262C224.361 122.751 223.524 125.578 220.682 125.01L220.7 124.977ZM222.446 128.374C220.521 130.228 219.817 131.052 220.115 129.745C220.413 128.438 221.003 127.811 220.777 127.349C220.552 126.887 220.593 126.588 221.234 126.126C222.639 125.13 224.345 126.548 222.446 128.374ZM214.332 131.818C215.326 131.779 217.439 131.564 216.448 129.221C219.272 130.527 218.036 134.105 214.314 131.852L214.332 131.818ZM219.386 121.671C219.115 120.287 220.367 119.722 220.92 120.412C221.612 121.324 219.748 123.649 219.368 121.705L219.386 121.671Z" fill="#0E1D27"/>
</g>
<g style="mix-blend-mode:color-dodge" opacity="0.54">
<path d="M160.292 145.585C161.442 145.593 162.586 145.442 163.68 145.137C168.762 143.677 172.644 142.071 172.712 135.986C172.712 134.787 173.6 133.658 174.514 132.425C175.951 130.511 177.584 128.353 176.547 125.292C175.869 123.407 173.837 121.435 171.804 119.527C170.542 118.413 169.408 117.197 168.416 115.897C166.905 113.634 164.33 112.115 162.026 112.115C161.342 112.117 160.669 112.258 160.061 112.528C158.976 112.869 157.829 113.038 156.673 113.028C155.644 113.01 154.618 112.922 153.604 112.767C152.827 112.655 152.041 112.593 151.253 112.581C150.476 112.559 149.708 112.718 149.028 113.04C148.348 113.363 147.782 113.837 147.39 114.413C145.442 116.806 143.827 119.388 142.58 122.104C142.045 123.376 142.024 124.765 142.519 126.049C143.57 128.501 144.348 131.033 144.843 133.612C145.1 135.014 145.148 135.264 147.119 137.207C148.381 138.325 149.378 139.643 150.053 141.088C151.049 143.543 155.738 145.614 160.292 145.614V145.585Z" fill="#EBE7D7"/>
<path d="M142.444 122.034C143.689 119.312 145.304 116.724 147.255 114.326C150.453 110.358 154.397 114.163 159.973 112.429C162.989 111.08 166.708 113.104 168.551 115.838C170.395 118.573 175.551 122.064 176.655 125.258C178.404 130.319 172.935 132.972 172.854 135.991C172.78 142.147 168.87 143.77 163.734 145.248C158.598 146.725 151.253 144.357 149.898 141.088C149.222 139.663 148.228 138.367 146.97 137.271C143.318 133.676 146.184 135.782 142.342 126.043C141.853 124.735 141.889 123.323 142.444 122.034ZM146.205 122.29C146.205 122.483 146.294 122.668 146.453 122.805C146.612 122.941 146.827 123.018 147.052 123.018C147.276 123.018 147.492 122.941 147.651 122.805C147.809 122.668 147.899 122.483 147.899 122.29C147.899 122.096 147.809 121.91 147.649 121.772C147.488 121.635 147.271 121.557 147.045 121.557C146.818 121.557 146.601 121.635 146.441 121.772C146.281 121.91 146.191 122.096 146.191 122.29H146.205ZM173.539 132.053C174.094 131.296 174.711 130.569 175.321 129.83C175.985 129.063 176.313 128.12 176.249 127.166C176.14 125.258 174.934 123.57 173.505 122.221C172.768 121.556 171.968 120.945 171.113 120.394C170.312 119.851 169.607 119.212 169.019 118.497C168.436 117.759 167.927 116.981 167.494 116.17C167.065 115.316 166.507 114.514 165.834 113.785C165.628 113.608 165.401 113.45 165.157 113.314C164.909 113.18 164.64 113.078 164.357 113.011L163.937 112.924C163.795 112.924 163.653 112.924 163.51 112.924H163.09L162.677 112.97C161.586 113.11 160.603 113.36 159.573 113.552C158.544 113.744 157.541 114.018 156.518 114.163C155.495 114.282 154.456 114.247 153.448 114.058C152.416 113.826 151.348 113.736 150.284 113.791C149.752 113.874 149.26 114.088 148.868 114.407C148.488 114.72 148.152 115.07 147.865 115.449C148.502 114.756 149.288 114.041 150.331 113.942C151.371 113.933 152.407 114.062 153.401 114.326C154.445 114.551 155.528 114.614 156.599 114.512C157.663 114.39 158.686 114.169 159.709 113.977L161.247 113.692C161.75 113.589 162.259 113.51 162.772 113.453C163.241 113.369 163.728 113.39 164.186 113.513C164.644 113.636 165.057 113.858 165.387 114.157C166.007 114.854 166.52 115.616 166.912 116.426C167.349 117.265 167.87 118.069 168.47 118.829C169.101 119.589 169.862 120.264 170.727 120.83C171.557 121.357 172.336 121.941 173.057 122.576C174.521 123.813 175.461 125.435 175.727 127.183C176.018 128.987 174.23 130.307 173.254 131.902C172.124 133.454 171.511 135.243 171.479 137.074C171.638 135.273 172.348 133.541 173.539 132.053ZM150.257 117.549C151.32 116.967 151.104 115.769 150.216 115.658C149.328 115.548 148.508 118.468 150.257 117.549ZM151.578 125.147C151.593 125.599 151.798 126.03 152.154 126.363C152.6 127.091 153.295 127.684 154.146 128.062C155.222 128.774 156.459 129.287 157.778 129.569C157.182 129.254 156.667 128.83 156.03 128.556C155.183 128.106 154.428 127.54 153.794 126.881C153.441 126.596 153.192 126.231 153.075 125.828C153.04 125.791 153.008 125.752 152.981 125.711C152.736 125.36 152.609 124.957 152.615 124.548C152.72 124.183 152.863 123.827 153.042 123.483C153.136 123.117 152.94 122.733 153.042 122.32C153.085 122.114 153.172 121.916 153.299 121.738C153.424 121.264 153.68 120.823 154.044 120.452C154.408 120.08 154.871 119.789 155.393 119.603C155.998 119.377 156.627 119.2 157.27 119.073C157.404 119.047 157.539 119.03 157.676 119.021C157.029 119.01 156.382 119.069 155.752 119.195C155.115 119.293 154.494 119.455 153.902 119.678C153.448 119.911 153.136 120.26 152.716 120.539C152.655 120.667 152.594 120.795 152.54 120.9C151.537 121.354 150.853 121.988 151.185 122.849C151.657 123.543 151.798 124.366 151.578 125.147ZM163.449 122.634C163.364 122.285 163.148 121.97 162.833 121.738C162.412 121.23 161.821 120.844 161.139 120.632C160.408 120.257 159.597 120.014 158.754 119.917C158.51 119.917 158.279 119.952 158.076 119.958L157.514 119.998C157.437 120.107 157.338 120.204 157.222 120.283C157.798 120.464 158.286 120.708 158.896 120.865C159.817 121.447 160.414 122.157 161.247 122.744C161.344 122.882 161.428 123.026 161.498 123.175C162.474 123.594 160.996 124.106 161.24 124.618C161.132 124.717 161.071 124.848 161.071 124.984C161.071 125.12 161.132 125.251 161.24 125.351C161.275 125.401 161.305 125.453 161.328 125.508C161.159 125.508 161.599 126.06 161.328 126.159C161.03 126.607 160.183 127.474 159.54 127.323C158.774 127.259 158.394 127.695 157.663 127.905C157.607 128.081 157.502 128.242 157.358 128.376C158.374 128.021 159.282 128.958 160.258 128.545C161.477 128.283 162.365 127.614 162.873 127.474C163.071 127.328 163.255 127.169 163.422 126.997C163.422 126.729 163.517 126.363 163.578 126.101C164.195 125.624 164.567 125.048 164.195 124.408C163.712 123.91 163.449 123.282 163.449 122.634ZM162.501 116.653C162.501 116.538 162.461 116.425 162.386 116.33C162.312 116.234 162.206 116.16 162.082 116.115C161.959 116.071 161.822 116.06 161.691 116.082C161.559 116.105 161.439 116.16 161.344 116.242C161.249 116.323 161.185 116.427 161.158 116.539C161.132 116.652 161.146 116.769 161.197 116.876C161.248 116.982 161.335 117.073 161.447 117.137C161.558 117.201 161.689 117.235 161.823 117.235C162.003 117.235 162.175 117.173 162.302 117.064C162.429 116.955 162.501 116.807 162.501 116.653ZM158.347 133.961C157.459 133.85 156.64 136.771 158.388 135.852C159.451 135.27 159.235 134.054 158.347 133.949V133.961ZM172.935 126.456C172.048 126.345 171.228 129.266 172.976 128.347C174.02 127.788 173.803 126.543 172.935 126.456ZM170.625 122.325C171.496 122.852 172.296 123.461 173.01 124.141C173.704 124.825 174.211 125.634 174.494 126.508C174.666 126.943 174.725 127.404 174.668 127.861C174.61 128.317 174.438 128.757 174.162 129.15C174.506 128.772 174.746 128.333 174.863 127.864C174.981 127.395 174.973 126.91 174.839 126.444C174.606 125.503 174.129 124.618 173.444 123.855C172.732 123.115 171.915 122.454 171.011 121.889C170.164 121.307 169.304 120.725 168.551 120.103C167.797 119.477 167.18 118.74 166.729 117.927C166.511 117.512 166.321 117.087 166.16 116.653C166.008 116.186 165.78 115.739 165.482 115.327C165.143 114.895 164.675 114.549 164.127 114.326C163.607 114.113 163.035 114.013 162.46 114.035C161.36 114.097 160.285 114.344 159.296 114.762C160.32 114.459 161.397 114.311 162.48 114.326C162.997 114.338 163.502 114.454 163.957 114.663C164.395 114.882 164.755 115.197 165.001 115.577C165.253 115.965 165.447 116.38 165.577 116.81C165.741 117.269 165.935 117.72 166.16 118.16C166.624 119.043 167.277 119.844 168.084 120.522C168.887 121.16 169.729 121.762 170.605 122.325H170.625ZM167.725 124.164C167.725 124.279 167.765 124.391 167.839 124.487C167.913 124.583 168.019 124.657 168.143 124.701C168.267 124.745 168.403 124.757 168.535 124.734C168.666 124.712 168.787 124.657 168.882 124.575C168.976 124.494 169.041 124.39 169.067 124.277C169.093 124.164 169.08 124.047 169.028 123.941C168.977 123.835 168.89 123.744 168.779 123.68C168.667 123.616 168.536 123.582 168.402 123.582C168.312 123.58 168.221 123.593 168.137 123.621C168.052 123.649 167.975 123.692 167.91 123.746C167.845 123.8 167.793 123.865 167.758 123.937C167.723 124.009 167.704 124.086 167.705 124.164H167.725ZM168.192 141.472C168.371 141.451 168.535 141.375 168.653 141.259C168.772 141.142 168.837 140.993 168.837 140.838C168.837 140.683 168.772 140.533 168.653 140.417C168.535 140.3 168.371 140.224 168.192 140.204C168.014 140.224 167.85 140.3 167.731 140.417C167.613 140.533 167.547 140.683 167.547 140.838C167.547 140.993 167.613 141.142 167.731 141.259C167.85 141.375 168.014 141.451 168.192 141.472ZM168.938 130.383C169.73 130.383 169.866 129.912 169.866 129.33C169.866 128.748 169.73 128.289 168.938 128.289C168.59 128.272 168.248 128.371 167.984 128.565C167.719 128.759 167.551 129.033 167.515 129.33C167.548 129.629 167.714 129.906 167.979 130.103C168.245 130.299 168.588 130.399 168.938 130.383ZM166.16 142.385C166.142 142.222 166.054 142.071 165.913 141.961C165.772 141.851 165.588 141.79 165.397 141.79C165.207 141.79 165.023 141.851 164.882 141.961C164.741 142.071 164.653 142.222 164.635 142.385C164.653 142.548 164.741 142.7 164.882 142.81C165.023 142.92 165.207 142.981 165.397 142.981C165.588 142.981 165.772 142.92 165.913 142.81C166.054 142.7 166.142 142.548 166.16 142.385ZM164.689 137.149C165.321 137.155 165.93 136.948 166.384 136.571C166.838 136.194 167.101 135.678 167.115 135.136C167.251 133.92 166.295 133.629 165.082 133.531C163.869 133.432 162.88 133.531 162.745 134.776C162.641 135.308 162.785 135.854 163.145 136.296C163.504 136.739 164.051 137.043 164.669 137.143L164.689 137.149ZM143.006 125.874C146.869 135.683 144.003 133.467 147.499 136.928C148.817 138.069 149.862 139.421 150.575 140.908C151.517 143.235 156.057 145.166 160.441 145.12L160.678 145.032C160.187 144.981 159.72 144.821 159.323 144.567C159.025 144.328 160.678 144.27 161.803 144.485C161.958 144.391 162.071 144.252 162.12 144.094C162.169 143.936 162.153 143.768 162.074 143.619C161.627 143.13 158.889 143.898 159.194 141.443C159.465 139.197 155.671 141.513 154.939 139.255C154.363 137.463 152.574 138.365 153.028 135.863C153.097 135.557 153.124 135.245 153.109 134.933C152.861 135.007 152.639 135.137 152.468 135.308C152.297 135.48 152.181 135.688 152.134 135.91C151.829 136.806 151.456 136.131 150.839 135.497C150.223 134.863 149.85 133.583 150.358 133.583C150.866 133.583 151.178 133.147 149.965 132.518C148.752 131.89 148.78 130.459 149.369 130.819C149.959 131.18 150.894 130.168 151.063 131.087C151.185 131.733 151.646 132.192 152.256 132.187C152.181 129.278 149.288 129.475 150.426 127.736C151.849 125.548 145.934 125.589 144.938 123.629C143.942 121.668 146.693 119.83 146.144 116.88C144.927 118.577 143.899 120.369 143.074 122.232C142.574 123.403 142.552 124.686 143.013 125.868L143.006 125.874ZM156.572 141.088C155.894 141.815 156.443 142.653 157.588 142.758C158.516 143.159 158.774 142.251 158.557 141.344C158.34 140.436 157.249 140.384 156.572 141.088ZM150.982 139.453C151.429 140.151 152.195 140.855 152.025 140.128C151.713 139.343 150.528 138.761 150.982 139.476V139.453ZM147.594 129.272C146.618 128.213 146.869 127.561 147.038 127.125C146.022 127.003 145.602 128.783 147.594 129.295V129.272ZM145.344 130.616C145.94 132.181 146.11 132.832 146.361 132.035C146.611 131.238 146.449 130.726 146.747 130.54C147.045 130.354 147.119 130.179 146.869 129.743C146.313 128.795 144.755 129.074 145.344 130.616ZM149.328 134.834C148.712 134.525 147.445 133.798 148.861 132.809C146.632 132.704 146.211 135.008 149.328 134.857V134.834ZM149.538 127.852C150.175 127.177 149.572 126.508 148.99 126.724C148.244 127.02 148.644 128.824 149.538 127.876V127.852Z" fill="#0E1D27"/>
<path d="M90.2917 75.585C91.4417 75.5931 92.5857 75.4418 93.6796 75.1371C98.7615 73.6768 102.644 72.0711 102.712 65.9856C102.712 64.7871 103.599 63.6585 104.514 62.4251C105.951 60.511 107.584 58.3526 106.547 55.2925C105.869 53.4075 103.837 51.4352 101.804 49.527C100.542 48.4127 99.4075 47.197 98.4159 45.8967C96.9049 43.6335 94.3301 42.1151 92.0263 42.1151C91.3424 42.1167 90.6688 42.2583 90.0613 42.5281C88.9763 42.8687 87.8286 43.0382 86.6734 43.0285C85.6438 43.0099 84.6176 42.9224 83.6039 42.7667C82.8265 42.6554 82.0407 42.5932 81.2527 42.5805C80.4763 42.5587 79.7075 42.7176 79.0276 43.0402C78.3478 43.3628 77.7821 43.8371 77.3904 44.4131C75.4419 46.8064 73.8272 49.3878 72.5796 52.1043C72.045 53.3761 72.0236 54.7652 72.5186 56.0488C73.5702 58.501 74.3484 61.0334 74.8427 63.6119C75.1002 65.014 75.1476 65.2642 77.1194 67.2074C78.3814 68.3251 79.3779 69.6431 80.0534 71.0878C81.0494 73.543 85.7383 75.6141 90.2917 75.6141V75.585Z" fill="#EBE7D7"/>
<path d="M72.4441 52.0345C73.6895 49.3116 75.3042 46.7242 77.2549 44.3259C80.4532 40.3581 84.3967 44.163 89.9732 42.4293C92.9885 41.0795 96.7084 43.1041 98.5515 45.8385C100.395 48.5729 105.551 52.0636 106.655 55.2576C108.404 60.3191 102.935 62.972 102.854 65.9914C102.78 72.1467 98.8699 73.7699 93.7338 75.2476C88.5977 76.7253 81.2527 74.3575 79.8975 71.0879C79.222 69.6635 78.2275 68.3668 76.9704 67.2714C73.3182 63.6759 76.1844 65.782 72.3424 56.043C71.8533 54.7346 71.8891 53.3233 72.4441 52.0345ZM76.2047 52.2905C76.2047 52.4833 76.2939 52.6683 76.4528 52.8047C76.6116 52.9411 76.827 53.0177 77.0517 53.0177C77.2763 53.0177 77.4917 52.9411 77.6506 52.8047C77.8094 52.6683 77.8987 52.4833 77.8987 52.2905C77.8987 52.0961 77.8087 51.9096 77.6486 51.7721C77.4885 51.6347 77.2713 51.5574 77.0449 51.5574C76.8185 51.5574 76.6013 51.6347 76.4412 51.7721C76.2811 51.9096 76.1911 52.0961 76.1911 52.2905H76.2047ZM103.539 62.0528C104.094 61.2965 104.711 60.5692 105.321 59.8304C105.985 59.0632 106.313 58.12 106.249 57.1658C106.14 55.2576 104.934 53.5704 103.505 52.2207C102.768 51.5556 101.968 50.9445 101.113 50.3939C100.312 49.8513 99.6072 49.2125 99.019 48.4972C98.4365 47.7592 97.9265 46.9808 97.4944 46.1701C97.0648 45.3162 96.5066 44.5143 95.8344 43.7848C95.6278 43.6083 95.4008 43.4504 95.1568 43.3136C94.9089 43.1797 94.6395 43.0778 94.3572 43.011L93.9371 42.9238C93.7948 42.9238 93.6525 42.9238 93.5102 42.9238H93.0901L92.6768 42.9703C91.5859 43.1099 90.6034 43.3601 89.5735 43.5521C88.5435 43.7441 87.5407 44.0175 86.5176 44.163C85.4951 44.2821 84.4563 44.2466 83.4481 44.0582C82.4164 43.8259 81.3484 43.7356 80.2838 43.7906C79.7519 43.8735 79.2597 44.0878 78.8676 44.4073C78.4881 44.7205 78.1517 45.0699 77.8648 45.4487C78.5017 44.7564 79.2877 44.0408 80.3312 43.9419C81.3713 43.9329 82.4068 44.0624 83.4007 44.3259C84.4453 44.5509 85.5284 44.614 86.5989 44.512C87.6627 44.3899 88.6858 44.1688 89.709 43.9768L91.2471 43.6917C91.75 43.5892 92.2589 43.5096 92.7717 43.4532C93.2414 43.3692 93.7283 43.3898 94.1861 43.513C94.6439 43.6362 95.0573 43.858 95.3872 44.1571C96.0073 44.8538 96.5198 45.6164 96.9117 46.4261C97.3486 47.2645 97.87 48.0685 98.4702 48.8289C99.1011 49.5894 99.8618 50.264 100.727 50.8302C101.557 51.3571 102.336 51.9408 103.057 52.5755C104.521 53.8128 105.461 55.4347 105.727 57.1833C106.018 58.9868 104.23 60.3074 103.254 61.9015C102.124 63.4544 101.511 65.2429 101.479 67.0736C101.638 65.2733 102.348 63.5412 103.539 62.0528ZM80.2567 47.5489C81.3205 46.9672 81.1036 45.7687 80.216 45.6581C79.3284 45.5476 78.5085 48.4682 80.2567 47.5489ZM81.5779 55.147C81.5935 55.5986 81.7979 56.0303 82.1539 56.3629C82.5995 57.0911 83.2949 57.6841 84.146 58.0617C85.2224 58.774 86.459 59.287 87.7779 59.5686C87.1816 59.2544 86.6666 58.8297 86.0297 58.5563C85.1831 58.106 84.4278 57.54 83.7937 56.8807C83.4413 56.5963 83.1919 56.2307 83.0754 55.8277C83.04 55.7913 83.0082 55.7524 82.9805 55.7113C82.7361 55.3598 82.6095 54.9572 82.6147 54.5478C82.7202 54.1828 82.8631 53.8265 83.0415 53.4831C83.1364 53.1166 82.9399 52.7326 83.0415 52.3196C83.0847 52.1136 83.1721 51.9164 83.299 51.7378C83.4243 51.2643 83.6797 50.8234 84.0439 50.4519C84.4082 50.0805 84.8707 49.7893 85.3928 49.6026C85.9983 49.3775 86.6266 49.2003 87.2697 49.0732C87.4035 49.0472 87.5394 49.0297 87.6762 49.0208C87.0288 49.01 86.3824 49.0687 85.7519 49.1954C85.1151 49.2926 84.4941 49.4547 83.9021 49.6783C83.4481 49.911 83.1364 50.26 82.7163 50.5393C82.6553 50.6673 82.5943 50.7953 82.5401 50.9C81.5373 51.3538 80.8529 51.9879 81.1849 52.849C81.6571 53.5426 81.7979 54.3662 81.5779 55.147ZM93.4493 52.6337C93.3643 52.2849 93.1475 51.9699 92.8327 51.7378C92.4122 51.2298 91.8213 50.8442 91.1387 50.6324C90.4085 50.2573 89.597 50.0138 88.7536 49.9168C88.5097 49.9168 88.2793 49.9517 88.076 49.9575L87.5136 49.9982C87.4369 50.1073 87.3382 50.2038 87.2222 50.2833C87.7982 50.4637 88.2861 50.708 88.8959 50.8651C89.8174 51.4469 90.4137 52.1567 91.2471 52.7443C91.3441 52.8817 91.4279 53.0257 91.4978 53.1748C92.4735 53.5937 90.9964 54.1056 91.2403 54.6176C91.1317 54.7168 91.0712 54.8479 91.0712 54.9841C91.0712 55.1203 91.1317 55.2514 91.2403 55.3506C91.2751 55.4006 91.3046 55.4532 91.3284 55.5077C91.159 55.5077 91.5994 56.0604 91.3284 56.1593C91.0303 56.6073 90.1833 57.4741 89.5396 57.3229C88.7739 57.2589 88.3945 57.6952 87.6627 57.9047C87.6071 58.0807 87.5025 58.2424 87.3578 58.3759C88.3741 58.021 89.2821 58.9577 90.2578 58.5446C91.4775 58.2828 92.3651 57.6138 92.8733 57.4741C93.0712 57.3284 93.2548 57.1688 93.4222 56.9971C93.4222 56.7295 93.517 56.3629 93.578 56.1011C94.1946 55.6241 94.5673 55.0481 94.1946 54.4082C93.7125 53.9095 93.4488 53.2818 93.4493 52.6337ZM92.5006 46.653C92.5006 46.5379 92.4609 46.4254 92.3864 46.3298C92.312 46.2341 92.2062 46.1595 92.0824 46.1155C91.9585 46.0715 91.8223 46.0599 91.6909 46.0824C91.5594 46.1048 91.4387 46.1602 91.3439 46.2416C91.2492 46.323 91.1846 46.4266 91.1585 46.5395C91.1323 46.6523 91.1458 46.7693 91.197 46.8756C91.2483 46.9819 91.3352 47.0728 91.4466 47.1367C91.558 47.2007 91.689 47.2348 91.8231 47.2348C92.0028 47.2348 92.1751 47.1735 92.3022 47.0644C92.4292 46.9553 92.5006 46.8073 92.5006 46.653ZM88.347 63.961C87.4594 63.8505 86.6395 66.771 88.3877 65.8518C89.4515 65.27 89.2347 64.0541 88.347 63.9494V63.961ZM102.935 56.456C102.048 56.3455 101.228 59.266 102.976 58.3468C104.02 57.7883 103.803 56.5433 102.935 56.456ZM100.625 52.3254C101.496 52.8524 102.296 53.4613 103.01 54.1405C103.704 54.8251 104.211 55.634 104.494 56.5084C104.666 56.9429 104.725 57.4043 104.668 57.8605C104.61 58.3167 104.438 58.7567 104.162 59.1497C104.506 58.7723 104.746 58.3326 104.863 57.864C104.981 57.3953 104.973 56.9099 104.839 56.4444C104.606 55.5026 104.129 54.6179 103.444 53.8555C102.732 53.1151 101.915 52.4544 101.011 51.889C100.164 51.3073 99.3036 50.7255 98.5515 50.103C97.797 49.4773 97.1796 48.7403 96.7288 47.9271C96.5108 47.5121 96.3208 47.0867 96.1596 46.653C96.0078 46.1856 95.7797 45.739 95.482 45.3265C95.1428 44.8948 94.6747 44.5492 94.1268 44.3259C93.6074 44.113 93.035 44.0131 92.46 44.035C91.3599 44.0969 90.2847 44.344 89.2957 44.7622C90.3196 44.4588 91.3973 44.3111 92.4803 44.3259C92.9965 44.3384 93.5022 44.4539 93.9574 44.6633C94.3946 44.8817 94.7551 45.1972 95.0009 45.5767C95.2531 45.9652 95.4467 46.3796 95.5769 46.8101C95.7405 47.2693 95.9351 47.72 96.1596 48.1598C96.6245 49.043 97.2771 49.8441 98.0839 50.5218C98.8873 51.16 99.7286 51.762 100.605 52.3254H100.625ZM97.7248 54.1638C97.7248 54.2789 97.7646 54.3914 97.839 54.487C97.9135 54.5827 98.0193 54.6573 98.1431 54.7013C98.2669 54.7453 98.4032 54.7569 98.5346 54.7344C98.666 54.712 98.7868 54.6566 98.8815 54.5752C98.9763 54.4938 99.0408 54.3902 99.067 54.2773C99.0931 54.1645 99.0797 54.0475 99.0284 53.9412C98.9771 53.8349 98.8903 53.744 98.7789 53.6801C98.6674 53.6161 98.5364 53.582 98.4024 53.582C98.3117 53.5797 98.2214 53.593 98.1369 53.6212C98.0523 53.6494 97.9752 53.6919 97.9101 53.7461C97.845 53.8004 97.7933 53.8653 97.758 53.9371C97.7226 54.0088 97.7045 54.0859 97.7045 54.1638H97.7248ZM98.1924 71.4718C98.371 71.451 98.5349 71.3753 98.6535 71.2587C98.7721 71.1421 98.8374 70.9925 98.8374 70.8377C98.8374 70.6829 98.7721 70.5333 98.6535 70.4167C98.5349 70.3001 98.371 70.2244 98.1924 70.2035C98.0137 70.2244 97.8499 70.3001 97.7313 70.4167C97.6127 70.5333 97.5473 70.6829 97.5473 70.8377C97.5473 70.9925 97.6127 71.1421 97.7313 71.2587C97.8499 71.3753 98.0137 71.451 98.1924 71.4718ZM98.9377 60.3831C99.7305 60.3831 99.866 59.9118 99.866 59.33C99.866 58.7483 99.7305 58.2886 98.9377 58.2886C98.5901 58.2721 98.2485 58.371 97.9836 58.5649C97.7187 58.7588 97.5508 59.0328 97.5148 59.33C97.5475 59.6294 97.714 59.9063 97.9793 60.1026C98.2445 60.2989 98.588 60.3994 98.9377 60.3831ZM96.1596 72.3852C96.1417 72.2223 96.0536 72.071 95.9127 71.9608C95.7717 71.8506 95.5879 71.7896 95.3973 71.7896C95.2067 71.7896 95.0229 71.8506 94.882 71.9608C94.741 72.071 94.6529 72.2223 94.635 72.3852C94.6529 72.5482 94.741 72.6995 94.882 72.8097C95.0229 72.9198 95.2067 72.9809 95.3973 72.9809C95.5879 72.9809 95.7717 72.9198 95.9127 72.8097C96.0536 72.6995 96.1417 72.5482 96.1596 72.3852ZM94.6892 67.1492C95.3208 67.1555 95.9298 66.9476 96.3839 66.5707C96.8381 66.1938 97.1008 65.6784 97.115 65.1362C97.2505 63.9203 96.2951 63.6294 95.0822 63.5305C93.8694 63.4316 92.8801 63.5305 92.7446 64.7755C92.6415 65.3078 92.7851 65.8536 93.1448 66.2961C93.5044 66.7387 94.0515 67.0428 94.6689 67.1434L94.6892 67.1492ZM73.0065 55.8742C76.8687 65.6831 74.0025 63.4665 77.4989 66.9281C78.817 68.0694 79.8621 69.4213 80.5751 70.9075C81.517 73.2346 86.0568 75.1662 90.4408 75.1196L90.6779 75.0323C90.1867 74.9813 89.7195 74.8208 89.3228 74.5669C89.0246 74.3284 90.6779 74.2702 91.8027 74.4855C91.9583 74.3906 92.0705 74.2522 92.12 74.0939C92.1695 73.9357 92.1531 73.7676 92.0738 73.6186C91.6266 73.1299 88.8891 73.8979 89.194 71.4427C89.4651 69.1971 85.6706 71.5126 84.9388 69.2552C84.3628 67.4634 82.574 68.3651 83.028 65.8635C83.0972 65.5569 83.1244 65.2445 83.1093 64.9326C82.8606 65.007 82.6393 65.1366 82.4679 65.3083C82.2965 65.48 82.1812 65.6876 82.1336 65.91C81.8287 66.8059 81.456 66.1311 80.8394 65.4969C80.2228 64.8628 79.8501 63.5829 80.3583 63.5829C80.8665 63.5829 81.1782 63.1465 79.9653 62.5182C78.7524 61.8899 78.7795 60.4587 79.369 60.8194C79.9585 61.1801 80.8936 60.1678 81.063 61.087C81.1849 61.7328 81.6457 62.1924 82.2555 62.1866C82.181 59.2777 79.2877 59.4755 80.426 57.7359C81.849 55.5484 75.9337 55.5892 74.9376 53.6286C73.9415 51.668 76.6925 49.8295 76.1437 46.8799C74.927 48.5773 73.8993 50.3693 73.0742 52.2323C72.5736 53.4032 72.5521 54.6856 73.0133 55.8684L73.0065 55.8742ZM86.5718 71.0879C85.8942 71.8151 86.443 72.6529 87.5881 72.7576C88.5164 73.159 88.7739 72.2514 88.5571 71.3438C88.3403 70.4363 87.2493 70.3839 86.5718 71.0879ZM80.9817 69.453C81.4289 70.1512 82.1945 70.8551 82.0252 70.1279C81.7135 69.3425 80.5277 68.7607 80.9817 69.4763V69.453ZM77.5937 59.2719C76.618 58.213 76.8687 57.5614 77.0381 57.1251C76.0217 57.0029 75.6016 58.7832 77.5937 59.2951V59.2719ZM75.3442 60.6158C75.9404 62.1808 76.1098 62.8324 76.3605 62.0353C76.6112 61.2383 76.4486 60.7263 76.7468 60.5401C77.0449 60.354 77.1194 60.1794 76.8687 59.7431C76.3131 58.7948 74.7547 59.074 75.3442 60.6158ZM79.3284 64.8337C78.7118 64.5254 77.4447 63.7981 78.8608 62.8091C76.6316 62.7044 76.2115 65.0082 79.3284 64.857V64.8337ZM79.5384 57.8523C80.1753 57.1774 79.5723 56.5084 78.9896 56.7236C78.2442 57.0204 78.644 58.8239 79.5384 57.8756V57.8523Z" fill="#0E1D27"/>
</g>
</svg>
