<svg width="806" height="337" viewBox="0 0 806 337" fill="none" xmlns="http://www.w3.org/2000/svg">
<rect x="0.97054" y="1.07052" width="191.13" height="80.0589" stroke="black" stroke-width="0.941081"/>
<rect x="0.97054" y="82.0705" width="191.13" height="84.1303" fill="#F4BB43"/>
<path d="M24.6223 110.935H34.2673V114.249H28.2682V120.712H32.9747V124.027H28.2682V134.136H24.6223V110.935ZM41.9486 134.467C40.1588 134.467 38.7888 133.959 37.8387 132.942C36.8885 131.926 36.4134 130.49 36.4134 128.634V116.437C36.4134 114.58 36.8885 113.144 37.8387 112.128C38.7888 111.111 40.1588 110.603 41.9486 110.603C43.7384 110.603 45.1083 111.111 46.0585 112.128C47.0086 113.144 47.4837 114.58 47.4837 116.437V128.634C47.4837 130.49 47.0086 131.926 46.0585 132.942C45.1083 133.959 43.7384 134.467 41.9486 134.467ZM41.9486 131.153C43.2081 131.153 43.8378 130.39 43.8378 128.866V116.205C43.8378 114.68 43.2081 113.918 41.9486 113.918C40.6891 113.918 40.0593 114.68 40.0593 116.205V128.866C40.0593 130.39 40.6891 131.153 41.9486 131.153ZM50.6122 110.935H56.0147C57.8929 110.935 59.2629 111.377 60.1246 112.26C60.9864 113.122 61.4173 114.459 61.4173 116.271V117.696C61.4173 120.105 60.6218 121.629 59.0309 122.27V122.336C59.9147 122.601 60.5334 123.143 60.887 123.96C61.2626 124.778 61.4504 125.872 61.4504 127.242V131.318C61.4504 131.981 61.4725 132.523 61.5167 132.942C61.5609 133.34 61.6714 133.738 61.8482 134.136H58.136C58.0034 133.76 57.915 133.407 57.8708 133.075C57.8266 132.744 57.8045 132.147 57.8045 131.285V127.043C57.8045 125.982 57.6278 125.242 57.2742 124.822C56.9428 124.402 56.3572 124.192 55.5176 124.192H54.2581V134.136H50.6122V110.935ZM55.5839 120.878C56.313 120.878 56.8544 120.69 57.2079 120.314C57.5836 119.939 57.7714 119.309 57.7714 118.425V116.635C57.7714 115.796 57.6167 115.188 57.3074 114.812C57.0201 114.437 56.5561 114.249 55.9153 114.249H54.2581V120.878H55.5839ZM64.6429 110.935H74.5862V114.249H68.2888V120.381H73.2936V123.695H68.2888V130.821H74.5862V134.136H64.6429V110.935ZM77.3465 110.935H86.9916V114.249H80.9924V120.712H85.6989V124.027H80.9924V134.136H77.3465V110.935ZM91.152 110.935H96.0905L99.869 134.136H96.2231L95.5602 129.529V129.595H91.4171L90.7542 134.136H87.3735L91.152 110.935ZM95.1293 126.446L93.5052 114.978H93.4389L91.848 126.446H95.1293ZM103.63 114.249H99.8182V110.935H111.087V114.249H107.276V134.136H103.63V114.249ZM113.515 110.935H117.161V120.381H121.072V110.935H124.718V134.136H121.072V123.695H117.161V134.136H113.515V110.935ZM128.096 110.935H138.04V114.249H131.742V120.381H136.747V123.695H131.742V130.821H138.04V134.136H128.096V110.935ZM140.8 110.935H146.203C148.081 110.935 149.451 111.377 150.312 112.26C151.174 113.122 151.605 114.459 151.605 116.271V117.696C151.605 120.105 150.81 121.629 149.219 122.27V122.336C150.103 122.601 150.721 123.143 151.075 123.96C151.45 124.778 151.638 125.872 151.638 127.242V131.318C151.638 131.981 151.66 132.523 151.704 132.942C151.749 133.34 151.859 133.738 152.036 134.136H148.324C148.191 133.76 148.103 133.407 148.059 133.075C148.014 132.744 147.992 132.147 147.992 131.285V127.043C147.992 125.982 147.816 125.242 147.462 124.822C147.131 124.402 146.545 124.192 145.705 124.192H144.446V134.136H140.8V110.935ZM145.772 120.878C146.501 120.878 147.042 120.69 147.396 120.314C147.771 119.939 147.959 119.309 147.959 118.425V116.635C147.959 115.796 147.804 115.188 147.495 114.812C147.208 114.437 146.744 114.249 146.103 114.249H144.446V120.878H145.772Z" fill="#430D0B"/>
<rect x="0.97054" y="82.0705" width="191.13" height="84.1303" stroke="black" stroke-width="0.941081"/>
<rect x="0.97054" y="167.142" width="191.13" height="84.1303" fill="#F4BB43"/>
<path d="M29.5519 219.539C27.7842 219.539 26.4474 219.041 25.5414 218.047C24.6355 217.031 24.1825 215.583 24.1825 213.705V212.379H27.6295V213.97C27.6295 215.473 28.2593 216.224 29.5188 216.224C30.1375 216.224 30.6015 216.047 30.9108 215.694C31.2423 215.318 31.408 214.722 31.408 213.904C31.408 212.932 31.187 212.081 30.7451 211.352C30.3032 210.601 29.4856 209.706 28.2924 208.667C26.7899 207.341 25.7403 206.148 25.1437 205.088C24.5471 204.005 24.2488 202.79 24.2488 201.442C24.2488 199.608 24.7128 198.194 25.6409 197.199C26.5689 196.183 27.9168 195.675 29.6845 195.675C31.4301 195.675 32.7448 196.183 33.6287 197.199C34.5346 198.194 34.9876 199.63 34.9876 201.508V202.469H31.5406V201.276C31.5406 200.481 31.3859 199.906 31.0766 199.553C30.7672 199.177 30.3142 198.989 29.7176 198.989C28.5023 198.989 27.8947 199.729 27.8947 201.21C27.8947 202.049 28.1157 202.834 28.5576 203.563C29.0216 204.292 29.8502 205.176 31.0434 206.215C32.5681 207.54 33.6176 208.745 34.1921 209.827C34.7666 210.91 35.0539 212.181 35.0539 213.639C35.0539 215.539 34.5788 216.998 33.6287 218.014C32.7006 219.03 31.3417 219.539 29.5519 219.539ZM43.0772 219.539C41.2874 219.539 39.9174 219.03 38.9673 218.014C38.0171 216.998 37.542 215.561 37.542 213.705V201.508C37.542 199.652 38.0171 198.216 38.9673 197.199C39.9174 196.183 41.2874 195.675 43.0772 195.675C44.867 195.675 46.2369 196.183 47.1871 197.199C48.1372 198.216 48.6123 199.652 48.6123 201.508V213.705C48.6123 215.561 48.1372 216.998 47.1871 218.014C46.2369 219.03 44.867 219.539 43.0772 219.539ZM43.0772 216.224C44.3367 216.224 44.9664 215.462 44.9664 213.937V201.276C44.9664 199.751 44.3367 198.989 43.0772 198.989C41.8177 198.989 41.1879 199.751 41.1879 201.276V213.937C41.1879 215.462 41.8177 216.224 43.0772 216.224ZM57.0108 219.539C55.221 219.539 53.851 219.03 52.9009 218.014C51.9507 216.998 51.4756 215.561 51.4756 213.705V201.508C51.4756 199.652 51.9507 198.216 52.9009 197.199C53.851 196.183 55.221 195.675 57.0108 195.675C58.8006 195.675 60.1705 196.183 61.1207 197.199C62.0708 198.216 62.5459 199.652 62.5459 201.508V213.705C62.5459 215.561 62.0708 216.998 61.1207 218.014C60.1705 219.03 58.8006 219.539 57.0108 219.539ZM57.0108 216.224C58.2703 216.224 58.9 215.462 58.9 213.937V201.276C58.9 199.751 58.2703 198.989 57.0108 198.989C55.7513 198.989 55.1215 199.751 55.1215 201.276V213.937C55.1215 215.462 55.7513 216.224 57.0108 216.224ZM68.3954 199.321H64.5837V196.006H75.8528V199.321H72.0412V219.207H68.3954V199.321ZM78.2809 196.006H81.9268V205.452H85.8379V196.006H89.4838V219.207H85.8379V208.767H81.9268V219.207H78.2809V196.006ZM97.6015 219.539C95.8338 219.539 94.497 219.041 93.5911 218.047C92.6851 217.031 92.2321 215.583 92.2321 213.705V212.379H95.6792V213.97C95.6792 215.473 96.3089 216.224 97.5684 216.224C98.1871 216.224 98.6511 216.047 98.9605 215.694C99.2919 215.318 99.4576 214.722 99.4576 213.904C99.4576 212.932 99.2367 212.081 98.7947 211.352C98.3528 210.601 97.5353 209.706 96.3421 208.667C94.8395 207.341 93.7899 206.148 93.1933 205.088C92.5967 204.005 92.2984 202.79 92.2984 201.442C92.2984 199.608 92.7625 198.194 93.6905 197.199C94.6185 196.183 95.9664 195.675 97.7341 195.675C99.4797 195.675 100.794 196.183 101.678 197.199C102.584 198.194 103.037 199.63 103.037 201.508V202.469H99.5902V201.276C99.5902 200.481 99.4355 199.906 99.1262 199.553C98.8168 199.177 98.3639 198.989 97.7673 198.989C96.552 198.989 95.9443 199.729 95.9443 201.21C95.9443 202.049 96.1653 202.834 96.6072 203.563C97.0712 204.292 97.8998 205.176 99.093 206.215C100.618 207.54 101.667 208.745 102.242 209.827C102.816 210.91 103.104 212.181 103.104 213.639C103.104 215.539 102.628 216.998 101.678 218.014C100.75 219.03 99.3913 219.539 97.6015 219.539ZM108.577 196.006H113.516L117.294 219.207H113.648L112.985 214.6V214.666H108.842L108.179 219.207H104.799L108.577 196.006ZM112.554 211.518L110.93 200.05H110.864L109.273 211.518H112.554ZM121.552 209.33L117.144 196.006H121.022L123.508 204.524H123.574L126.06 196.006H129.606L125.198 209.33V219.207H121.552V209.33ZM131.911 196.006H141.855V199.321H135.557V205.452H140.562V208.767H135.557V215.893H141.855V219.207H131.911V196.006ZM144.615 196.006H150.018C151.896 196.006 153.266 196.448 154.128 197.332C154.989 198.194 155.42 199.53 155.42 201.342V202.768C155.42 205.176 154.625 206.701 153.034 207.341V207.408C153.918 207.673 154.536 208.214 154.89 209.032C155.265 209.849 155.453 210.943 155.453 212.313V216.39C155.453 217.053 155.475 217.594 155.52 218.014C155.564 218.412 155.674 218.809 155.851 219.207H152.139C152.006 218.832 151.918 218.478 151.874 218.147C151.83 217.815 151.807 217.218 151.807 216.357V212.114C151.807 211.054 151.631 210.313 151.277 209.894C150.946 209.474 150.36 209.264 149.52 209.264H148.261V219.207H144.615V196.006ZM149.587 205.949C150.316 205.949 150.857 205.762 151.211 205.386C151.586 205.01 151.774 204.381 151.774 203.497V201.707C151.774 200.867 151.62 200.26 151.31 199.884C151.023 199.508 150.559 199.321 149.918 199.321H148.261V205.949H149.587ZM163.385 219.539C161.618 219.539 160.281 219.041 159.375 218.047C158.469 217.031 158.016 215.583 158.016 213.705V212.379H161.463V213.97C161.463 215.473 162.093 216.224 163.352 216.224C163.971 216.224 164.435 216.047 164.744 215.694C165.076 215.318 165.242 214.722 165.242 213.904C165.242 212.932 165.021 212.081 164.579 211.352C164.137 210.601 163.319 209.706 162.126 208.667C160.623 207.341 159.574 206.148 158.977 205.088C158.381 204.005 158.082 202.79 158.082 201.442C158.082 199.608 158.546 198.194 159.474 197.199C160.402 196.183 161.75 195.675 163.518 195.675C165.264 195.675 166.578 196.183 167.462 197.199C168.368 198.194 168.821 199.63 168.821 201.508V202.469H165.374V201.276C165.374 200.481 165.219 199.906 164.91 199.553C164.601 199.177 164.148 198.989 163.551 198.989C162.336 198.989 161.728 199.729 161.728 201.21C161.728 202.049 161.949 202.834 162.391 203.563C162.855 204.292 163.684 205.176 164.877 206.215C166.402 207.54 167.451 208.745 168.026 209.827C168.6 210.91 168.887 212.181 168.887 213.639C168.887 215.539 168.412 216.998 167.462 218.014C166.534 219.03 165.175 219.539 163.385 219.539Z" fill="#430D0B"/>
<rect x="0.97054" y="167.142" width="191.13" height="84.1303" stroke="black" stroke-width="0.941081"/>
<rect x="0.97054" y="252.213" width="191.13" height="84.0589" fill="#F4BB43"/>
<path d="M29.2537 304.61C27.486 304.61 26.1492 304.113 25.2432 303.119C24.3373 302.102 23.8843 300.655 23.8843 298.777V297.451H27.3313V299.042C27.3313 300.544 27.9611 301.296 29.2206 301.296C29.8393 301.296 30.3033 301.119 30.6126 300.765C30.9441 300.39 31.1098 299.793 31.1098 298.975C31.1098 298.003 30.8888 297.153 30.4469 296.423C30.005 295.672 29.1874 294.777 27.9942 293.739C26.4917 292.413 25.4421 291.22 24.8455 290.159C24.2489 289.076 23.9506 287.861 23.9506 286.513C23.9506 284.679 24.4146 283.265 25.3427 282.271C26.2707 281.254 27.6186 280.746 29.3863 280.746C31.1319 280.746 32.4466 281.254 33.3305 282.271C34.2364 283.265 34.6894 284.701 34.6894 286.579V287.541H31.2424V286.347C31.2424 285.552 31.0877 284.977 30.7783 284.624C30.469 284.248 30.016 284.06 29.4194 284.06C28.2041 284.06 27.5965 284.801 27.5965 286.281C27.5965 287.121 27.8174 287.905 28.2594 288.634C28.7234 289.364 29.552 290.247 30.7452 291.286C32.2698 292.612 33.3194 293.816 33.8939 294.899C34.4684 295.981 34.7557 297.252 34.7557 298.71C34.7557 300.611 34.2806 302.069 33.3305 303.085C32.4024 304.102 31.0435 304.61 29.2537 304.61ZM42.8121 304.61C41.0444 304.61 39.6965 304.113 38.7685 303.119C37.8404 302.102 37.3764 300.655 37.3764 298.777V281.077H41.0223V299.042C41.0223 299.837 41.177 300.412 41.4863 300.765C41.8178 301.119 42.2818 301.296 42.8784 301.296C43.475 301.296 43.928 301.119 44.2373 300.765C44.5688 300.412 44.7345 299.837 44.7345 299.042V281.077H48.2478V298.777C48.2478 300.655 47.7838 302.102 46.8557 303.119C45.9277 304.113 44.5798 304.61 42.8121 304.61ZM51.5073 281.077H56.9099C58.7881 281.077 60.158 281.519 61.0198 282.403C61.8815 283.265 62.3124 284.602 62.3124 286.414V287.839C62.3124 290.247 61.5169 291.772 59.926 292.413V292.479C60.8099 292.744 61.4286 293.286 61.7821 294.103C62.1577 294.921 62.3456 296.015 62.3456 297.385V301.461C62.3456 302.124 62.3676 302.666 62.4118 303.085C62.456 303.483 62.5665 303.881 62.7433 304.279H59.0311C58.8985 303.903 58.8101 303.549 58.766 303.218C58.7218 302.886 58.6997 302.29 58.6997 301.428V297.186C58.6997 296.125 58.5229 295.385 58.1694 294.965C57.8379 294.545 57.2524 294.335 56.4127 294.335H55.1532V304.279H51.5073V281.077ZM56.479 291.021C57.2082 291.021 57.7495 290.833 58.1031 290.457C58.4787 290.082 58.6665 289.452 58.6665 288.568V286.778C58.6665 285.939 58.5118 285.331 58.2025 284.955C57.9152 284.58 57.4512 284.392 56.8104 284.392H55.1532V291.021H56.479ZM64.4474 281.077H68.1264L70.5128 299.075H70.5791L72.9655 281.077H76.3131L72.7998 304.279H67.9607L64.4474 281.077ZM78.7272 281.077H82.3731V304.279H78.7272V281.077ZM84.8053 281.077H88.4843L90.8707 299.075H90.937L93.3234 281.077H96.671L93.1577 304.279H88.3186L84.8053 281.077ZM100.964 281.077H105.902L109.681 304.279H106.035L105.372 299.671V299.738H101.229L100.566 304.279H97.1853L100.964 281.077ZM104.941 296.589L103.317 285.121H103.251L101.66 296.589H104.941ZM112.112 281.077H115.758V300.964H121.757V304.279H112.112V281.077ZM124.169 281.077H127.815V304.279H124.169V281.077ZM135.948 304.61C134.18 304.61 132.843 304.113 131.937 303.119C131.031 302.102 130.578 300.655 130.578 298.777V297.451H134.025V299.042C134.025 300.544 134.655 301.296 135.915 301.296C136.533 301.296 136.997 301.119 137.307 300.765C137.638 300.39 137.804 299.793 137.804 298.975C137.804 298.003 137.583 297.153 137.141 296.423C136.699 295.672 135.881 294.777 134.688 293.739C133.186 292.413 132.136 291.22 131.539 290.159C130.943 289.076 130.645 287.861 130.645 286.513C130.645 284.679 131.109 283.265 132.037 282.271C132.965 281.254 134.313 280.746 136.08 280.746C137.826 280.746 139.141 281.254 140.024 282.271C140.93 283.265 141.383 284.701 141.383 286.579V287.541H137.936V286.347C137.936 285.552 137.782 284.977 137.472 284.624C137.163 284.248 136.71 284.06 136.113 284.06C134.898 284.06 134.29 284.801 134.29 286.281C134.29 287.121 134.511 287.905 134.953 288.634C135.417 289.364 136.246 290.247 137.439 291.286C138.964 292.612 140.013 293.816 140.588 294.899C141.162 295.981 141.45 297.252 141.45 298.71C141.45 300.611 140.975 302.069 140.024 303.085C139.096 304.102 137.737 304.61 135.948 304.61ZM147.053 284.392H143.242V281.077H154.511V284.392H150.699V304.279H147.053V284.392Z" fill="#430D0B"/>
<rect x="0.97054" y="252.213" width="191.13" height="84.0589" stroke="black" stroke-width="0.941081"/>
<rect x="193.042" y="1.07052" width="203.383" height="80.0589" fill="#F4BB43"/>
<path d="M242.97 33.3329H238.928V30.5916C240.029 30.5916 240.908 30.4979 241.564 30.3104C242.243 30.123 242.782 29.8184 243.18 29.3967C243.579 28.9515 243.93 28.3189 244.235 27.4989H246.835V52.1H242.97V33.3329ZM257.357 52.4514C255.483 52.4514 254.065 51.9243 253.105 50.8699C252.144 49.7922 251.664 48.2575 251.664 46.266V44.8602H255.319V46.5472C255.319 48.1404 255.987 48.937 257.322 48.937C257.978 48.937 258.47 48.7495 258.798 48.3747C259.15 47.9764 259.325 47.3438 259.325 46.4769C259.325 45.446 259.091 44.5439 258.623 43.7707C258.154 42.9741 257.287 42.0252 256.022 40.9241C254.429 39.5183 253.316 38.2531 252.683 37.1285C252.051 35.9804 251.734 34.6918 251.734 33.2626C251.734 31.3179 252.226 29.8184 253.21 28.7641C254.194 27.6863 255.624 27.1474 257.498 27.1474C259.349 27.1474 260.743 27.6863 261.68 28.7641C262.641 29.8184 263.121 31.3413 263.121 33.3329V34.352H259.466V33.0868C259.466 32.2434 259.302 31.6342 258.974 31.2593C258.646 30.861 258.166 30.6619 257.533 30.6619C256.244 30.6619 255.6 31.4468 255.6 33.0166C255.6 33.9069 255.834 34.7386 256.303 35.5118C256.795 36.285 257.674 37.2222 258.939 38.3234C260.555 39.7291 261.668 41.0061 262.278 42.1541C262.887 43.3022 263.191 44.6494 263.191 46.1957C263.191 48.2107 262.688 49.757 261.68 50.8348C260.696 51.9125 259.255 52.4514 257.357 52.4514ZM269.133 31.0133H265.092V27.4989H277.041V31.0133H272.999V52.1H269.133V31.0133ZM285.947 27.4989H291.64C293.561 27.4989 295.002 28.0143 295.963 29.0452C296.924 30.0761 297.404 31.5873 297.404 33.5789V36.0038C297.404 37.9953 296.924 39.5066 295.963 40.5375C295.002 41.5684 293.561 42.0838 291.64 42.0838H289.813V52.1H285.947V27.4989ZM291.64 38.5694C292.273 38.5694 292.741 38.3937 293.046 38.0422C293.374 37.6908 293.538 37.0933 293.538 36.2498V33.3329C293.538 32.4894 293.374 31.8919 293.046 31.5405C292.741 31.189 292.273 31.0133 291.64 31.0133H289.813V38.5694H291.64ZM300.206 27.4989H304.072V48.5855H310.433V52.1H300.206V27.4989ZM316.115 27.4989H321.351L325.358 52.1H321.492L320.789 47.2149V47.2852H316.396L315.693 52.1H312.108L316.115 27.4989ZM320.332 43.9465L318.61 31.7865H318.54L316.853 43.9465H320.332ZM333.315 52.4514C331.464 52.4514 330.046 51.9243 329.062 50.8699C328.102 49.8156 327.621 48.3278 327.621 46.4066V33.1923C327.621 31.2711 328.102 29.7833 329.062 28.7289C330.046 27.6746 331.464 27.1474 333.315 27.1474C335.166 27.1474 336.572 27.6746 337.532 28.7289C338.516 29.7833 339.008 31.2711 339.008 33.1923V35.793H335.353V32.9463C335.353 31.4233 334.709 30.6619 333.42 30.6619C332.132 30.6619 331.487 31.4233 331.487 32.9463V46.6877C331.487 48.1872 332.132 48.937 333.42 48.937C334.709 48.937 335.353 48.1872 335.353 46.6877V42.9273H339.008V46.4066C339.008 48.3278 338.516 49.8156 337.532 50.8699C336.572 51.9243 335.166 52.4514 333.315 52.4514ZM342.024 27.4989H352.567V31.0133H345.89V37.515H351.197V41.0295H345.89V48.5855H352.567V52.1H342.024V27.4989Z" fill="#AD3600"/>
<rect x="193.042" y="1.07052" width="203.383" height="80.0589" stroke="black" stroke-width="0.941081"/>
<rect x="397.366" y="1.07052" width="203.383" height="80.0589" fill="#F4BB43"/>
<path d="M440.112 49.429C440.112 47.6718 440.393 46.1723 440.956 44.9305C441.518 43.6653 442.526 42.2713 443.978 40.7483C445.407 39.2254 446.391 37.9251 446.93 36.8473C447.493 35.7695 447.774 34.6449 447.774 33.4734C447.774 32.4191 447.598 31.6928 447.247 31.2945C446.919 30.8727 446.427 30.6619 445.771 30.6619C444.435 30.6619 443.767 31.4702 443.767 33.0868V35.7227H440.112V33.3329C440.112 31.3413 440.604 29.8184 441.588 28.7641C442.572 27.6863 444.002 27.1474 445.876 27.1474C447.75 27.1474 449.18 27.6863 450.164 28.7641C451.148 29.8184 451.64 31.3413 451.64 33.3329C451.64 34.8324 451.277 36.2967 450.55 37.7259C449.847 39.1551 448.617 40.7952 446.86 42.6461C445.712 43.8645 444.939 44.8602 444.541 45.6334C444.142 46.3832 443.943 47.1915 443.943 48.0584V48.5855H451.288V52.1H440.112V49.429ZM454.957 27.4989H459.807L463.567 42.2244H463.638V27.4989H467.082V52.1H463.111L458.471 34.1412H458.401V52.1H454.957V27.4989ZM470.658 27.4989H476.562C478.484 27.4989 479.924 28.0143 480.885 29.0452C481.846 30.0761 482.326 31.5873 482.326 33.5789V46.02C482.326 48.0115 481.846 49.5227 480.885 50.5536C479.924 51.5845 478.484 52.1 476.562 52.1H470.658V27.4989ZM476.492 48.5855C477.125 48.5855 477.605 48.3981 477.933 48.0232C478.284 47.6483 478.46 47.0392 478.46 46.1957V33.4031C478.46 32.5597 478.284 31.9505 477.933 31.5756C477.605 31.2008 477.125 31.0133 476.492 31.0133H474.524V48.5855H476.492ZM491.97 27.4989H497.663C499.584 27.4989 501.025 28.0143 501.986 29.0452C502.947 30.0761 503.427 31.5873 503.427 33.5789V36.0038C503.427 37.9953 502.947 39.5066 501.986 40.5375C501.025 41.5684 499.584 42.0838 497.663 42.0838H495.836V52.1H491.97V27.4989ZM497.663 38.5694C498.296 38.5694 498.764 38.3937 499.069 38.0422C499.397 37.6908 499.561 37.0933 499.561 36.2498V33.3329C499.561 32.4894 499.397 31.8919 499.069 31.5405C498.764 31.189 498.296 31.0133 497.663 31.0133H495.836V38.5694H497.663ZM506.229 27.4989H510.095V48.5855H516.456V52.1H506.229V27.4989ZM522.138 27.4989H527.374L531.381 52.1H527.515L526.812 47.2149V47.2852H522.419L521.716 52.1H518.131L522.138 27.4989ZM526.355 43.9465L524.633 31.7865H524.563L522.876 43.9465H526.355ZM539.338 52.4514C537.487 52.4514 536.069 51.9243 535.085 50.8699C534.125 49.8156 533.645 48.3278 533.645 46.4066V33.1923C533.645 31.2711 534.125 29.7833 535.085 28.7289C536.069 27.6746 537.487 27.1474 539.338 27.1474C541.189 27.1474 542.595 27.6746 543.555 28.7289C544.539 29.7833 545.031 31.2711 545.031 33.1923V35.793H541.376V32.9463C541.376 31.4233 540.732 30.6619 539.443 30.6619C538.155 30.6619 537.51 31.4233 537.51 32.9463V46.6877C537.51 48.1872 538.155 48.937 539.443 48.937C540.732 48.937 541.376 48.1872 541.376 46.6877V42.9273H545.031V46.4066C545.031 48.3278 544.539 49.8156 543.555 50.8699C542.595 51.9243 541.189 52.4514 539.338 52.4514ZM548.047 27.4989H558.59V31.0133H551.913V37.515H557.22V41.0295H551.913V48.5855H558.59V52.1H548.047V27.4989Z" fill="#AD3600"/>
<rect x="397.366" y="1.07052" width="203.383" height="80.0589" stroke="black" stroke-width="0.941081"/>
<rect x="601.689" y="1.07052" width="203.383" height="80.0589" fill="#F4BB43"/>
<path d="M650.4 52.4514C648.502 52.4514 647.062 51.9243 646.077 50.8699C645.117 49.8156 644.637 48.3044 644.637 46.3363V44.3331H648.292V46.512C648.292 48.1287 648.959 48.937 650.295 48.937C650.951 48.937 651.443 48.7378 651.771 48.3395C652.122 47.9178 652.298 47.1915 652.298 46.1606V44.1573C652.298 43.0327 652.099 42.2361 651.701 41.7675C651.302 41.2755 650.658 41.0295 649.768 41.0295H648.467V37.515H649.873C650.646 37.515 651.22 37.3159 651.595 36.9176C651.993 36.5193 652.193 35.8515 652.193 34.9144V33.122C652.193 32.2785 652.017 31.6576 651.665 31.2593C651.314 30.861 650.845 30.6619 650.26 30.6619C649.018 30.6619 648.397 31.4233 648.397 32.9463V34.5629H644.742V33.2626C644.742 31.2945 645.222 29.7833 646.183 28.7289C647.167 27.6746 648.573 27.1474 650.4 27.1474C652.251 27.1474 653.657 27.6746 654.618 28.7289C655.578 29.7598 656.058 31.2593 656.058 33.2274V34.106C656.058 35.4415 655.836 36.5193 655.391 37.3393C654.946 38.1359 654.254 38.71 653.317 39.0614V39.1317C654.325 39.5066 655.051 40.1157 655.496 40.9592C655.941 41.8027 656.164 42.8804 656.164 44.1925V46.3714C656.164 48.3395 655.672 49.8507 654.688 50.9051C653.727 51.936 652.298 52.4514 650.4 52.4514ZM659.692 27.4989H665.421C667.412 27.4989 668.865 27.9675 669.779 28.9047C670.692 29.8184 671.149 31.2359 671.149 33.1571V34.6683C671.149 37.2222 670.306 38.8388 668.619 39.5183V39.5886C669.556 39.8697 670.212 40.4437 670.587 41.3106C670.985 42.1775 671.184 43.3373 671.184 44.7899V49.1127C671.184 49.8156 671.208 50.3896 671.255 50.8348C671.301 51.2565 671.419 51.6782 671.606 52.1H667.67C667.529 51.7017 667.436 51.3268 667.389 50.9754C667.342 50.6239 667.318 49.9913 667.318 49.0776V44.5791C667.318 43.4544 667.131 42.6696 666.756 42.2244C666.405 41.7792 665.784 41.5567 664.893 41.5567H663.558V52.1H659.692V27.4989ZM664.964 38.0422C665.737 38.0422 666.311 37.8431 666.686 37.4448C667.084 37.0464 667.283 36.3787 667.283 35.4415V33.5437C667.283 32.6534 667.119 32.0091 666.791 31.6108C666.487 31.2125 665.995 31.0133 665.315 31.0133H663.558V38.0422H664.964ZM674.569 27.4989H680.474C682.395 27.4989 683.836 28.0143 684.796 29.0452C685.757 30.0761 686.237 31.5873 686.237 33.5789V46.02C686.237 48.0115 685.757 49.5227 684.796 50.5536C683.836 51.5845 682.395 52.1 680.474 52.1H674.569V27.4989ZM680.403 48.5855C681.036 48.5855 681.516 48.3981 681.844 48.0232C682.196 47.6483 682.371 47.0392 682.371 46.1957V33.4031C682.371 32.5597 682.196 31.9505 681.844 31.5756C681.516 31.2008 681.036 31.0133 680.403 31.0133H678.435V48.5855H680.403ZM695.881 27.4989H701.575C703.496 27.4989 704.937 28.0143 705.897 29.0452C706.858 30.0761 707.338 31.5873 707.338 33.5789V36.0038C707.338 37.9953 706.858 39.5066 705.897 40.5375C704.937 41.5684 703.496 42.0838 701.575 42.0838H699.747V52.1H695.881V27.4989ZM701.575 38.5694C702.207 38.5694 702.676 38.3937 702.98 38.0422C703.308 37.6908 703.472 37.0933 703.472 36.2498V33.3329C703.472 32.4894 703.308 31.8919 702.98 31.5405C702.676 31.189 702.207 31.0133 701.575 31.0133H699.747V38.5694H701.575ZM710.141 27.4989H714.007V48.5855H720.368V52.1H710.141V27.4989ZM726.049 27.4989H731.286L735.292 52.1H731.426L730.723 47.2149V47.2852H726.33L725.627 52.1H722.043L726.049 27.4989ZM730.266 43.9465L728.544 31.7865H728.474L726.787 43.9465H730.266ZM743.249 52.4514C741.398 52.4514 739.981 51.9243 738.997 50.8699C738.036 49.8156 737.556 48.3278 737.556 46.4066V33.1923C737.556 31.2711 738.036 29.7833 738.997 28.7289C739.981 27.6746 741.398 27.1474 743.249 27.1474C745.1 27.1474 746.506 27.6746 747.467 28.7289C748.451 29.7833 748.943 31.2711 748.943 33.1923V35.793H745.288V32.9463C745.288 31.4233 744.643 30.6619 743.355 30.6619C742.066 30.6619 741.422 31.4233 741.422 32.9463V46.6877C741.422 48.1872 742.066 48.937 743.355 48.937C744.643 48.937 745.288 48.1872 745.288 46.6877V42.9273H748.943V46.4066C748.943 48.3278 748.451 49.8156 747.467 50.8699C746.506 51.9243 745.1 52.4514 743.249 52.4514ZM751.959 27.4989H762.502V31.0133H755.824V37.515H761.131V41.0295H755.824V48.5855H762.502V52.1H751.959V27.4989Z" fill="#AD3600"/>
<rect x="601.689" y="1.07052" width="203.383" height="80.0589" stroke="black" stroke-width="0.941081"/>
<rect x="193.042" y="82.0705" width="203.383" height="84.0589" fill="#642F18"/>
<path d="M272.363 134.6L272.833 131.567H265.356L268.938 128.979C272.703 126.312 274.428 123.75 274.428 120.77C274.428 117.371 272.049 115.122 268.389 115.122C264.415 115.122 261.748 117.711 261.199 122.051H264.441C264.728 119.462 266.062 117.972 268.127 117.972C269.931 117.972 271.082 119.122 271.082 120.9C271.082 123.123 270.062 124.665 267.265 126.731L259.813 132.169L259.421 134.6H272.363ZM276.315 127.175C276.315 131.959 278.877 134.94 283.296 134.94C288.577 134.94 292.525 129.789 292.525 122.913C292.525 118.129 289.936 115.149 285.544 115.149C280.237 115.149 276.315 120.299 276.315 127.175ZM279.505 127.07C279.505 121.92 281.988 118.024 285.335 118.024C287.949 118.024 289.309 119.828 289.309 123.018C289.309 128.142 286.825 132.064 283.505 132.064C280.864 132.064 279.505 130.26 279.505 127.07ZM294.94 127.175C294.94 131.959 297.502 134.94 301.92 134.94C307.202 134.94 311.149 129.789 311.149 122.913C311.149 118.129 308.561 115.149 304.169 115.149C298.861 115.149 294.94 120.299 294.94 127.175ZM298.129 127.07C298.129 121.92 300.613 118.024 303.96 118.024C306.574 118.024 307.934 119.828 307.934 123.018C307.934 128.142 305.45 132.064 302.13 132.064C299.489 132.064 298.129 130.26 298.129 127.07ZM313.565 127.175C313.565 131.959 316.127 134.94 320.545 134.94C325.826 134.94 329.774 129.789 329.774 122.913C329.774 118.129 327.186 115.149 322.794 115.149C317.486 115.149 313.565 120.299 313.565 127.175ZM316.754 127.07C316.754 121.92 319.238 118.024 322.584 118.024C325.199 118.024 326.558 119.828 326.558 123.018C326.558 128.142 324.075 132.064 320.754 132.064C318.114 132.064 316.754 130.26 316.754 127.07Z" fill="white"/>
<rect x="193.042" y="82.0705" width="203.383" height="84.0589" stroke="black" stroke-width="0.941081"/>
<rect x="397.366" y="82.0705" width="203.383" height="84.0589" fill="#ED5F00"/>
<path d="M473.468 118.338L470.906 134.6H474.069L477.076 115.488H469.886L469.416 118.338H473.468ZM478.327 129.397C478.327 132.665 481.098 134.914 485.203 134.914C489.647 134.914 492.732 132.43 492.732 128.717C492.732 126.783 491.739 125.266 490.092 124.587C492.131 123.881 493.464 122.181 493.464 119.933C493.464 117.162 490.928 115.122 487.294 115.122C483.294 115.122 480.418 117.371 480.418 120.691C480.418 122.234 481.124 123.41 482.405 124.142C480 124.822 478.327 126.887 478.327 129.397ZM483.373 120.743C483.373 119.044 484.863 117.92 487.007 117.92C489.02 117.92 490.379 118.966 490.379 120.43C490.379 122.181 488.967 123.253 486.902 123.253C484.784 123.253 483.373 122.364 483.373 120.743ZM481.516 129.162C481.516 127.149 483.163 125.894 485.595 125.894C488 125.894 489.569 127.018 489.569 128.77C489.569 130.835 487.869 132.09 485.359 132.09C483.111 132.09 481.516 130.887 481.516 129.162ZM495.868 127.175C495.868 131.959 498.43 134.94 502.849 134.94C508.13 134.94 512.078 129.789 512.078 122.913C512.078 118.129 509.49 115.149 505.097 115.149C499.79 115.149 495.868 120.299 495.868 127.175ZM499.058 127.07C499.058 121.92 501.542 118.024 504.888 118.024C507.503 118.024 508.862 119.828 508.862 123.018C508.862 128.142 506.378 132.064 503.058 132.064C500.417 132.064 499.058 130.26 499.058 127.07ZM514.493 127.175C514.493 131.959 517.055 134.94 521.474 134.94C526.755 134.94 530.703 129.789 530.703 122.913C530.703 118.129 528.114 115.149 523.722 115.149C518.415 115.149 514.493 120.299 514.493 127.175ZM517.683 127.07C517.683 121.92 520.166 118.024 523.513 118.024C526.127 118.024 527.487 119.828 527.487 123.018C527.487 128.142 525.003 132.064 521.683 132.064C519.042 132.064 517.683 130.26 517.683 127.07Z" fill="white"/>
<rect x="397.366" y="82.0705" width="203.383" height="84.0589" stroke="black" stroke-width="0.941081"/>
<rect x="601.689" y="82.0705" width="203.383" height="84.0589" fill="#FF8330"/>
<path d="M678.264 118.338L675.701 134.6H678.865L681.872 115.488H674.682L674.211 118.338H678.264ZM689.92 134.94C693.946 134.94 696.926 131.959 696.926 127.829C696.926 124.142 694.573 121.632 691.07 121.632C689.946 121.632 689.005 121.92 688.194 122.495L689.789 118.495H697.188L697.659 115.488H687.959L684.037 125.476L686.809 126.103C687.671 124.9 688.796 124.351 690.181 124.351C692.194 124.351 693.528 125.815 693.528 128.09C693.528 130.469 692.011 132.064 689.867 132.064C687.776 132.064 686.495 130.704 686.495 128.508H683.279C683.279 132.456 685.841 134.94 689.92 134.94ZM699.719 127.175C699.719 131.959 702.281 134.94 706.7 134.94C711.981 134.94 715.929 129.789 715.929 122.913C715.929 118.129 713.34 115.149 708.948 115.149C703.641 115.149 699.719 120.299 699.719 127.175ZM702.909 127.07C702.909 121.92 705.393 118.024 708.739 118.024C711.353 118.024 712.713 119.828 712.713 123.018C712.713 128.142 710.229 132.064 706.909 132.064C704.268 132.064 702.909 130.26 702.909 127.07ZM718.344 127.175C718.344 131.959 720.906 134.94 725.325 134.94C730.606 134.94 734.554 129.789 734.554 122.913C734.554 118.129 731.965 115.149 727.573 115.149C722.266 115.149 718.344 120.299 718.344 127.175ZM721.534 127.07C721.534 121.92 724.017 118.024 727.364 118.024C729.978 118.024 731.338 119.828 731.338 123.018C731.338 128.142 728.854 132.064 725.534 132.064C722.893 132.064 721.534 130.26 721.534 127.07Z" fill="white"/>
<rect x="601.689" y="82.0705" width="203.383" height="84.0589" stroke="black" stroke-width="0.941081"/>
<rect x="193.042" y="82.0705" width="612.03" height="84.0589" stroke="black" stroke-width="0.941081"/>
<rect x="193.042" y="167.071" width="203.383" height="84.0589" fill="#642F18"/>
<path d="M269.616 203.338L267.054 219.6H270.217L273.224 200.488H266.034L265.564 203.338H269.616ZM281.272 219.94C285.299 219.94 288.279 216.959 288.279 212.829C288.279 209.142 285.926 206.632 282.423 206.632C281.298 206.632 280.357 206.92 279.547 207.495L281.142 203.495H288.54L289.011 200.488H279.311L275.39 210.476L278.161 211.103C279.024 209.9 280.148 209.351 281.534 209.351C283.547 209.351 284.88 210.815 284.88 213.09C284.88 215.469 283.364 217.064 281.22 217.064C279.128 217.064 277.847 215.704 277.847 213.508H274.632C274.632 217.456 277.194 219.94 281.272 219.94ZM291.072 212.175C291.072 216.959 293.634 219.94 298.052 219.94C303.333 219.94 307.281 214.789 307.281 207.913C307.281 203.129 304.693 200.149 300.301 200.149C294.993 200.149 291.072 205.299 291.072 212.175ZM294.261 212.07C294.261 206.92 296.745 203.024 300.092 203.024C302.706 203.024 304.066 204.828 304.066 208.018C304.066 213.142 301.582 217.064 298.261 217.064C295.621 217.064 294.261 215.26 294.261 212.07ZM309.697 212.175C309.697 216.959 312.259 219.94 316.677 219.94C321.958 219.94 325.906 214.789 325.906 207.913C325.906 203.129 323.318 200.149 318.926 200.149C313.618 200.149 309.697 205.299 309.697 212.175ZM312.886 212.07C312.886 206.92 315.37 203.024 318.716 203.024C321.331 203.024 322.69 204.828 322.69 208.018C322.69 213.142 320.207 217.064 316.886 217.064C314.246 217.064 312.886 215.26 312.886 212.07Z" fill="white"/>
<rect x="193.042" y="167.071" width="203.383" height="84.0589" stroke="black" stroke-width="0.941081"/>
<rect x="397.366" y="167.071" width="203.383" height="84.0589" fill="#ED5F00"/>
<path d="M474.043 203.338L471.48 219.6H474.644L477.65 200.488H470.461L469.99 203.338H474.043ZM491.342 219.6L491.812 216.567H484.335L487.917 213.979C491.681 211.312 493.407 208.75 493.407 205.77C493.407 202.371 491.028 200.122 487.368 200.122C483.394 200.122 480.727 202.711 480.178 207.051H483.42C483.707 204.462 485.041 202.972 487.106 202.972C488.91 202.972 490.06 204.122 490.06 205.9C490.06 208.123 489.041 209.665 486.243 211.731L478.792 217.169L478.4 219.6H491.342ZM495.294 212.175C495.294 216.959 497.856 219.94 502.274 219.94C507.556 219.94 511.503 214.789 511.503 207.913C511.503 203.129 508.915 200.149 504.523 200.149C499.216 200.149 495.294 205.299 495.294 212.175ZM498.483 212.07C498.483 206.92 500.967 203.024 504.314 203.024C506.928 203.024 508.288 204.828 508.288 208.018C508.288 213.142 505.804 217.064 502.484 217.064C499.843 217.064 498.483 215.26 498.483 212.07ZM513.919 212.175C513.919 216.959 516.481 219.94 520.899 219.94C526.18 219.94 530.128 214.789 530.128 207.913C530.128 203.129 527.54 200.149 523.148 200.149C517.84 200.149 513.919 205.299 513.919 212.175ZM517.108 212.07C517.108 206.92 519.592 203.024 522.939 203.024C525.553 203.024 526.912 204.828 526.912 208.018C526.912 213.142 524.429 217.064 521.108 217.064C518.468 217.064 517.108 215.26 517.108 212.07Z" fill="white"/>
<rect x="397.366" y="167.071" width="203.383" height="84.0589" stroke="black" stroke-width="0.941081"/>
<rect x="601.689" y="167.071" width="203.383" height="84.0589" fill="#FF8330"/>
<path d="M676.847 203.338L674.284 219.6H677.448L680.455 200.488H673.265L672.794 203.338H676.847ZM682.511 212.175C682.511 216.959 685.074 219.94 689.492 219.94C694.773 219.94 698.721 214.789 698.721 207.913C698.721 203.129 696.133 200.149 691.74 200.149C686.433 200.149 682.511 205.299 682.511 212.175ZM685.701 212.07C685.701 206.92 688.185 203.024 691.531 203.024C694.146 203.024 695.505 204.828 695.505 208.018C695.505 213.142 693.021 217.064 689.701 217.064C687.061 217.064 685.701 215.26 685.701 212.07ZM701.136 212.175C701.136 216.959 703.698 219.94 708.117 219.94C713.398 219.94 717.346 214.789 717.346 207.913C717.346 203.129 714.757 200.149 710.365 200.149C705.058 200.149 701.136 205.299 701.136 212.175ZM704.326 212.07C704.326 206.92 706.81 203.024 710.156 203.024C712.77 203.024 714.13 204.828 714.13 208.018C714.13 213.142 711.646 217.064 708.326 217.064C705.685 217.064 704.326 215.26 704.326 212.07ZM719.761 212.175C719.761 216.959 722.323 219.94 726.742 219.94C732.023 219.94 735.971 214.789 735.971 207.913C735.971 203.129 733.382 200.149 728.99 200.149C723.683 200.149 719.761 205.299 719.761 212.175ZM722.951 212.07C722.951 206.92 725.434 203.024 728.781 203.024C731.395 203.024 732.755 204.828 732.755 208.018C732.755 213.142 730.271 217.064 726.951 217.064C724.31 217.064 722.951 215.26 722.951 212.07Z" fill="white"/>
<rect x="601.689" y="167.071" width="203.383" height="84.0589" stroke="black" stroke-width="0.941081"/>
<rect x="193.042" y="167.071" width="612.03" height="84.0589" stroke="black" stroke-width="0.941081"/>
<rect x="193.042" y="252.071" width="203.383" height="84.0589" fill="#642F18"/>
<path d="M268.199 288.338L265.637 304.6H268.8L271.807 285.488H264.617L264.147 288.338H268.199ZM273.864 297.175C273.864 301.959 276.426 304.94 280.844 304.94C286.126 304.94 290.073 299.789 290.073 292.913C290.073 288.129 287.485 285.149 283.093 285.149C277.786 285.149 273.864 290.299 273.864 297.175ZM277.054 297.07C277.054 291.92 279.537 288.024 282.884 288.024C285.498 288.024 286.858 289.828 286.858 293.018C286.858 298.142 284.374 302.064 281.054 302.064C278.413 302.064 277.054 300.26 277.054 297.07ZM292.489 297.175C292.489 301.959 295.051 304.94 299.469 304.94C304.75 304.94 308.698 299.789 308.698 292.913C308.698 288.129 306.11 285.149 301.718 285.149C296.41 285.149 292.489 290.299 292.489 297.175ZM295.678 297.07C295.678 291.92 298.162 288.024 301.509 288.024C304.123 288.024 305.483 289.828 305.483 293.018C305.483 298.142 302.999 302.064 299.678 302.064C297.038 302.064 295.678 300.26 295.678 297.07ZM311.114 297.175C311.114 301.959 313.676 304.94 318.094 304.94C323.375 304.94 327.323 299.789 327.323 292.913C327.323 288.129 324.735 285.149 320.343 285.149C315.035 285.149 311.114 290.299 311.114 297.175ZM314.303 297.07C314.303 291.92 316.787 288.024 320.133 288.024C322.748 288.024 324.107 289.828 324.107 293.018C324.107 298.142 321.624 302.064 318.303 302.064C315.663 302.064 314.303 300.26 314.303 297.07Z" fill="white"/>
<rect x="193.042" y="252.071" width="203.383" height="84.0589" stroke="black" stroke-width="0.941081"/>
<rect x="397.366" y="252.071" width="203.383" height="84.0589" fill="#ED5F00"/>
<path d="M473.074 299.397C473.074 302.665 475.845 304.914 479.95 304.914C484.394 304.914 487.479 302.43 487.479 298.717C487.479 296.783 486.486 295.266 484.839 294.587C486.878 293.881 488.211 292.181 488.211 289.933C488.211 287.162 485.675 285.122 482.041 285.122C478.041 285.122 475.165 287.371 475.165 290.691C475.165 292.234 475.871 293.41 477.152 294.142C474.747 294.822 473.074 296.887 473.074 299.397ZM478.12 290.743C478.12 289.044 479.61 287.92 481.754 287.92C483.767 287.92 485.126 288.966 485.126 290.43C485.126 292.181 483.715 293.253 481.649 293.253C479.531 293.253 478.12 292.364 478.12 290.743ZM476.263 299.162C476.263 297.149 477.91 295.894 480.342 295.894C482.747 295.894 484.316 297.018 484.316 298.77C484.316 300.835 482.616 302.09 480.107 302.09C477.858 302.09 476.263 300.887 476.263 299.162ZM490.615 297.175C490.615 301.959 493.178 304.94 497.596 304.94C502.877 304.94 506.825 299.789 506.825 292.913C506.825 288.129 504.237 285.149 499.844 285.149C494.537 285.149 490.615 290.299 490.615 297.175ZM493.805 297.07C493.805 291.92 496.289 288.024 499.635 288.024C502.25 288.024 503.609 289.828 503.609 293.018C503.609 298.142 501.125 302.064 497.805 302.064C495.165 302.064 493.805 300.26 493.805 297.07ZM509.24 297.175C509.24 301.959 511.802 304.94 516.221 304.94C521.502 304.94 525.45 299.789 525.45 292.913C525.45 288.129 522.861 285.149 518.469 285.149C513.162 285.149 509.24 290.299 509.24 297.175ZM512.43 297.07C512.43 291.92 514.914 288.024 518.26 288.024C520.875 288.024 522.234 289.828 522.234 293.018C522.234 298.142 519.75 302.064 516.43 302.064C513.789 302.064 512.43 300.26 512.43 297.07Z" fill="white"/>
<rect x="397.366" y="252.071" width="203.383" height="84.0589" stroke="black" stroke-width="0.941081"/>
<rect x="601.689" y="252.071" width="203.383" height="84.0589" fill="#FF8330"/>
<path d="M684.667 304.94C688.693 304.94 691.674 301.959 691.674 297.829C691.674 294.142 689.321 291.632 685.817 291.632C684.693 291.632 683.752 291.92 682.941 292.495L684.536 288.495H691.935L692.406 285.488H682.706L678.784 295.476L681.556 296.103C682.418 294.9 683.543 294.351 684.928 294.351C686.941 294.351 688.275 295.815 688.275 298.09C688.275 300.469 686.758 302.064 684.615 302.064C682.523 302.064 681.242 300.704 681.242 298.508H678.026C678.026 302.456 680.588 304.94 684.667 304.94ZM694.466 297.175C694.466 301.959 697.028 304.94 701.447 304.94C706.728 304.94 710.676 299.789 710.676 292.913C710.676 288.129 708.088 285.149 703.695 285.149C698.388 285.149 694.466 290.299 694.466 297.175ZM697.656 297.07C697.656 291.92 700.14 288.024 703.486 288.024C706.101 288.024 707.46 289.828 707.46 293.018C707.46 298.142 704.976 302.064 701.656 302.064C699.015 302.064 697.656 300.26 697.656 297.07ZM713.091 297.175C713.091 301.959 715.653 304.94 720.072 304.94C725.353 304.94 729.301 299.789 729.301 292.913C729.301 288.129 726.712 285.149 722.32 285.149C717.013 285.149 713.091 290.299 713.091 297.175ZM716.281 297.07C716.281 291.92 718.765 288.024 722.111 288.024C724.725 288.024 726.085 289.828 726.085 293.018C726.085 298.142 723.601 302.064 720.281 302.064C717.64 302.064 716.281 300.26 716.281 297.07Z" fill="white"/>
<rect x="601.689" y="252.071" width="203.383" height="84.0589" stroke="black" stroke-width="0.941081"/>
<rect x="193.042" y="252.071" width="612.03" height="84.0589" stroke="black" stroke-width="0.941081"/>
<rect x="1" y="1.09998" width="804.043" height="335.143" stroke="black"/>
</svg>
