<svg width="772" height="337" viewBox="0 0 772 337" fill="none" xmlns="http://www.w3.org/2000/svg">
<rect width="158.071" height="336.214" transform="translate(0 0.564209)" fill="#F4CB60"/>
<rect x="0.47054" y="1.03475" width="157.13" height="80.0589" stroke="black" stroke-width="0.941081"/>
<path d="M30.311 109.535H26.7636V119.91H29.9296V122.046H26.7636V134.1H24.1316V107.399H30.311V109.535ZM40.5456 129.37C40.5456 131.15 40.1896 132.485 39.4776 133.375C38.7656 134.24 37.723 134.672 36.3498 134.672C34.9766 134.672 33.9212 134.24 33.1838 133.375C32.4717 132.485 32.1157 131.15 32.1157 129.37V118.155C32.1157 116.401 32.4717 115.091 33.1838 114.227C33.9212 113.362 34.9766 112.93 36.3498 112.93C39.147 112.93 40.5456 114.672 40.5456 118.155V129.37ZM38.0281 117.85C38.0281 116.859 37.8882 116.147 37.6085 115.714C37.3542 115.282 36.9346 115.066 36.3498 115.066C35.7649 115.066 35.3326 115.295 35.0528 115.752C34.7731 116.185 34.6333 116.884 34.6333 117.85V129.713C34.6333 131.595 35.2054 132.536 36.3498 132.536C36.9346 132.536 37.3542 132.32 37.6085 131.887C37.8882 131.43 38.0281 130.705 38.0281 129.713V117.85ZM45.4129 113.464L45.5274 116.782H45.6037C45.6545 115.969 45.7944 115.346 46.0232 114.913C46.2521 114.455 46.5318 114.125 46.8624 113.921C47.2184 113.693 47.5999 113.565 48.0067 113.54C48.4391 113.489 48.8586 113.464 49.2655 113.464V116.058C47.8669 116.058 46.9133 116.414 46.4047 117.126C45.9215 117.838 45.6799 118.74 45.6799 119.834V134.062H43.1624V113.464H45.4129ZM59.3184 126.395V129.37C59.3184 131.15 58.9623 132.485 58.2503 133.375C57.5383 134.24 56.4957 134.672 55.1225 134.672C53.7493 134.672 52.6939 134.24 51.9565 133.375C51.2445 132.485 50.8884 131.15 50.8884 129.37V118.155C50.8884 116.401 51.2445 115.091 51.9565 114.227C52.6939 113.337 53.7493 112.892 55.1225 112.892C57.9197 112.892 59.3184 114.646 59.3184 118.155V124.182H53.406V129.675C53.406 130.667 53.5458 131.392 53.8256 131.849C54.1053 132.307 54.5376 132.536 55.1225 132.536C55.7074 132.536 56.1269 132.32 56.3812 131.887C56.661 131.43 56.8008 130.692 56.8008 129.675V126.395H59.3184ZM56.8008 117.85C56.8008 116.859 56.661 116.147 56.3812 115.714C56.1269 115.282 55.7074 115.066 55.1225 115.066C54.5376 115.066 54.1053 115.295 53.8256 115.752C53.5458 116.185 53.406 116.884 53.406 117.85V122.313H56.8008V117.85ZM62.5073 115.638H61.363V113.502H62.5073V109.268C62.5073 108.454 62.5709 107.806 62.698 107.322C62.8506 106.814 63.0795 106.432 63.3846 106.178C63.7152 105.898 64.1602 105.72 64.7197 105.644C65.2791 105.542 65.9784 105.492 66.8176 105.492V107.628C66.487 107.628 66.1946 107.64 65.9403 107.666C65.7114 107.691 65.5334 107.767 65.4063 107.895C65.2791 108.022 65.1774 108.213 65.1011 108.467C65.0502 108.696 65.0248 109.039 65.0248 109.497V113.502H66.5125V115.638H65.0248V134.1H62.5073V115.638ZM74.6548 134.1L74.4641 130.934H74.3496C74.0699 132.053 73.6376 132.956 73.0527 133.642C72.4933 134.329 71.8067 134.672 70.9929 134.672C70.1283 134.672 69.4417 134.227 68.9331 133.337C68.45 132.447 68.2084 131.125 68.2084 129.37V126.471C68.2084 124.716 68.4627 123.407 68.9713 122.542C69.4799 121.677 70.2173 121.245 71.1837 121.245C71.8957 121.245 72.506 121.487 73.0146 121.97C73.5232 122.428 73.8919 123.076 74.1208 123.915H74.2352V117.888C74.2352 116.897 74.0953 116.185 73.8156 115.752C73.5613 115.295 73.129 115.066 72.5187 115.066C71.9338 115.066 71.5015 115.282 71.2218 115.714C70.9675 116.147 70.8404 116.859 70.8404 117.85V119.758H68.3228V118.155C68.3228 114.672 69.7214 112.93 72.5187 112.93C73.8919 112.93 74.9345 113.362 75.6465 114.227C76.384 115.091 76.7527 116.401 76.7527 118.155V134.1H74.6548ZM72.0991 132.498C72.7349 132.498 73.2435 132.104 73.6249 131.315C74.0318 130.527 74.2352 129.345 74.2352 127.768V126.166C74.2352 125.327 74.0445 124.653 73.663 124.144C73.307 123.636 72.8366 123.381 72.2517 123.381C71.7431 123.381 71.3617 123.61 71.1074 124.068C70.8531 124.5 70.7259 125.199 70.7259 126.166V129.675C70.7259 130.667 70.8404 131.392 71.0692 131.849C71.2981 132.282 71.6414 132.498 72.0991 132.498ZM82.4565 110.45V113.502H84.2493V115.638H82.4565V130.095C82.4565 130.527 82.482 130.87 82.5328 131.125C82.6091 131.379 82.7108 131.57 82.838 131.697C82.9651 131.824 83.1431 131.9 83.372 131.926C83.6263 131.951 83.9187 131.964 84.2493 131.964V134.1C83.4101 134.1 82.7108 134.062 82.1514 133.985C81.5919 133.884 81.1469 133.706 80.8163 133.451C80.5112 133.172 80.2823 132.79 80.1297 132.307C80.0026 131.798 79.939 131.137 79.939 130.324V115.638H78.7947V113.502H79.939V110.45H82.4565ZM92.2638 134.1V117.888C92.2638 116.007 91.7679 115.066 90.7762 115.066C90.1913 115.066 89.7208 115.358 89.3648 115.943C89.0088 116.503 88.8308 117.393 88.8308 118.613V134.1H86.3133V105.492H88.8308V115.447H88.9452C89.5301 113.769 90.4837 112.93 91.8061 112.93C92.7215 112.93 93.4463 113.375 93.9803 114.265C94.5143 115.129 94.7813 116.439 94.7813 118.194V134.1H92.2638ZM105.859 126.395V129.37C105.859 131.15 105.503 132.485 104.791 133.375C104.079 134.24 103.036 134.672 101.663 134.672C100.29 134.672 99.2346 134.24 98.4971 133.375C97.7851 132.485 97.4291 131.15 97.4291 129.37V118.155C97.4291 116.401 97.7851 115.091 98.4971 114.227C99.2346 113.337 100.29 112.892 101.663 112.892C104.46 112.892 105.859 114.646 105.859 118.155V124.182H99.9466V129.675C99.9466 130.667 100.086 131.392 100.366 131.849C100.646 132.307 101.078 132.536 101.663 132.536C102.248 132.536 102.668 132.32 102.922 131.887C103.202 131.43 103.341 130.692 103.341 129.675V126.395H105.859ZM103.341 117.85C103.341 116.859 103.202 116.147 102.922 115.714C102.668 115.282 102.248 115.066 101.663 115.066C101.078 115.066 100.646 115.295 100.366 115.752C100.086 116.185 99.9466 116.884 99.9466 117.85V122.313H103.341V117.85ZM110.726 113.464L110.841 116.782H110.917C110.968 115.969 111.108 115.346 111.337 114.913C111.565 114.455 111.845 114.125 112.176 113.921C112.532 113.693 112.913 113.565 113.32 113.54C113.752 113.489 114.172 113.464 114.579 113.464V116.058C113.18 116.058 112.227 116.414 111.718 117.126C111.235 117.838 110.993 118.74 110.993 119.834V134.062H108.476V113.464H110.726Z" fill="#111111"/>
<rect x="0.47054" y="82.0347" width="157.13" height="84.1303" stroke="black" stroke-width="0.941081"/>
<path d="M29.8897 200.709V196.819C29.8897 195.751 29.7498 195.026 29.4701 194.645C29.1904 194.238 28.7581 194.034 28.1732 194.034C27.5883 194.034 27.1433 194.238 26.8381 194.645C26.533 195.026 26.3804 195.751 26.3804 196.819V199.26C26.3804 200.328 26.6347 201.294 27.1433 202.159C27.6519 202.998 28.2368 203.812 28.8979 204.6C29.3302 205.083 29.7625 205.605 30.1948 206.164C30.6526 206.698 31.0595 207.283 31.4155 207.919C31.7715 208.529 32.0639 209.19 32.2928 209.902C32.5217 210.589 32.6361 211.352 32.6361 212.191V214.441C32.6361 216.272 32.2292 217.62 31.4155 218.485C30.6272 219.324 29.5337 219.744 28.1351 219.744C26.7364 219.744 25.6302 219.324 24.8165 218.485C24.0282 217.62 23.634 216.272 23.634 214.441V210.856H26.266V214.747C26.266 215.815 26.4313 216.552 26.7619 216.959C27.0924 217.366 27.5629 217.569 28.1732 217.569C28.7581 217.569 29.2031 217.366 29.5082 216.959C29.8388 216.552 30.0041 215.815 30.0041 214.747V212.305C30.0041 211.161 29.6863 210.118 29.0505 209.178C28.4148 208.211 27.7155 207.283 26.9526 206.393C26.5457 205.91 26.1515 205.427 25.7701 204.944C25.3887 204.435 25.0454 203.901 24.7402 203.341C24.435 202.782 24.1935 202.184 24.0155 201.549C23.8374 200.913 23.7484 200.214 23.7484 199.451V197.124C23.7484 195.293 24.1426 193.971 24.9309 193.157C25.7192 192.318 26.8 191.898 28.1732 191.898C29.5464 191.898 30.6144 192.318 31.3773 193.157C32.1402 193.971 32.5217 195.293 32.5217 197.124V200.709H29.8897ZM43.4777 214.441C43.4777 216.222 43.1217 217.557 42.4097 218.447C41.6977 219.311 40.6551 219.744 39.2819 219.744C37.9087 219.744 36.8533 219.311 36.1159 218.447C35.4038 217.557 35.0478 216.222 35.0478 214.441V203.227C35.0478 201.472 35.4038 200.163 36.1159 199.298C36.8533 198.434 37.9087 198.001 39.2819 198.001C42.0791 198.001 43.4777 199.743 43.4777 203.227V214.441ZM40.9602 202.922C40.9602 201.93 40.8204 201.218 40.5406 200.786C40.2863 200.353 39.8667 200.137 39.2819 200.137C38.697 200.137 38.2647 200.366 37.985 200.824C37.7052 201.256 37.5654 201.956 37.5654 202.922V214.785C37.5654 216.667 38.1375 217.607 39.2819 217.607C39.8667 217.607 40.2863 217.391 40.5406 216.959C40.8204 216.501 40.9602 215.777 40.9602 214.785V202.922ZM54.41 214.441C54.41 216.222 54.054 217.557 53.342 218.447C52.6299 219.311 51.5873 219.744 50.2141 219.744C48.8409 219.744 47.7856 219.311 47.0481 218.447C46.3361 217.557 45.9801 216.222 45.9801 214.441V203.227C45.9801 201.472 46.3361 200.163 47.0481 199.298C47.7856 198.434 48.8409 198.001 50.2141 198.001C53.0114 198.001 54.41 199.743 54.41 203.227V214.441ZM51.8925 202.922C51.8925 201.93 51.7526 201.218 51.4729 200.786C51.2186 200.353 50.799 200.137 50.2141 200.137C49.6292 200.137 49.1969 200.366 48.9172 200.824C48.6375 201.256 48.4976 201.956 48.4976 202.922V214.785C48.4976 216.667 49.0698 217.607 50.2141 217.607C50.799 217.607 51.2186 217.391 51.4729 216.959C51.7526 216.501 51.8925 215.777 51.8925 214.785V202.922ZM60.1165 195.522V198.573H61.9092V200.709H60.1165V215.166C60.1165 215.599 60.1419 215.942 60.1927 216.196C60.269 216.45 60.3708 216.641 60.4979 216.768C60.6251 216.895 60.8031 216.972 61.0319 216.997C61.2862 217.023 61.5787 217.035 61.9092 217.035V219.171C61.0701 219.171 60.3708 219.133 59.8113 219.057C59.2519 218.955 58.8068 218.777 58.4763 218.523C58.1711 218.243 57.9422 217.862 57.7897 217.379C57.6625 216.87 57.5989 216.209 57.5989 215.395V200.709H56.4546V198.573H57.5989V195.522H60.1165ZM69.9237 219.171V202.96C69.9237 201.078 69.4279 200.137 68.4361 200.137C67.8512 200.137 67.3808 200.43 67.0248 201.015C66.6688 201.574 66.4908 202.464 66.4908 203.685V219.171H63.9732V190.563H66.4908V200.519H66.6052C67.1901 198.84 68.1437 198.001 69.466 198.001C70.3815 198.001 71.1062 198.446 71.6402 199.336C72.1743 200.201 72.4413 201.511 72.4413 203.265V219.171H69.9237ZM80.887 204.905V201.93C80.887 201.116 80.7344 200.557 80.4293 200.252C80.1241 199.947 79.7554 199.794 79.3231 199.794C78.8908 199.794 78.5093 199.959 78.1787 200.29C77.8736 200.595 77.721 201.155 77.721 201.968V203.99C77.721 204.753 77.9753 205.478 78.4839 206.164C79.0179 206.851 79.5774 207.499 80.1622 208.11C80.5945 208.491 81.0014 208.898 81.3829 209.33C81.7897 209.737 82.1458 210.182 82.4509 210.665C82.7815 211.148 83.0358 211.657 83.2138 212.191C83.4172 212.725 83.519 213.323 83.519 213.984V215.357C83.519 216.781 83.1248 217.874 82.3365 218.637C81.5482 219.375 80.5437 219.744 79.3231 219.744C78.077 219.744 77.0598 219.375 76.2715 218.637C75.4832 217.874 75.089 216.768 75.089 215.319V212.801H77.6066V215.777C77.6066 216.59 77.7591 217.162 78.0643 217.493C78.3949 217.798 78.8145 217.951 79.3231 217.951C79.8062 217.951 80.2004 217.798 80.5055 217.493C80.8361 217.162 81.0014 216.59 81.0014 215.777V213.907C81.0014 213.119 80.6836 212.331 80.0478 211.543C79.4375 210.754 78.7763 210.004 78.0643 209.292C77.3268 208.555 76.6657 207.766 76.0808 206.927C75.4959 206.062 75.2035 205.058 75.2035 203.914V202.388C75.2035 200.964 75.5722 199.883 76.3097 199.146C77.0725 198.383 78.077 198.001 79.3231 198.001C80.5437 198.001 81.5227 198.383 82.2602 199.146C83.0231 199.883 83.4045 200.964 83.4045 202.388V204.905H80.887ZM92.3932 219.171L92.2025 216.005H92.088C91.8083 217.124 91.376 218.027 90.7911 218.714C90.2317 219.4 89.5451 219.744 88.7313 219.744C87.8667 219.744 87.1801 219.299 86.6715 218.408C86.1884 217.518 85.9468 216.196 85.9468 214.441V211.543C85.9468 209.788 86.2011 208.478 86.7097 207.614C87.2183 206.749 87.9557 206.317 88.9221 206.317C89.6341 206.317 90.2444 206.558 90.753 207.041C91.2616 207.499 91.6303 208.148 91.8592 208.987H91.9736V202.96C91.9736 201.968 91.8337 201.256 91.554 200.824C91.2997 200.366 90.8674 200.137 90.2571 200.137C89.6722 200.137 89.2399 200.353 88.9602 200.786C88.7059 201.218 88.5788 201.93 88.5788 202.922V204.829H86.0612V203.227C86.0612 199.743 87.4598 198.001 90.2571 198.001C91.6303 198.001 92.6729 198.434 93.3849 199.298C94.1224 200.163 94.4911 201.472 94.4911 203.227V219.171H92.3932ZM89.8375 217.569C90.4733 217.569 90.9819 217.175 91.3633 216.387C91.7702 215.599 91.9736 214.416 91.9736 212.839V211.237C91.9736 210.398 91.7829 209.724 91.4014 209.216C91.0454 208.707 90.575 208.453 89.9901 208.453C89.4815 208.453 89.1001 208.682 88.8458 209.139C88.5915 209.572 88.4643 210.271 88.4643 211.237V214.747C88.4643 215.738 88.5788 216.463 88.8076 216.921C89.0365 217.353 89.3798 217.569 89.8375 217.569ZM102.296 220.659C102.194 221.498 102.054 222.185 101.876 222.719C101.723 223.278 101.456 223.711 101.075 224.016C100.719 224.346 100.21 224.575 99.5491 224.702C98.9134 224.855 98.0361 224.931 96.9172 224.931V222.795C97.5021 222.795 97.9598 222.757 98.2904 222.681C98.621 222.604 98.8753 222.439 99.0533 222.185C99.2313 221.956 99.333 221.613 99.3584 221.155C99.4093 220.697 99.4474 220.087 99.4729 219.324L96.4213 198.612H99.0533L100.732 212.992L100.922 215.319H101.037L101.189 212.992L102.906 198.612H105.538L102.486 219.171L102.296 220.659ZM115.794 211.466V214.441C115.794 216.222 115.438 217.557 114.726 218.447C114.014 219.311 112.972 219.744 111.598 219.744C110.225 219.744 109.17 219.311 108.432 218.447C107.72 217.557 107.364 216.222 107.364 214.441V203.227C107.364 201.472 107.72 200.163 108.432 199.298C109.17 198.408 110.225 197.963 111.598 197.963C114.396 197.963 115.794 199.718 115.794 203.227V209.254H109.882V214.747C109.882 215.738 110.022 216.463 110.301 216.921C110.581 217.379 111.013 217.607 111.598 217.607C112.183 217.607 112.603 217.391 112.857 216.959C113.137 216.501 113.277 215.764 113.277 214.747V211.466H115.794ZM113.277 202.922C113.277 201.93 113.137 201.218 112.857 200.786C112.603 200.353 112.183 200.137 111.598 200.137C111.013 200.137 110.581 200.366 110.301 200.824C110.022 201.256 109.882 201.956 109.882 202.922V207.385H113.277V202.922ZM120.661 198.535L120.776 201.854H120.852C120.903 201.04 121.043 200.417 121.272 199.985C121.501 199.527 121.78 199.196 122.111 198.993C122.467 198.764 122.848 198.637 123.255 198.612C123.688 198.561 124.107 198.535 124.514 198.535V201.129C123.115 201.129 122.162 201.485 121.653 202.197C121.17 202.909 120.928 203.812 120.928 204.905V219.133H118.411V198.535H120.661ZM131.935 204.905V201.93C131.935 201.116 131.782 200.557 131.477 200.252C131.172 199.947 130.803 199.794 130.371 199.794C129.939 199.794 129.557 199.959 129.227 200.29C128.922 200.595 128.769 201.155 128.769 201.968V203.99C128.769 204.753 129.023 205.478 129.532 206.164C130.066 206.851 130.625 207.499 131.21 208.11C131.643 208.491 132.049 208.898 132.431 209.33C132.838 209.737 133.194 210.182 133.499 210.665C133.829 211.148 134.084 211.657 134.262 212.191C134.465 212.725 134.567 213.323 134.567 213.984V215.357C134.567 216.781 134.173 217.874 133.384 218.637C132.596 219.375 131.592 219.744 130.371 219.744C129.125 219.744 128.108 219.375 127.319 218.637C126.531 217.874 126.137 216.768 126.137 215.319V212.801H128.655V215.777C128.655 216.59 128.807 217.162 129.112 217.493C129.443 217.798 129.862 217.951 130.371 217.951C130.854 217.951 131.248 217.798 131.554 217.493C131.884 217.162 132.049 216.59 132.049 215.777V213.907C132.049 213.119 131.732 212.331 131.096 211.543C130.485 210.754 129.824 210.004 129.112 209.292C128.375 208.555 127.714 207.766 127.129 206.927C126.544 206.062 126.251 205.058 126.251 203.914V202.388C126.251 200.964 126.62 199.883 127.358 199.146C128.121 198.383 129.125 198.001 130.371 198.001C131.592 198.001 132.571 198.383 133.308 199.146C134.071 199.883 134.452 200.964 134.452 202.388V204.905H131.935Z" fill="#111111"/>
<rect x="0.47054" y="167.106" width="157.13" height="84.1303" stroke="black" stroke-width="0.941081"/>
<path d="M30.0848 285.781V281.89C30.0848 280.822 29.9449 280.097 29.6652 279.716C29.3855 279.309 28.9532 279.106 28.3683 279.106C27.7834 279.106 27.3384 279.309 27.0332 279.716C26.7281 280.097 26.5755 280.822 26.5755 281.89V284.331C26.5755 285.399 26.8298 286.366 27.3384 287.23C27.847 288.069 28.4319 288.883 29.093 289.672C29.5253 290.155 29.9576 290.676 30.3899 291.235C30.8477 291.769 31.2545 292.354 31.6106 292.99C31.9666 293.6 32.259 294.262 32.4879 294.974C32.7167 295.66 32.8312 296.423 32.8312 297.262V299.513C32.8312 301.344 32.4243 302.691 31.6106 303.556C30.8222 304.395 29.7288 304.815 28.3301 304.815C26.9315 304.815 25.8253 304.395 25.0116 303.556C24.2233 302.691 23.8291 301.344 23.8291 299.513V295.927H26.4611V299.818C26.4611 300.886 26.6264 301.623 26.9569 302.03C27.2875 302.437 27.758 302.641 28.3683 302.641C28.9532 302.641 29.3982 302.437 29.7033 302.03C30.0339 301.623 30.1992 300.886 30.1992 299.818V297.377C30.1992 296.232 29.8813 295.19 29.2456 294.249C28.6099 293.283 27.9105 292.354 27.1477 291.464C26.7408 290.981 26.3466 290.498 25.9652 290.015C25.5837 289.506 25.2404 288.972 24.9353 288.413C24.6301 287.853 24.3885 287.256 24.2105 286.62C24.0325 285.984 23.9435 285.285 23.9435 284.522V282.195C23.9435 280.364 24.3377 279.042 25.126 278.228C25.9143 277.389 26.9951 276.969 28.3683 276.969C29.7415 276.969 30.8095 277.389 31.5724 278.228C32.3353 279.042 32.7167 280.364 32.7167 282.195V285.781H30.0848ZM37.9866 283.645V299.856C37.9866 301.738 38.4825 302.679 39.4743 302.679C40.0591 302.679 40.5296 302.399 40.8856 301.84C41.2416 301.255 41.4196 300.352 41.4196 299.131V283.645H43.9372V304.243H41.8392L41.6104 301.992H41.4959C40.9365 303.874 39.9193 304.815 38.4444 304.815C37.5289 304.815 36.8042 304.37 36.2701 303.48C35.7361 302.59 35.4691 301.267 35.4691 299.513V283.645H37.9866ZM48.9499 283.607L49.0643 286.925H49.1406C49.1915 286.111 49.3313 285.488 49.5602 285.056C49.7891 284.598 50.0688 284.268 50.3994 284.064C50.7554 283.835 51.1368 283.708 51.5437 283.683C51.976 283.632 52.3956 283.607 52.8025 283.607V286.2C51.4038 286.2 50.4502 286.556 49.9416 287.268C49.4585 287.98 49.2169 288.883 49.2169 289.977V304.205H46.6994V283.607H48.9499ZM57.6525 304.243L54.6009 283.645H57.2329L58.9112 297.911L59.102 300.238H59.2164L59.369 297.911L61.0855 283.645H63.7174L60.6659 304.243H57.6525ZM65.8818 278.457H68.3994V282.386H65.8818V278.457ZM65.8818 283.607H68.3994V304.205H65.8818V283.607ZM73.6314 304.243L70.5798 283.645H73.2118L74.8902 297.911L75.0809 300.238H75.1953L75.3479 297.911L77.0644 283.645H79.6964L76.6448 304.243H73.6314ZM87.8575 304.243L87.6668 301.077H87.5523C87.2726 302.196 86.8403 303.098 86.2554 303.785C85.696 304.472 85.0094 304.815 84.1956 304.815C83.331 304.815 82.6444 304.37 82.1358 303.48C81.6527 302.59 81.4111 301.267 81.4111 299.513V296.614C81.4111 294.859 81.6654 293.55 82.174 292.685C82.6826 291.82 83.42 291.388 84.3863 291.388C85.0984 291.388 85.7087 291.63 86.2173 292.113C86.7259 292.57 87.0946 293.219 87.3235 294.058H87.4379V288.031C87.4379 287.04 87.298 286.328 87.0183 285.895C86.764 285.437 86.3317 285.209 85.7214 285.209C85.1365 285.209 84.7042 285.425 84.4245 285.857C84.1702 286.289 84.043 287.001 84.043 287.993V289.9H81.5255V288.298C81.5255 284.814 82.9241 283.073 85.7214 283.073C87.0946 283.073 88.1372 283.505 88.8492 284.369C89.5867 285.234 89.9554 286.544 89.9554 288.298V304.243H87.8575ZM85.3018 302.641C85.9375 302.641 86.4461 302.246 86.8276 301.458C87.2345 300.67 87.4379 299.487 87.4379 297.911V296.309C87.4379 295.469 87.2472 294.796 86.8657 294.287C86.5097 293.778 86.0393 293.524 85.4544 293.524C84.9458 293.524 84.5643 293.753 84.31 294.211C84.0558 294.643 83.9286 295.342 83.9286 296.309V299.818C83.9286 300.81 84.043 301.534 84.2719 301.992C84.5008 302.424 84.8441 302.641 85.3018 302.641ZM92.5695 275.634H95.087V304.243H92.5695V275.634ZM97.8397 278.457H100.357V282.386H97.8397V278.457ZM97.8397 283.607H100.357V304.205H97.8397V283.607ZM108.793 289.977V287.001C108.793 286.188 108.641 285.628 108.336 285.323C108.031 285.018 107.662 284.865 107.229 284.865C106.797 284.865 106.416 285.031 106.085 285.361C105.78 285.666 105.627 286.226 105.627 287.04V289.061C105.627 289.824 105.882 290.549 106.39 291.235C106.924 291.922 107.484 292.57 108.069 293.181C108.501 293.562 108.908 293.969 109.289 294.401C109.696 294.808 110.052 295.253 110.357 295.736C110.688 296.22 110.942 296.728 111.12 297.262C111.324 297.796 111.425 298.394 111.425 299.055V300.428C111.425 301.852 111.031 302.946 110.243 303.709C109.455 304.446 108.45 304.815 107.229 304.815C105.983 304.815 104.966 304.446 104.178 303.709C103.39 302.946 102.995 301.84 102.995 300.39V297.873H105.513V300.848C105.513 301.662 105.666 302.234 105.971 302.564C106.301 302.869 106.721 303.022 107.229 303.022C107.713 303.022 108.107 302.869 108.412 302.564C108.743 302.234 108.908 301.662 108.908 300.848V298.979C108.908 298.19 108.59 297.402 107.954 296.614C107.344 295.825 106.683 295.075 105.971 294.363C105.233 293.626 104.572 292.837 103.987 291.998C103.402 291.134 103.11 290.129 103.11 288.985V287.459C103.11 286.035 103.479 284.954 104.216 284.217C104.979 283.454 105.983 283.073 107.229 283.073C108.45 283.073 109.429 283.454 110.167 284.217C110.929 284.954 111.311 286.035 111.311 287.459V289.977H108.793ZM117.132 280.593V283.645H118.925V285.781H117.132V300.238C117.132 300.67 117.157 301.013 117.208 301.267C117.284 301.522 117.386 301.712 117.513 301.84C117.64 301.967 117.818 302.043 118.047 302.068C118.302 302.094 118.594 302.107 118.925 302.107V304.243C118.085 304.243 117.386 304.205 116.827 304.128C116.267 304.027 115.822 303.849 115.492 303.594C115.186 303.314 114.958 302.933 114.805 302.45C114.678 301.941 114.614 301.28 114.614 300.466V285.781H113.47V283.645H114.614V280.593H117.132Z" fill="#111111"/>
<rect x="0.47054" y="252.178" width="157.13" height="84.1303" stroke="black" stroke-width="0.941081"/>
<rect x="158.542" y="1.03475" width="203.383" height="84.1303" fill="#F4CB60"/>
<path d="M224.456 50.9638H226.21V53.0999H220.069V50.9638H221.824V30.8235H220.527V29.107C221.264 29.107 221.747 28.8909 221.976 28.4586C222.231 28.0008 222.358 27.3142 222.358 26.3988H224.456V50.9638ZM234.745 38.8338V35.8586C234.745 35.0448 234.593 34.4854 234.287 34.1802C233.982 33.8751 233.614 33.7225 233.181 33.7225C232.749 33.7225 232.368 33.8878 232.037 34.2184C231.732 34.5235 231.579 35.083 231.579 35.8967V37.9184C231.579 38.6813 231.833 39.406 232.342 40.0926C232.876 40.7792 233.436 41.4277 234.02 42.038C234.453 42.4194 234.86 42.8263 235.241 43.2586C235.648 43.6655 236.004 44.1105 236.309 44.5936C236.64 45.0768 236.894 45.5854 237.072 46.1194C237.275 46.6534 237.377 47.251 237.377 47.9122V49.2854C237.377 50.7095 236.983 51.8029 236.195 52.5658C235.406 53.3033 234.402 53.672 233.181 53.672C231.935 53.672 230.918 53.3033 230.13 52.5658C229.341 51.8029 228.947 50.6968 228.947 49.2473V46.7297H231.465V49.705C231.465 50.5187 231.617 51.0909 231.922 51.4215C232.253 51.7267 232.673 51.8792 233.181 51.8792C233.664 51.8792 234.059 51.7267 234.364 51.4215C234.694 51.0909 234.86 50.5187 234.86 49.705V47.8359C234.86 47.0476 234.542 46.2593 233.906 45.471C233.296 44.6827 232.635 43.9325 231.922 43.2204C231.185 42.483 230.524 41.6947 229.939 40.8555C229.354 39.9909 229.062 38.9864 229.062 37.8421V36.3163C229.062 34.8923 229.43 33.8115 230.168 33.074C230.931 32.3111 231.935 31.9297 233.181 31.9297C234.402 31.9297 235.381 32.3111 236.118 33.074C236.881 33.8115 237.263 34.8923 237.263 36.3163V38.8338H234.745ZM243.084 29.4503V32.5019H244.876V34.638H243.084V49.0947C243.084 49.527 243.109 49.8703 243.16 50.1246C243.236 50.3789 243.338 50.5696 243.465 50.6968C243.592 50.8239 243.77 50.9002 243.999 50.9256C244.253 50.9511 244.546 50.9638 244.876 50.9638V53.0999C244.037 53.0999 243.338 53.0617 242.778 52.9854C242.219 52.8837 241.774 52.7057 241.443 52.4514C241.138 52.1717 240.909 51.7902 240.757 51.3071C240.63 50.7985 240.566 50.1373 240.566 49.3236V34.638H239.422V32.5019H240.566V29.4503H243.084ZM262.367 37.6895C262.367 39.495 261.935 40.8555 261.07 41.771C260.231 42.661 259.036 43.106 257.485 43.106H256.112V53.0999H253.48V26.3988H257.447C259.023 26.3988 260.231 26.8438 261.07 27.7338C261.935 28.6239 262.367 29.9716 262.367 31.7771V37.6895ZM259.735 31.3194C259.735 30.3531 259.545 29.6538 259.163 29.2214C258.807 28.7637 258.235 28.5348 257.447 28.5348H256.112V40.9699H257.447C258.973 40.9699 259.735 40.029 259.735 38.1472V31.3194ZM265.117 24.4915H267.635V53.0999H265.117V24.4915ZM276.719 53.0999L276.529 49.9339H276.414C276.134 51.0528 275.702 51.9555 275.117 52.6421C274.558 53.3287 273.871 53.672 273.057 53.672C272.193 53.672 271.506 53.227 270.998 52.337C270.514 51.4469 270.273 50.1246 270.273 48.3699V45.471C270.273 43.7163 270.527 42.4067 271.036 41.5421C271.544 40.6775 272.282 40.2452 273.248 40.2452C273.96 40.2452 274.57 40.4868 275.079 40.9699C275.588 41.4277 275.956 42.0761 276.185 42.9153H276.3V36.8885C276.3 35.8967 276.16 35.1847 275.88 34.7524C275.626 34.2947 275.193 34.0658 274.583 34.0658C273.998 34.0658 273.566 34.2819 273.286 34.7142C273.032 35.1465 272.905 35.8586 272.905 36.8503V38.7576H270.387V37.1555C270.387 33.6716 271.786 31.9297 274.583 31.9297C275.956 31.9297 276.999 32.362 277.711 33.2266C278.448 34.0912 278.817 35.4008 278.817 37.1555V53.0999H276.719ZM274.164 51.4978C274.799 51.4978 275.308 51.1036 275.689 50.3153C276.096 49.527 276.3 48.3445 276.3 46.7679V45.1658C276.3 44.3266 276.109 43.6528 275.727 43.1442C275.371 42.6356 274.901 42.3813 274.316 42.3813C273.808 42.3813 273.426 42.6101 273.172 43.0679C272.918 43.5002 272.79 44.1995 272.79 45.1658V48.6751C272.79 49.6669 272.905 50.3916 273.134 50.8493C273.363 51.2816 273.706 51.4978 274.164 51.4978ZM287.229 36.8122C287.229 35.8459 287.089 35.1465 286.81 34.7142C286.555 34.2565 286.136 34.0276 285.551 34.0276C284.966 34.0276 284.534 34.2565 284.254 34.7142C283.974 35.1465 283.834 35.8459 283.834 36.8122V48.6751C283.834 49.6669 283.974 50.3916 284.254 50.8493C284.534 51.3071 284.966 51.5359 285.551 51.5359C286.136 51.5359 286.555 51.3198 286.81 50.8875C287.089 50.4297 287.229 49.6923 287.229 48.6751V45.3947H289.747V48.3699C289.747 50.15 289.391 51.4851 288.679 52.3751C287.967 53.2397 286.924 53.672 285.551 53.672C284.178 53.672 283.122 53.2397 282.385 52.3751C281.673 51.4851 281.317 50.15 281.317 48.3699V37.1555C281.317 35.3754 281.673 34.0531 282.385 33.1885C283.122 32.3239 284.178 31.8916 285.551 31.8916C288.348 31.8916 289.747 33.6462 289.747 37.1555V40.1308H287.229V36.8122ZM300.642 45.3947V48.3699C300.642 50.15 300.286 51.4851 299.574 52.3751C298.862 53.2397 297.819 53.672 296.446 53.672C295.073 53.672 294.017 53.2397 293.28 52.3751C292.568 51.4851 292.212 50.15 292.212 48.3699V37.1555C292.212 35.4008 292.568 34.0912 293.28 33.2266C294.017 32.3366 295.073 31.8916 296.446 31.8916C299.243 31.8916 300.642 33.6462 300.642 37.1555V43.1823H294.729V48.6751C294.729 49.6669 294.869 50.3916 295.149 50.8493C295.429 51.3071 295.861 51.5359 296.446 51.5359C297.031 51.5359 297.45 51.3198 297.705 50.8875C297.984 50.4297 298.124 49.6923 298.124 48.6751V45.3947H300.642ZM298.124 36.8503C298.124 35.8586 297.984 35.1465 297.705 34.7142C297.45 34.2819 297.031 34.0658 296.446 34.0658C295.861 34.0658 295.429 34.2947 295.149 34.7524C294.869 35.1847 294.729 35.884 294.729 36.8503V41.3132H298.124V36.8503Z" fill="#111111"/>
<rect x="158.542" y="1.03475" width="203.383" height="84.1303" stroke="black" stroke-width="0.941081"/>
<rect x="362.866" y="1.03475" width="203.383" height="84.1303" fill="#F4CB60"/>
<path d="M420.928 31.739C420.928 29.6792 421.31 28.1788 422.073 27.2379C422.836 26.297 423.904 25.8266 425.277 25.8266C426.675 25.8266 427.756 26.3225 428.519 27.3142C429.307 28.2806 429.702 29.8445 429.702 32.006V34.7142C429.702 35.5026 429.613 36.2146 429.435 36.8503C429.257 37.4861 429.015 38.071 428.71 38.605C428.43 39.139 428.099 39.6476 427.718 40.1308C427.337 40.5885 426.942 41.0335 426.536 41.4658C426.154 41.8727 425.773 42.2923 425.391 42.7246C425.035 43.1569 424.705 43.6146 424.399 44.0978C424.12 44.5809 423.891 45.1022 423.713 45.6617C423.535 46.2211 423.446 46.8442 423.446 47.5308V50.9638H429.702V53.0999H420.814V47.6452C420.814 46.7043 420.928 45.8524 421.157 45.0895C421.386 44.3266 421.678 43.6273 422.035 42.9916C422.391 42.3558 422.785 41.7837 423.217 41.2751C423.675 40.7411 424.12 40.2325 424.552 39.7493C425.239 39.0118 425.824 38.2362 426.307 37.4225C426.815 36.5833 427.07 35.617 427.07 34.5235V31.3194C427.07 30.0733 426.917 29.2087 426.612 28.7256C426.307 28.217 425.862 27.9627 425.277 27.9627C424.717 27.9627 424.285 28.1915 423.98 28.6493C423.7 29.107 423.56 29.9462 423.56 31.1668V35.7823H420.928V31.739ZM438.404 53.0999V36.8885C438.404 35.0067 437.909 34.0658 436.917 34.0658C436.332 34.0658 435.861 34.3582 435.505 34.9431C435.149 35.5026 434.971 36.3926 434.971 37.6132V53.0999H432.454V32.5019H434.552L434.781 34.7524H434.895C435.455 32.8706 436.472 31.9297 437.947 31.9297C438.862 31.9297 439.587 32.3747 440.121 33.2648C440.655 34.1294 440.922 35.439 440.922 37.1936V53.0999H438.404ZM443.57 37.1555C443.57 33.6716 444.549 31.9297 446.507 31.9297C447.905 31.9297 448.859 32.8579 449.368 34.7142H449.482V24.4915H452V53.0999H449.902L449.673 50.8493H449.558C449.279 51.7648 448.872 52.4641 448.338 52.9473C447.829 53.4304 447.232 53.672 446.545 53.672C445.63 53.672 444.905 53.227 444.371 52.337C443.837 51.4469 443.57 50.1246 443.57 48.3699V37.1555ZM447.575 51.5359C448.134 51.5359 448.592 51.2562 448.948 50.6968C449.304 50.1119 449.482 49.2091 449.482 47.9885V37.5751C449.482 36.3799 449.304 35.5026 448.948 34.9431C448.592 34.3582 448.122 34.0658 447.537 34.0658C447.054 34.0658 446.685 34.2947 446.431 34.7524C446.202 35.1847 446.087 35.884 446.087 36.8503V48.7132C446.087 50.595 446.583 51.5359 447.575 51.5359ZM470.155 37.6895C470.155 39.495 469.723 40.8555 468.858 41.771C468.019 42.661 466.824 43.106 465.273 43.106H463.899V53.0999H461.268V26.3988H465.235C466.811 26.3988 468.019 26.8438 468.858 27.7338C469.723 28.6239 470.155 29.9716 470.155 31.7771V37.6895ZM467.523 31.3194C467.523 30.3531 467.332 29.6538 466.951 29.2214C466.595 28.7637 466.023 28.5348 465.235 28.5348H463.899V40.9699H465.235C466.76 40.9699 467.523 40.029 467.523 38.1472V31.3194ZM472.905 24.4915H475.422V53.0999H472.905V24.4915ZM484.507 53.0999L484.316 49.9339H484.202C483.922 51.0528 483.49 51.9555 482.905 52.6421C482.345 53.3287 481.659 53.672 480.845 53.672C479.981 53.672 479.294 53.227 478.785 52.337C478.302 51.4469 478.061 50.1246 478.061 48.3699V45.471C478.061 43.7163 478.315 42.4067 478.823 41.5421C479.332 40.6775 480.07 40.2452 481.036 40.2452C481.748 40.2452 482.358 40.4868 482.867 40.9699C483.375 41.4277 483.744 42.0761 483.973 42.9153H484.087V36.8885C484.087 35.8967 483.948 35.1847 483.668 34.7524C483.414 34.2947 482.981 34.0658 482.371 34.0658C481.786 34.0658 481.354 34.2819 481.074 34.7142C480.82 35.1465 480.693 35.8586 480.693 36.8503V38.7576H478.175V37.1555C478.175 33.6716 479.574 31.9297 482.371 31.9297C483.744 31.9297 484.787 32.362 485.499 33.2266C486.236 34.0912 486.605 35.4008 486.605 37.1555V53.0999H484.507ZM481.951 51.4978C482.587 51.4978 483.096 51.1036 483.477 50.3153C483.884 49.527 484.087 48.3445 484.087 46.7679V45.1658C484.087 44.3266 483.897 43.6528 483.515 43.1442C483.159 42.6356 482.689 42.3813 482.104 42.3813C481.595 42.3813 481.214 42.6101 480.96 43.0679C480.705 43.5002 480.578 44.1995 480.578 45.1658V48.6751C480.578 49.6669 480.693 50.3916 480.921 50.8493C481.15 51.2816 481.494 51.4978 481.951 51.4978ZM495.017 36.8122C495.017 35.8459 494.877 35.1465 494.597 34.7142C494.343 34.2565 493.924 34.0276 493.339 34.0276C492.754 34.0276 492.321 34.2565 492.042 34.7142C491.762 35.1465 491.622 35.8459 491.622 36.8122V48.6751C491.622 49.6669 491.762 50.3916 492.042 50.8493C492.321 51.3071 492.754 51.5359 493.339 51.5359C493.924 51.5359 494.343 51.3198 494.597 50.8875C494.877 50.4297 495.017 49.6923 495.017 48.6751V45.3947H497.535V48.3699C497.535 50.15 497.179 51.4851 496.466 52.3751C495.754 53.2397 494.712 53.672 493.339 53.672C491.965 53.672 490.91 53.2397 490.173 52.3751C489.461 51.4851 489.105 50.15 489.105 48.3699V37.1555C489.105 35.3754 489.461 34.0531 490.173 33.1885C490.91 32.3239 491.965 31.8916 493.339 31.8916C496.136 31.8916 497.535 33.6462 497.535 37.1555V40.1308H495.017V36.8122ZM508.43 45.3947V48.3699C508.43 50.15 508.074 51.4851 507.361 52.3751C506.649 53.2397 505.607 53.672 504.234 53.672C502.86 53.672 501.805 53.2397 501.068 52.3751C500.356 51.4851 500 50.15 500 48.3699V37.1555C500 35.4008 500.356 34.0912 501.068 33.2266C501.805 32.3366 502.86 31.8916 504.234 31.8916C507.031 31.8916 508.43 33.6462 508.43 37.1555V43.1823H502.517V48.6751C502.517 49.6669 502.657 50.3916 502.937 50.8493C503.216 51.3071 503.649 51.5359 504.234 51.5359C504.819 51.5359 505.238 51.3198 505.492 50.8875C505.772 50.4297 505.912 49.6923 505.912 48.6751V45.3947H508.43ZM505.912 36.8503C505.912 35.8586 505.772 35.1465 505.492 34.7142C505.238 34.2819 504.819 34.0658 504.234 34.0658C503.649 34.0658 503.216 34.2947 502.937 34.7524C502.657 35.1847 502.517 35.884 502.517 36.8503V41.3132H505.912V36.8503Z" fill="#111111"/>
<rect x="362.866" y="1.03475" width="203.383" height="84.1303" stroke="black" stroke-width="0.941081"/>
<rect x="567.189" y="1.03475" width="203.383" height="84.1303" fill="#F4CB60"/>
<path d="M635.478 35.2864C635.478 36.3545 635.338 37.2063 635.058 37.8421C634.779 38.4778 634.308 38.9356 633.647 39.2153V39.3679C634.308 39.6476 634.779 40.0926 635.058 40.7029C635.338 41.3132 635.478 42.1524 635.478 43.2204V48.4462C635.478 50.2009 635.097 51.5105 634.334 52.3751C633.596 53.2397 632.503 53.672 631.053 53.672C629.604 53.672 628.498 53.2397 627.735 52.3751C626.972 51.5105 626.59 50.2009 626.59 48.4462V43.2204H629.222V48.7514C629.222 49.7177 629.362 50.4297 629.642 50.8875C629.922 51.3198 630.392 51.5359 631.053 51.5359C631.689 51.5359 632.147 51.3198 632.426 50.8875C632.706 50.4297 632.846 49.7177 632.846 48.7514V43.4875C632.846 42.3431 632.693 41.5421 632.388 41.0844C632.109 40.6266 631.575 40.3978 630.786 40.3978H630.252V38.2617H630.786C631.549 38.2617 632.083 38.0328 632.388 37.5751C632.693 37.0919 632.846 36.2782 632.846 35.1338V30.7854C632.846 29.7936 632.706 29.0816 632.426 28.6493C632.147 28.217 631.689 28.0008 631.053 28.0008C630.392 28.0008 629.922 28.217 629.642 28.6493C629.362 29.0816 629.222 29.7936 629.222 30.7854V35.439H626.59V31.0905C626.59 29.3359 626.972 28.0263 627.735 27.1616C628.498 26.2716 629.604 25.8266 631.053 25.8266C632.503 25.8266 633.596 26.2716 634.334 27.1616C635.097 28.0263 635.478 29.3359 635.478 31.0905V35.2864ZM640.481 32.4637L640.595 35.7823H640.672C640.722 34.9685 640.862 34.3455 641.091 33.9132C641.32 33.4555 641.6 33.1249 641.93 32.9215C642.286 32.6926 642.668 32.5654 643.075 32.54C643.507 32.4892 643.927 32.4637 644.333 32.4637V35.0575C642.935 35.0575 641.981 35.4136 641.473 36.1256C640.989 36.8376 640.748 37.7404 640.748 38.8338V53.0617H638.23V32.4637H640.481ZM646.441 37.1555C646.441 33.6716 647.42 31.9297 649.378 31.9297C650.776 31.9297 651.73 32.8579 652.239 34.7142H652.353V24.4915H654.871V53.0999H652.773L652.544 50.8493H652.429C652.15 51.7648 651.743 52.4641 651.209 52.9473C650.7 53.4304 650.103 53.672 649.416 53.672C648.5 53.672 647.776 53.227 647.242 52.337C646.708 51.4469 646.441 50.1246 646.441 48.3699V37.1555ZM650.446 51.5359C651.005 51.5359 651.463 51.2562 651.819 50.6968C652.175 50.1119 652.353 49.2091 652.353 47.9885V37.5751C652.353 36.3799 652.175 35.5026 651.819 34.9431C651.463 34.3582 650.993 34.0658 650.408 34.0658C649.925 34.0658 649.556 34.2947 649.302 34.7524C649.073 35.1847 648.958 35.884 648.958 36.8503V48.7132C648.958 50.595 649.454 51.5359 650.446 51.5359ZM673.026 37.6895C673.026 39.495 672.594 40.8555 671.729 41.771C670.89 42.661 669.695 43.106 668.144 43.106H666.77V53.0999H664.138V26.3988H668.106C669.682 26.3988 670.89 26.8438 671.729 27.7338C672.594 28.6239 673.026 29.9716 673.026 31.7771V37.6895ZM670.394 31.3194C670.394 30.3531 670.203 29.6538 669.822 29.2214C669.466 28.7637 668.894 28.5348 668.106 28.5348H666.77V40.9699H668.106C669.631 40.9699 670.394 40.029 670.394 38.1472V31.3194ZM675.776 24.4915H678.293V53.0999H675.776V24.4915ZM687.378 53.0999L687.187 49.9339H687.073C686.793 51.0528 686.361 51.9555 685.776 52.6421C685.216 53.3287 684.53 53.672 683.716 53.672C682.852 53.672 682.165 53.227 681.656 52.337C681.173 51.4469 680.932 50.1246 680.932 48.3699V45.471C680.932 43.7163 681.186 42.4067 681.694 41.5421C682.203 40.6775 682.941 40.2452 683.907 40.2452C684.619 40.2452 685.229 40.4868 685.738 40.9699C686.246 41.4277 686.615 42.0761 686.844 42.9153H686.958V36.8885C686.958 35.8967 686.819 35.1847 686.539 34.7524C686.285 34.2947 685.852 34.0658 685.242 34.0658C684.657 34.0658 684.225 34.2819 683.945 34.7142C683.691 35.1465 683.564 35.8586 683.564 36.8503V38.7576H681.046V37.1555C681.046 33.6716 682.445 31.9297 685.242 31.9297C686.615 31.9297 687.658 32.362 688.37 33.2266C689.107 34.0912 689.476 35.4008 689.476 37.1555V53.0999H687.378ZM684.822 51.4978C685.458 51.4978 685.967 51.1036 686.348 50.3153C686.755 49.527 686.958 48.3445 686.958 46.7679V45.1658C686.958 44.3266 686.768 43.6528 686.386 43.1442C686.03 42.6356 685.56 42.3813 684.975 42.3813C684.466 42.3813 684.085 42.6101 683.831 43.0679C683.576 43.5002 683.449 44.1995 683.449 45.1658V48.6751C683.449 49.6669 683.564 50.3916 683.792 50.8493C684.021 51.2816 684.365 51.4978 684.822 51.4978ZM697.888 36.8122C697.888 35.8459 697.748 35.1465 697.468 34.7142C697.214 34.2565 696.794 34.0276 696.21 34.0276C695.625 34.0276 695.192 34.2565 694.913 34.7142C694.633 35.1465 694.493 35.8459 694.493 36.8122V48.6751C694.493 49.6669 694.633 50.3916 694.913 50.8493C695.192 51.3071 695.625 51.5359 696.21 51.5359C696.794 51.5359 697.214 51.3198 697.468 50.8875C697.748 50.4297 697.888 49.6923 697.888 48.6751V45.3947H700.405V48.3699C700.405 50.15 700.049 51.4851 699.337 52.3751C698.625 53.2397 697.583 53.672 696.21 53.672C694.836 53.672 693.781 53.2397 693.044 52.3751C692.332 51.4851 691.976 50.15 691.976 48.3699V37.1555C691.976 35.3754 692.332 34.0531 693.044 33.1885C693.781 32.3239 694.836 31.8916 696.21 31.8916C699.007 31.8916 700.405 33.6462 700.405 37.1555V40.1308H697.888V36.8122ZM711.3 45.3947V48.3699C711.3 50.15 710.944 51.4851 710.232 52.3751C709.52 53.2397 708.478 53.672 707.105 53.672C705.731 53.672 704.676 53.2397 703.939 52.3751C703.227 51.4851 702.871 50.15 702.871 48.3699V37.1555C702.871 35.4008 703.227 34.0912 703.939 33.2266C704.676 32.3366 705.731 31.8916 707.105 31.8916C709.902 31.8916 711.3 33.6462 711.3 37.1555V43.1823H705.388V48.6751C705.388 49.6669 705.528 50.3916 705.808 50.8493C706.087 51.3071 706.52 51.5359 707.105 51.5359C707.689 51.5359 708.109 51.3198 708.363 50.8875C708.643 50.4297 708.783 49.6923 708.783 48.6751V45.3947H711.3ZM708.783 36.8503C708.783 35.8586 708.643 35.1465 708.363 34.7142C708.109 34.2819 707.689 34.0658 707.105 34.0658C706.52 34.0658 706.087 34.2947 705.808 34.7524C705.528 35.1847 705.388 35.884 705.388 36.8503V41.3132H708.783V36.8503Z" fill="#111111"/>
<rect x="567.189" y="1.03475" width="203.383" height="84.1303" stroke="black" stroke-width="0.941081"/>
<rect x="158.542" y="82.0347" width="203.383" height="84.0589" fill="#FF6600"/>
<path d="M238.11 134.564L238.371 132.891H229.352L234.502 129.022C238.581 125.989 240.228 123.61 240.228 120.629C240.228 117.596 237.979 115.479 234.763 115.479C231.155 115.479 228.829 117.779 228.149 122.015H229.979C230.476 118.799 232.071 117.1 234.633 117.1C236.855 117.1 238.371 118.564 238.371 120.682C238.371 123.165 236.986 125.152 233.561 127.714L226.319 133.126L226.083 134.564H238.11ZM242.601 127.401C242.601 131.95 244.823 134.904 248.928 134.904C253.843 134.904 257.582 129.754 257.582 123.008C257.582 118.485 255.333 115.505 251.229 115.505C246.314 115.505 242.601 120.655 242.601 127.401ZM244.353 127.322C244.353 121.649 247.255 117.152 251.072 117.152C254.209 117.152 255.804 119.453 255.804 123.087C255.804 128.76 252.928 133.257 249.111 133.257C245.974 133.257 244.353 130.982 244.353 127.322ZM260.69 127.401C260.69 131.95 262.912 134.904 267.017 134.904C271.932 134.904 275.67 129.754 275.67 123.008C275.67 118.485 273.422 115.505 269.317 115.505C264.402 115.505 260.69 120.655 260.69 127.401ZM262.441 127.322C262.441 121.649 265.343 117.152 269.16 117.152C272.298 117.152 273.893 119.453 273.893 123.087C273.893 128.76 271.017 133.257 267.2 133.257C264.062 133.257 262.441 130.982 262.441 127.322ZM278.778 127.401C278.778 131.95 281.001 134.904 285.105 134.904C290.02 134.904 293.759 129.754 293.759 123.008C293.759 118.485 291.511 115.505 287.406 115.505C282.491 115.505 278.778 120.655 278.778 127.401ZM280.53 127.322C280.53 121.649 283.432 117.152 287.249 117.152C290.386 117.152 291.981 119.453 291.981 123.087C291.981 128.76 289.105 133.257 285.288 133.257C282.151 133.257 280.53 130.982 280.53 127.322Z" fill="#111111"/>
<rect x="158.542" y="82.0347" width="203.383" height="84.0589" stroke="black" stroke-width="0.941081"/>
<rect x="362.866" y="82.0347" width="203.383" height="84.0589" fill="#FF6600"/>
<path d="M440.418 117.466L437.725 134.564H439.477L442.431 115.845H436.993L436.706 117.466H440.418ZM444.214 129.727C444.214 132.786 446.724 134.904 450.489 134.904C454.463 134.904 457.391 132.577 457.391 129.022C457.391 127.035 456.319 125.492 454.515 124.786C456.711 124.133 458.176 122.459 458.176 120.054C458.176 117.518 455.875 115.479 452.607 115.479C449.051 115.479 446.306 117.544 446.306 120.629C446.306 122.381 447.143 123.662 448.633 124.394C446.018 125.021 444.214 127.035 444.214 129.727ZM448.031 120.655C448.031 118.485 449.914 117.1 452.371 117.1C454.829 117.1 456.398 118.407 456.398 120.211C456.398 122.538 454.62 123.897 452.084 123.897C449.783 123.897 448.031 122.852 448.031 120.655ZM445.992 129.649C445.992 127.008 448.11 125.466 451.012 125.466C453.809 125.466 455.613 126.852 455.613 129.048C455.613 131.688 453.47 133.283 450.567 133.283C447.822 133.283 445.992 131.871 445.992 129.649ZM461.12 127.401C461.12 131.95 463.342 134.904 467.447 134.904C472.362 134.904 476.1 129.754 476.1 123.008C476.1 118.485 473.852 115.505 469.747 115.505C464.832 115.505 461.12 120.655 461.12 127.401ZM462.871 127.322C462.871 121.649 465.773 117.152 469.59 117.152C472.728 117.152 474.323 119.453 474.323 123.087C474.323 128.76 471.447 133.257 467.63 133.257C464.492 133.257 462.871 130.982 462.871 127.322ZM479.208 127.401C479.208 131.95 481.431 134.904 485.535 134.904C490.45 134.904 494.189 129.754 494.189 123.008C494.189 118.485 491.941 115.505 487.836 115.505C482.921 115.505 479.208 120.655 479.208 127.401ZM480.96 127.322C480.96 121.649 483.862 117.152 487.679 117.152C490.816 117.152 492.411 119.453 492.411 123.087C492.411 128.76 489.535 133.257 485.718 133.257C482.581 133.257 480.96 130.982 480.96 127.322Z" fill="#111111"/>
<rect x="362.866" y="82.0347" width="203.383" height="84.0589" stroke="black" stroke-width="0.941081"/>
<rect x="567.189" y="82.0347" width="203.383" height="84.0589" fill="#FF6600"/>
<path d="M645.1 117.466L642.407 134.564H644.158L647.113 115.845H641.675L641.387 117.466H645.1ZM655.379 134.878C659.04 134.878 661.732 132.133 661.732 128.185C661.732 124.655 659.353 122.172 655.902 122.172C654.621 122.172 653.497 122.538 652.582 123.244L654.83 117.518H662.334L662.595 115.845H653.758L650.072 125.257L651.405 125.701C652.556 124.342 653.863 123.74 655.51 123.74C658.151 123.74 659.902 125.518 659.902 128.29C659.902 131.322 657.994 133.283 655.327 133.283C652.66 133.283 650.883 131.558 650.883 128.865H649.105C649.105 132.473 651.615 134.878 655.379 134.878ZM665.086 127.401C665.086 131.95 667.308 134.904 671.413 134.904C676.328 134.904 680.067 129.754 680.067 123.008C680.067 118.485 677.818 115.505 673.714 115.505C668.798 115.505 665.086 120.655 665.086 127.401ZM666.838 127.322C666.838 121.649 669.74 117.152 673.557 117.152C676.694 117.152 678.289 119.453 678.289 123.087C678.289 128.76 675.413 133.257 671.596 133.257C668.459 133.257 666.838 130.982 666.838 127.322ZM683.175 127.401C683.175 131.95 685.397 134.904 689.502 134.904C694.417 134.904 698.155 129.754 698.155 123.008C698.155 118.485 695.907 115.505 691.802 115.505C686.887 115.505 683.175 120.655 683.175 127.401ZM684.926 127.322C684.926 121.649 687.828 117.152 691.645 117.152C694.783 117.152 696.377 119.453 696.377 123.087C696.377 128.76 693.502 133.257 689.685 133.257C686.547 133.257 684.926 130.982 684.926 127.322Z" fill="#111111"/>
<rect x="567.189" y="82.0347" width="203.383" height="84.0589" stroke="black" stroke-width="0.941081"/>
<rect x="158.542" y="82.0347" width="612.03" height="84.0589" stroke="black" stroke-width="0.941081"/>
<rect x="158.542" y="167.035" width="203.383" height="84.0589" fill="#E85D00"/>
<path d="M236.452 202.466L233.759 219.564H235.511L238.465 200.845H233.027L232.74 202.466H236.452ZM246.732 219.878C250.392 219.878 253.085 217.133 253.085 213.185C253.085 209.655 250.706 207.172 247.255 207.172C245.974 207.172 244.85 207.538 243.935 208.244L246.183 202.518H253.687L253.948 200.845H245.111L241.425 210.257L242.758 210.701C243.909 209.342 245.216 208.74 246.863 208.74C249.503 208.74 251.255 210.518 251.255 213.29C251.255 216.322 249.347 218.283 246.68 218.283C244.013 218.283 242.235 216.558 242.235 213.865H240.457C240.457 217.473 242.967 219.878 246.732 219.878ZM256.439 212.401C256.439 216.95 258.661 219.904 262.766 219.904C267.681 219.904 271.419 214.754 271.419 208.008C271.419 203.485 269.171 200.505 265.066 200.505C260.151 200.505 256.439 205.655 256.439 212.401ZM258.19 212.322C258.19 206.649 261.092 202.152 264.909 202.152C268.047 202.152 269.642 204.453 269.642 208.087C269.642 213.76 266.766 218.257 262.949 218.257C259.811 218.257 258.19 215.982 258.19 212.322ZM274.527 212.401C274.527 216.95 276.75 219.904 280.854 219.904C285.769 219.904 289.508 214.754 289.508 208.008C289.508 203.485 287.26 200.505 283.155 200.505C278.24 200.505 274.527 205.655 274.527 212.401ZM276.279 212.322C276.279 206.649 279.181 202.152 282.998 202.152C286.135 202.152 287.73 204.453 287.73 208.087C287.73 213.76 284.854 218.257 281.037 218.257C277.9 218.257 276.279 215.982 276.279 212.322Z" fill="#111111"/>
<rect x="158.542" y="167.035" width="203.383" height="84.0589" stroke="black" stroke-width="0.941081"/>
<rect x="362.866" y="167.035" width="203.383" height="84.0589" fill="#E85D00"/>
<path d="M441.031 202.466L438.338 219.564H440.09L443.044 200.845H437.606L437.319 202.466H441.031ZM456.016 219.564L456.277 217.891H447.257L452.408 214.022C456.486 210.989 458.133 208.61 458.133 205.629C458.133 202.596 455.885 200.479 452.669 200.479C449.061 200.479 446.734 202.779 446.055 207.015H447.885C448.382 203.799 449.976 202.1 452.539 202.1C454.761 202.1 456.277 203.564 456.277 205.682C456.277 208.165 454.892 210.152 451.467 212.714L444.225 218.126L443.989 219.564H456.016ZM460.507 212.401C460.507 216.95 462.729 219.904 466.834 219.904C471.749 219.904 475.488 214.754 475.488 208.008C475.488 203.485 473.239 200.505 469.135 200.505C464.219 200.505 460.507 205.655 460.507 212.401ZM462.259 212.322C462.259 206.649 465.161 202.152 468.978 202.152C472.115 202.152 473.71 204.453 473.71 208.087C473.71 213.76 470.834 218.257 467.017 218.257C463.879 218.257 462.259 215.982 462.259 212.322ZM478.596 212.401C478.596 216.95 480.818 219.904 484.922 219.904C489.838 219.904 493.576 214.754 493.576 208.008C493.576 203.485 491.328 200.505 487.223 200.505C482.308 200.505 478.596 205.655 478.596 212.401ZM480.347 212.322C480.347 206.649 483.249 202.152 487.066 202.152C490.204 202.152 491.798 204.453 491.798 208.087C491.798 213.76 488.923 218.257 485.105 218.257C481.968 218.257 480.347 215.982 480.347 212.322Z" fill="#111111"/>
<rect x="362.866" y="167.035" width="203.383" height="84.0589" stroke="black" stroke-width="0.941081"/>
<rect x="567.189" y="167.035" width="203.383" height="84.0589" fill="#E85D00"/>
<path d="M643.772 202.466L641.079 219.564H642.831L645.785 200.845H640.347L640.059 202.466H643.772ZM648.325 212.401C648.325 216.95 650.547 219.904 654.652 219.904C659.567 219.904 663.306 214.754 663.306 208.008C663.306 203.485 661.057 200.505 656.953 200.505C652.037 200.505 648.325 205.655 648.325 212.401ZM650.077 212.322C650.077 206.649 652.979 202.152 656.796 202.152C659.933 202.152 661.528 204.453 661.528 208.087C661.528 213.76 658.652 218.257 654.835 218.257C651.698 218.257 650.077 215.982 650.077 212.322ZM666.414 212.401C666.414 216.95 668.636 219.904 672.74 219.904C677.656 219.904 681.394 214.754 681.394 208.008C681.394 203.485 679.146 200.505 675.041 200.505C670.126 200.505 666.414 205.655 666.414 212.401ZM668.165 212.322C668.165 206.649 671.067 202.152 674.884 202.152C678.022 202.152 679.616 204.453 679.616 208.087C679.616 213.76 676.741 218.257 672.924 218.257C669.786 218.257 668.165 215.982 668.165 212.322ZM684.502 212.401C684.502 216.95 686.724 219.904 690.829 219.904C695.744 219.904 699.483 214.754 699.483 208.008C699.483 203.485 697.235 200.505 693.13 200.505C688.215 200.505 684.502 205.655 684.502 212.401ZM686.254 212.322C686.254 206.649 689.156 202.152 692.973 202.152C696.11 202.152 697.705 204.453 697.705 208.087C697.705 213.76 694.829 218.257 691.012 218.257C687.875 218.257 686.254 215.982 686.254 212.322Z" fill="#111111"/>
<rect x="567.189" y="167.035" width="203.383" height="84.0589" stroke="black" stroke-width="0.941081"/>
<rect x="158.542" y="167.035" width="612.03" height="84.0589" stroke="black" stroke-width="0.941081"/>
<rect x="158.542" y="252.035" width="203.383" height="84.0589" fill="#FF8A00"/>
<path d="M235.125 287.466L232.432 304.564H234.183L237.138 285.845H231.7L231.412 287.466H235.125ZM239.678 297.401C239.678 301.95 241.9 304.904 246.005 304.904C250.92 304.904 254.658 299.754 254.658 293.008C254.658 288.485 252.41 285.505 248.305 285.505C243.39 285.505 239.678 290.655 239.678 297.401ZM241.429 297.322C241.429 291.649 244.331 287.152 248.148 287.152C251.286 287.152 252.881 289.453 252.881 293.087C252.881 298.76 250.005 303.257 246.188 303.257C243.05 303.257 241.429 300.982 241.429 297.322ZM257.766 297.401C257.766 301.95 259.989 304.904 264.093 304.904C269.008 304.904 272.747 299.754 272.747 293.008C272.747 288.485 270.499 285.505 266.394 285.505C261.479 285.505 257.766 290.655 257.766 297.401ZM259.518 297.322C259.518 291.649 262.42 287.152 266.237 287.152C269.374 287.152 270.969 289.453 270.969 293.087C270.969 298.76 268.093 303.257 264.276 303.257C261.139 303.257 259.518 300.982 259.518 297.322ZM275.855 297.401C275.855 301.95 278.077 304.904 282.182 304.904C287.097 304.904 290.836 299.754 290.836 293.008C290.836 288.485 288.587 285.505 284.483 285.505C279.567 285.505 275.855 290.655 275.855 297.401ZM277.607 297.322C277.607 291.649 280.509 287.152 284.326 287.152C287.463 287.152 289.058 289.453 289.058 293.087C289.058 298.76 286.182 303.257 282.365 303.257C279.228 303.257 277.607 300.982 277.607 297.322Z" fill="#111111"/>
<rect x="158.542" y="252.035" width="203.383" height="84.0589" stroke="black" stroke-width="0.941081"/>
<rect x="362.866" y="252.035" width="203.383" height="84.0589" fill="#FF8A00"/>
<path d="M439.702 299.727C439.702 302.786 442.212 304.904 445.977 304.904C449.951 304.904 452.879 302.577 452.879 299.022C452.879 297.035 451.807 295.492 450.003 294.786C452.199 294.133 453.663 292.459 453.663 290.054C453.663 287.518 451.362 285.479 448.094 285.479C444.539 285.479 441.793 287.544 441.793 290.629C441.793 292.381 442.63 293.662 444.12 294.394C441.506 295.021 439.702 297.035 439.702 299.727ZM443.519 290.655C443.519 288.485 445.401 287.1 447.859 287.1C450.317 287.1 451.885 288.407 451.885 290.211C451.885 292.538 450.107 293.897 447.571 293.897C445.271 293.897 443.519 292.852 443.519 290.655ZM441.48 299.649C441.48 297.008 443.597 295.466 446.499 295.466C449.297 295.466 451.101 296.852 451.101 299.048C451.101 301.688 448.957 303.283 446.055 303.283C443.31 303.283 441.48 301.871 441.48 299.649ZM456.607 297.401C456.607 301.95 458.829 304.904 462.934 304.904C467.849 304.904 471.588 299.754 471.588 293.008C471.588 288.485 469.339 285.505 465.235 285.505C460.32 285.505 456.607 290.655 456.607 297.401ZM458.359 297.322C458.359 291.649 461.261 287.152 465.078 287.152C468.215 287.152 469.81 289.453 469.81 293.087C469.81 298.76 466.934 303.257 463.117 303.257C459.98 303.257 458.359 300.982 458.359 297.322ZM474.696 297.401C474.696 301.95 476.918 304.904 481.023 304.904C485.938 304.904 489.677 299.754 489.677 293.008C489.677 288.485 487.428 285.505 483.323 285.505C478.408 285.505 474.696 290.655 474.696 297.401ZM476.447 297.322C476.447 291.649 479.35 287.152 483.167 287.152C486.304 287.152 487.899 289.453 487.899 293.087C487.899 298.76 485.023 303.257 481.206 303.257C478.068 303.257 476.447 300.982 476.447 297.322Z" fill="#111111"/>
<rect x="362.866" y="252.035" width="203.383" height="84.0589" stroke="black" stroke-width="0.941081"/>
<rect x="567.189" y="252.035" width="203.383" height="84.0589" fill="#FF8A00"/>
<path d="M650.867 304.878C654.527 304.878 657.22 302.133 657.22 298.185C657.22 294.655 654.841 292.172 651.39 292.172C650.109 292.172 648.985 292.538 648.069 293.244L650.318 287.518H657.821L658.083 285.845H649.246L645.56 295.257L646.893 295.701C648.043 294.342 649.351 293.74 650.998 293.74C653.638 293.74 655.39 295.518 655.39 298.29C655.39 301.322 653.481 303.283 650.815 303.283C648.148 303.283 646.37 301.558 646.37 298.865H644.592C644.592 302.473 647.102 304.878 650.867 304.878ZM660.573 297.401C660.573 301.95 662.796 304.904 666.9 304.904C671.816 304.904 675.554 299.754 675.554 293.008C675.554 288.485 673.306 285.505 669.201 285.505C664.286 285.505 660.573 290.655 660.573 297.401ZM662.325 297.322C662.325 291.649 665.227 287.152 669.044 287.152C672.182 287.152 673.776 289.453 673.776 293.087C673.776 298.76 670.9 303.257 667.083 303.257C663.946 303.257 662.325 300.982 662.325 297.322ZM678.662 297.401C678.662 301.95 680.884 304.904 684.989 304.904C689.904 304.904 693.643 299.754 693.643 293.008C693.643 288.485 691.394 285.505 687.29 285.505C682.375 285.505 678.662 290.655 678.662 297.401ZM680.414 297.322C680.414 291.649 683.316 287.152 687.133 287.152C690.27 287.152 691.865 289.453 691.865 293.087C691.865 298.76 688.989 303.257 685.172 303.257C682.035 303.257 680.414 300.982 680.414 297.322Z" fill="#111111"/>
<rect x="567.189" y="252.035" width="203.383" height="84.0589" stroke="black" stroke-width="0.941081"/>
<rect x="158.542" y="252.035" width="612.03" height="84.0589" stroke="black" stroke-width="0.941081"/>
</svg>
