<?xml version="1.0" encoding="UTF-8"?>
<svg xmlns="http://www.w3.org/2000/svg" xmlns:xlink="http://www.w3.org/1999/xlink" width="300px" height="170px" viewBox="0 0 300 170" version="1.1">
<defs>
<linearGradient id="linear0" gradientUnits="userSpaceOnUse" x1="200.5" y1="0" x2="200.5" y2="171" gradientTransform="matrix(0.74813,0,0,0.994152,0,0)">
<stop offset="0.180208" style="stop-color:rgb(100%,40%,0%);stop-opacity:1;"/>
<stop offset="0.763542" style="stop-color:rgb(75.294118%,15.294118%,15.294118%);stop-opacity:1;"/>
</linearGradient>
</defs>
<g id="surface1">
<path style=" stroke:none;fill-rule:evenodd;fill:url(#linear0);" d="M 228.394531 0 L 6.734375 0 C 3.015625 0 0 4.003906 0 8.949219 L 0 57.421875 C 9.949219 57.722656 17.957031 69.953125 17.957031 85 C 17.957031 100.046875 9.949219 112.277344 0 112.578125 L 0 161.050781 C 0 165.996094 3.015625 170 6.734375 170 L 227.707031 170 C 229.207031 157.046875 236.71875 147.195312 245.761719 147.195312 C 254.800781 147.195312 262.3125 157.046875 263.816406 170 L 293.265625 170 C 296.984375 170 300 165.996094 300 161.050781 L 300 8.949219 C 300 4.003906 296.984375 0 293.265625 0 L 264.625 0 C 263.269531 13.222656 255.675781 23.351562 246.507812 23.351562 C 237.34375 23.351562 229.746094 13.222656 228.394531 0 Z M 228.394531 0 "/>
<path style="fill:none;stroke-width:3;stroke-linecap:round;stroke-linejoin:round;stroke:rgb(14.509804%,14.509804%,14.509804%);stroke-opacity:1;stroke-dasharray:8,8;stroke-miterlimit:4;" d="M 328.997383 21.999748 L 328.997383 148.002231 " transform="matrix(0.74813,0,0,0.994152,0,0)"/>
<path style=" stroke:none;fill-rule:nonzero;fill:rgb(0%,0%,0%);fill-opacity:1;" d="M 292.519531 31.8125 L 263.339844 31.8125 L 263.339844 33.800781 L 292.519531 33.800781 Z M 292.519531 31.8125 "/>
<path style=" stroke:none;fill-rule:nonzero;fill:rgb(0%,0%,0%);fill-opacity:1;" d="M 292.519531 122.28125 L 263.339844 122.28125 L 263.339844 124.269531 L 292.519531 124.269531 Z M 292.519531 122.28125 "/>
<path style=" stroke:none;fill-rule:nonzero;fill:rgb(0%,0%,0%);fill-opacity:1;" d="M 292.519531 34.796875 L 263.339844 34.796875 L 263.339844 35.792969 L 292.519531 35.792969 Z M 292.519531 34.796875 "/>
<path style=" stroke:none;fill-rule:nonzero;fill:rgb(0%,0%,0%);fill-opacity:1;" d="M 292.519531 125.265625 L 263.339844 125.265625 L 263.339844 126.253906 L 292.519531 126.253906 Z M 292.519531 125.265625 "/>
<path style=" stroke:none;fill-rule:nonzero;fill:rgb(0%,0%,0%);fill-opacity:1;" d="M 292.519531 36.78125 L 263.339844 36.78125 L 263.339844 39.765625 L 292.519531 39.765625 Z M 292.519531 36.78125 "/>
<path style=" stroke:none;fill-rule:nonzero;fill:rgb(0%,0%,0%);fill-opacity:1;" d="M 292.519531 127.25 L 263.339844 127.25 L 263.339844 130.234375 L 292.519531 130.234375 Z M 292.519531 127.25 "/>
<path style=" stroke:none;fill-rule:nonzero;fill:rgb(0%,0%,0%);fill-opacity:1;" d="M 292.519531 45.730469 L 263.339844 45.730469 L 263.339844 47.71875 L 292.519531 47.71875 Z M 292.519531 45.730469 "/>
<path style=" stroke:none;fill-rule:nonzero;fill:rgb(0%,0%,0%);fill-opacity:1;" d="M 292.519531 136.199219 L 263.339844 136.199219 L 263.339844 138.1875 L 292.519531 138.1875 Z M 292.519531 136.199219 "/>
<path style=" stroke:none;fill-rule:nonzero;fill:rgb(0%,0%,0%);fill-opacity:1;" d="M 292.519531 51.699219 L 263.339844 51.699219 L 263.339844 54.675781 L 292.519531 54.675781 Z M 292.519531 51.699219 "/>
<path style=" stroke:none;fill-rule:nonzero;fill:rgb(0%,0%,0%);fill-opacity:1;" d="M 292.519531 55.671875 L 263.339844 55.671875 L 263.339844 56.667969 L 292.519531 56.667969 Z M 292.519531 55.671875 "/>
<path style=" stroke:none;fill-rule:nonzero;fill:rgb(0%,0%,0%);fill-opacity:1;" d="M 292.519531 61.636719 L 263.339844 61.636719 L 263.339844 63.625 L 292.519531 63.625 Z M 292.519531 61.636719 "/>
<path style=" stroke:none;fill-rule:nonzero;fill:rgb(0%,0%,0%);fill-opacity:1;" d="M 292.519531 64.621094 L 263.339844 64.621094 L 263.339844 66.609375 L 292.519531 66.609375 Z M 292.519531 64.621094 "/>
<path style=" stroke:none;fill-rule:nonzero;fill:rgb(0%,0%,0%);fill-opacity:1;" d="M 292.519531 71.578125 L 263.339844 71.578125 L 263.339844 72.574219 L 292.519531 72.574219 Z M 292.519531 71.578125 "/>
<path style=" stroke:none;fill-rule:nonzero;fill:rgb(0%,0%,0%);fill-opacity:1;" d="M 292.519531 73.566406 L 263.339844 73.566406 L 263.339844 74.5625 L 292.519531 74.5625 Z M 292.519531 73.566406 "/>
<path style=" stroke:none;fill-rule:nonzero;fill:rgb(0%,0%,0%);fill-opacity:1;" d="M 292.519531 76.546875 L 263.339844 76.546875 L 263.339844 78.535156 L 292.519531 78.535156 Z M 292.519531 76.546875 "/>
<path style=" stroke:none;fill-rule:nonzero;fill:rgb(0%,0%,0%);fill-opacity:1;" d="M 292.519531 79.53125 L 263.339844 79.53125 L 263.339844 80.527344 L 292.519531 80.527344 Z M 292.519531 79.53125 "/>
<path style=" stroke:none;fill-rule:nonzero;fill:rgb(0%,0%,0%);fill-opacity:1;" d="M 292.519531 82.515625 L 263.339844 82.515625 L 263.339844 84.503906 L 292.519531 84.503906 Z M 292.519531 82.515625 "/>
<path style=" stroke:none;fill-rule:nonzero;fill:rgb(0%,0%,0%);fill-opacity:1;" d="M 292.519531 85.496094 L 263.339844 85.496094 L 263.339844 86.488281 L 292.519531 86.488281 Z M 292.519531 85.496094 "/>
<path style=" stroke:none;fill-rule:nonzero;fill:rgb(0%,0%,0%);fill-opacity:1;" d="M 292.519531 88.480469 L 263.339844 88.480469 L 263.339844 89.472656 L 292.519531 89.472656 Z M 292.519531 88.480469 "/>
<path style=" stroke:none;fill-rule:nonzero;fill:rgb(0%,0%,0%);fill-opacity:1;" d="M 292.519531 92.457031 L 263.339844 92.457031 L 263.339844 93.453125 L 292.519531 93.453125 Z M 292.519531 92.457031 "/>
<path style=" stroke:none;fill-rule:nonzero;fill:rgb(0%,0%,0%);fill-opacity:1;" d="M 292.519531 94.441406 L 263.339844 94.441406 L 263.339844 95.4375 L 292.519531 95.4375 Z M 292.519531 94.441406 "/>
<path style=" stroke:none;fill-rule:nonzero;fill:rgb(0%,0%,0%);fill-opacity:1;" d="M 292.519531 97.425781 L 263.339844 97.425781 L 263.339844 99.417969 L 292.519531 99.417969 Z M 292.519531 97.425781 "/>
<path style=" stroke:none;fill-rule:nonzero;fill:rgb(0%,0%,0%);fill-opacity:1;" d="M 292.519531 100.410156 L 263.339844 100.410156 L 263.339844 101.40625 L 292.519531 101.40625 Z M 292.519531 100.410156 "/>
<path style=" stroke:none;fill-rule:nonzero;fill:rgb(0%,0%,0%);fill-opacity:1;" d="M 292.519531 103.390625 L 263.339844 103.390625 L 263.339844 104.386719 L 292.519531 104.386719 Z M 292.519531 103.390625 "/>
<path style=" stroke:none;fill-rule:nonzero;fill:rgb(0%,0%,0%);fill-opacity:1;" d="M 292.519531 104.386719 L 263.339844 104.386719 L 263.339844 105.378906 L 292.519531 105.378906 Z M 292.519531 104.386719 "/>
<path style=" stroke:none;fill-rule:nonzero;fill:rgb(0%,0%,0%);fill-opacity:1;" d="M 292.519531 106.375 L 263.339844 106.375 L 263.339844 107.371094 L 292.519531 107.371094 Z M 292.519531 106.375 "/>
<path style=" stroke:none;fill-rule:nonzero;fill:rgb(0%,0%,0%);fill-opacity:1;" d="M 292.519531 109.359375 L 263.339844 109.359375 L 263.339844 111.34375 L 292.519531 111.34375 Z M 292.519531 109.359375 "/>
<path style=" stroke:none;fill-rule:nonzero;fill:rgb(0%,0%,0%);fill-opacity:1;" d="M 292.519531 115.324219 L 263.339844 115.324219 L 263.339844 117.3125 L 292.519531 117.3125 Z M 292.519531 115.324219 "/>
<path style=" stroke:none;fill-rule:nonzero;fill:rgb(0%,0%,0%);fill-opacity:1;" d="M 292.519531 118.300781 L 263.339844 118.300781 L 263.339844 120.292969 L 292.519531 120.292969 Z M 292.519531 118.300781 "/>
</g>
</svg>
